<svg width="21" height="22" viewBox="0 0 21 22" fill="none" xmlns="http://www.w3.org/2000/svg">
<path d="M10.4277 5.30713V16.199" stroke="#5D5D5D" stroke-width="1.09573" stroke-linecap="round"/>
<path d="M5.07227 10.7529H15.7834" stroke="#5D5D5D" stroke-width="1.09573" stroke-linecap="round"/>
<path d="M0.787109 10.7529C0.787109 9.46557 1.03646 8.19087 1.52091 7.00155C2.00537 5.81224 2.71545 4.7316 3.61061 3.82134C4.50577 2.91107 5.56848 2.18901 6.73807 1.69638C7.90765 1.20375 9.1612 0.950195 10.4272 0.950195C11.6931 0.950195 12.9467 1.20375 14.1162 1.69638C15.2858 2.18901 16.3485 2.91107 17.2437 3.82134C18.1389 4.7316 18.8489 5.81224 19.3334 7.00155C19.8178 8.19087 20.0672 9.46557 20.0672 10.7529C20.0672 13.3527 19.0515 15.8461 17.2437 17.6844C15.4358 19.5228 12.9839 20.5556 10.4272 20.5556C7.87045 20.5556 5.41847 19.5228 3.61061 17.6844C1.80275 15.8461 0.787109 13.3527 0.787109 10.7529V10.7529Z" stroke="#5D5D5D" stroke-width="1.09573" stroke-linecap="round"/>
</svg>
