<svg width="659" height="524" viewBox="0 0 659 524" fill="none" xmlns="http://www.w3.org/2000/svg">
<path fill-rule="evenodd" clip-rule="evenodd" d="M338.068 22.0602C398.96 31.3262 452.257 54.5093 501.91 90.9274C564.582 136.894 642.221 178.045 655.174 254.642C669.39 338.704 634.167 430.457 568.54 484.935C506.483 536.447 418.505 524.078 338.068 517.872C266.146 512.323 186.542 507.521 140.637 451.92C96.8798 398.92 124.872 323.225 120.742 254.642C116.106 177.645 62.6746 88.4863 115.358 32.1049C168.079 -24.3174 261.696 10.4385 338.068 22.0602Z" fill="#C9FFFF"/>
<path fill-rule="evenodd" clip-rule="evenodd" d="M273.282 193.54C266.362 198.556 267.463 208.427 269.547 215.599C272.614 226.159 278.724 235.934 285.694 244.36C298.059 259.308 319.051 276.093 338.4 262.97C355.631 251.282 366.5 227.699 370.252 207.835C371.412 201.696 372.956 192.549 367.508 187.934C359.454 181.113 345.245 182.353 335.522 183.232C329.118 183.81 322.94 185.772 316.612 184.851C301.909 182.709 285.546 184.649 273.282 193.54Z" fill="#FC8BA9"/>
<path fill-rule="evenodd" clip-rule="evenodd" d="M571.387 271.764C557.369 289.546 533.536 292.356 512.369 292.182C499.658 292.076 486.923 291.12 474.462 288.53C467.744 287.133 461.071 285.283 454.58 283.06C450.292 281.592 443.909 280.858 442.084 276.263C437.272 264.142 440.813 248.941 442.795 236.637C443.803 230.379 444.56 224.084 445.54 217.821C446.168 213.814 446.468 209.38 448.148 205.632C450.114 201.24 452.597 202.117 456.757 203.33C462.485 205.003 468.369 205.698 474.259 206.597C488.636 208.793 501.179 213.22 514.245 219.495C527.165 225.698 539.697 231.823 551.221 240.449C557.06 244.821 562.091 249.566 566.778 255.138C570.399 259.442 575.802 266.162 571.387 271.764ZM510.109 350.747C509.997 352.662 488.027 346.881 485.136 346.233C466.166 341.978 446.82 337.132 428.912 329.444C412.195 322.269 397.467 314.06 384.313 301.311C378.181 295.369 372.666 289.111 367.389 282.447C364.744 279.107 361.131 279.494 358.181 276.669C355.528 274.125 353.493 272.139 354.323 268.337C360.952 270.083 373.193 281.064 380.066 275.519C383.983 272.359 378.55 269.057 376.042 267.226C371.327 263.782 367.295 259.533 363.547 255.074C369.983 256.322 375.972 258.732 381.573 262.087C384.061 263.577 392.59 268.982 394.575 263.83C395.797 260.658 390.014 256.673 388.211 254.918C383.783 250.61 379.004 245.581 376.654 239.789C382.466 238.44 387.944 242.932 391.902 246.59C396.295 250.653 401.68 254.915 405.364 259.596C407.264 262.009 407.678 264.861 409.162 267.465C410.833 270.394 413.505 272.905 416.058 275.072C420.979 279.249 426.734 282.324 432.641 284.867C446.139 290.679 460.606 294.792 474.994 297.677C482.053 299.092 488.938 299.744 496.103 299.984C501.67 300.172 504.134 301.837 506.26 306.967C512.013 320.849 510.969 336.119 510.109 350.747ZM344.886 244.974C341.666 247.986 337.483 249.875 334.119 252.771C331.158 255.319 327.742 258.038 324.438 260.098C320.909 262.298 318.274 260.755 315.098 258.765C311.368 256.431 307.081 255.484 303.24 253.395C289.961 246.168 273.716 228.458 276.195 212.198C277.245 205.306 280.808 198.525 287.279 195.397C293.155 192.559 301.697 190.982 307.984 193.356C311.53 194.695 314.067 197.651 316.339 200.557C318.989 203.945 320.003 203.411 322.701 200.144C327.53 194.298 335.491 189.17 343.362 189.293C347.274 189.356 351.159 190.18 354.683 191.803C355.161 192.024 355.426 192.69 355.906 192.916C356.494 193.194 357.461 192.616 357.87 192.876C358.902 193.529 359.932 195.569 360.527 196.605C362.915 200.759 367.214 208.906 362.882 212.404C362.879 212.405 363.074 217.137 363.015 217.676C362.709 220.498 361.734 222.828 360.477 225.41C356.701 233.164 351.129 239.134 344.886 244.974ZM351.305 310.582C348.255 311.53 344.97 301.973 347.896 300.448C350.685 298.993 354.066 309.725 351.305 310.582ZM303.408 299.156C302.352 302.765 301.905 306.862 299.323 309.801C296.958 306.995 296.724 301.817 299.018 298.932C300.327 297.287 304.563 295.211 303.408 299.156ZM400.995 235.904C400.979 235.995 404.665 237.758 402.867 239.686C400.409 242.319 400.747 237.194 400.995 235.904ZM416.23 206.482C416.188 210.132 408.461 209.25 408.516 205.579C408.584 201.061 416.276 202.612 416.23 206.482ZM407.006 175.975C407.771 172.633 421.212 167.983 420.846 173.808C420.663 176.728 405.384 183.08 407.006 175.975ZM269.216 289.31C267.709 291.121 265.569 291.835 263.764 293.226C261.869 294.683 260.516 296.573 258.862 298.284C254.319 302.98 248.851 306.84 243.95 311.154C234.941 319.085 226.31 327.611 216.321 334.337C198.471 346.355 177.77 352.929 157.221 358.685C155.518 359.161 150.614 361.086 148.93 359.653C147.113 358.107 148.037 352.667 148.121 350.61C148.461 342.176 149.445 333.643 149.338 325.222C149.294 321.763 148.281 316.846 150.086 313.681C152.101 310.147 157.727 309.112 161.207 307.782C171.785 303.739 181.974 296.919 191.318 290.603C202.804 282.838 214.404 274.944 226.225 267.696C237.805 260.594 250.579 255.839 263.497 251.783C264.096 253.04 257.932 257.087 257.227 257.655C253.848 260.375 250.171 263.196 247.663 266.787C245.886 269.33 244.065 275.083 248.969 275.231C251.346 275.302 254.861 273.003 257.016 272.259C260.577 271.03 264.246 270.168 267.97 269.607C264.768 273.132 253.915 279.465 255.89 285.327C257.806 291.017 268.887 284.378 272.701 284.378C272.076 286.362 270.505 287.762 269.216 289.31ZM138.3 305.189C131.203 307.685 123.929 309.104 116.605 310.715C109.623 312.251 103.17 313.409 96.0194 312.509C86.1469 311.268 75.2213 307.179 73.9697 295.96C72.4853 282.668 81.8726 270.454 89.933 260.917C99.7431 249.315 110.758 238.942 122.697 229.55C134.622 220.167 147.493 211.895 160.978 204.911C171.236 199.598 182.823 196.373 193.67 192.385C195.734 191.627 201.442 188.962 203.372 191.171C204.932 192.957 202.809 195.932 202.098 197.591C200.711 200.824 200.52 204.08 200.162 207.551C198.563 223.054 196.637 238.553 195.751 254.123C195.505 258.462 195.07 263.002 195.323 267.344C195.463 269.749 196.715 272.812 195.881 275.16C194.279 279.674 186.942 282.661 183.053 284.678C176.092 288.288 168.721 290.981 161.688 294.433C153.964 298.226 146.444 302.324 138.3 305.189ZM236.722 204.454C238.67 204.186 241.588 203.655 243.324 204.918C245.589 206.563 244.995 208.853 242.903 210.047C241.252 210.99 237.386 211.248 235.754 210.392C232.974 208.934 233.444 204.905 236.722 204.454ZM247.51 240.353C245.936 242.975 240.183 244.694 240.684 239.802C241.114 235.612 250.409 235.525 247.51 240.353ZM245.374 166.495C247.905 167.475 252.497 168.314 253.248 171.569C253.946 174.598 251.075 174.398 249.003 173.564C247.299 172.88 239.708 166.442 245.374 166.495ZM641.849 282.069C640.372 276.317 641.497 269.95 640.682 264.059C639.891 258.349 638.466 253.101 636.424 247.72C631.9 235.806 626.717 225.081 619.385 214.624C605.575 194.933 589.552 177.589 570.205 163.207C551.104 149.008 529.953 137.469 507.548 129.382C483.789 120.805 459.873 117.821 434.819 116.177C427.336 115.686 419.861 115.104 412.421 114.159C406.984 113.469 400.167 112.618 394.791 114.283C391.414 115.33 389.527 118.275 393.206 120.208C395.815 121.579 399.23 121.743 402.112 122.107C398.631 133.163 392.968 144.259 383.994 151.872C375.233 159.305 363.509 161.853 352.451 163.738C346.456 164.759 339.742 165.55 333.653 165.109C329.803 164.832 326.8 163.049 325.246 167.014C324.169 169.769 323.658 172.792 322.237 168.632C320.557 163.715 319.732 163.746 314.504 162.349C303.811 159.493 291.554 156.887 282.226 150.709C272.549 144.3 269.183 133.933 263.78 124.279C262.444 121.893 258.414 117.063 260.473 114.329C262.357 111.828 268.48 112.078 271.285 111.817C274.244 111.542 277.222 111.53 280.192 111.415C281.912 111.349 285.372 112.054 284.679 109.484C283.635 105.611 272.448 106.108 269.67 106.045C264.504 105.929 259.266 106.049 254.126 106.617C228.639 109.435 202.923 114.647 178.26 121.598C130.408 135.081 84.0642 159.927 49.1429 195.721C15.6216 230.08 5.0016 287.257 25.6089 331.127C36.3185 353.927 59.5598 363.293 82.0894 370.858C93.9731 374.847 106.556 377.969 119.189 377.216C125.251 376.854 131.003 375.222 136.915 373.992C139.494 373.456 142.428 372.6 145.077 372.816C147.081 372.98 149.007 374.82 150.888 373.842C152.222 373.148 152.802 371.155 154.434 370.307C156.392 369.289 158.766 368.92 160.882 368.407C166.761 366.979 172.453 364.663 178.2 362.764C184.142 360.8 189.75 358.271 195.452 355.714C198.331 354.422 204.993 349.173 206.869 353.011C207.724 354.763 207.36 358.142 207.568 359.979C207.933 363.192 208.362 366.399 208.831 369.599C209.864 376.643 211.1 383.659 212.367 390.666C214.654 403.308 217.601 415.411 222.529 427.303C226.463 436.799 229.917 447.562 237.223 455.116C240.412 458.413 244.763 459.896 249.338 458.861C254.54 457.681 257.13 452.955 260.289 449.134C267.239 440.725 278.713 434.282 289.307 431.962C302.281 429.122 314.919 433.276 327.302 436.807C340.402 440.542 353.736 444.101 366.594 448.591C378.575 452.775 391.512 458.955 404.505 458.417C415.837 457.949 426.421 448.727 434.593 441.697C442.8 434.637 453.062 424.299 464.864 425.132C470.724 425.544 476.064 428.371 481.772 429.52C488.038 430.782 494.706 430.961 501.079 431.432C508.989 432.015 526.686 429.953 529.612 420.437C530.046 419.025 530.048 416.118 528.184 415.553C526.469 415.034 525.593 417.039 523.969 416.947C520.663 416.761 518.08 410.998 516.264 408.766C508.936 399.759 498.884 393.041 490.661 384.904C481.376 375.716 473.448 364.585 466.452 353.606C469.615 352.784 473.027 354.149 476.089 354.798C479.808 355.586 483.433 356.538 487.099 357.547C491.139 358.659 495.236 359.424 499.337 360.272C502.396 360.903 506.456 361.094 509.217 362.629C511.628 363.969 512.974 365.407 515.966 365.796C519.009 366.191 522.134 365.858 525.191 365.838C533.46 365.781 541.712 365.628 549.942 364.754C579.023 361.665 609.85 349.364 627.337 324.952C632.093 318.312 635.924 310.956 638.346 303.151C640.236 297.056 643.494 288.468 641.849 282.069Z" fill="#11304D"/>
<path fill-rule="evenodd" clip-rule="evenodd" d="M305.305 70.9342C300.129 72.5402 294.012 70.6506 291.038 66.0311C288.013 61.334 285.943 55.8985 285.526 50.3034C285.128 44.9425 286.345 39.5147 289.507 35.1134C292.871 30.4315 299.728 25.1839 305.876 26.8097C307.171 27.1526 308.342 27.9777 309.504 28.7967C310.735 29.665 311.957 30.5266 313.306 30.7958C313.652 30.865 313.895 30.9304 314.076 30.9783C314.32 31.0437 314.45 31.0787 314.566 31.052C314.699 31.0216 314.813 30.9114 315.058 30.6749C315.197 30.5395 315.379 30.3631 315.632 30.1373C316.152 29.6726 316.655 28.9731 317.146 28.2887C317.476 27.8286 317.803 27.3747 318.125 27.0044C318.746 26.2919 319.366 25.5717 319.988 24.8501C323.986 20.2116 328.061 15.4841 332.947 11.8153C343.072 4.21348 356.529 0.623032 369.09 0.801501C376.733 0.909708 383.896 3.17589 391.017 5.75225C391.615 5.96843 392.216 6.18302 392.819 6.39837L392.821 6.39913C398.54 8.44016 404.439 10.5454 409.019 14.6347C418.127 22.7689 420.5 36.2365 421.99 47.7583C423.604 60.2359 419.157 70.9707 414.55 82.0918V82.0933L414.549 82.0956C413.848 83.7882 413.143 85.49 412.455 87.2071C407.586 99.3729 398.647 109.229 388.022 116.738C382.455 120.672 376.304 123.047 369.867 125.129C368.532 125.561 367.205 126.023 365.88 126.485H365.878C360.714 128.282 355.569 130.074 350.002 130.065C339.379 130.05 325.78 125.005 321.255 114.539C319.195 109.774 321.201 108.918 325.323 111.508C326.044 111.961 326.761 112.418 327.478 112.874L327.479 112.875L327.481 112.877C332.714 116.209 337.913 119.522 344.058 120.987C357.612 124.22 373.845 119.211 385.73 112.602C397.61 105.995 405.586 96.0682 410.916 83.7092C416.294 71.2399 418.383 58.9531 416.309 45.5113C414.552 34.1195 411.055 23.7141 400.79 17.5304C378.63 4.18283 348.772 5.25828 329.065 22.6046C326.362 24.9824 323.691 27.2964 320.906 29.5677C319.135 31.011 317.05 32.7424 317.308 35.2381C317.364 35.7887 317.708 36.7445 318.095 37.8159C319.208 40.9062 320.671 44.9646 316.597 43.0856C314.917 42.3107 313.527 41.256 312.157 40.2165C309.899 38.5041 307.696 36.8327 304.342 36.524C298.606 35.9947 291.765 40.4006 290.048 45.9463C288.412 51.238 291.33 58.4779 295.901 61.5127C298.473 63.2206 301.28 63.1369 304.182 63.0502C304.474 63.0419 304.768 63.0327 305.061 63.0259C305.285 63.0206 305.565 63.0061 305.882 62.9894C307.835 62.886 311.246 62.7065 312.154 64.1566C314.022 67.1397 307.431 70.2749 305.305 70.9342ZM374.348 94.5397C375.32 92.6303 376.281 90.7422 377.368 89.0359C377.872 88.2443 378.695 87.6975 379.484 87.1736C379.71 87.023 379.935 86.874 380.148 86.7219C382.805 90.8631 380.179 95.2994 377.918 99.1197C377.656 99.563 377.398 99.998 377.155 100.423C376.439 101.67 375.741 102.969 375.036 104.279C373.53 107.078 371.997 109.927 370.22 112.432C365.887 118.537 356.461 111.933 356.182 105.658C355.967 100.856 359.369 102.946 361.553 104.74C363.801 106.588 364.865 107.048 367.222 105.03C370.389 102.316 372.391 98.3844 374.348 94.5397ZM348.831 77.6228C349.785 71.3235 345.472 76.2153 344.55 79.1124C343.41 82.6872 342.468 87.7363 344.191 91.2836C347.353 97.795 356.269 94.6918 360.56 91.2327C362.571 89.6107 365.39 86.2322 365.294 83.4164C365.128 78.5171 361.354 81.4545 359.032 83.2613C358.737 83.4917 358.464 83.7038 358.225 83.8787C358.129 83.9494 358.026 84.0247 357.919 84.1038C355.766 85.6946 351.486 88.8556 348.978 87.2915C346.673 85.855 347.597 82.4431 348.324 79.7588C348.542 78.9581 348.741 78.222 348.831 77.6228ZM361.587 52.2182C366.678 51.2045 373.235 51.7269 377.665 54.6134C383.372 58.3319 375.868 61.0093 372.617 61.3423C368.682 61.7438 363.651 62.01 360.037 60.0793C354.914 57.3426 356.622 53.2082 361.587 52.2182ZM303.46 42.7761C299.567 42.0195 294.135 43.9844 296.815 48.6138C298.814 52.0691 303.742 53.2318 307.598 54.142C308.066 54.2523 308.52 54.3595 308.949 54.4659C313.236 55.5305 315.357 53.961 313.881 49.232C312.452 44.6551 307.657 43.5928 303.46 42.7761ZM384.743 91.1985C385.102 89.7027 387.19 84.0802 388.602 88.2078C388.819 88.8419 388.845 89.7727 388.873 90.7665C388.945 93.2782 389.027 96.1974 392.222 95.7731C393.871 95.5549 394.652 93.9002 395.376 92.3672C395.734 91.6076 396.079 90.8776 396.508 90.3666C400.865 85.1783 399.529 94.9914 398.391 97.4475C395.881 102.86 388.858 106.59 385.375 99.7227C384.079 97.1685 384.085 93.9443 384.743 91.1985ZM401.146 69.3776C403.168 71.725 406.537 75.6389 408.747 72.8041C410.903 70.0369 407.192 65.7489 405.342 63.6114C405.262 63.5187 405.185 63.4297 405.112 63.3453C405.059 63.2837 405.003 63.2183 404.944 63.1491C403.271 61.1979 398.981 56.1951 396.804 59.9424C395.442 62.2883 398.636 66.7101 400.155 68.2629C400.425 68.5389 400.761 68.9297 401.146 69.3776ZM341.778 115.424C339.692 113.029 339.91 108.59 341.092 105.818C342.055 103.561 343.664 106.355 344.597 107.972C344.825 108.367 345.012 108.691 345.14 108.855C345.557 109.393 346.157 109.891 346.774 110.403C348.058 111.469 349.412 112.593 349.324 114.244C349.108 118.277 343.611 117.529 341.778 115.424Z" fill="#11304D"/>
<path fill-rule="evenodd" clip-rule="evenodd" d="M523.508 85.6153C521.217 84.994 518.931 84.3728 516.656 83.7333C511.363 82.2444 516.364 78.894 519.509 79.1297C521.942 79.3115 524.319 80.1647 526.657 81.0034C527.691 81.3737 528.716 81.7418 529.736 82.0482C539.909 85.1028 549.339 88.4433 558.843 93.1845C560.26 93.8924 566.504 97.2481 562.374 98.734C560.204 99.5141 555.84 97.166 552.784 95.522C551.806 94.9965 550.964 94.5433 550.369 94.2863C541.741 90.5664 532.6 88.0844 523.508 85.6153ZM609.897 161.006C575.867 139.894 541.982 119.216 503.494 107.122C501.488 106.492 500.864 104.703 501.916 102.931C503.025 101.062 505.157 101.131 507.046 101.192L507.207 101.197C512.187 101.354 517.051 102.927 521.76 104.45L522.359 104.644C533.128 108.121 543.384 112.945 553.498 117.988C571.229 126.825 588.292 137.518 603.932 149.676C607.202 152.217 610.554 154.276 614.109 156.354C614.33 156.483 614.56 156.614 614.795 156.75C616.991 158.01 619.714 159.572 620.505 162.022C622.732 168.917 611.493 161.996 609.897 161.006ZM60.4036 154.731C47.9678 164.406 35.8156 174.479 24.5729 185.52C20.5701 189.451 17.2342 193.948 13.9013 198.442C12.3751 200.499 10.849 202.556 9.25971 204.558C9.08938 204.772 8.90156 205.023 8.69701 205.296C7.41784 207.001 5.50419 209.552 3.41632 209.27C0.759434 208.913 0.22235 204.336 0.30706 202.338C0.597234 195.523 6.82115 188.942 11.2596 184.249C16.2525 178.973 21.5906 173.831 27.042 169.027C33.0439 163.737 39.5576 159.191 46.1953 154.74C48.621 153.113 51.0087 151.393 53.4017 149.669C57.4372 146.762 61.4842 143.846 65.7402 141.36C68.9332 139.496 74.2348 138.786 72.4972 144.399C71.4821 147.678 67.4952 150.161 64.0163 152.327C62.6681 153.167 61.3967 153.958 60.4036 154.731ZM15.8616 141.318C22.862 139.139 29.3529 135.755 35.8438 132.372C40.0732 130.168 44.3034 127.963 48.6735 126.093C51.8163 124.747 55.0047 123.516 58.1923 122.285C61.0599 121.177 63.9266 120.07 66.7607 118.88C67.0276 118.767 67.3165 118.661 67.6139 118.55C69.0982 118.001 70.7825 117.378 70.9832 115.629C71.2585 113.208 69.8449 113.28 68.118 113.368C68.007 113.373 67.8937 113.38 67.7796 113.384C63.8437 113.561 59.682 115.306 55.7491 116.954C54.1256 117.636 52.5402 118.3 51.0262 118.831C49.678 119.304 48.3282 119.765 46.9793 120.226C42.7544 121.671 38.5417 123.112 34.421 124.878C28.9385 127.228 23.3395 129.659 18.4022 133.042C18.2273 133.162 18.0448 133.284 17.8577 133.41C16.2228 134.511 14.2442 135.843 13.537 137.66C12.8291 139.475 13.2192 142.141 15.8616 141.318Z" fill="#11304D"/>
<path fill-rule="evenodd" clip-rule="evenodd" d="M305.689 94.5786C306.35 92.638 314.532 71.421 311.329 70.7814C307.937 70.1024 303.403 82.4127 302.419 84.6369C298.785 92.8509 296.633 101.664 294.947 110.475C293.772 116.61 292.74 122.895 293.152 129.167C293.468 133.987 295.459 134.717 298.739 137.67C298.739 123.029 300.964 108.436 305.689 94.5786Z" fill="#11304D"/>
</svg>
