<svg width="49" height="49" viewBox="0 0 49 49" fill="none" xmlns="http://www.w3.org/2000/svg">
<path d="M33.8312 1.57522L22.7041 47.1586L45.0624 41.1359C47.5673 40.4422 49.0406 37.9038 48.3466 35.4664L39.6203 4.72532C38.9294 2.29101 36.3361 0.881503 33.8312 1.57522Z" fill="#11304D"/>
<path d="M32.0266 1.09958L22.7041 47.1592L44.8826 40.1715C47.356 39.3769 48.722 36.7818 47.9301 34.3759L37.9388 4.01003C37.1501 1.60725 34.5 0.304956 32.0266 1.09958Z" fill="#51C4C1"/>
<path d="M30.4697 0.708201L9.43009 8.27601L6.11121 9.47109C3.66621 10.3509 3.60312 11.7414 4.477 14.119L16.3171 46.2727C17.1941 48.6503 17.8819 48.9593 20.3269 48.0795L23.6489 46.8845L44.6853 39.3166C47.1303 38.4369 48.4049 35.7976 47.5278 33.4201L36.4828 3.41685C35.6057 1.04245 32.9147 -0.171557 30.4697 0.708201Z" fill="#FC8BA9"/>
<path d="M30.9419 17.1423L17.9124 21.8311L16.0605 16.8049L29.0931 12.116L30.9419 17.1423Z" fill="#FFE882"/>
<path d="M19.0467 43.8286C19.9522 43.5039 20.4159 42.5169 20.0878 41.6245C19.7597 40.7321 18.7596 40.2718 17.8573 40.5966C16.9519 40.9213 16.4881 41.9083 16.8162 42.8007C17.1475 43.6931 18.1444 44.1534 19.0467 43.8286Z" fill="#3E4347"/>
<path d="M15.7069 34.6978C16.6091 34.373 17.0761 33.386 16.748 32.4937C16.4199 31.6013 15.4198 31.1409 14.5175 31.4657C13.6121 31.7905 13.1483 32.7775 13.4764 33.6698C13.8045 34.5622 14.8014 35.0226 15.7069 34.6978Z" fill="#3E4347"/>
<path d="M12.4305 25.8618C13.3328 25.5371 13.7997 24.5501 13.4716 23.6577C13.1435 22.7654 12.1434 22.305 11.2411 22.6298C10.3357 22.9545 9.87193 23.9415 10.2 24.8339C10.5281 25.7262 11.5251 26.1866 12.4305 25.8618Z" fill="#3E4347"/>
<path d="M8.86961 16.2093C9.77189 15.8845 10.2388 14.8975 9.9107 14.0051C9.5826 13.1128 8.58252 12.6524 7.68024 12.9772C6.77795 13.302 6.31104 14.2889 6.63914 15.1813C6.96724 16.0737 7.96733 16.534 8.86961 16.2093Z" fill="#3E4347"/>
<path d="M8.99755 14.3333C7.72299 11.1863 -0.618383 13.999 0.482654 17.2658C1.18303 19.3375 3.63433 19.41 6.13927 18.5996L5.61872 17.1996C5.61872 17.1996 2.6658 18.1708 2.1768 16.7991C1.66256 15.3549 7.22768 13.9769 7.64097 14.8283C8.05425 15.6829 9.41083 15.3518 8.99755 14.3333Z" fill="#7D8B91"/>
<path d="M12.5547 23.9473C11.277 20.8003 2.93565 23.613 4.03984 26.8798C4.74021 28.9515 7.15997 29.0114 9.6649 28.201L9.15382 26.8073C9.15382 26.8073 6.22298 27.7848 5.73399 26.4131C5.21975 24.9689 10.7849 23.591 11.1982 24.4423C11.6114 25.2969 12.968 24.9658 12.5547 23.9473Z" fill="#7D8B91"/>
<path d="M15.8311 32.77C14.5565 29.6231 6.21199 32.4358 7.31618 35.7026C8.01655 37.7743 10.4205 37.8689 12.9286 37.0585L12.4207 35.6742C12.4207 35.6742 9.50247 36.6044 9.01663 35.2359C8.50239 33.7917 14.0644 32.4137 14.4808 33.2651C14.8909 34.1165 16.2443 33.7854 15.8311 32.77Z" fill="#7D8B91"/>
<path d="M19.1719 41.8989C17.8942 38.752 9.55284 41.5647 10.657 44.8315C11.3574 46.9032 13.7835 47.0009 16.2884 46.1905L15.7773 44.8031C15.7773 44.8031 12.8402 45.7396 12.3512 44.3679C11.8369 42.9238 17.3989 41.5458 17.8153 42.3972C18.2286 43.2485 19.5852 42.9174 19.1719 41.8989Z" fill="#7D8B91"/>
</svg>
