<svg width="54" height="47" viewBox="0 0 54 47" fill="none" xmlns="http://www.w3.org/2000/svg">
<g clip-path="url(#clip0)">
<path d="M51.2597 10.1914C50.407 8.03238 49.2767 6.2524 47.9096 4.90557C44.8369 1.87352 40.4445 0.980148 35.8558 2.44203C31.5582 3.81593 28.0456 7.05779 27.5042 10.1643L27.0236 12.9053L26.1912 10.2523C24.8782 6.0629 19.3758 2.66537 13.9141 2.66537C13.9005 2.66537 13.8938 2.66537 13.8802 2.66537C10.6993 2.67214 4.99389 3.89038 2.50327 11.9713C-1.67257 25.5208 16.9664 37.4595 24.9256 42.5626C25.4602 42.9077 25.9475 43.2191 26.3874 43.5033C27.2064 44.038 27.7613 44.417 28.1403 44.708C28.5667 44.3696 29.2029 43.9026 30.0625 43.2732C37.3313 37.9604 56.6538 23.8288 51.2597 10.1914Z" fill="#FC8BA9"/>
<path d="M28.1405 44.7081C28.5668 44.3697 29.203 43.9027 30.0626 43.2733C37.3381 37.9537 56.6607 23.8289 51.2666 10.1915C50.4139 8.03248 49.2836 6.2525 47.9165 4.90567C47.3209 4.31686 46.6712 3.80926 45.9876 3.38965C47.2329 4.70264 48.3293 6.41493 49.1889 8.59422C55.2056 23.7883 31.6937 39.4968 26.374 43.4899C26.3808 43.4967 26.3876 43.4967 26.3943 43.5034C27.2065 44.0313 27.7615 44.4171 28.1405 44.7081Z" fill="#FF6485"/>
<path d="M53.5054 16.0455C53.5325 15.5853 53.546 15.1183 53.5325 14.6581C53.5325 14.5904 53.5257 14.5227 53.5257 14.4483C53.5054 14.0151 53.4716 13.5752 53.4107 13.1421C53.4039 13.0879 53.3971 13.0406 53.3904 12.9864C53.2279 11.89 52.9572 10.7936 52.5241 9.69041C51.5968 7.35546 50.3718 5.41982 48.8694 3.93763C45.4109 0.546875 40.5244 -0.468321 35.4417 1.15599C31.4148 2.44191 28.0917 5.1694 26.7313 8.14731C24.5047 4.24896 19.1783 1.31166 13.9128 1.31166C13.8992 1.31166 13.8925 1.31166 13.8789 1.31166C7.82836 1.32519 3.21261 5.06788 1.20252 11.5719C-3.27111 26.1027 15.977 38.434 24.1933 43.6995C24.728 44.0379 25.2153 44.3492 25.6484 44.6335C26.0613 44.9042 27.3269 45.7231 27.6315 46.0615L28.1187 46.6029L28.6263 46.0818C28.8768 45.8246 29.7498 45.1817 30.8598 44.3695C37.269 39.6861 52.7203 28.37 53.5054 16.0726C53.4986 16.0658 53.4986 16.0523 53.5054 16.0455ZM24.9243 42.5625C16.9651 37.4594 -1.67387 25.5207 2.50197 11.9712C4.99258 3.89026 10.698 2.67202 13.8789 2.66525C13.8925 2.66525 13.8992 2.66525 13.9128 2.66525C19.3745 2.66525 24.8769 6.06277 26.1899 10.2522L27.0223 12.9052L27.5029 10.1642C28.0443 7.06444 31.5569 3.81581 35.8545 2.44191C39.5499 1.25751 43.1233 1.61622 45.9794 3.38266C46.6698 3.80904 47.3127 4.31664 47.9083 4.89868C49.2754 6.25228 50.4057 8.02549 51.2584 10.1845C56.6525 23.8219 37.33 37.9467 30.0544 43.2663C29.1949 43.8958 28.5587 44.356 28.1323 44.7011C27.76 44.4101 27.2051 44.0243 26.3794 43.4964C26.3726 43.4897 26.3658 43.4897 26.3591 43.4829C25.9327 43.2054 25.4454 42.8941 24.9243 42.5625Z" fill="#11304D"/>
</g>
<defs>
<clipPath id="clip0">
<rect width="53" height="46.205" fill="white" transform="translate(0.541016 0.397949)"/>
</clipPath>
</defs>
</svg>
