<svg width="106" height="92" viewBox="0 0 106 92" fill="none" xmlns="http://www.w3.org/2000/svg">
<path d="M100.964 19.3605C99.283 15.1038 97.0545 11.5944 94.3591 8.93897C88.301 2.96096 79.6275 1.19958 70.5937 4.08183C62.1203 6.79062 55.1949 13.1823 54.1274 19.3071L53.18 24.7113L51.5387 19.4806C48.95 11.2208 38.1014 4.52218 27.3329 4.52218C27.3062 4.52218 27.2929 4.52218 27.2662 4.52218C20.9946 4.53552 9.7457 6.9374 4.83517 22.8699C-3.39799 49.5841 33.351 73.1225 49.0434 83.1837C50.0975 83.8643 51.0583 84.4781 51.9256 85.0385C53.5402 86.0927 54.6344 86.8399 55.3817 87.4137C56.2223 86.7465 57.4767 85.8258 59.1713 84.5848C73.5026 74.11 111.599 46.2482 100.964 19.3605Z" fill="#FC8BA9"/>
<path d="M55.9955 86.4929C38.5151 75.1507 10.2928 52.2928 18.2324 26.4859C22.4491 12.7952 35.1524 8.07154 44.4397 10.2332C39.7694 6.76385 33.5511 4.52209 27.3329 4.52209C27.3062 4.52209 27.2929 4.52209 27.2662 4.52209C20.9946 4.53544 9.7457 6.93732 4.83517 22.8698C-3.39799 49.584 33.351 73.1224 49.0434 83.1836C50.0975 83.8642 51.0583 84.478 51.9256 85.0384C53.4335 86.0125 54.461 86.7197 55.1949 87.2802C55.3416 87.04 55.5952 86.7865 55.9955 86.4929Z" fill="#FF6485"/>
<path d="M103.446 18.3864C101.618 13.7828 99.2026 9.96646 96.2403 7.04417C89.4349 0.345598 79.8007 -1.65597 69.7794 1.54654C61.8398 4.08186 55.288 9.4594 52.6059 15.3307C48.2158 7.64464 37.7141 1.85344 27.3326 1.85344C27.3059 1.85344 27.2926 1.85344 27.2659 1.85344C15.3365 1.88013 6.23599 9.25924 2.27287 22.0826C-6.54742 50.7317 31.4025 75.0441 47.6019 85.4255C48.6561 86.0927 49.6169 86.7065 50.4709 87.2669C51.2848 87.8007 53.7801 89.4153 54.3806 90.0825L55.3414 91.15L56.3422 90.1225C56.8359 89.6154 58.5572 88.3478 60.7456 86.7465C75.5306 75.9247 114.842 47.1823 103.446 18.3864ZM59.1577 84.5849C57.463 85.8258 56.2087 86.7332 55.3681 87.4137C55.3147 87.3737 55.248 87.3203 55.1812 87.2803C54.4473 86.7199 53.4065 86.0126 51.912 85.0385C51.0447 84.4781 50.0839 83.8643 49.0297 83.1838C33.3507 73.1226 -3.39827 49.5841 4.83489 22.8699C9.74543 6.93743 20.9943 4.53554 27.2659 4.5222C27.2926 4.5222 27.3059 4.5222 27.3326 4.5222C33.5375 4.5222 39.7691 6.76395 44.4394 10.2333C47.8555 12.782 50.4442 15.9845 51.5384 19.4806L53.1797 24.7113L54.1271 19.3071C55.1946 13.1957 62.12 6.79064 70.5934 4.08186C79.6272 1.18626 88.3007 2.96098 94.3588 8.93899C97.0543 11.6077 99.2827 15.1038 100.964 19.3605C111.599 46.2482 73.5024 74.11 59.1577 84.5849Z" fill="#11304D"/>
<path d="M50.6587 41.1242C49.9248 41.1242 49.3243 40.5237 49.3243 39.7898C49.3243 36.8409 46.9358 34.4523 43.9868 34.4523C41.0378 34.4523 38.6492 36.8409 38.6492 39.7898C38.6492 40.5237 38.0488 41.1242 37.3149 41.1242C36.5809 41.1242 35.9805 40.5237 35.9805 39.7898C35.9805 35.373 39.57 31.7836 43.9868 31.7836C48.4036 31.7836 51.9931 35.373 51.9931 39.7898C51.9931 40.5237 51.3926 41.1242 50.6587 41.1242Z" fill="#11304D"/>
<path d="M84.02 41.1242C83.2861 41.1242 82.6857 40.5237 82.6857 39.7898C82.6857 36.8409 80.2971 34.4523 77.3481 34.4523C74.3991 34.4523 72.0106 36.8409 72.0106 39.7898C72.0106 40.5237 71.4101 41.1242 70.6762 41.1242C69.9423 41.1242 69.3418 40.5237 69.3418 39.7898C69.3418 35.373 72.9313 31.7836 77.3481 31.7836C81.7649 31.7836 85.3544 35.373 85.3544 39.7898C85.3544 40.5237 84.7539 41.1242 84.02 41.1242Z" fill="#11304D"/>
<path d="M60.6528 55.1352C56.236 55.1352 52.6465 51.5457 52.6465 47.1289C52.6465 46.395 53.247 45.7946 53.9809 45.7946C54.7148 45.7946 55.3153 46.395 55.3153 47.1289C55.3153 50.0779 57.7038 52.4664 60.6528 52.4664C63.6018 52.4664 65.9903 50.0779 65.9903 47.1289C65.9903 46.395 66.5908 45.7946 67.3247 45.7946C68.0586 45.7946 68.6591 46.395 68.6591 47.1289C68.6591 51.5457 65.0696 55.1352 60.6528 55.1352Z" fill="#11304D"/>
</svg>
