<svg width="486" height="457" viewBox="0 0 486 457" fill="none" xmlns="http://www.w3.org/2000/svg">
<path fill-rule="evenodd" clip-rule="evenodd" d="M255.482 49.0042C290.338 44.2312 316.243 6.31093 351.374 8.18064C386.255 10.037 418.057 33.0709 441.564 58.9076C465.499 85.2139 482.564 119.452 484.901 154.94C487.174 189.438 463.128 219.254 454.328 252.689C445.829 284.981 454.241 323.101 433.71 349.436C413.181 375.768 377.725 386.808 344.919 393.022C315.077 398.674 285.325 388.84 255.482 383.194C229.792 378.333 206.49 367.745 180.981 362.005C148.35 354.663 108.528 366.628 83.459 344.487C59.2682 323.122 64.3651 284.029 57.0891 252.585C49.7944 221.061 37.8302 190.461 40.3532 158.202C43.0434 123.804 47.1352 84.8842 72.0699 61.0371C97.2736 36.9326 136.654 35.1013 171.454 32.8182C200.279 30.9272 226.863 52.9232 255.482 49.0042Z" fill="#C9FFFF"/>
<path fill-rule="evenodd" clip-rule="evenodd" d="M255.482 49.0042C290.338 44.2312 316.243 6.31093 351.374 8.18064C386.255 10.037 418.057 33.0709 441.564 58.9076C465.499 85.2139 482.564 119.452 484.901 154.94C487.174 189.438 463.128 219.254 454.328 252.689C445.829 284.981 454.241 323.101 433.71 349.436C413.181 375.768 377.725 386.808 344.919 393.022C315.077 398.674 285.325 388.84 255.482 383.194C229.792 378.333 206.49 367.745 180.981 362.005C148.35 354.663 108.528 366.628 83.459 344.487C59.2682 323.122 64.3651 284.029 57.0891 252.585C49.7944 221.061 37.8302 190.461 40.3532 158.202C43.0434 123.804 47.1352 84.8842 72.0699 61.0371C97.2736 36.9326 136.654 35.1013 171.454 32.8182C200.279 30.9272 226.863 52.9232 255.482 49.0042Z" fill="#C9FFFF"/>
<path fill-rule="evenodd" clip-rule="evenodd" d="M251.32 28.6421C249.185 34.2923 247.051 39.9435 244.916 45.5939C243.547 49.2149 242.18 52.8352 240.812 56.4561C240.326 57.7399 240.057 59.0568 239.118 59.9481C236.907 62.0466 232.937 63.3821 230.28 64.8583C228.499 65.8475 226.718 66.8368 224.937 67.826C224.019 68.3365 221.984 68.9773 221.34 69.8245C220.632 70.7578 220.967 72.4721 220.967 73.7627V84.9064V105.904C230.164 104.754 239.363 103.604 248.56 102.454C236.306 116.594 224.052 130.733 211.798 144.873C208.778 148.357 205.112 151.711 202.861 155.765C198.072 164.395 193.391 173.087 188.658 181.747C184.251 189.808 179.844 197.869 175.438 205.93L215.082 204.243C225.346 203.806 235.89 204.463 245.779 201.554C253.932 199.156 262.084 196.759 270.236 194.361C271.321 194.041 274.698 193.681 275.467 192.808C276.186 191.99 276.171 188.902 276.374 187.856C280.222 168.079 285.121 146.284 296.351 129.259C304.403 117.056 315.268 106.371 325.218 95.7285C329.102 91.575 333.054 87.4712 336.799 83.1914C337.759 82.0953 339.145 80.8515 339.779 79.5201C340.189 78.6599 340.762 77.0208 340.507 76.2572C340.397 75.9261 337.837 74.7382 337.47 74.5023C334.875 72.8349 332.304 71.1324 329.726 69.4382C322.485 64.6769 315.25 59.9039 307.966 55.2061C302.288 51.5431 296.626 47.6593 290.637 44.5116C284.429 41.2487 277.592 38.9522 271.083 36.3743C264.507 33.7688 257.917 31.1931 251.32 28.6421Z" fill="#FC8BA9"/>
<path fill-rule="evenodd" clip-rule="evenodd" d="M474.547 330.503C471.389 333.479 465.637 337.473 461.091 335.657C458.808 334.745 456.858 332.742 454.778 331.451C452.335 329.933 450.037 328.415 447.966 326.393C443.833 322.356 440.704 316.458 435.823 313.298C434.182 312.236 430.98 312.008 429.842 310.312C429.332 309.551 429.284 308.397 429.378 307.517C429.582 305.623 430.605 305.735 428.896 304.344H431.551C431.602 303.318 430.578 303.233 429.816 303.366C430.17 301.74 430.532 295.377 427.568 298.261C424.999 300.76 426.284 304.907 424.465 307.614C423.072 309.687 419.376 308.008 418.877 305.728C418.653 304.703 419.782 303.104 419.916 302.099C420.212 299.872 419.217 297.946 417.772 296.259C414.603 298.371 416.4 302.741 414.594 305.515C412.959 308.026 409.32 306.854 406.832 306.413C403.849 305.883 400.476 306.419 397.622 305.715C393.313 304.651 394.922 299.592 394.496 296.326C394.039 292.828 390.503 287.973 391.565 284.444C392.706 280.654 399.376 279.835 402.565 278.916C409.852 276.814 420.245 276.41 425.663 270.525C429.971 275.331 433.437 280.833 437.956 285.459C442.838 290.455 448.051 295.068 452.737 300.266C457.615 305.676 462.649 310.982 467.349 316.548C469.4 318.976 471.2 321.593 473.321 323.963C475.207 326.07 477.196 328.008 474.547 330.503ZM257.963 237.049C260.203 235.858 260.487 236.605 260.487 239.057C259.842 237.88 259.203 237.564 257.963 237.049ZM238.979 284.721V280.398C241.138 280.342 239.81 284.039 238.979 284.721ZM238.451 291.158C238.451 289.244 238.4 287.422 238.951 285.56C239.241 287.589 239.794 289.345 238.451 291.158ZM247.732 422.657C249.715 422.842 252.77 421.476 254.438 423.032C256.15 424.63 256.013 429.282 256.419 431.442C257.089 435.01 257.683 438.59 258.248 442.176C258.619 444.527 259.077 446.915 256.419 447.814C252.491 449.143 246.878 447.246 242.784 447.074C234.697 446.734 226.612 446.261 218.518 446.097C210.672 445.938 202.809 446.063 194.999 446.88C191.471 447.248 188.021 447.899 184.529 448.488C182.689 448.799 177.757 450.1 176.095 448.548C172.967 445.627 178.167 438.808 180.404 436.882C184.554 433.308 190.457 430.731 195.662 429.179C198.444 428.349 203.081 426.02 205.271 428.625C206.953 430.623 206.886 433.291 209.295 434.805C214.876 438.314 211.61 428.25 208.123 427.011C210.465 421.529 214.929 429.269 216.78 431.128C217.439 431.789 219.581 433.971 220.512 432.874C221.209 432.053 219.817 429.111 219.559 428.311C219.168 427.096 218.176 425.247 218.461 423.929C218.977 421.543 222.323 420.893 224.327 420.695C227.435 420.387 230.483 421.372 233.556 421.701C238.267 422.206 243.015 422.214 247.732 422.657ZM216.53 197.969C210.395 198.457 204.222 197.519 198.101 198.287C192.311 199.014 186.854 201.14 181.396 203.093C189.511 184.06 200.01 166.733 212.807 150.502C219.18 142.418 226.034 134.39 232.92 126.739C236.124 123.179 239.438 119.737 242.747 116.278C245.698 113.192 247.812 107.95 251.354 105.645C254.377 103.678 259.66 105.081 263.01 105.203C266.796 105.341 271.404 105.685 275.097 104.425C277.773 103.512 278.509 101.075 275.159 100.994C271.208 100.898 267.322 101.31 263.32 100.939C252.95 99.9811 242.953 98.4062 232.499 99.2996C230.104 99.5038 226.951 100.524 224.601 100.218C222.911 99.9963 224.022 100.846 222.847 99.49C222.397 98.9712 221.855 97.7516 221.722 97.0624C220.974 93.1918 223.099 87.6606 223.607 83.7637C224.078 80.1573 223.661 76.1935 224.541 72.6815C225.343 69.4855 227.786 69.0592 230.795 68.7177C239.027 67.783 247.428 67.2856 255.697 66.5813C274.568 64.974 294.039 62.5492 312.782 66.5213C319.55 67.9555 327.802 70.1733 333.848 73.7245C335.739 74.8345 337.646 76.1417 336.959 78.4417C336.245 80.8292 332.748 83.3512 331.016 84.924C318.213 96.5464 305.848 108.401 296.854 123.314C285.385 142.331 278.803 162.869 274.942 184.661C274.111 189.349 273.34 191.803 268.516 193.152C263.339 194.601 258.341 195.543 252.972 195.984C240.835 196.98 228.66 197.001 216.53 197.969ZM220.64 72.0324C219.71 78.9549 218.452 85.8622 218.327 92.8392C218.28 95.4744 218.031 96.7948 215.229 97.3825C211.925 98.0751 208.566 98.5911 205.247 99.3099C189.23 102.781 173.516 107.044 157.845 111.843C142.616 116.508 127.637 121.755 112.065 125.211C105.367 126.697 97.5286 127.699 91.4277 130.99C84.8646 134.532 85.7283 140.338 85.1392 146.716C84.3521 155.236 81.8252 163.487 80.9367 172.004C80.5117 176.074 80.1247 180.168 80.1889 184.264C80.2434 187.755 80.7435 191.616 78.3967 194.554C73.6886 188.26 71.4569 180.343 70.5291 172.629C70.078 168.879 70.2566 165.098 70.1276 161.331C70.0235 158.298 70.091 153.473 68.1154 150.94C63.8204 145.435 58.2348 167.496 57.7037 169.852C56.8103 173.817 56.0736 177.815 55.1837 181.781C54.7891 183.539 54.2827 189.929 51.9276 190.566C47.047 191.886 48.1184 178.171 48.0411 176.083C47.8866 171.868 47.7817 167.649 47.8804 163.43C47.9521 160.385 48.5412 157.081 48.1915 154.035C47.3326 146.555 43.1267 154.435 41.9443 157.22C38.9566 164.248 37.6053 171.772 34.9259 178.913C34.4803 180.101 33.4331 184.1 31.7741 184.174C29.9281 184.256 29.9425 180.126 29.837 178.92C29.2244 171.926 27.1556 164.98 27.7799 157.914C28.4104 150.778 30.9118 143.442 34.4513 137.236C41.9347 124.114 55.4486 116.579 68.3927 109.716C83.2062 101.863 98.8455 95.6586 114.819 90.6042C134.029 84.5253 153.754 79.6068 173.598 76.1066C183.694 74.3261 193.946 73.0527 204.145 72.0317C207.729 71.673 211.315 71.4633 214.853 70.781C216.189 70.523 221.007 69.2972 220.64 72.0324ZM230.96 49.6299C225.898 49.6699 220.728 47.2162 215.797 46.2021C209.927 44.9935 204.193 43.2448 198.333 41.9831C186.858 39.5128 175.376 37.1039 163.911 34.5791C158.934 33.4829 153.932 32.5289 148.975 31.3515C143.67 30.0919 137.94 28.6874 132.511 30.0443C124.282 32.1014 120.806 41.1042 117.784 48.1302C115.65 53.0929 113.978 58.6247 110.649 62.9431C109.464 64.4828 107.78 66.3192 105.631 65.8204C101.639 64.8946 102.273 59.6119 102.781 56.6918C103.518 52.4541 104.562 48.2661 105.397 44.0478C105.734 42.3452 108.343 31.2025 103.685 32.9276C100.229 34.2072 98.4013 42.6357 97.0934 45.6461C96.1214 47.8833 95.0914 50.1059 94.0008 52.2879C92.5453 55.1983 88.3924 64.9229 83.7947 63.6688C77.215 61.8738 83.5263 44.5762 84.6473 40.9304C85.2626 38.9292 91.9506 23.7523 86.3057 24.9926C83.9016 25.5217 81.5596 29.987 80.3338 31.8379C78.1601 35.1206 75.9933 38.427 73.9472 41.7906C71.8425 45.2501 70.7678 49.1877 68.6803 52.5969C67.5821 54.3912 65.3408 56.7822 63.1527 55.121C59.7414 52.5335 61.7633 43.5325 62.3607 40.1288C63.4721 33.8009 66.2328 27.3139 70.0207 22.1408C75.7125 14.3677 86.4526 11.856 95.484 10.346C107.142 8.3965 118.961 8.92975 130.668 10.0832C143.833 11.3807 156.798 12.7701 169.775 15.4232C182.854 18.097 195.939 20.7494 208.817 24.2855C214.883 25.9515 221.036 27.4284 227.017 29.3841C233.374 31.4626 239.578 34.0493 246.113 35.5469C243.815 41.2829 241.516 47.0189 239.217 52.7556C237.017 50.5791 234.014 49.6051 230.96 49.6299ZM343.626 65.4362C345.642 64.3338 347.868 63.8137 348.604 61.3772C349.254 59.2242 348.143 56.7849 347.612 54.7182C346.126 48.9318 345.735 42.9378 347.05 37.0832C348.306 39.0016 353.011 46.3808 355.873 41.9134C357.599 39.2189 352.974 35.3427 351.624 33.4484C354.586 31.6206 358.817 26.7144 362.23 29.6731C364.436 31.5861 365.37 33.4277 368.343 34.3576C371.951 35.4869 375.349 35.2282 379.034 34.9164C381.614 34.6984 382.235 34.3542 383.243 36.3409C384.034 37.9027 384.443 39.8356 384.906 41.5126C385.816 44.819 387.924 51.3338 385.427 54.4312C383.241 57.1443 374.751 54.8182 373.572 58.3205C372.93 60.2307 375.998 60.2989 377.171 61.244C378.623 62.414 379.824 64.2759 380.613 65.939C381.197 67.169 382.086 69.2013 381.091 70.4589C379.717 72.1986 377.169 70.879 376.062 69.6145C374.591 67.9347 374.114 65.6383 372.887 63.8088C370.634 60.4521 370.5 63.1224 369.887 65.5327C369.25 68.0368 367.743 67.8644 365.436 68.1859C361.387 68.7508 357.296 69.5476 353.355 70.6327C351.334 71.1887 349.377 71.8972 347.453 72.725C346.213 73.2575 344.065 74.8711 342.719 74.8862C340.227 74.9145 338.499 70.7458 337.212 69.0068C339.348 67.814 341.479 66.6103 343.626 65.4362ZM477.474 320.692C471.249 313.219 465.858 305.101 459.716 297.564C453.658 290.129 446.65 283.629 439.853 276.895C436.644 273.717 433.57 270.231 430.029 267.415C427.387 265.314 425.354 265.281 422.176 266.212C413.145 268.857 403.951 272.04 395.405 275.987C387.448 279.662 380.2 284.381 371.57 286.431C362.761 288.523 353.602 289.195 344.574 288.676C335.314 288.145 326.58 286.218 317.774 283.386C309.433 280.704 300.737 278.362 293.604 273.046C286.127 267.474 280.349 259.458 274.996 251.92C272.286 248.104 269.595 244.096 267.769 239.77C266.185 236.017 265.149 231.587 262.306 228.527C261.608 229.516 260.741 230.364 260.386 231.525C260.225 232.052 261.175 232.036 261.078 232.455C260.894 233.245 259.842 234.051 259.231 234.481C257.035 236.026 257.022 234.796 257.598 237.686C257.934 239.37 257.299 243.171 254.552 241.929C255.563 243.14 253.957 244.668 253.432 245.665C253.071 245.25 252.622 245.106 252.085 245.231C253.09 247.232 252.496 247.285 251.523 248.873C251.345 249.164 250.715 250.684 250.806 250.555C249.811 251.972 248.662 252.329 248.081 254.093C247.605 255.543 247.727 257.136 247.196 258.584C246.553 257.696 245.911 256.808 245.269 255.921C245.4 256.619 245.662 257.652 245.967 258.286C246.159 258.682 246.981 259.606 246.97 259.822C246.925 260.629 245.918 260.435 245.631 261.131C245.092 262.437 245.871 262.63 245.577 263.904C245.241 265.366 244.337 264.781 243.907 266.028C243.826 266.264 244.46 267.196 244.36 267.706C244.218 268.428 243.564 268.831 243.333 269.473C242.746 271.105 242.959 272.3 242.143 273.865C241.827 274.472 241.367 274.876 241.144 275.566C240.949 276.173 241.369 277.465 240.993 278.009C239.173 280.629 239.429 276.115 239.567 274.996C240.725 265.595 244.441 255.893 247.842 247.107C249.532 242.742 251.177 238.24 253.296 234.059C254.149 232.375 255.133 230.637 256.542 229.349C258.325 227.72 260.854 227.068 262.468 225.248C262.213 225.535 264.218 223.638 263.897 224.261C264.184 223.704 263.683 222.949 263.861 222.41C264.083 221.74 264.502 221.599 264.968 221.013C265.806 219.96 266.802 219.436 265.485 218.095C267.439 217.663 268.373 217.029 268.763 214.937C269.048 213.406 268.473 213.506 269.477 212.486C270.485 211.461 270.996 212.261 271.631 210.486C272.391 208.362 272.895 205.474 273.35 203.251C273.747 201.311 272.783 198.457 274.419 197.087C276.49 195.352 278.344 196.086 277.973 192.597C277.611 189.196 278.667 187.135 279.73 183.916C281.85 177.491 282.669 170.706 284.528 164.204C288.495 150.327 295.503 137.815 303.039 125.6C310.002 114.313 319.737 104.697 329.137 95.4358C331.711 92.8993 334.257 90.3262 336.568 87.5454C338.558 85.151 339.468 81.8908 341.381 79.6178C342.544 78.2375 344.708 77.647 346.331 76.915C349.038 75.694 352.263 74.1012 355.319 74.3482C354.105 78.441 353.709 83.2236 357.292 86.2927C361.638 90.0157 365.578 86.1478 369.562 84.0252C376.825 80.1559 387.212 83.7079 393.545 77.9084C395.053 76.5274 395.474 74.3206 397.041 73.0306C398.192 72.0848 399.829 71.8447 401.125 71.1397C405.06 68.9978 406.97 65.0768 405.438 60.7453C404.037 56.7856 401.861 55.4121 406.705 53.4054C410.637 51.7774 412.132 49.3243 410.352 44.957C408.655 40.7931 405.546 40.3137 402.605 37.5888C399.756 34.9495 403.029 31.8779 405.164 29.8967C407.915 27.3408 408.442 25.0374 405.251 22.3795C401.91 19.5967 397.139 19.694 393.244 21.0702C388.839 22.6258 385.936 25.212 384.072 29.4027C382.174 33.6692 377.469 32.4785 373.658 31.2894C370.014 30.1526 369.065 27.6995 366.672 25.0581C364.011 22.1201 358.586 24.6325 355.448 25.9749C347.716 29.2793 340.033 34.4942 339.726 43.7318C339.543 49.2402 341.872 53.9221 343.084 59.0924C344.192 63.8206 336.596 63.448 335.28 68.0217C321.248 60.5935 305.621 58.3205 289.936 57.8148C273.265 57.2768 256.353 56.8456 239.824 59.4753C243.661 52.7908 245.687 45.4605 249.025 38.5932C249.986 36.6161 250.4 36.7852 252.521 37.3826C256.594 38.5298 260.637 39.8135 264.702 40.9952C279.553 45.3122 294.112 50.5136 308.472 56.2103C309.867 56.7642 312.983 58.3019 314.206 56.6297C315.618 54.7016 312.352 52.3244 311.031 51.3545C305.249 47.1127 298.084 44.5382 291.608 41.5623C277.451 35.0578 261.773 31.9703 247.001 27.1394C215.111 16.7083 182.119 8.78626 148.977 3.55384C140.89 2.27696 132.716 2.09001 124.593 1.14217C117.398 0.302641 110.19 0.321957 102.996 1.18908C89.708 2.79157 74.3032 6.24904 66.7985 18.4122C60.0236 29.3944 55.501 41.7416 57.2297 54.7685C57.7492 58.6813 59.4062 63.3149 64.2343 62.3064C67.5835 61.6069 69.3619 58.7613 70.9168 55.984C73.2664 51.7884 75.587 47.5928 78.1332 43.5097C79.0776 49.632 75.6456 55.6522 76.1851 61.889C76.5521 66.1212 78.8906 72.8078 84.3852 71.6095C91.9161 69.9677 95.0156 58.2025 98.6365 52.5583C98.82 56.9056 97.2962 61.1902 97.7625 65.5472C98.2226 69.8511 101.586 73.9143 106.309 73.3244C110.764 72.7684 113.659 67.9955 115.551 64.4021C118.184 59.4015 120.076 54.0401 122.648 49.0063C125.058 44.2878 127.913 38.6705 133.668 37.784C138.804 36.9921 144.689 38.825 149.762 39.5811C163.834 41.6782 177.623 45.2488 191.541 48.1337C206.464 51.2262 221.74 53.1046 236.203 58.0949C231.118 65.0167 217.809 63.5212 210.234 64.2641C198.785 65.3872 187.19 66.2322 175.806 67.8892C164.563 69.5255 153.555 72.4304 142.4 74.5393C131.303 76.637 120.226 78.7383 109.488 82.3158C89.5527 88.9582 69.2846 97.3646 51.72 108.955C43.5475 114.348 36.2877 120.511 31.2394 129.024C26.1588 137.59 23.7174 147.276 22.7862 157.129C22.2067 163.264 23.1911 168.574 24.3797 174.545C25.2406 178.868 25.5193 186.107 28.9857 189.272C35.602 195.315 41.0951 170.806 42.3168 167.846C43.1964 172.697 41.7581 200.025 52.374 197.803C57.1118 196.811 58.1865 190.308 58.9723 186.391C60.4057 179.251 61.6895 171.967 64.1412 165.09C65.7147 174.356 66.3708 184.009 69.7606 192.859C72.0122 198.737 78.4367 209.166 82.9158 199.104C86.2753 191.558 85.1226 182.897 85.5255 174.885C85.9718 166.007 88.5207 157.443 89.423 148.652C89.7728 145.246 89.4562 141.408 92.8784 139.549C95.8165 137.955 100.113 137.435 103.32 136.545C112.822 133.907 122.385 131.482 131.841 128.683C141.302 125.882 150.631 122.611 159.965 119.417C168.892 116.363 178.007 114.627 187.043 112.012C192.18 110.525 197.255 108.969 202.464 107.727C204.888 107.15 207.342 106.7 209.76 106.102C211.553 105.659 213.915 103.988 215.758 104.017C217.655 104.048 218.368 105.654 220.544 105.781C222.886 105.916 225.267 105.399 227.596 105.22C233.27 104.785 239.301 104.082 244.962 104.868C241.56 108.903 236.965 111.693 232.937 115.036C228.293 118.892 223.798 123.055 219.831 127.608C211.848 136.769 204.303 146.452 197.294 156.377C190.379 166.168 184.812 176.881 179.972 187.828C177.561 193.282 175.219 198.856 173.553 204.589C172.869 206.944 172.31 209.309 171.075 211.451C169.942 213.415 168.345 215.109 169.684 217.481C170.607 216.904 171.435 216.186 172.269 215.493C171.305 222.282 169.225 228.849 168.156 235.617C167.102 242.285 167.145 249.143 167.213 255.877C167.357 269.98 168.405 283.763 171.266 297.597C174.159 311.585 177.876 325.466 182.563 338.96C187.074 351.952 191.602 365.577 197.899 377.823C204.625 390.902 212.627 404.653 222.362 415.724C216.003 418.329 207.909 417.842 201.175 418.891C194.136 419.988 188.047 422.058 182.048 425.953C175.979 429.895 172.684 434.969 171.845 442.156C171.249 447.271 169.479 454.353 176.189 455.697C181.016 456.663 186.412 455.076 191.249 454.684C199.709 453.998 208.181 453.57 216.66 453.2C225.117 452.831 233.576 452.506 242.035 452.244C246.014 452.12 249.995 452.058 253.973 451.915C255.755 451.852 256.836 451.824 258.434 452.34C259.698 452.747 259.606 453.594 261.013 452.547C263.283 450.859 262.816 445.537 262.752 443.197C262.656 439.586 262.313 435.933 261.609 432.39C261.191 430.285 256.117 416.714 260.062 416.142C255.479 411.105 253.648 403.912 251.589 397.599C249.009 389.689 246.744 381.802 244.966 373.666C241.169 356.289 239.49 338.721 239.49 320.941C257.093 331.791 275.718 337.669 296.452 338.324C317.066 338.976 339.712 337.283 359.287 330.425C368.351 327.249 376.47 323.079 384.242 317.46C387.028 315.446 390.012 310.885 393.668 310.963C398.031 311.057 402.917 312.708 407.25 313.415C415.537 314.765 426.352 315.528 433.367 320.653C437.178 323.437 439.909 327.334 443.31 330.542C445.897 332.983 449.318 334.308 451.885 336.748C454.656 339.382 453.556 342.822 458.149 343.035C462.076 343.216 466.381 341.637 469.767 339.782C476.524 336.083 483.719 328.186 477.474 320.692Z" fill="#11304D"/>
<path fill-rule="evenodd" clip-rule="evenodd" d="M412.533 144.723C422.42 151.746 433.761 156.544 444.094 162.869C446.68 164.452 454.737 167.739 454.659 170.676C454.614 172.393 452.192 174.546 451.132 175.736C449.316 177.774 447.607 179.834 445.931 181.99C438.258 191.865 431.033 201.834 422.718 211.213C421.466 212.623 417.694 219.36 416.477 216.014C415.925 214.497 416.379 212.792 414.941 211.378C414.201 210.65 411.34 210.248 412.174 208.686C412.729 208.935 413.285 209.186 413.841 209.435C413.409 208.186 413.441 206.818 412.794 205.638C412.392 204.905 411.606 204.558 411.333 203.732C410.957 202.591 411.595 201.265 411.489 200.089C411.383 198.916 410.775 197.808 410.412 196.701C408.261 190.142 407.489 183.53 406.387 176.763C405.297 170.067 403.6 163.58 402.933 156.809C402.229 149.658 401.366 142.521 400.214 135.426C402.27 135.715 403.849 137.948 405.303 139.21C407.587 141.194 410.068 142.972 412.533 144.723ZM404.782 213.96C404.31 213.589 403.941 213.134 403.675 212.594C408.521 210.194 405.597 214.289 404.782 213.96ZM401.835 208.84C399.723 209.422 398.205 209.54 396.576 208.671C396.422 208.589 396.6 207.953 396.321 207.823C396.078 207.71 395.706 207.85 395.497 207.743C394.788 207.383 393.547 208.173 393.426 206.792C396.122 205.967 398.773 204.445 401.619 204.188C405.575 203.832 405.392 207.859 401.835 208.84ZM392.58 200.879C389.698 201.553 387.324 203.127 384.261 202.716C381.387 202.331 378.889 200.84 376.621 199.123C382.294 197.517 388.242 197.227 393.91 195.673C395.755 195.168 398.18 193.834 400.169 194.372C402.379 194.969 402.518 197.039 403.18 198.922C399.644 199.558 396.081 200.061 392.58 200.879ZM374.554 192.888C371.785 193.549 368.955 194.996 366.639 192.499C366.266 192.097 365.939 192.499 365.983 191.258C366.029 189.949 367.217 189.106 368.238 188.645C370.641 187.562 374.008 188.262 376.559 188.103C380.628 187.85 384.77 187.004 388.795 186.353C391.582 185.903 394.461 184.902 397.309 185.1C399.508 185.252 402.161 187.126 398.956 188.494C396.038 189.739 391.661 189.548 388.499 190.088C383.825 190.885 379.167 191.785 374.554 192.888ZM371.849 179.861C372.028 180.044 372.208 180.227 372.387 180.409C372.357 180.402 373.449 179.519 373.738 179.493C375.142 179.371 376.554 179.468 377.96 179.388C381.199 179.206 384.464 178.641 387.646 178.02C390.237 177.513 392.877 176.641 395.545 176.859C397.855 177.048 398.097 177.522 398.248 179.751C392.353 179.751 386.28 179.626 380.487 180.874C376.715 181.686 372.558 184.105 370.668 179.745C371.062 179.784 371.455 179.822 371.849 179.861ZM375.535 170.425C376.997 171.538 380.982 169.687 382.734 169.502C384.637 169.3 386.427 169.091 388.271 168.617C389.906 168.196 395.315 166.095 396.569 168.105C398.491 171.183 390.706 171.748 389.472 171.901C384.297 172.54 378.926 173.107 373.89 174.465C374.438 173.118 374.986 171.772 375.535 170.425ZM382.635 159.967C383.013 161.391 394.718 156.146 394.931 159.958C395.095 162.882 383.35 164.339 381.238 164.082C381.733 162.736 383.049 161.53 382.635 159.967ZM386.565 151.022C386.814 148.152 387.199 148.168 389.501 147.898C391.256 147.692 393.669 146.663 393.213 149.792C392.822 152.471 386.314 153.919 386.565 151.022ZM390.749 141.146C391.302 139.605 392.549 141.679 392.575 142.463C392.645 144.548 391.064 144.097 389.542 144.097C389.966 143.123 390.368 142.138 390.749 141.146ZM410.014 129.578C409.703 129.204 407.961 129.061 407.465 128.88C406.245 128.433 406.418 127.48 404.858 128.42C404.78 128.341 404.928 127.635 404.843 127.602C404.801 127.586 403.707 127.173 403.352 126.946C402.494 126.396 401.722 125.859 400.934 125.17C400.097 124.438 399.258 123.376 398.301 122.793C397.897 122.547 397.568 122.199 397.081 122.124C395.82 121.929 396.181 122.808 395.078 122.982C394.398 123.09 393.904 122.297 393.015 122.639C392.248 122.934 391.802 124.011 391.46 124.652C390.216 126.984 389.256 129.495 388.039 131.852C381.812 143.905 374.735 155.501 368.704 167.667C365.799 173.528 362.768 179.43 360.723 185.658C359.249 190.151 355.92 196.713 358.784 201.202C360.867 204.465 365.037 205.875 368.364 207.452C373.37 209.825 377.985 212.926 383.047 215.227C389.082 217.97 394.943 220.84 400.826 223.904C403.335 225.21 405.599 227.092 408.099 228.33C409.629 229.086 411.991 227.795 412.489 229.53C414.406 227.208 417.509 228.756 419.727 227.121C421.031 226.159 421.984 224.265 423.072 223.081C424.704 221.305 426.476 219.658 428.141 217.913C434.751 210.984 440.854 203.767 446.867 196.324C452.61 189.217 459.32 182.502 464.172 174.722C466.099 171.633 466.448 168.394 465.176 164.983C464.248 162.494 462.011 158.735 458.817 160.383C460.028 158.372 455.355 156.224 453.938 155.83C453.916 155.825 453.637 157.37 453.242 157.332C453.382 157.345 452.054 153.908 451.47 153.467C449.737 152.156 447.629 150.626 445.738 149.546C444.004 148.556 442.174 148.066 440.494 146.958C438.458 145.615 436.588 144.023 434.544 142.69C432.571 141.403 430.371 139.881 428.189 138.996C426.298 138.228 424.6 138.078 422.898 136.819C420.792 135.262 418.956 134.206 416.528 133.133C414.427 132.206 411.516 131.395 410.014 129.578Z" fill="#11304D"/>
<path fill-rule="evenodd" clip-rule="evenodd" d="M123.279 316.002C123.665 315.095 124.05 314.188 124.437 313.281C124.914 314.862 125.048 315.649 123.279 316.002ZM123.793 320.192C122.956 320.342 123.286 317.717 123.286 317.259C124.731 318.078 123.534 319.058 123.793 320.192ZM122.488 312.62C123.202 312.198 123.915 311.777 124.628 311.356C123.635 313.196 124.025 312.046 124.434 313.276C123.685 313.491 122.957 313.24 122.488 312.62ZM118.261 327.004C115.587 336.705 107.095 344.356 98.1248 348.319C92.9703 350.596 87.9028 351.166 82.3365 350.912C80.1897 350.814 77.6635 350.116 75.5974 350.246C74.0067 350.346 74.0784 350.415 72.7608 351.762C72.1779 350.688 72.6001 349.935 71.4308 349.31C69.9718 348.53 69.3661 349.438 68.6425 350.518C67.6954 349.536 67.3077 349.024 66.0805 348.441C66.1191 348.459 64.9057 348.413 64.9553 348.428C64.736 348.361 63.4163 347.512 63.0031 347.358C61.3075 346.722 59.347 346.46 57.7824 345.548C56.4138 344.751 55.2866 342.514 53.7207 344.233C53.7193 341.36 49.85 340.169 48.0364 338.664C45.2025 336.313 42.9495 332.832 41.5368 329.465C40.0302 325.875 39.5273 322.432 38.8222 318.732C38.3297 316.147 35.104 312.409 37.0411 309.8C37.5026 310.894 37.286 312.015 38.0524 313.007C38.7422 311.677 39.1216 310.19 39.4334 308.735C39.5866 308.022 40.4737 305.931 40.373 305.31C40.1681 304.039 38.5953 303.97 39.4672 302.413C41.276 304.381 42.7357 300.925 41.3691 299.547C40.6945 300.308 40.4468 301.172 40.1357 302.115C38.3573 298.525 43.2793 299.681 42.2024 296.44C43.9988 296.095 45.0315 295.642 45.7144 293.867C46.4739 291.892 45.9152 291.462 47.6397 290.156C48.233 289.708 49.9107 289.063 50.2177 288.325C50.8116 286.899 49.3002 286.476 50.624 285.14C51.071 285.924 52.8135 287.477 53.7676 285.999C53.9586 285.705 53.1564 285.496 53.74 284.817C54.6043 283.813 55.5715 282.828 57.0332 283.039C55.8757 280.145 63.2721 279.916 65.1664 279.233C67.0649 278.549 68.6756 278.1 70.6886 277.941C72.6994 277.783 72.7995 277.194 74.502 275.983C74.6462 277.715 75.0628 277.334 76.2942 277.64C76.5901 277.132 76.8937 277.075 77.2041 277.469C77.5131 277.763 77.8912 277.901 78.3368 277.884C79.0128 277.919 79.7799 277.831 80.4884 277.846C82.1516 277.878 83.8672 277.739 85.4987 277.774C85.9195 277.704 86.3127 277.558 86.6811 277.335C86.8349 277.625 86.9894 277.915 87.1426 278.206C88.0069 278.314 88.0739 279.397 89.1369 278.213C89.4515 279.718 90.3551 278.935 91.3099 279.343C92.1804 279.716 92.3191 280.312 93.1228 280.728C93.6512 281.157 94.2175 281.213 94.8232 280.899C95.3992 281.326 95.9842 281.741 96.5775 282.143C97.6709 282.761 98.9595 283.139 100.112 283.626C100.878 283.942 101.639 284.271 102.395 284.612C102.418 285.524 102.827 285.846 103.621 285.578C104.34 286.179 104.542 286.155 105.238 287.178C106.817 289.497 108.217 291.298 110.211 293.37C118.876 302.38 121.538 315.117 118.261 327.004ZM120.92 288.695C117.008 283.456 111.471 277.457 106.495 274.149C103.973 272.471 100.433 269.46 97.3487 268.573C96.6175 268.362 95.8607 268.349 95.1419 268.128C94.5866 267.957 94.2845 267.388 93.6512 267.285C93.2083 267.213 93.1593 268.204 92.6889 268.113C91.7051 267.922 91.0815 266.945 90.3869 266.335C88.8948 268.906 88.0849 264.582 85.894 267.489C83.2864 263.4 77.1606 264.294 72.9968 264.501C71.762 264.561 71.1818 265.001 70.087 265.326C69.0682 265.629 68.9674 265.551 67.8547 265.543C65.0836 265.522 62.6237 265.87 60.0623 267.087C55.7591 269.131 51.8091 272.316 47.7218 274.779C43.1537 277.532 39.0361 281.037 35.5414 285.063C22.9077 299.623 19.5296 320.875 29.6033 337.754C45.604 364.562 86.8777 367.426 110.265 349.237C128.334 335.183 135.21 307.827 120.92 288.695Z" fill="#11304D"/>
<path fill-rule="evenodd" clip-rule="evenodd" d="M318.965 213.256C318.516 214.327 314.323 213.966 314.231 212.703C314.095 210.816 319.746 211.394 318.965 213.256ZM323.42 212.555C325.796 212.748 329.701 214.362 331.991 213.387C335.486 211.898 331.816 209.614 329.941 208.931C328.033 208.236 325.191 208.605 324.21 206.61C323.471 205.11 325.295 200.921 323.033 201.594C320.658 202.301 321.349 208.301 317.623 206.278C315.846 205.313 316.571 199.434 313.594 202.438C312.78 203.259 312.709 204.768 311.63 205.381C310.529 206.006 309.148 205.354 307.985 205.409C304.908 205.553 303.928 208.432 307.046 209.574C308.2 209.996 312.55 210.512 309.915 212.398C308.254 213.586 304.566 211.093 303.14 213.161C301.18 216.002 306.43 216.066 307.84 216.916C310.229 218.355 308.256 221.717 308.446 224.11C308.738 227.768 310.863 227.004 311.635 223.908C312.289 221.282 311.478 217.502 315.437 218.546C321.884 220.245 311.852 228.43 316.574 230.525C319.586 231.86 320.012 224.641 320.246 223.398C321.112 218.81 323.689 219.88 327.593 220.021C332.154 220.185 333.255 216.811 328.425 215.845C326.884 215.536 324.764 215.926 323.426 214.945C322.634 214.364 321.545 212.403 323.42 212.555Z" fill="#11304D"/>
<path fill-rule="evenodd" clip-rule="evenodd" d="M155.014 362.453C151.323 361.131 145.147 361.416 144.234 366.184C143.852 368.18 144.596 370.291 145.975 371.741C147.573 373.422 150.118 373.578 149.983 370.65C149.888 368.624 147.96 366.864 151.35 366.456C153.459 366.202 156.579 367.78 156.684 370.11C156.922 375.362 147.83 375.774 144.479 374.866C137.829 373.064 139.636 366.098 144.202 362.92C145.382 362.098 148.767 360.833 148.922 359.127C149.127 356.864 146.329 357.326 144.958 357.624C134.877 359.819 132.68 376.706 143.213 379.89C147.996 381.335 154.733 379.843 157.616 375.511C160.318 371.449 160.355 364.365 155.014 362.453Z" fill="#11304D"/>
<path fill-rule="evenodd" clip-rule="evenodd" d="M21.3554 242.907C18.2042 244.424 15.053 245.941 11.9025 247.457C10.8609 245.229 9.1011 239.139 6.45902 238.362C2.18203 237.103 4.9055 243.741 5.64363 245.258C6.25 246.505 7.65658 248.436 7.31511 249.922C6.85706 251.924 4.03286 252.633 2.55454 253.666C-1.10366 256.223 -1.0747 261.592 4.22325 259.316C7.22128 258.029 10.9333 254.457 13.2311 258.512C14.2921 260.383 16.8059 270.835 19.4314 264C21.056 259.768 13.2367 255.371 17.0915 251.79C18.3325 250.638 19.7853 250.541 21.0249 249.879C24.0188 248.279 22.3308 245.323 21.3554 242.907Z" fill="#11304D"/>
<path fill-rule="evenodd" clip-rule="evenodd" d="M483.33 91.4593C481.451 90.7723 479.127 89.4305 477.039 89.8879C474.82 90.3735 473.927 92.5962 472.313 93.9324C467.926 97.5658 465.371 92.1506 462.961 89.1829C460.685 86.3808 457.907 85.7006 454.695 87.4224C453.416 88.1088 448.025 91.2538 448.965 93.2688C449.641 94.7188 452.304 93.4171 453.213 93.1005C455.185 92.4141 457.017 91.8132 459.034 92.8142C462.818 94.6905 463.799 99.836 468.377 100.638C473.111 101.468 473.266 96.9635 476.644 95.2679C478.909 94.1318 480.486 96.1433 482.671 95.7425C484.753 95.3611 485.716 92.3313 483.33 91.4593Z" fill="#11304D"/>
<path fill-rule="evenodd" clip-rule="evenodd" d="M445.112 109.614C446.786 109.978 447.879 106.731 448.927 105.907C450.665 104.542 453.679 104.267 455.449 105.641C458.906 108.323 457.714 114.113 462.636 115.623C467.035 116.972 469.108 111.178 472.811 109.736C474.964 108.897 477.327 108.348 476.487 105.338C475.907 103.257 474.197 102.722 472.339 103.522C469.145 104.894 468.061 110.487 464.274 110.587C460.356 110.69 459.932 105.043 458.25 102.583C455.686 98.8335 450.415 97.9278 447.419 101.513C446.515 102.595 441.923 108.924 445.112 109.614Z" fill="#11304D"/>
<path fill-rule="evenodd" clip-rule="evenodd" d="M367.674 45.5901C370.003 47.1837 374.644 47.1285 376.789 45.1521C378.973 43.1412 376.058 42.8322 374.28 42.8936C372.912 42.9412 370.351 43.6193 371.131 41.2566C371.823 39.1602 375.626 40.2273 375.943 37.926C373.081 37.4128 369.928 37.5977 367.811 39.8472C366.28 41.4732 365.494 44.098 367.674 45.5901Z" fill="#11304D"/>
<path fill-rule="evenodd" clip-rule="evenodd" d="M251.32 28.6421C249.185 34.2923 247.051 39.9435 244.916 45.5939C243.547 49.2149 242.18 52.8352 240.812 56.4561C240.326 57.7399 240.057 59.0568 239.118 59.9481C236.907 62.0466 232.937 63.3821 230.28 64.8583C228.499 65.8475 226.718 66.8368 224.937 67.826C224.019 68.3365 221.984 68.9773 221.34 69.8245C220.632 70.7578 220.967 72.4721 220.967 73.7627V84.9064V105.904C230.164 104.754 239.363 103.604 248.56 102.454C236.306 116.594 224.052 130.733 211.798 144.873C208.778 148.357 205.112 151.711 202.861 155.765C198.072 164.395 193.391 173.087 188.658 181.747C184.251 189.808 179.844 197.869 175.438 205.93L215.082 204.243C225.346 203.806 235.89 204.463 245.779 201.554C253.932 199.156 262.084 196.759 270.236 194.361C271.321 194.041 274.698 193.681 275.467 192.808C276.186 191.99 276.171 188.902 276.374 187.856C280.222 168.079 285.121 146.284 296.351 129.259C304.403 117.056 315.268 106.371 325.218 95.7285C329.102 91.575 333.054 87.4712 336.799 83.1914C337.759 82.0953 339.145 80.8515 339.779 79.5201C340.189 78.6599 340.762 77.0208 340.507 76.2572C340.397 75.9261 337.837 74.7382 337.47 74.5023C334.875 72.8349 332.304 71.1324 329.726 69.4382C322.485 64.6769 315.25 59.9039 307.966 55.2061C302.288 51.5431 296.626 47.6593 290.637 44.5116C284.429 41.2487 277.592 38.9522 271.083 36.3743C264.507 33.7688 257.917 31.1931 251.32 28.6421Z" fill="#FC8BA9"/>
<path fill-rule="evenodd" clip-rule="evenodd" d="M474.547 330.503C471.389 333.479 465.637 337.473 461.091 335.657C458.808 334.745 456.858 332.742 454.778 331.451C452.335 329.933 450.037 328.415 447.966 326.393C443.833 322.356 440.704 316.458 435.823 313.298C434.182 312.236 430.98 312.008 429.842 310.312C429.332 309.551 429.284 308.397 429.378 307.517C429.582 305.623 430.605 305.735 428.896 304.344H431.551C431.602 303.318 430.578 303.233 429.816 303.366C430.17 301.74 430.532 295.377 427.568 298.261C424.999 300.76 426.284 304.907 424.465 307.614C423.072 309.687 419.376 308.008 418.877 305.728C418.653 304.703 419.782 303.104 419.916 302.099C420.212 299.872 419.217 297.946 417.772 296.259C414.603 298.371 416.4 302.741 414.594 305.515C412.959 308.026 409.32 306.854 406.832 306.413C403.849 305.883 400.476 306.419 397.622 305.715C393.313 304.651 394.922 299.592 394.496 296.326C394.039 292.828 390.503 287.973 391.565 284.444C392.706 280.654 399.376 279.835 402.565 278.916C409.852 276.814 420.245 276.41 425.663 270.525C429.971 275.331 433.437 280.833 437.956 285.459C442.838 290.455 448.051 295.068 452.737 300.266C457.615 305.676 462.649 310.982 467.349 316.548C469.4 318.976 471.2 321.593 473.321 323.963C475.207 326.07 477.196 328.008 474.547 330.503ZM257.963 237.049C260.203 235.858 260.487 236.605 260.487 239.057C259.842 237.88 259.203 237.564 257.963 237.049ZM238.979 284.721V280.398C241.138 280.342 239.81 284.039 238.979 284.721ZM238.451 291.158C238.451 289.244 238.4 287.422 238.951 285.56C239.241 287.589 239.794 289.345 238.451 291.158ZM247.732 422.657C249.715 422.842 252.77 421.476 254.438 423.032C256.15 424.63 256.013 429.282 256.419 431.442C257.089 435.01 257.683 438.59 258.248 442.176C258.619 444.527 259.077 446.915 256.419 447.814C252.491 449.143 246.878 447.246 242.784 447.074C234.697 446.734 226.612 446.261 218.518 446.097C210.672 445.938 202.809 446.063 194.999 446.88C191.471 447.248 188.021 447.899 184.529 448.488C182.689 448.799 177.757 450.1 176.095 448.548C172.967 445.627 178.167 438.808 180.404 436.882C184.554 433.308 190.457 430.731 195.662 429.179C198.444 428.349 203.081 426.02 205.271 428.625C206.953 430.623 206.886 433.291 209.295 434.805C214.876 438.314 211.61 428.25 208.123 427.011C210.465 421.529 214.929 429.269 216.78 431.128C217.439 431.789 219.581 433.971 220.512 432.874C221.209 432.053 219.817 429.111 219.559 428.311C219.168 427.096 218.176 425.247 218.461 423.929C218.977 421.543 222.323 420.893 224.327 420.695C227.435 420.387 230.483 421.372 233.556 421.701C238.267 422.206 243.015 422.214 247.732 422.657ZM216.53 197.969C210.395 198.457 204.222 197.519 198.101 198.287C192.311 199.014 186.854 201.14 181.396 203.093C189.511 184.06 200.01 166.733 212.807 150.502C219.18 142.418 226.034 134.39 232.92 126.739C236.124 123.179 239.438 119.737 242.747 116.278C245.698 113.192 247.812 107.95 251.354 105.645C254.377 103.678 259.66 105.081 263.01 105.203C266.796 105.341 271.404 105.685 275.097 104.425C277.773 103.512 278.509 101.075 275.159 100.994C271.208 100.898 267.322 101.31 263.32 100.939C252.95 99.9811 242.953 98.4062 232.499 99.2996C230.104 99.5038 226.951 100.524 224.601 100.218C222.911 99.9963 224.022 100.846 222.847 99.49C222.397 98.9712 221.855 97.7516 221.722 97.0624C220.974 93.1918 223.099 87.6606 223.607 83.7637C224.078 80.1573 223.661 76.1935 224.541 72.6815C225.343 69.4855 227.786 69.0592 230.795 68.7177C239.027 67.783 247.428 67.2856 255.697 66.5813C274.568 64.974 294.039 62.5492 312.782 66.5213C319.55 67.9555 327.802 70.1733 333.848 73.7245C335.739 74.8345 337.646 76.1417 336.959 78.4417C336.245 80.8292 332.748 83.3512 331.016 84.924C318.213 96.5464 305.848 108.401 296.854 123.314C285.385 142.331 278.803 162.869 274.942 184.661C274.111 189.349 273.34 191.803 268.516 193.152C263.339 194.601 258.341 195.543 252.972 195.984C240.835 196.98 228.66 197.001 216.53 197.969ZM220.64 72.0324C219.71 78.9549 218.452 85.8622 218.327 92.8392C218.28 95.4744 218.031 96.7948 215.229 97.3825C211.925 98.0751 208.566 98.5911 205.247 99.3099C189.23 102.781 173.516 107.044 157.845 111.843C142.616 116.508 127.637 121.755 112.065 125.211C105.367 126.697 97.5286 127.699 91.4277 130.99C84.8646 134.532 85.7283 140.338 85.1392 146.716C84.3521 155.236 81.8252 163.487 80.9367 172.004C80.5117 176.074 80.1247 180.168 80.1889 184.264C80.2434 187.755 80.7435 191.616 78.3967 194.554C73.6886 188.26 71.4569 180.343 70.5291 172.629C70.078 168.879 70.2566 165.098 70.1276 161.331C70.0235 158.298 70.091 153.473 68.1154 150.94C63.8204 145.435 58.2348 167.496 57.7037 169.852C56.8103 173.817 56.0736 177.815 55.1837 181.781C54.7891 183.539 54.2827 189.929 51.9276 190.566C47.047 191.886 48.1184 178.171 48.0411 176.083C47.8866 171.868 47.7817 167.649 47.8804 163.43C47.9521 160.385 48.5412 157.081 48.1915 154.035C47.3326 146.555 43.1267 154.435 41.9443 157.22C38.9566 164.248 37.6053 171.772 34.9259 178.913C34.4803 180.101 33.4331 184.1 31.7741 184.174C29.9281 184.256 29.9425 180.126 29.837 178.92C29.2244 171.926 27.1556 164.98 27.7799 157.914C28.4104 150.778 30.9118 143.442 34.4513 137.236C41.9347 124.114 55.4486 116.579 68.3927 109.716C83.2062 101.863 98.8455 95.6586 114.819 90.6042C134.029 84.5253 153.754 79.6068 173.598 76.1066C183.694 74.3261 193.946 73.0527 204.145 72.0317C207.729 71.673 211.315 71.4633 214.853 70.781C216.189 70.523 221.007 69.2972 220.64 72.0324ZM230.96 49.6299C225.898 49.6699 220.728 47.2162 215.797 46.2021C209.927 44.9935 204.193 43.2448 198.333 41.9831C186.858 39.5128 175.376 37.1039 163.911 34.5791C158.934 33.4829 153.932 32.5289 148.975 31.3515C143.67 30.0919 137.94 28.6874 132.511 30.0443C124.282 32.1014 120.806 41.1042 117.784 48.1302C115.65 53.0929 113.978 58.6247 110.649 62.9431C109.464 64.4828 107.78 66.3192 105.631 65.8204C101.639 64.8946 102.273 59.6119 102.781 56.6918C103.518 52.4541 104.562 48.2661 105.397 44.0478C105.734 42.3452 108.343 31.2025 103.685 32.9276C100.229 34.2072 98.4013 42.6357 97.0934 45.6461C96.1214 47.8833 95.0914 50.1059 94.0008 52.2879C92.5453 55.1983 88.3924 64.9229 83.7947 63.6688C77.215 61.8738 83.5263 44.5762 84.6473 40.9304C85.2626 38.9292 91.9506 23.7523 86.3057 24.9926C83.9016 25.5217 81.5596 29.987 80.3338 31.8379C78.1601 35.1206 75.9933 38.427 73.9472 41.7906C71.8425 45.2501 70.7678 49.1877 68.6803 52.5969C67.5821 54.3912 65.3408 56.7822 63.1527 55.121C59.7414 52.5335 61.7633 43.5325 62.3607 40.1288C63.4721 33.8009 66.2328 27.3139 70.0207 22.1408C75.7125 14.3677 86.4526 11.856 95.484 10.346C107.142 8.3965 118.961 8.92975 130.668 10.0832C143.833 11.3807 156.798 12.7701 169.775 15.4232C182.854 18.097 195.939 20.7494 208.817 24.2855C214.883 25.9515 221.036 27.4284 227.017 29.3841C233.374 31.4626 239.578 34.0493 246.113 35.5469C243.815 41.2829 241.516 47.0189 239.217 52.7556C237.017 50.5791 234.014 49.6051 230.96 49.6299ZM343.626 65.4362C345.642 64.3338 347.868 63.8137 348.604 61.3772C349.254 59.2242 348.143 56.7849 347.612 54.7182C346.126 48.9318 345.735 42.9378 347.05 37.0832C348.306 39.0016 353.011 46.3808 355.873 41.9134C357.599 39.2189 352.974 35.3427 351.624 33.4484C354.586 31.6206 358.817 26.7144 362.23 29.6731C364.436 31.5861 365.37 33.4277 368.343 34.3576C371.951 35.4869 375.349 35.2282 379.034 34.9164C381.614 34.6984 382.235 34.3542 383.243 36.3409C384.034 37.9027 384.443 39.8356 384.906 41.5126C385.816 44.819 387.924 51.3338 385.427 54.4312C383.241 57.1443 374.751 54.8182 373.572 58.3205C372.93 60.2307 375.998 60.2989 377.171 61.244C378.623 62.414 379.824 64.2759 380.613 65.939C381.197 67.169 382.086 69.2013 381.091 70.4589C379.717 72.1986 377.169 70.879 376.062 69.6145C374.591 67.9347 374.114 65.6383 372.887 63.8088C370.634 60.4521 370.5 63.1224 369.887 65.5327C369.25 68.0368 367.743 67.8644 365.436 68.1859C361.387 68.7508 357.296 69.5476 353.355 70.6327C351.334 71.1887 349.377 71.8972 347.453 72.725C346.213 73.2575 344.065 74.8711 342.719 74.8862C340.227 74.9145 338.499 70.7458 337.212 69.0068C339.348 67.814 341.479 66.6103 343.626 65.4362ZM477.474 320.692C471.249 313.219 465.858 305.101 459.716 297.564C453.658 290.129 446.65 283.629 439.853 276.895C436.644 273.717 433.57 270.231 430.029 267.415C427.387 265.314 425.354 265.281 422.176 266.212C413.145 268.857 403.951 272.04 395.405 275.987C387.448 279.662 380.2 284.381 371.57 286.431C362.761 288.523 353.602 289.195 344.574 288.676C335.314 288.145 326.58 286.218 317.774 283.386C309.433 280.704 300.737 278.362 293.604 273.046C286.127 267.474 280.349 259.458 274.996 251.92C272.286 248.104 269.595 244.096 267.769 239.77C266.185 236.017 265.149 231.587 262.306 228.527C261.608 229.516 260.741 230.364 260.386 231.525C260.225 232.052 261.175 232.036 261.078 232.455C260.894 233.245 259.842 234.051 259.231 234.481C257.035 236.026 257.022 234.796 257.598 237.686C257.934 239.37 257.299 243.171 254.552 241.929C255.563 243.14 253.957 244.668 253.432 245.665C253.071 245.25 252.622 245.106 252.085 245.231C253.09 247.232 252.496 247.285 251.523 248.873C251.345 249.164 250.715 250.684 250.806 250.555C249.811 251.972 248.662 252.329 248.081 254.093C247.605 255.543 247.727 257.136 247.196 258.584C246.553 257.696 245.911 256.808 245.269 255.921C245.4 256.619 245.662 257.652 245.967 258.286C246.159 258.682 246.981 259.606 246.97 259.822C246.925 260.629 245.918 260.435 245.631 261.131C245.092 262.437 245.871 262.63 245.577 263.904C245.241 265.366 244.337 264.781 243.907 266.028C243.826 266.264 244.46 267.196 244.36 267.706C244.218 268.428 243.564 268.831 243.333 269.473C242.746 271.105 242.959 272.3 242.143 273.865C241.827 274.472 241.367 274.876 241.144 275.566C240.949 276.173 241.369 277.465 240.993 278.009C239.173 280.629 239.429 276.115 239.567 274.996C240.725 265.595 244.441 255.893 247.842 247.107C249.532 242.742 251.177 238.24 253.296 234.059C254.149 232.375 255.133 230.637 256.542 229.349C258.325 227.72 260.854 227.068 262.468 225.248C262.213 225.535 264.218 223.638 263.897 224.261C264.184 223.704 263.683 222.949 263.861 222.41C264.083 221.74 264.502 221.599 264.968 221.013C265.806 219.96 266.802 219.436 265.485 218.095C267.439 217.663 268.373 217.029 268.763 214.937C269.048 213.406 268.473 213.506 269.477 212.486C270.485 211.461 270.996 212.261 271.631 210.486C272.391 208.362 272.895 205.474 273.35 203.251C273.747 201.311 272.783 198.457 274.419 197.087C276.49 195.352 278.344 196.086 277.973 192.597C277.611 189.196 278.667 187.135 279.73 183.916C281.85 177.491 282.669 170.706 284.528 164.204C288.495 150.327 295.503 137.815 303.039 125.6C310.002 114.313 319.737 104.697 329.137 95.4358C331.711 92.8993 334.257 90.3262 336.568 87.5454C338.558 85.151 339.468 81.8908 341.381 79.6178C342.544 78.2375 344.708 77.647 346.331 76.915C349.038 75.694 352.263 74.1012 355.319 74.3482C354.105 78.441 353.709 83.2236 357.292 86.2927C361.638 90.0157 365.578 86.1478 369.562 84.0252C376.825 80.1559 387.212 83.7079 393.545 77.9084C395.053 76.5274 395.474 74.3206 397.041 73.0306C398.192 72.0848 399.829 71.8447 401.125 71.1397C405.06 68.9978 406.97 65.0768 405.438 60.7453C404.037 56.7856 401.861 55.4121 406.705 53.4054C410.637 51.7774 412.132 49.3243 410.352 44.957C408.655 40.7931 405.546 40.3137 402.605 37.5888C399.756 34.9495 403.029 31.8779 405.164 29.8967C407.915 27.3408 408.442 25.0374 405.251 22.3795C401.91 19.5967 397.139 19.694 393.244 21.0702C388.839 22.6258 385.936 25.212 384.072 29.4027C382.174 33.6692 377.469 32.4785 373.658 31.2894C370.014 30.1526 369.065 27.6995 366.672 25.0581C364.011 22.1201 358.586 24.6325 355.448 25.9749C347.716 29.2793 340.033 34.4942 339.726 43.7318C339.543 49.2402 341.872 53.9221 343.084 59.0924C344.192 63.8206 336.596 63.448 335.28 68.0217C321.248 60.5935 305.621 58.3205 289.936 57.8148C273.265 57.2768 256.353 56.8456 239.824 59.4753C243.661 52.7908 245.687 45.4605 249.025 38.5932C249.986 36.6161 250.4 36.7852 252.521 37.3826C256.594 38.5298 260.637 39.8135 264.702 40.9952C279.553 45.3122 294.112 50.5136 308.472 56.2103C309.867 56.7642 312.983 58.3019 314.206 56.6297C315.618 54.7016 312.352 52.3244 311.031 51.3545C305.249 47.1127 298.084 44.5382 291.608 41.5623C277.451 35.0578 261.773 31.9703 247.001 27.1394C215.111 16.7083 182.119 8.78626 148.977 3.55384C140.89 2.27696 132.716 2.09001 124.593 1.14217C117.398 0.302641 110.19 0.321957 102.996 1.18908C89.708 2.79157 74.3032 6.24904 66.7985 18.4122C60.0236 29.3944 55.501 41.7416 57.2297 54.7685C57.7492 58.6813 59.4062 63.3149 64.2343 62.3064C67.5835 61.6069 69.3619 58.7613 70.9168 55.984C73.2664 51.7884 75.587 47.5928 78.1332 43.5097C79.0776 49.632 75.6456 55.6522 76.1851 61.889C76.5521 66.1212 78.8906 72.8078 84.3852 71.6095C91.9161 69.9677 95.0156 58.2025 98.6365 52.5583C98.82 56.9056 97.2962 61.1902 97.7625 65.5472C98.2226 69.8511 101.586 73.9143 106.309 73.3244C110.764 72.7684 113.659 67.9955 115.551 64.4021C118.184 59.4015 120.076 54.0401 122.648 49.0063C125.058 44.2878 127.913 38.6705 133.668 37.784C138.804 36.9921 144.689 38.825 149.762 39.5811C163.834 41.6782 177.623 45.2488 191.541 48.1337C206.464 51.2262 221.74 53.1046 236.203 58.0949C231.118 65.0167 217.809 63.5212 210.234 64.2641C198.785 65.3872 187.19 66.2322 175.806 67.8892C164.563 69.5255 153.555 72.4304 142.4 74.5393C131.303 76.637 120.226 78.7383 109.488 82.3158C89.5527 88.9582 69.2846 97.3646 51.72 108.955C43.5475 114.348 36.2877 120.511 31.2394 129.024C26.1588 137.59 23.7174 147.276 22.7862 157.129C22.2067 163.264 23.1911 168.574 24.3797 174.545C25.2406 178.868 25.5193 186.107 28.9857 189.272C35.602 195.315 41.0951 170.806 42.3168 167.846C43.1964 172.697 41.7581 200.025 52.374 197.803C57.1118 196.811 58.1865 190.308 58.9723 186.391C60.4057 179.251 61.6895 171.967 64.1412 165.09C65.7147 174.356 66.3708 184.009 69.7606 192.859C72.0122 198.737 78.4367 209.166 82.9158 199.104C86.2753 191.558 85.1226 182.897 85.5255 174.885C85.9718 166.007 88.5207 157.443 89.423 148.652C89.7728 145.246 89.4562 141.408 92.8784 139.549C95.8165 137.955 100.113 137.435 103.32 136.545C112.822 133.907 122.385 131.482 131.841 128.683C141.302 125.882 150.631 122.611 159.965 119.417C168.892 116.363 178.007 114.627 187.043 112.012C192.18 110.525 197.255 108.969 202.464 107.727C204.888 107.15 207.342 106.7 209.76 106.102C211.553 105.659 213.915 103.988 215.758 104.017C217.655 104.048 218.368 105.654 220.544 105.781C222.886 105.916 225.267 105.399 227.596 105.22C233.27 104.785 239.301 104.082 244.962 104.868C241.56 108.903 236.965 111.693 232.937 115.036C228.293 118.892 223.798 123.055 219.831 127.608C211.848 136.769 204.303 146.452 197.294 156.377C190.379 166.168 184.812 176.881 179.972 187.828C177.561 193.282 175.219 198.856 173.553 204.589C172.869 206.944 172.31 209.309 171.075 211.451C169.942 213.415 168.345 215.109 169.684 217.481C170.607 216.904 171.435 216.186 172.269 215.493C171.305 222.282 169.225 228.849 168.156 235.617C167.102 242.285 167.145 249.143 167.213 255.877C167.357 269.98 168.405 283.763 171.266 297.597C174.159 311.585 177.876 325.466 182.563 338.96C187.074 351.952 191.602 365.577 197.899 377.823C204.625 390.902 212.627 404.653 222.362 415.724C216.003 418.329 207.909 417.842 201.175 418.891C194.136 419.988 188.047 422.058 182.048 425.953C175.979 429.895 172.684 434.969 171.845 442.156C171.249 447.271 169.479 454.353 176.189 455.697C181.016 456.663 186.412 455.076 191.249 454.684C199.709 453.998 208.181 453.57 216.66 453.2C225.117 452.831 233.576 452.506 242.035 452.244C246.014 452.12 249.995 452.058 253.973 451.915C255.755 451.852 256.836 451.824 258.434 452.34C259.698 452.747 259.606 453.594 261.013 452.547C263.283 450.859 262.816 445.537 262.752 443.197C262.656 439.586 262.313 435.933 261.609 432.39C261.191 430.285 256.117 416.714 260.062 416.142C255.479 411.105 253.648 403.912 251.589 397.599C249.009 389.689 246.744 381.802 244.966 373.666C241.169 356.289 239.49 338.721 239.49 320.941C257.093 331.791 275.718 337.669 296.452 338.324C317.066 338.976 339.712 337.283 359.287 330.425C368.351 327.249 376.47 323.079 384.242 317.46C387.028 315.446 390.012 310.885 393.668 310.963C398.031 311.057 402.917 312.708 407.25 313.415C415.537 314.765 426.352 315.528 433.367 320.653C437.178 323.437 439.909 327.334 443.31 330.542C445.897 332.983 449.318 334.308 451.885 336.748C454.656 339.382 453.556 342.822 458.149 343.035C462.076 343.216 466.381 341.637 469.767 339.782C476.524 336.083 483.719 328.186 477.474 320.692Z" fill="#11304D"/>
<path fill-rule="evenodd" clip-rule="evenodd" d="M412.533 144.723C422.42 151.746 433.761 156.544 444.094 162.869C446.68 164.452 454.737 167.739 454.659 170.676C454.614 172.393 452.192 174.546 451.132 175.736C449.316 177.774 447.607 179.834 445.931 181.99C438.258 191.865 431.033 201.834 422.718 211.213C421.466 212.623 417.694 219.36 416.477 216.014C415.925 214.497 416.379 212.792 414.941 211.378C414.201 210.65 411.34 210.248 412.174 208.686C412.729 208.935 413.285 209.186 413.841 209.435C413.409 208.186 413.441 206.818 412.794 205.638C412.392 204.905 411.606 204.558 411.333 203.732C410.957 202.591 411.595 201.265 411.489 200.089C411.383 198.916 410.775 197.808 410.412 196.701C408.261 190.142 407.489 183.53 406.387 176.763C405.297 170.067 403.6 163.58 402.933 156.809C402.229 149.658 401.366 142.521 400.214 135.426C402.27 135.715 403.849 137.948 405.303 139.21C407.587 141.194 410.068 142.972 412.533 144.723ZM404.782 213.96C404.31 213.589 403.941 213.134 403.675 212.594C408.521 210.194 405.597 214.289 404.782 213.96ZM401.835 208.84C399.723 209.422 398.205 209.54 396.576 208.671C396.422 208.589 396.6 207.953 396.321 207.823C396.078 207.71 395.706 207.85 395.497 207.743C394.788 207.383 393.547 208.173 393.426 206.792C396.122 205.967 398.773 204.445 401.619 204.188C405.575 203.832 405.392 207.859 401.835 208.84ZM392.58 200.879C389.698 201.553 387.324 203.127 384.261 202.716C381.387 202.331 378.889 200.84 376.621 199.123C382.294 197.517 388.242 197.227 393.91 195.673C395.755 195.168 398.18 193.834 400.169 194.372C402.379 194.969 402.518 197.039 403.18 198.922C399.644 199.558 396.081 200.061 392.58 200.879ZM374.554 192.888C371.785 193.549 368.955 194.996 366.639 192.499C366.266 192.097 365.939 192.499 365.983 191.258C366.029 189.949 367.217 189.106 368.238 188.645C370.641 187.562 374.008 188.262 376.559 188.103C380.628 187.85 384.77 187.004 388.795 186.353C391.582 185.903 394.461 184.902 397.309 185.1C399.508 185.252 402.161 187.126 398.956 188.494C396.038 189.739 391.661 189.548 388.499 190.088C383.825 190.885 379.167 191.785 374.554 192.888ZM371.849 179.861C372.028 180.044 372.208 180.227 372.387 180.409C372.357 180.402 373.449 179.519 373.738 179.493C375.142 179.371 376.554 179.468 377.96 179.388C381.199 179.206 384.464 178.641 387.646 178.02C390.237 177.513 392.877 176.641 395.545 176.859C397.855 177.048 398.097 177.522 398.248 179.751C392.353 179.751 386.28 179.626 380.487 180.874C376.715 181.686 372.558 184.105 370.668 179.745C371.062 179.784 371.455 179.822 371.849 179.861ZM375.535 170.425C376.997 171.538 380.982 169.687 382.734 169.502C384.637 169.3 386.427 169.091 388.271 168.617C389.906 168.196 395.315 166.095 396.569 168.105C398.491 171.183 390.706 171.748 389.472 171.901C384.297 172.54 378.926 173.107 373.89 174.465C374.438 173.118 374.986 171.772 375.535 170.425ZM382.635 159.967C383.013 161.391 394.718 156.146 394.931 159.958C395.095 162.882 383.35 164.339 381.238 164.082C381.733 162.736 383.049 161.53 382.635 159.967ZM386.565 151.022C386.814 148.152 387.199 148.168 389.501 147.898C391.256 147.692 393.669 146.663 393.213 149.792C392.822 152.471 386.314 153.919 386.565 151.022ZM390.749 141.146C391.302 139.605 392.549 141.679 392.575 142.463C392.645 144.548 391.064 144.097 389.542 144.097C389.966 143.123 390.368 142.138 390.749 141.146ZM410.014 129.578C409.703 129.204 407.961 129.061 407.465 128.88C406.245 128.433 406.418 127.48 404.858 128.42C404.78 128.341 404.928 127.635 404.843 127.602C404.801 127.586 403.707 127.173 403.352 126.946C402.494 126.396 401.722 125.859 400.934 125.17C400.097 124.438 399.258 123.376 398.301 122.793C397.897 122.547 397.568 122.199 397.081 122.124C395.82 121.929 396.181 122.808 395.078 122.982C394.398 123.09 393.904 122.297 393.015 122.639C392.248 122.934 391.802 124.011 391.46 124.652C390.216 126.984 389.256 129.495 388.039 131.852C381.812 143.905 374.735 155.501 368.704 167.667C365.799 173.528 362.768 179.43 360.723 185.658C359.249 190.151 355.92 196.713 358.784 201.202C360.867 204.465 365.037 205.875 368.364 207.452C373.37 209.825 377.985 212.926 383.047 215.227C389.082 217.97 394.943 220.84 400.826 223.904C403.335 225.21 405.599 227.092 408.099 228.33C409.629 229.086 411.991 227.795 412.489 229.53C414.406 227.208 417.509 228.756 419.727 227.121C421.031 226.159 421.984 224.265 423.072 223.081C424.704 221.305 426.476 219.658 428.141 217.913C434.751 210.984 440.854 203.767 446.867 196.324C452.61 189.217 459.32 182.502 464.172 174.722C466.099 171.633 466.448 168.394 465.176 164.983C464.248 162.494 462.011 158.735 458.817 160.383C460.028 158.372 455.355 156.224 453.938 155.83C453.916 155.825 453.637 157.37 453.242 157.332C453.382 157.345 452.054 153.908 451.47 153.467C449.737 152.156 447.629 150.626 445.738 149.546C444.004 148.556 442.174 148.066 440.494 146.958C438.458 145.615 436.588 144.023 434.544 142.69C432.571 141.403 430.371 139.881 428.189 138.996C426.298 138.228 424.6 138.078 422.898 136.819C420.792 135.262 418.956 134.206 416.528 133.133C414.427 132.206 411.516 131.395 410.014 129.578Z" fill="#11304D"/>
<path fill-rule="evenodd" clip-rule="evenodd" d="M123.279 316.002C123.665 315.095 124.05 314.188 124.437 313.281C124.914 314.862 125.048 315.649 123.279 316.002ZM123.793 320.192C122.956 320.342 123.286 317.717 123.286 317.259C124.731 318.078 123.534 319.058 123.793 320.192ZM122.488 312.62C123.202 312.198 123.915 311.777 124.628 311.356C123.635 313.196 124.025 312.046 124.434 313.276C123.685 313.491 122.957 313.24 122.488 312.62ZM118.261 327.004C115.587 336.705 107.095 344.356 98.1248 348.319C92.9703 350.596 87.9028 351.166 82.3365 350.912C80.1897 350.814 77.6635 350.116 75.5974 350.246C74.0067 350.346 74.0784 350.415 72.7608 351.762C72.1779 350.688 72.6001 349.935 71.4308 349.31C69.9718 348.53 69.3661 349.438 68.6425 350.518C67.6954 349.536 67.3077 349.024 66.0805 348.441C66.1191 348.459 64.9057 348.413 64.9553 348.428C64.736 348.361 63.4163 347.512 63.0031 347.358C61.3075 346.722 59.347 346.46 57.7824 345.548C56.4138 344.751 55.2866 342.514 53.7207 344.233C53.7193 341.36 49.85 340.169 48.0364 338.664C45.2025 336.313 42.9495 332.832 41.5368 329.465C40.0302 325.875 39.5273 322.432 38.8222 318.732C38.3297 316.147 35.104 312.409 37.0411 309.8C37.5026 310.894 37.286 312.015 38.0524 313.007C38.7422 311.677 39.1216 310.19 39.4334 308.735C39.5866 308.022 40.4737 305.931 40.373 305.31C40.1681 304.039 38.5953 303.97 39.4672 302.413C41.276 304.381 42.7357 300.925 41.3691 299.547C40.6945 300.308 40.4468 301.172 40.1357 302.115C38.3573 298.525 43.2793 299.681 42.2024 296.44C43.9988 296.095 45.0315 295.642 45.7144 293.867C46.4739 291.892 45.9152 291.462 47.6397 290.156C48.233 289.708 49.9107 289.063 50.2177 288.325C50.8116 286.899 49.3002 286.476 50.624 285.14C51.071 285.924 52.8135 287.477 53.7676 285.999C53.9586 285.705 53.1564 285.496 53.74 284.817C54.6043 283.813 55.5715 282.828 57.0332 283.039C55.8757 280.145 63.2721 279.916 65.1664 279.233C67.0649 278.549 68.6756 278.1 70.6886 277.941C72.6994 277.783 72.7995 277.194 74.502 275.983C74.6462 277.715 75.0628 277.334 76.2942 277.64C76.5901 277.132 76.8937 277.075 77.2041 277.469C77.5131 277.763 77.8912 277.901 78.3368 277.884C79.0128 277.919 79.7799 277.831 80.4884 277.846C82.1516 277.878 83.8672 277.739 85.4987 277.774C85.9195 277.704 86.3127 277.558 86.6811 277.335C86.8349 277.625 86.9894 277.915 87.1426 278.206C88.0069 278.314 88.0739 279.397 89.1369 278.213C89.4515 279.718 90.3551 278.935 91.3099 279.343C92.1804 279.716 92.3191 280.312 93.1228 280.728C93.6512 281.157 94.2175 281.213 94.8232 280.899C95.3992 281.326 95.9842 281.741 96.5775 282.143C97.6709 282.761 98.9595 283.139 100.112 283.626C100.878 283.942 101.639 284.271 102.395 284.612C102.418 285.524 102.827 285.846 103.621 285.578C104.34 286.179 104.542 286.155 105.238 287.178C106.817 289.497 108.217 291.298 110.211 293.37C118.876 302.38 121.538 315.117 118.261 327.004ZM120.92 288.695C117.008 283.456 111.471 277.457 106.495 274.149C103.973 272.471 100.433 269.46 97.3487 268.573C96.6175 268.362 95.8607 268.349 95.1419 268.128C94.5866 267.957 94.2845 267.388 93.6512 267.285C93.2083 267.213 93.1593 268.204 92.6889 268.113C91.7051 267.922 91.0815 266.945 90.3869 266.335C88.8948 268.906 88.0849 264.582 85.894 267.489C83.2864 263.4 77.1606 264.294 72.9968 264.501C71.762 264.561 71.1818 265.001 70.087 265.326C69.0682 265.629 68.9674 265.551 67.8547 265.543C65.0836 265.522 62.6237 265.87 60.0623 267.087C55.7591 269.131 51.8091 272.316 47.7218 274.779C43.1537 277.532 39.0361 281.037 35.5414 285.063C22.9077 299.623 19.5296 320.875 29.6033 337.754C45.604 364.562 86.8777 367.426 110.265 349.237C128.334 335.183 135.21 307.827 120.92 288.695Z" fill="#11304D"/>
<path fill-rule="evenodd" clip-rule="evenodd" d="M318.965 213.256C318.516 214.327 314.323 213.966 314.231 212.703C314.095 210.816 319.746 211.394 318.965 213.256ZM323.42 212.555C325.796 212.748 329.701 214.362 331.991 213.387C335.486 211.898 331.816 209.614 329.941 208.931C328.033 208.236 325.191 208.605 324.21 206.61C323.471 205.11 325.295 200.921 323.033 201.594C320.658 202.301 321.349 208.301 317.623 206.278C315.846 205.313 316.571 199.434 313.594 202.438C312.78 203.259 312.709 204.768 311.63 205.381C310.529 206.006 309.148 205.354 307.985 205.409C304.908 205.553 303.928 208.432 307.046 209.574C308.2 209.996 312.55 210.512 309.915 212.398C308.254 213.586 304.566 211.093 303.14 213.161C301.18 216.002 306.43 216.066 307.84 216.916C310.229 218.355 308.256 221.717 308.446 224.11C308.738 227.768 310.863 227.004 311.635 223.908C312.289 221.282 311.478 217.502 315.437 218.546C321.884 220.245 311.852 228.43 316.574 230.525C319.586 231.86 320.012 224.641 320.246 223.398C321.112 218.81 323.689 219.88 327.593 220.021C332.154 220.185 333.255 216.811 328.425 215.845C326.884 215.536 324.764 215.926 323.426 214.945C322.634 214.364 321.545 212.403 323.42 212.555Z" fill="#11304D"/>
<path fill-rule="evenodd" clip-rule="evenodd" d="M155.014 362.453C151.323 361.131 145.147 361.416 144.234 366.184C143.852 368.18 144.596 370.291 145.975 371.741C147.573 373.422 150.118 373.578 149.983 370.65C149.888 368.624 147.96 366.864 151.35 366.456C153.459 366.202 156.579 367.78 156.684 370.11C156.922 375.362 147.83 375.774 144.479 374.866C137.829 373.064 139.636 366.098 144.202 362.92C145.382 362.098 148.767 360.833 148.922 359.127C149.127 356.864 146.329 357.326 144.958 357.624C134.877 359.819 132.68 376.706 143.213 379.89C147.996 381.335 154.733 379.843 157.616 375.511C160.318 371.449 160.355 364.365 155.014 362.453Z" fill="#11304D"/>
<path fill-rule="evenodd" clip-rule="evenodd" d="M21.3554 242.907C18.2042 244.424 15.053 245.941 11.9025 247.457C10.8609 245.229 9.1011 239.139 6.45902 238.362C2.18203 237.103 4.9055 243.741 5.64363 245.258C6.25 246.505 7.65658 248.436 7.31511 249.922C6.85706 251.924 4.03286 252.633 2.55454 253.666C-1.10366 256.223 -1.0747 261.592 4.22325 259.316C7.22128 258.029 10.9333 254.457 13.2311 258.512C14.2921 260.383 16.8059 270.835 19.4314 264C21.056 259.768 13.2367 255.371 17.0915 251.79C18.3325 250.638 19.7853 250.541 21.0249 249.879C24.0188 248.279 22.3308 245.323 21.3554 242.907Z" fill="#11304D"/>
<path fill-rule="evenodd" clip-rule="evenodd" d="M483.33 91.4593C481.451 90.7723 479.127 89.4305 477.039 89.8879C474.82 90.3735 473.927 92.5962 472.313 93.9324C467.926 97.5658 465.371 92.1506 462.961 89.1829C460.685 86.3808 457.907 85.7006 454.695 87.4224C453.416 88.1088 448.025 91.2538 448.965 93.2688C449.641 94.7188 452.304 93.4171 453.213 93.1005C455.185 92.4141 457.017 91.8132 459.034 92.8142C462.818 94.6905 463.799 99.836 468.377 100.638C473.111 101.468 473.266 96.9635 476.644 95.2679C478.909 94.1318 480.486 96.1433 482.671 95.7425C484.753 95.3611 485.716 92.3313 483.33 91.4593Z" fill="#11304D"/>
<path fill-rule="evenodd" clip-rule="evenodd" d="M445.112 109.614C446.786 109.978 447.879 106.731 448.927 105.907C450.665 104.542 453.679 104.267 455.449 105.641C458.906 108.323 457.714 114.113 462.636 115.623C467.035 116.972 469.108 111.178 472.811 109.736C474.964 108.897 477.327 108.348 476.487 105.338C475.907 103.257 474.197 102.722 472.339 103.522C469.145 104.894 468.061 110.487 464.274 110.587C460.356 110.69 459.932 105.043 458.25 102.583C455.686 98.8335 450.415 97.9278 447.419 101.513C446.515 102.595 441.923 108.924 445.112 109.614Z" fill="#11304D"/>
<path fill-rule="evenodd" clip-rule="evenodd" d="M367.674 45.5901C370.003 47.1837 374.644 47.1285 376.789 45.1521C378.973 43.1412 376.058 42.8322 374.28 42.8936C372.912 42.9412 370.351 43.6193 371.131 41.2566C371.823 39.1602 375.626 40.2273 375.943 37.926C373.081 37.4128 369.928 37.5977 367.811 39.8472C366.28 41.4732 365.494 44.098 367.674 45.5901Z" fill="#11304D"/>
</svg>
