<svg width="92" height="92" viewBox="0 0 92 92" fill="none" xmlns="http://www.w3.org/2000/svg">
<g clip-path="url(#clip0)">
<path d="M46.0855 90.9212C70.7751 90.9212 90.7901 70.9062 90.7901 46.2166C90.7901 21.5269 70.7751 1.51196 46.0855 1.51196C21.3958 1.51196 1.38086 21.5269 1.38086 46.2166C1.38086 70.9062 21.3958 90.9212 46.0855 90.9212Z" fill="#FFE882"/>
<path d="M89.8375 36.8962C92.7053 49.6244 89.9977 63.4913 81.2677 74.5156C65.9331 93.8651 37.8114 97.1125 18.4619 81.778C7.44602 73.0395 1.64286 60.1511 1.5332 47.1024C3.69252 56.7265 9.0402 65.6843 17.3654 72.2888C36.7149 87.6233 64.8282 84.3759 80.1711 65.0264C86.7756 56.7097 89.9302 46.765 89.8375 36.8962Z" fill="#F9DC62"/>
<path d="M54.2839 58.2024C54.2839 62.7909 50.5641 66.5191 45.9671 66.5191C41.3702 66.5191 37.6504 62.7994 37.6504 58.2024H54.2839Z" fill="white"/>
<path d="M45.9669 67.3626C40.9144 67.3626 36.8066 63.2548 36.8066 58.2024V57.3589H55.1271V58.2024C55.1271 63.2548 51.0193 67.3626 45.9669 67.3626ZM38.5442 59.0459C38.966 62.7656 42.1375 65.6756 45.9669 65.6756C49.7963 65.6756 52.9678 62.774 53.3895 59.0459H38.5442Z" fill="black"/>
<path d="M46.0852 91.7646C20.9663 91.7646 0.537109 71.3355 0.537109 46.2165C0.537109 21.0976 20.9663 0.668457 46.0852 0.668457C71.2041 0.668457 91.6333 21.0976 91.6333 46.2165C91.6333 71.3355 71.2041 91.7646 46.0852 91.7646ZM46.0852 2.35542C21.9025 2.35542 2.22408 22.0339 2.22408 46.2165C2.22408 70.3992 21.9025 90.0777 46.0852 90.0777C70.2679 90.0777 89.9463 70.3992 89.9463 46.2165C89.9463 22.0339 70.2679 2.35542 46.0852 2.35542Z" fill="#11304D"/>
<path d="M67.1727 53.9847C76.0237 53.9847 83.1988 46.8096 83.1988 37.9586C83.1988 29.1075 76.0237 21.9324 67.1727 21.9324C58.3216 21.9324 51.1465 29.1075 51.1465 37.9586C51.1465 46.8096 58.3216 53.9847 67.1727 53.9847Z" fill="white"/>
<path d="M25.8426 53.9847C34.6936 53.9847 41.8688 46.8096 41.8688 37.9586C41.8688 29.1075 34.6936 21.9324 25.8426 21.9324C16.9916 21.9324 9.81641 29.1075 9.81641 37.9586C9.81641 46.8096 16.9916 53.9847 25.8426 53.9847Z" fill="white"/>
<path d="M25.8421 55.6719C16.0745 55.6719 8.12891 47.7263 8.12891 37.9587C8.12891 28.1912 16.0745 20.2456 25.8421 20.2456C35.6096 20.2456 43.5552 28.1912 43.5552 37.9587C43.5552 47.7263 35.6096 55.6719 25.8421 55.6719ZM25.8421 23.6195C17.9386 23.6195 11.5028 30.0553 11.5028 37.9587C11.5028 45.8622 17.9386 52.298 25.8421 52.298C33.7455 52.298 40.1813 45.8622 40.1813 37.9587C40.1813 30.0553 33.7455 23.6195 25.8421 23.6195Z" fill="#11304D"/>
<path d="M67.1721 55.6719C57.4046 55.6719 49.459 47.7263 49.459 37.9587C49.459 28.1912 57.4046 20.2456 67.1721 20.2456C76.9397 20.2456 84.8853 28.1912 84.8853 37.9587C84.8853 47.7263 76.9397 55.6719 67.1721 55.6719ZM67.1721 23.6195C59.2687 23.6195 52.8329 30.0553 52.8329 37.9587C52.8329 45.8622 59.2687 52.298 67.1721 52.298C75.0756 52.298 81.5113 45.8622 81.5113 37.9587C81.5113 30.0553 75.0756 23.6195 67.1721 23.6195Z" fill="#11304D"/>
<path d="M30.4807 44.7067C33.5087 44.7067 35.9633 41.6855 35.9633 37.9588C35.9633 34.2321 33.5087 31.2109 30.4807 31.2109C27.4527 31.2109 24.998 34.2321 24.998 37.9588C24.998 41.6855 27.4527 44.7067 30.4807 44.7067Z" fill="black"/>
<path d="M62.5334 44.7067C65.5614 44.7067 68.0161 41.6855 68.0161 37.9588C68.0161 34.2321 65.5614 31.2109 62.5334 31.2109C59.5054 31.2109 57.0508 34.2321 57.0508 37.9588C57.0508 41.6855 59.5054 44.7067 62.5334 44.7067Z" fill="black"/>
<path d="M51.1469 36.9971C50.2191 36.9971 49.46 36.238 49.46 35.3102C49.46 33.0918 48.1104 31.2108 46.5078 31.2108C44.9051 31.2108 43.5556 33.0834 43.5556 35.3102C43.5556 36.238 42.7964 36.9971 41.8686 36.9971C40.9408 36.9971 40.1816 36.238 40.1816 35.3102C40.1816 31.194 43.0157 27.8369 46.5078 27.8369C49.9998 27.8369 52.8339 31.1855 52.8339 35.3102C52.8339 36.2464 52.0748 36.9971 51.1469 36.9971Z" fill="#11304D"/>
</g>
<defs>
<clipPath id="clip0">
<rect width="91.0962" height="91.0962" fill="white" transform="translate(0.537109 0.668457)"/>
</clipPath>
</defs>
</svg>
