<svg width="39" height="39" viewBox="0 0 39 39" fill="none" xmlns="http://www.w3.org/2000/svg">
<g clip-path="url(#clip0)">
<path fill-rule="evenodd" clip-rule="evenodd" d="M0.365234 19.8703C0.365234 29.4344 7.31147 37.3873 16.3962 39.0001V25.106H11.5869V19.7628H16.3962V15.4874C16.3962 10.6781 19.495 8.00731 23.8779 8.00731C25.2662 8.00731 26.7635 8.22052 28.1518 8.43373V13.3504H25.6942C23.3425 13.3504 22.8086 14.5255 22.8086 16.0228V19.7628H27.9386L27.0841 25.106H22.8086V39.0001C31.8934 37.3873 38.8397 29.436 38.8397 19.8703C38.8397 9.23047 30.1829 0.525635 19.6024 0.525635C9.02198 0.525635 0.365234 9.23047 0.365234 19.8703Z" fill="white"/>
</g>
<defs>
<clipPath id="clip0">
<rect width="38.4744" height="38.4744" fill="white" transform="translate(0.365234 0.525635)"/>
</clipPath>
</defs>
</svg>
