<svg width="241" height="201" viewBox="0 0 241 201" fill="none" xmlns="http://www.w3.org/2000/svg">
<path d="M126.386 16.594L85.666 183.482L167.488 161.432C176.655 158.892 182.046 149.599 179.506 140.675L147.572 28.127C145.044 19.2146 135.553 14.0542 126.386 16.594Z" fill="#11304D"/>
<path d="M119.782 14.8506L85.666 183.482L166.83 157.899C175.881 154.99 180.88 145.489 177.982 136.68L141.418 25.5062C138.532 16.7092 128.834 11.9413 119.782 14.8506Z" fill="#51C4C1"/>
<path d="M114.091 13.4193L37.0952 41.1262L24.9495 45.5016C16.0019 48.7226 15.771 53.8137 18.969 62.5183L62.2986 180.238C65.5082 188.943 68.0251 190.074 76.9727 186.853L89.1299 182.478L166.114 154.771C175.062 151.55 179.726 141.887 176.516 133.183L136.096 23.3361C132.887 14.643 123.039 10.1984 114.091 13.4193Z" fill="#FC8BA9"/>
<path d="M115.823 73.5895L68.1404 90.7563L61.3633 72.3543L109.057 55.1875L115.823 73.5895Z" fill="#FFE882"/>
<path d="M72.2852 171.291C75.5987 170.102 77.2959 166.489 76.0952 163.221C74.8945 159.954 71.2346 158.269 67.9326 159.458C64.6191 160.647 62.922 164.26 64.1227 167.528C65.335 170.795 68.9833 172.48 72.2852 171.291Z" fill="#3E4347"/>
<path d="M60.0704 137.858C63.3724 136.669 65.0811 133.055 63.8803 129.788C62.6796 126.521 59.0198 124.836 55.7178 126.025C52.4043 127.214 50.7071 130.827 51.9078 134.094C53.1086 137.362 56.7569 139.047 60.0704 137.858Z" fill="#3E4347"/>
<path d="M48.0753 105.51C51.3772 104.321 53.0859 100.708 51.8852 97.4407C50.6845 94.1735 47.0246 92.488 43.7227 93.6771C40.4092 94.8662 38.712 98.4797 39.9127 101.747C41.1134 105.014 44.7618 106.699 48.0753 105.51Z" fill="#3E4347"/>
<path d="M35.0515 70.1724C38.3535 68.9833 40.0622 65.3699 38.8615 62.1028C37.6608 58.8357 34.0009 57.1501 30.6989 58.3392C27.397 59.5283 25.6883 63.1418 26.889 66.4089C28.0897 69.676 31.7496 71.3615 35.0515 70.1724Z" fill="#3E4347"/>
<path d="M35.5135 63.3035C30.8492 51.7821 0.323364 62.0798 4.35268 74.04C6.91574 81.6248 15.8865 81.8903 25.0534 78.9233L23.1485 73.7975C23.1485 73.7975 12.342 77.3533 10.5525 72.3314C8.67063 67.044 29.0366 61.999 30.549 65.116C32.0614 68.2446 37.0259 67.0324 35.5135 63.3035Z" fill="#7D8B91"/>
<path d="M48.5253 98.5028C43.8494 86.9813 13.3236 97.279 17.3645 109.239C19.9275 116.824 28.7828 117.043 37.9498 114.076L36.0794 108.974C36.0794 108.974 25.3538 112.552 23.5643 107.531C21.6824 102.243 42.0483 97.1982 43.5608 100.315C45.0732 103.444 50.0377 102.232 48.5253 98.5028Z" fill="#7D8B91"/>
<path d="M60.5203 130.805C55.856 119.283 25.3186 129.581 29.3594 141.541C31.9225 149.126 40.72 149.472 49.8986 146.505L48.0398 141.437C48.0398 141.437 37.3604 144.843 35.5824 139.832C33.7005 134.545 54.0549 129.5 55.5789 132.617C57.0798 135.734 62.0327 134.522 60.5203 130.805Z" fill="#7D8B91"/>
<path d="M72.747 164.226C68.0711 152.704 37.5453 163.002 41.5861 174.962C44.1492 182.547 53.0275 182.905 62.1945 179.938L60.3242 174.858C60.3242 174.858 49.5755 178.287 47.786 173.265C45.9041 167.978 66.2585 162.933 67.7825 166.05C69.2949 169.167 74.2594 167.955 72.747 164.226Z" fill="#7D8B91"/>
<path d="M70.2144 189.042C66.2597 189.042 64.0943 186.592 61.8947 180.859C51.0676 184.084 43.5343 181.942 41.1637 174.91C40.4457 172.779 40.6395 170.613 41.7336 168.47C43.6141 164.823 48.264 161.439 54.0194 159.478L49.7456 147.854C38.9641 151.067 31.465 148.925 29.0944 141.904C28.3764 139.773 28.5702 137.619 29.6643 135.476C31.5333 131.841 36.1605 128.467 41.8817 126.496L37.9612 115.828C27.1227 119.065 19.6008 116.968 17.253 110.004C16.535 107.873 16.7288 105.708 17.8343 103.565C19.7262 99.9182 24.3761 96.5333 30.1429 94.573L25.1967 81.1361C14.3126 84.3728 6.76789 82.253 4.40873 75.2553C3.69073 73.1127 3.88447 70.9358 5.00137 68.7932C6.92744 65.0892 11.6799 61.6816 17.538 59.7327C15.7258 52.4159 18.0622 48.2902 25.436 45.6347L113.42 13.9856C118.081 12.3102 123.29 12.5837 127.723 14.7377C129.683 15.0569 131.575 15.6951 133.342 16.6296C140.34 17.6781 146.061 22.6244 147.941 29.2688L179.476 140.389C180.742 144.856 180.172 149.574 177.881 153.666C175.499 157.906 171.567 160.96 166.815 162.282L88.8255 183.298L77.554 187.355C74.5338 188.449 72.1519 189.042 70.2144 189.042ZM63.2623 178.032L63.7524 179.355C66.7042 187.355 68.5277 188.176 76.779 185.213L88.1417 181.121L166.21 160.082C170.37 158.931 173.812 156.253 175.886 152.549C177.881 148.993 178.382 144.89 177.277 141.015L145.753 29.907C144.1 24.0604 139.017 19.7296 132.829 18.8634L132.624 18.8406L132.441 18.7381C130.8 17.8491 129.045 17.2565 127.21 16.9715L126.88 16.869C122.902 14.8859 118.4 14.6238 114.206 16.1396L26.1882 47.8115C19.5552 50.1935 17.9938 53.3276 19.9997 60.2114L20.3188 61.3055L19.2247 61.6246C13.4579 63.3113 8.77374 66.4683 7.00722 69.8645C6.18665 71.4373 6.03849 73.0101 6.55135 74.5487C9.35498 82.8684 20.7633 80.2015 25.5272 78.6629L26.5643 78.3324L33.0947 96.066L31.9322 96.4193C26.211 98.1288 21.5839 101.286 19.8401 104.648C19.0309 106.221 18.8828 107.782 19.3956 109.309C22.1879 117.583 33.5392 114.905 38.2917 113.366L39.3288 113.025L44.8335 127.977L43.6824 128.331C37.9954 130.052 33.4024 133.197 31.6815 136.548C30.8723 138.109 30.7242 139.682 31.2484 141.198C34.0635 149.552 45.3578 146.908 50.0875 145.38L51.1246 145.038L56.9826 160.96L55.8201 161.313C50.1103 163.034 45.4831 166.18 43.7508 169.542C42.9416 171.115 42.7935 172.676 43.3063 174.203C46.1328 182.591 57.4841 179.924 62.2252 178.397L63.2623 178.032ZM53.9055 176.722C51.0562 176.722 48.2526 175.958 47.2839 173.246C46.9761 172.38 47.0559 171.456 47.5004 170.579C49.0846 167.513 54.8856 165.587 57.3131 164.903L58.3274 164.618L62.2138 175.172L61.0741 175.537C60.4359 175.73 57.1422 176.722 53.9055 176.722ZM49.4265 172.482C50.418 175.263 56.1506 174.454 59.2278 173.679L56.9142 167.399C53.0963 168.607 50.2471 170.226 49.5177 171.627C49.3125 172.026 49.3581 172.3 49.4265 172.482ZM41.8475 143.694C39.0097 143.694 36.1833 142.941 35.2145 140.24C34.9068 139.374 34.9752 138.451 35.4311 137.585C36.9925 134.542 42.7593 132.616 45.164 131.921L46.1784 131.636L50.0533 142.178L48.925 142.543C48.6743 142.611 45.2552 143.694 41.8475 143.694ZM44.7879 134.417C41.0042 135.613 38.1777 137.232 37.4597 138.622C37.2546 139.032 37.3002 139.294 37.3686 139.477C38.3601 142.258 44.0357 141.46 47.0901 140.685L44.7879 134.417ZM29.801 111.782C27.0316 111.782 24.3191 111.03 23.3732 108.363C23.0655 107.497 23.1452 106.574 23.5897 105.696C25.1739 102.631 30.9977 100.705 33.4252 100.009L34.4396 99.7244L38.2575 110.096L37.1634 110.483C37.1064 110.494 33.4024 111.782 29.801 111.782ZM25.5158 107.588C26.5073 110.381 32.24 109.48 35.2943 108.648L33.0263 102.494C29.197 103.702 26.3364 105.32 25.607 106.733C25.4018 107.144 25.4474 107.406 25.5158 107.588ZM17.0137 77.0218C14.2101 77.0218 11.4634 76.2696 10.5175 73.6141C10.2098 72.748 10.2895 71.8248 10.734 70.9472C12.3296 67.8701 18.1876 65.9326 20.6265 65.2488L21.6408 64.9639L25.4816 75.4034L24.3533 75.7681C23.7151 75.9733 20.3188 77.0218 17.0137 77.0218ZM12.6715 72.8391C13.663 75.6314 19.3501 74.7538 22.5184 73.9218L20.239 67.7333C16.3755 68.9414 13.4921 70.5711 12.7627 71.9844C12.5575 72.3946 12.6031 72.6568 12.6715 72.8391Z" fill="#11304D"/>
<g clip-path="url(#clip0)">
<path d="M202.1 63.1523L202.851 62.1489L202.819 62.2352C202.797 62.3108 202.776 62.3323 202.754 62.3647L202.132 63.1954L202.1 63.1523Z" fill="#FFF6CF"/>
<path d="M215.507 30.8293L212.952 37.1622L212.942 37.173L190.968 67.079C190.871 67.0574 190.775 67.025 190.678 66.9819C190.592 66.9495 190.506 66.9171 190.42 66.874C190.249 66.7877 190.088 66.6798 189.937 66.5611C186.921 64.0905 189.454 55.1144 190.689 51.8563L191.279 50.3027L189.894 51.2197C186.094 53.7227 183.368 54.5318 182.026 53.5501C180.351 52.331 180.909 48.3931 181.317 46.7425L207.832 25.6616C209.496 28.4774 212.287 30.3547 215.507 30.8293Z" fill="#FFF6CF"/>
<path d="M126.216 162.483C125.647 162.483 125.089 162.461 124.542 162.407C124.359 162.385 124.177 162.353 123.994 162.331C123.629 162.288 123.264 162.245 122.91 162.18C122.695 162.137 122.481 162.083 122.266 162.04C121.944 161.975 121.633 161.911 121.321 161.824C121.096 161.76 120.881 161.684 120.656 161.619C120.366 161.533 120.076 161.447 119.786 161.339C119.561 161.253 119.346 161.166 119.121 161.069C118.852 160.961 118.573 160.843 118.305 160.724C118.09 160.627 117.875 160.508 117.661 160.4C117.403 160.271 117.145 160.141 116.899 159.99C116.684 159.872 116.48 159.731 116.276 159.602C116.04 159.451 115.793 159.3 115.567 159.138C115.364 158.998 115.17 158.847 114.977 158.707C114.752 158.534 114.526 158.361 114.312 158.189C114.118 158.027 113.936 157.865 113.753 157.703C113.549 157.52 113.335 157.326 113.141 157.131C112.97 156.959 112.798 156.775 112.626 156.592C112.433 156.387 112.25 156.182 112.068 155.966C111.907 155.772 111.746 155.589 111.596 155.384C111.424 155.168 111.252 154.941 111.091 154.715C110.941 154.51 110.801 154.305 110.662 154.1C110.511 153.862 110.361 153.625 110.211 153.377C110.082 153.161 109.953 152.945 109.835 152.719C109.696 152.471 109.578 152.212 109.449 151.953C109.341 151.726 109.234 151.5 109.127 151.262C109.009 150.993 108.912 150.723 108.805 150.453C108.719 150.216 108.622 149.979 108.547 149.741C108.45 149.461 108.375 149.18 108.289 148.889C108.225 148.641 108.15 148.403 108.085 148.145C108.064 148.069 108.043 147.993 108.021 147.918L101.838 156.463C103.223 163.702 108.987 169.344 116.233 170.542C117.994 170.833 119.851 170.854 121.686 170.596L127.902 162.396C127.869 162.396 127.837 162.396 127.805 162.396C127.268 162.45 126.742 162.483 126.216 162.483Z" fill="#FC8BA9"/>
<path d="M131.648 155.589C131.498 155.61 131.347 155.621 131.197 155.632C130.66 155.675 130.124 155.707 129.587 155.707C129.061 155.707 128.546 155.686 128.03 155.643C127.859 155.632 127.687 155.599 127.515 155.578C127.182 155.546 126.839 155.502 126.506 155.448C126.302 155.416 126.109 155.362 125.905 155.33C125.604 155.265 125.315 155.211 125.014 155.136C124.799 155.082 124.595 155.017 124.391 154.952C124.112 154.877 123.833 154.79 123.565 154.704C123.35 154.629 123.146 154.553 122.942 154.467C122.685 154.37 122.427 154.272 122.169 154.165C121.965 154.078 121.761 153.97 121.557 153.873C121.311 153.755 121.064 153.636 120.828 153.507C120.624 153.399 120.43 153.28 120.237 153.172C120.001 153.032 119.776 152.902 119.539 152.751C119.346 152.633 119.164 152.503 118.97 152.374C118.745 152.223 118.53 152.072 118.316 151.91C118.133 151.77 117.961 151.629 117.779 151.478C117.575 151.306 117.371 151.144 117.167 150.96C116.995 150.809 116.834 150.648 116.662 150.486C116.469 150.302 116.276 150.119 116.094 149.925C115.933 149.763 115.782 149.59 115.621 149.418C115.449 149.223 115.267 149.018 115.106 148.813C114.956 148.63 114.816 148.447 114.677 148.263C114.516 148.048 114.355 147.832 114.204 147.616C114.075 147.422 113.947 147.228 113.818 147.033C113.678 146.807 113.539 146.569 113.399 146.343C113.281 146.138 113.163 145.933 113.056 145.728C112.927 145.491 112.809 145.242 112.691 144.994C112.594 144.779 112.487 144.563 112.401 144.347C112.293 144.099 112.197 143.84 112.1 143.57C112.014 143.344 111.928 143.128 111.853 142.901C111.832 142.826 111.8 142.75 111.767 142.675L108.848 146.71C108.891 146.958 108.944 147.195 108.998 147.443C109.052 147.691 109.095 147.94 109.159 148.188C109.234 148.468 109.32 148.727 109.406 148.997C109.481 149.234 109.545 149.472 109.621 149.698C109.717 149.968 109.825 150.227 109.932 150.486C110.018 150.701 110.104 150.928 110.2 151.144C110.318 151.403 110.458 151.651 110.587 151.899C110.694 152.104 110.791 152.32 110.909 152.514C111.048 152.762 111.209 152.999 111.36 153.237C111.478 153.431 111.596 153.625 111.725 153.809C111.886 154.046 112.068 154.272 112.24 154.499C112.379 154.672 112.508 154.855 112.648 155.028C112.83 155.243 113.034 155.459 113.227 155.664C113.378 155.826 113.517 155.999 113.668 156.15C113.871 156.355 114.086 156.549 114.301 156.743C114.462 156.894 114.612 157.045 114.773 157.185C114.999 157.38 115.235 157.552 115.46 157.725C115.632 157.854 115.793 157.995 115.965 158.113C116.201 158.286 116.459 158.437 116.705 158.599C116.888 158.717 117.06 158.836 117.242 158.944C117.5 159.095 117.757 159.224 118.026 159.365C118.219 159.462 118.401 159.57 118.595 159.667C118.863 159.796 119.153 159.904 119.432 160.023C119.625 160.098 119.808 160.195 120.012 160.271C120.302 160.379 120.591 160.465 120.892 160.551C121.085 160.616 121.278 160.692 121.482 160.746C121.794 160.832 122.105 160.897 122.416 160.961C122.609 161.005 122.803 161.058 122.996 161.091C123.35 161.156 123.715 161.199 124.08 161.242C124.241 161.263 124.402 161.296 124.563 161.307C125.089 161.35 125.626 161.382 126.173 161.382C126.613 161.382 127.064 161.361 127.504 161.328C127.644 161.317 127.794 161.296 127.934 161.285C128.202 161.263 128.471 161.231 128.739 161.188L133.119 155.351C133.033 155.373 132.947 155.373 132.85 155.395C132.496 155.481 132.067 155.546 131.648 155.589Z" fill="#6DDFDF"/>
<path d="M121.676 170.606L127.891 162.407C127.859 162.407 127.827 162.407 127.794 162.407C127.268 162.45 126.742 162.482 126.216 162.482C125.647 162.482 125.089 162.461 124.542 162.407C124.359 162.385 124.177 162.353 123.994 162.331C123.629 162.288 123.264 162.245 122.91 162.18C122.695 162.137 122.481 162.083 122.266 162.04C121.944 161.975 121.633 161.911 121.321 161.824C121.15 161.781 120.989 161.727 120.828 161.673L114.58 170.186C115.128 170.326 115.675 170.455 116.233 170.552C117.994 170.844 119.851 170.865 121.676 170.606Z" fill="#FF6485"/>
<path d="M122.459 160.983C122.652 161.026 122.846 161.08 123.039 161.113C123.393 161.177 123.758 161.22 124.123 161.264C124.284 161.285 124.445 161.318 124.606 161.328C125.132 161.371 125.669 161.404 126.216 161.404C126.656 161.404 127.107 161.382 127.547 161.35C127.687 161.339 127.837 161.318 127.977 161.307C128.245 161.285 128.514 161.253 128.782 161.21L133.162 155.373C133.076 155.395 132.99 155.395 132.893 155.416C132.475 155.492 132.056 155.556 131.627 155.6C131.476 155.621 131.326 155.632 131.176 155.643C130.639 155.686 130.102 155.718 129.566 155.718C129.04 155.718 128.524 155.697 128.009 155.654C127.837 155.643 127.666 155.61 127.494 155.589C127.161 155.556 126.818 155.513 126.485 155.459C126.281 155.427 126.088 155.373 125.884 155.341C125.755 155.319 125.637 155.287 125.508 155.265L121.461 160.767C121.472 160.767 121.472 160.767 121.482 160.778C121.826 160.854 122.148 160.918 122.459 160.983Z" fill="#4ACCC9"/>
<path d="M190.098 67.8992C190.001 67.8561 189.905 67.8129 189.819 67.7698C189.615 67.6727 189.432 67.5432 189.26 67.403C185.858 64.6195 188.08 56.3447 189.185 52.9463C186.695 54.4351 184.709 55.1256 183.195 55.0285C182.498 55.0069 181.897 54.8019 181.403 54.4351C181.338 54.392 181.285 54.3488 181.231 54.2841C179.76 53.0434 179.707 50.5081 179.911 48.6309L175.831 54.2625L112.615 141.585C112.68 141.801 112.744 142.017 112.808 142.222C112.873 142.448 112.937 142.675 113.023 142.901C113.109 143.15 113.206 143.376 113.302 143.613C113.388 143.84 113.474 144.056 113.571 144.272C113.667 144.498 113.796 144.725 113.903 144.951C114.011 145.156 114.107 145.372 114.215 145.566C114.344 145.793 114.472 145.998 114.612 146.213C114.73 146.408 114.848 146.613 114.966 146.807C115.106 147.012 115.256 147.206 115.406 147.411C115.546 147.594 115.675 147.789 115.814 147.961C115.964 148.155 116.136 148.339 116.297 148.533C116.447 148.706 116.587 148.878 116.748 149.051C116.909 149.223 117.092 149.396 117.263 149.569C117.435 149.731 117.585 149.892 117.757 150.054C117.94 150.216 118.133 150.367 118.315 150.518C118.498 150.669 118.67 150.82 118.841 150.96C119.045 151.111 119.249 151.252 119.442 151.392C119.636 151.521 119.818 151.662 120.001 151.791C120.215 151.921 120.43 152.05 120.645 152.169C120.838 152.287 121.031 152.406 121.224 152.514C121.45 152.633 121.675 152.741 121.901 152.848C122.105 152.946 122.298 153.053 122.513 153.151C122.738 153.248 122.985 153.334 123.232 153.431C123.436 153.507 123.629 153.604 123.844 153.668C124.091 153.755 124.348 153.83 124.606 153.906C124.81 153.96 125.014 154.035 125.218 154.089C125.497 154.154 125.765 154.208 126.044 154.262C126.109 154.273 126.184 154.294 126.248 154.305L189.819 67.7698C189.905 67.8129 190.001 67.8561 190.098 67.8992Z" fill="#FFE882"/>
<path d="M192.975 68.2769C192.75 68.2983 192.535 68.3091 192.32 68.3198C192.535 68.3091 192.75 68.2983 192.975 68.2769Z" fill="#FFE882"/>
<path d="M126.893 154.423C126.871 154.423 126.86 154.423 126.839 154.413C126.85 154.413 126.871 154.413 126.893 154.423Z" fill="#FFE882"/>
<path d="M192.321 68.3196C192.267 68.3196 192.203 68.3304 192.138 68.3304C191.365 68.3304 190.689 68.1794 190.088 67.9097C190.678 68.1902 191.355 68.3412 192.138 68.3412C192.203 68.3304 192.267 68.3196 192.321 68.3196Z" fill="#F9DC62"/>
<path d="M126.249 154.305C126.378 154.337 126.517 154.369 126.646 154.391C126.711 154.401 126.775 154.401 126.839 154.412C126.775 154.401 126.711 154.391 126.646 154.391C126.507 154.369 126.378 154.326 126.249 154.305Z" fill="#F9DC62"/>
<path d="M153.622 128.11L200.651 65.191H200.64L200.651 65.1802C199.738 65.7196 198.869 66.1835 198.053 66.5827C196.089 67.5429 194.403 68.1147 192.975 68.2657C192.75 68.2873 192.535 68.2981 192.331 68.3089C192.278 68.3089 192.213 68.3196 192.16 68.3196C191.376 68.3196 190.7 68.1686 190.109 67.8881C190.013 67.845 189.916 67.8018 189.83 67.7586L126.26 154.294C126.389 154.326 126.528 154.358 126.657 154.38C126.721 154.391 126.786 154.402 126.85 154.402C126.872 154.402 126.882 154.402 126.904 154.412C126.915 154.412 126.925 154.412 126.925 154.412C127.151 154.445 127.376 154.477 127.602 154.499C127.773 154.52 127.934 154.553 128.106 154.563C128.6 154.607 129.094 154.628 129.598 154.628C129.995 154.628 130.393 154.617 130.79 154.585C130.929 154.574 131.069 154.553 131.219 154.542C131.466 154.52 131.724 154.499 131.971 154.466C132.142 154.445 132.314 154.412 132.486 154.38C132.701 154.348 132.915 154.315 133.119 154.272C133.13 154.272 133.13 154.272 133.141 154.272C133.162 154.272 133.173 154.261 133.194 154.261C133.355 154.229 133.516 154.186 133.677 154.143C133.86 154.1 134.032 154.056 134.214 154.013L137.413 149.752L143.822 141.207L146.645 137.442L147.31 136.557L153.622 128.11Z" fill="#F9DC62"/>
<path d="M220.917 15.2293C220.917 15.2185 220.917 15.2185 220.907 15.2185C220.907 15.2185 220.907 15.2077 220.896 15.2077C220.359 14.8301 219.661 14.8517 219.146 15.2509L207.284 24.6801L207.295 24.7125L180.62 45.9012C180.501 45.9983 180.405 46.0954 180.34 46.1925L128.041 118.444L111.972 140.646L108.644 145.232L100.926 155.912C100.861 155.999 100.818 156.074 100.775 156.16L100.722 156.311L100.743 156.462C102.149 164.241 108.3 170.326 116.051 171.62C117.049 171.782 118.08 171.869 119.11 171.869C120.087 171.869 121.085 171.793 122.062 171.642L122.277 171.599L124.306 168.902C124.381 168.837 124.467 168.751 124.542 168.654L129.383 162.213L135.888 153.55L148.158 137.216L203.602 63.0227C203.688 62.9148 203.763 62.7853 203.817 62.6343L205.384 58.7612L215.507 33.6778L216.763 30.5814L221.465 16.9015C221.518 16.7397 221.54 16.5887 221.54 16.4268C221.54 15.9629 221.314 15.5098 220.917 15.2293ZM121.676 170.606C119.851 170.865 117.994 170.844 116.233 170.552C108.987 169.355 103.223 163.702 101.838 156.473L108.021 147.929C108.043 148.004 108.064 148.08 108.086 148.155C108.15 148.403 108.214 148.652 108.29 148.889C108.365 149.18 108.451 149.471 108.547 149.741C108.622 149.989 108.719 150.227 108.805 150.464C108.912 150.734 109.009 151.003 109.127 151.273C109.234 151.5 109.342 151.737 109.449 151.964C109.578 152.223 109.696 152.471 109.835 152.73C109.953 152.945 110.082 153.161 110.211 153.377C110.351 153.625 110.501 153.862 110.662 154.1C110.791 154.305 110.941 154.51 111.081 154.715C111.252 154.952 111.413 155.168 111.585 155.394C111.746 155.589 111.896 155.783 112.057 155.966C112.24 156.182 112.433 156.387 112.626 156.592C112.798 156.775 112.97 156.959 113.142 157.131C113.346 157.326 113.55 157.509 113.754 157.703C113.936 157.865 114.118 158.027 114.312 158.189C114.526 158.372 114.752 158.545 114.977 158.706C115.17 158.858 115.364 159.009 115.568 159.149C115.804 159.311 116.04 159.462 116.287 159.613C116.491 159.742 116.695 159.872 116.909 159.99C117.156 160.141 117.414 160.271 117.672 160.4C117.886 160.508 118.09 160.627 118.316 160.724C118.584 160.853 118.852 160.961 119.132 161.069C119.346 161.166 119.561 161.263 119.786 161.339C120.076 161.447 120.366 161.533 120.656 161.619C120.881 161.695 121.096 161.77 121.321 161.824C121.633 161.911 121.955 161.975 122.266 162.04C122.481 162.094 122.695 162.148 122.91 162.18C123.264 162.245 123.629 162.288 123.994 162.331C124.177 162.353 124.359 162.385 124.542 162.396C125.1 162.45 125.658 162.472 126.216 162.482C126.742 162.482 127.268 162.45 127.794 162.407H127.891L121.676 170.606ZM128.793 161.199C128.524 161.242 128.256 161.274 127.988 161.296C127.837 161.317 127.698 161.339 127.558 161.35C127.107 161.382 126.657 161.404 126.216 161.404C125.68 161.393 125.143 161.371 124.617 161.328C124.445 161.307 124.284 161.274 124.123 161.263C123.758 161.22 123.404 161.177 123.039 161.112C122.846 161.08 122.653 161.026 122.459 160.983C122.148 160.918 121.826 160.853 121.525 160.767C121.321 160.713 121.128 160.638 120.924 160.573C120.634 160.487 120.334 160.4 120.055 160.292C119.851 160.217 119.668 160.131 119.475 160.044C119.196 159.936 118.906 159.829 118.638 159.699C118.445 159.602 118.262 159.494 118.069 159.397C117.811 159.257 117.543 159.127 117.296 158.976C117.113 158.868 116.931 158.75 116.759 158.631C116.512 158.469 116.255 158.318 116.019 158.156C115.847 158.027 115.675 157.887 115.514 157.757C115.278 157.585 115.042 157.412 114.816 157.218C114.655 157.077 114.505 156.926 114.344 156.775C114.129 156.581 113.915 156.387 113.711 156.182C113.56 156.031 113.41 155.858 113.27 155.696C113.077 155.492 112.873 155.276 112.691 155.06C112.551 154.887 112.422 154.704 112.283 154.531C112.111 154.305 111.929 154.078 111.768 153.841C111.639 153.657 111.531 153.463 111.403 153.269C111.252 153.032 111.091 152.794 110.952 152.546C110.844 152.341 110.737 152.136 110.63 151.92C110.501 151.672 110.372 151.424 110.254 151.165C110.147 150.95 110.072 150.723 109.975 150.507C109.868 150.248 109.76 149.989 109.664 149.72C109.578 149.482 109.513 149.245 109.449 149.018C109.363 148.749 109.277 148.479 109.202 148.198C109.138 147.961 109.095 147.713 109.041 147.465C108.987 147.217 108.934 146.979 108.891 146.731L111.811 142.696C111.843 142.772 111.875 142.847 111.896 142.923C111.972 143.149 112.057 143.376 112.143 143.592C112.24 143.851 112.337 144.11 112.444 144.368C112.541 144.584 112.637 144.8 112.734 145.005C112.852 145.253 112.97 145.501 113.099 145.739C113.206 145.954 113.324 146.149 113.442 146.354C113.571 146.591 113.711 146.817 113.861 147.055C113.979 147.249 114.108 147.443 114.247 147.627C114.398 147.853 114.548 148.069 114.709 148.285C114.848 148.468 114.999 148.652 115.138 148.835C115.31 149.04 115.482 149.245 115.664 149.439C115.815 149.612 115.965 149.784 116.126 149.946C116.308 150.14 116.502 150.324 116.695 150.507C116.856 150.669 117.028 150.831 117.199 150.982C117.393 151.154 117.597 151.327 117.811 151.5C117.983 151.64 118.165 151.791 118.348 151.92C118.563 152.082 118.777 152.244 118.992 152.395C119.185 152.525 119.368 152.654 119.561 152.773C119.786 152.924 120.023 153.053 120.259 153.194C120.452 153.301 120.645 153.42 120.849 153.528C121.085 153.657 121.332 153.765 121.579 153.884C121.783 153.981 121.976 154.089 122.191 154.175C122.438 154.283 122.706 154.38 122.964 154.477C123.168 154.564 123.372 154.639 123.586 154.715C123.855 154.812 124.134 154.887 124.402 154.963C124.617 155.028 124.821 155.092 125.025 155.146C125.315 155.222 125.615 155.276 125.916 155.33C126.109 155.373 126.313 155.427 126.517 155.459C126.85 155.513 127.183 155.545 127.526 155.589C127.698 155.599 127.859 155.632 128.031 155.653C128.546 155.686 129.061 155.718 129.587 155.718C130.124 155.718 130.661 155.686 131.197 155.632C131.348 155.621 131.498 155.61 131.648 155.589C132.067 155.545 132.496 155.481 132.915 155.405C133.001 155.394 133.087 155.384 133.172 155.373L128.793 161.199ZM200.65 65.1912H200.64V65.202L147.299 136.558V136.568L143.8 141.218L134.182 154.024C134.01 154.067 133.827 154.111 133.656 154.154C133.473 154.197 133.291 154.24 133.119 154.283C132.893 154.326 132.679 154.359 132.464 154.391C132.292 154.423 132.12 154.456 131.949 154.477C131.702 154.51 131.444 154.531 131.197 154.553C131.058 154.564 130.918 154.585 130.779 154.596C130.381 154.618 129.984 154.639 129.587 154.639C129.083 154.639 128.589 154.618 128.095 154.574C127.934 154.553 127.762 154.531 127.601 154.51C127.44 154.488 127.279 154.467 127.118 154.456C127.043 154.445 126.968 154.434 126.893 154.423C126.807 154.413 126.732 154.402 126.646 154.391C126.506 154.359 126.367 154.337 126.238 154.305C126.173 154.294 126.109 154.272 126.045 154.262C125.894 154.229 125.733 154.197 125.583 154.165C125.465 154.143 125.336 154.111 125.218 154.078C125.111 154.057 125.014 154.024 124.918 153.992C124.81 153.96 124.703 153.927 124.606 153.895C124.499 153.862 124.381 153.83 124.273 153.798C124.134 153.755 123.984 153.722 123.844 153.668C123.629 153.593 123.425 153.506 123.221 153.431C122.985 153.334 122.738 153.247 122.502 153.14C122.298 153.053 122.105 152.945 121.901 152.848C121.676 152.74 121.45 152.633 121.225 152.514C121.021 152.406 120.838 152.287 120.645 152.169C120.538 152.104 120.43 152.039 120.323 151.974C120.216 151.92 120.108 151.856 120.001 151.78C119.904 151.726 119.808 151.662 119.722 151.586C119.625 151.521 119.529 151.457 119.443 151.392C119.239 151.252 119.035 151.111 118.842 150.96C118.659 150.82 118.487 150.669 118.316 150.518C118.133 150.356 117.94 150.205 117.758 150.043C117.672 149.968 117.586 149.892 117.511 149.806C117.425 149.72 117.339 149.633 117.264 149.569V149.558C117.178 149.471 117.092 149.385 117.006 149.31C116.909 149.223 116.824 149.137 116.748 149.051V149.04C116.587 148.878 116.448 148.695 116.298 148.522C116.137 148.339 115.965 148.155 115.815 147.961C115.675 147.778 115.535 147.594 115.407 147.4C115.256 147.206 115.106 147.001 114.967 146.796C114.902 146.699 114.848 146.602 114.784 146.505C114.72 146.408 114.666 146.31 114.602 146.213C114.537 146.105 114.473 145.998 114.408 145.89C114.344 145.782 114.28 145.674 114.215 145.566C114.108 145.361 114.011 145.167 113.904 144.951V144.94C113.786 144.714 113.668 144.498 113.56 144.261C113.474 144.045 113.389 143.829 113.303 143.613C113.206 143.376 113.109 143.139 113.013 142.89C112.938 142.675 112.873 142.448 112.809 142.222C112.744 142.006 112.669 141.801 112.616 141.585L179.9 48.6199V48.6523C179.825 49.2996 179.793 50.0224 179.836 50.7345C179.847 50.9287 179.868 51.1337 179.89 51.3279C179.911 51.522 179.943 51.7162 179.986 51.8996C180.018 52.0831 180.061 52.2772 180.115 52.4499C180.212 52.7735 180.34 53.0864 180.501 53.3669C180.501 53.3777 180.501 53.3777 180.512 53.3885C180.523 53.4208 180.534 53.4424 180.544 53.464C180.544 53.4856 180.566 53.4964 180.577 53.5179C180.641 53.615 180.695 53.7013 180.77 53.7769C180.77 53.7876 180.77 53.7877 180.781 53.7984C180.802 53.8416 180.834 53.874 180.856 53.9063C180.866 53.9171 180.888 53.9387 180.899 53.9495C180.984 54.0574 181.081 54.1545 181.188 54.2408C181.199 54.2731 181.221 54.2839 181.231 54.2839C181.285 54.3379 181.339 54.381 181.392 54.4242C181.392 54.4242 181.403 54.4242 181.403 54.435C181.682 54.6292 181.994 54.7802 182.337 54.8881C182.498 54.9312 182.67 54.9744 182.852 54.996C182.874 55.0068 182.895 55.0068 182.927 54.996H182.938C183.088 55.0283 183.249 55.0391 183.421 55.0391H183.55C183.7 55.0391 183.872 55.0283 184.033 55.0068C184.205 54.9852 184.387 54.9636 184.57 54.9205C184.709 54.8989 184.86 54.8665 185.01 54.8234C185.031 54.8234 185.064 54.8126 185.085 54.8018C185.225 54.7694 185.375 54.7263 185.525 54.6831C185.686 54.6292 185.847 54.5752 186.008 54.5105C186.191 54.4458 186.373 54.381 186.556 54.2947C186.674 54.2516 186.803 54.1976 186.921 54.1329C187.146 54.0358 187.372 53.9279 187.608 53.8092C187.844 53.6906 188.08 53.5719 188.327 53.4316C188.606 53.2698 188.885 53.108 189.175 52.9354C189.175 52.9461 189.175 52.9461 189.164 52.9569C188.917 53.7229 188.617 54.737 188.338 55.8806C188.284 56.0748 188.241 56.269 188.198 56.4632C188.059 57.0566 187.93 57.6715 187.822 58.3081C187.78 58.513 187.747 58.7288 187.715 58.9446C187.651 59.3653 187.597 59.7969 187.554 60.2176C187.447 61.1886 187.415 62.1488 187.479 63.0442C187.49 63.26 187.511 63.4758 187.543 63.6916C187.565 63.9181 187.597 64.1339 187.64 64.3497V64.3605C187.661 64.4791 187.694 64.6086 187.726 64.7273C187.747 64.8459 187.78 64.9646 187.822 65.0833C187.833 65.148 187.855 65.2127 187.876 65.2775C187.941 65.4501 187.994 65.6227 188.069 65.7738C188.166 65.9895 188.273 66.1945 188.391 66.3887C188.434 66.4642 188.488 66.5397 188.542 66.6045C188.617 66.7231 188.703 66.831 188.799 66.9389C188.832 66.9713 188.853 67.0037 188.885 67.036C188.971 67.1439 189.068 67.241 189.164 67.3057C189.196 67.3381 189.229 67.3597 189.261 67.392C189.347 67.4676 189.443 67.5323 189.529 67.597C189.626 67.6618 189.722 67.7157 189.819 67.7696C189.83 67.7804 189.851 67.7912 189.873 67.802C190.002 67.8667 190.141 67.9315 190.281 67.9962C190.281 67.9962 190.281 67.9962 190.291 67.9962C190.291 67.9962 190.291 67.9962 190.302 67.9962C190.313 68.007 190.324 68.007 190.334 68.007V68.0178C190.356 68.0178 190.377 68.0286 190.409 68.0394C190.42 68.0394 190.42 68.0501 190.431 68.0501C190.517 68.0825 190.624 68.1149 190.721 68.1364C190.732 68.1472 190.753 68.1472 190.764 68.1472C190.807 68.1688 190.85 68.1796 190.893 68.1796V68.1904C191.021 68.212 191.15 68.2335 191.279 68.2551C191.29 68.2551 191.3 68.2659 191.322 68.2659C191.365 68.2767 191.419 68.2767 191.472 68.2875H191.526C191.537 68.2875 191.537 68.2875 191.547 68.2875C191.601 68.2983 191.655 68.2983 191.708 68.3091C191.719 68.3091 191.719 68.3091 191.719 68.3091C191.859 68.3199 191.998 68.3199 192.138 68.3199C192.288 68.3199 192.449 68.3199 192.61 68.2983H192.728C192.803 68.2875 192.889 68.2767 192.975 68.2659C193.061 68.2659 193.158 68.2551 193.254 68.2335C193.286 68.2335 193.319 68.2228 193.351 68.2228C193.383 68.212 193.426 68.212 193.469 68.2012C193.598 68.1796 193.737 68.158 193.877 68.1257C194.188 68.0609 194.51 67.9746 194.843 67.8775C194.918 67.8559 195.004 67.8344 195.079 67.802C195.165 67.7804 195.251 67.7481 195.347 67.7157C195.508 67.6618 195.68 67.597 195.863 67.5323C196.217 67.4028 196.582 67.2518 196.958 67.09C197.183 66.9929 197.419 66.885 197.655 66.7771C198.02 66.6045 198.396 66.4211 198.783 66.2269C198.933 66.1514 199.072 66.065 199.223 65.9895C199.276 65.9572 199.33 65.9248 199.384 65.9032C199.588 65.7845 199.781 65.6767 199.996 65.558C200.167 65.4609 200.35 65.353 200.532 65.2451C200.575 65.2235 200.597 65.202 200.64 65.1912C200.64 65.1804 200.65 65.1804 200.65 65.1804V65.1912ZM212.952 37.1625L212.941 37.1733L202.862 62.138L202.851 62.1488L202.819 62.2351C202.797 62.3106 202.776 62.3322 202.754 62.3646L202.132 63.1953L202.1 63.1521L202.046 63.055C201.241 63.5729 200.479 64.0476 199.738 64.4683C199.008 64.8891 198.299 65.2667 197.634 65.5903C195.401 66.68 193.544 67.2302 192.127 67.2302C191.912 67.2302 191.719 67.2194 191.526 67.1871C191.333 67.1655 191.15 67.1223 190.968 67.0792C190.871 67.0576 190.774 67.0252 190.678 66.9821C190.592 66.9497 190.506 66.9173 190.42 66.8742C190.248 66.7879 190.087 66.68 189.937 66.5613C186.921 64.0907 189.454 55.1146 190.689 51.8565L191.279 50.3029L189.894 51.22C186.094 53.7229 183.368 54.5321 182.026 53.5503C180.351 52.3312 180.909 48.3934 181.317 46.7427L207.832 25.6618C209.496 28.4777 212.287 30.3549 215.507 30.8296L212.952 37.1625Z" fill="#11304D"/>
<path d="M212.942 37.1733L202.862 62.1381L202.851 62.1489L202.1 63.1522L202.046 63.0551C201.241 63.573 200.479 64.0477 199.738 64.4684C199.008 64.8892 198.3 65.2668 197.634 65.5904C195.401 66.6801 193.544 67.2303 192.127 67.2303C191.912 67.2303 191.719 67.2195 191.526 67.1871C191.333 67.1656 191.15 67.1224 190.968 67.0793L212.942 37.1733Z" fill="#F9EDBD"/>
</g>
<g clip-path="url(#clip1)">
<path d="M156.214 61.0304L156.683 59.8658L156.674 59.9576C156.672 60.0361 156.657 60.0625 156.645 60.0993L156.256 61.0637L156.214 61.0304Z" fill="#FFF6CF"/>
<path d="M160.882 26.3325L160.037 33.112L160.029 33.1252L146.457 67.727C146.358 67.7314 146.257 67.7254 146.152 67.7089C146.061 67.7001 145.969 67.6913 145.875 67.6721C145.687 67.6336 145.504 67.5715 145.328 67.4962C141.777 65.899 141.922 56.5739 142.28 53.1069L142.452 51.4532L141.348 52.6999C138.316 56.1078 135.887 57.6005 134.338 57.0032C132.405 56.2637 131.934 52.3172 131.905 50.6175L152.133 23.3483C154.465 25.6318 157.646 26.7151 160.882 26.3325Z" fill="#FFF6CF"/>
<path d="M108.332 176.714C107.782 176.863 107.237 176.988 106.693 177.078C106.511 177.105 106.327 177.122 106.145 177.148C105.781 177.202 105.417 177.256 105.057 177.286C104.839 177.3 104.617 177.304 104.399 177.318C104.071 177.34 103.753 177.359 103.43 177.357C103.195 177.353 102.968 177.336 102.733 177.333C102.431 177.325 102.129 177.317 101.821 177.289C101.581 177.264 101.351 177.237 101.108 177.202C100.821 177.168 100.52 177.127 100.23 177.082C99.9978 177.044 99.7597 176.986 99.5244 176.938C99.2421 176.88 98.9597 176.822 98.6822 176.741C98.4441 176.683 98.2109 176.6 97.9804 176.529C97.7133 176.445 97.4358 176.363 97.1762 176.266C96.943 176.184 96.7174 176.088 96.4945 176.004C96.2322 175.896 95.9699 175.788 95.718 175.677C95.4896 175.572 95.2716 175.463 95.0536 175.355C94.8093 175.231 94.5518 175.099 94.3151 174.962C94.1048 174.841 93.8916 174.708 93.6784 174.576C93.439 174.429 93.2099 174.279 92.978 174.118C92.7725 173.973 92.5697 173.838 92.3717 173.679C92.1503 173.516 91.926 173.342 91.7121 173.165C91.5142 173.007 91.3266 172.845 91.1391 172.684C90.9328 172.494 90.7266 172.304 90.5176 172.104C90.3376 171.929 90.1576 171.754 89.9853 171.567C89.7867 171.364 89.606 171.144 89.415 170.928C89.253 170.737 89.0911 170.547 88.9263 170.346C88.7429 170.116 88.5803 169.881 88.4072 169.649C88.2632 169.442 88.1089 169.238 87.9753 169.029C87.8099 168.783 87.6652 168.532 87.5074 168.273C87.3814 168.051 87.2478 167.841 87.1191 167.608C87.0789 167.541 87.0388 167.474 86.9986 167.406L83.2129 177.268C86.4102 183.893 93.4329 187.835 100.747 187.099C102.524 186.92 104.326 186.457 106.034 185.727L109.94 176.191C109.909 176.199 109.877 176.208 109.846 176.216C109.341 176.408 108.841 176.577 108.332 176.714Z" fill="#FC8BA9"/>
<path d="M111.815 168.642C111.675 168.702 111.533 168.752 111.39 168.802C110.882 168.983 110.372 169.155 109.852 169.295C109.344 169.432 108.84 169.546 108.331 169.639C108.162 169.673 107.987 169.687 107.816 169.711C107.486 169.766 107.143 169.814 106.807 169.849C106.601 169.871 106.401 169.87 106.195 169.892C105.888 169.908 105.594 169.931 105.284 169.937C105.062 169.941 104.848 169.931 104.635 169.922C104.345 169.922 104.053 169.912 103.772 169.899C103.545 169.882 103.328 169.862 103.109 169.832C102.835 169.806 102.56 169.779 102.284 169.742C102.064 169.712 101.839 169.661 101.617 169.621C101.348 169.571 101.079 169.521 100.817 169.457C100.592 169.406 100.375 169.342 100.16 169.289C99.896 169.215 99.6448 169.149 99.3776 169.065C99.1603 169.001 98.9506 168.923 98.7305 168.849C98.4738 168.762 98.2274 168.672 97.9783 168.572C97.7658 168.484 97.5637 168.394 97.3485 168.295C97.1069 168.182 96.8682 168.079 96.6239 167.955C96.419 167.854 96.2217 167.74 96.0141 167.629C95.7802 167.502 95.5463 167.376 95.32 167.236C95.1227 167.122 94.9331 166.994 94.7331 166.87C94.5171 166.727 94.288 166.577 94.0797 166.421C93.8873 166.283 93.7053 166.143 93.5233 166.002C93.3122 165.836 93.1011 165.67 92.9004 165.501C92.7259 165.347 92.5515 165.193 92.3771 165.039C92.184 164.857 91.9881 164.664 91.795 164.482C91.6282 164.315 91.4614 164.148 91.305 163.978C91.1195 163.783 90.9416 163.574 90.7637 163.365C90.6149 163.182 90.4557 163.002 90.3173 162.816C90.1498 162.605 89.9899 162.38 89.8273 162.145C89.6861 161.949 89.5476 161.763 89.4168 161.564C89.3767 161.497 89.3261 161.432 89.2756 161.368L87.4879 166.024C87.5931 166.253 87.706 166.468 87.8215 166.693C87.9371 166.919 88.0424 167.147 88.1683 167.37C88.313 167.621 88.4625 167.848 88.6148 168.086C88.7484 168.296 88.8716 168.508 89.0024 168.707C89.1651 168.942 89.3353 169.164 89.5056 169.386C89.644 169.572 89.7852 169.768 89.9341 169.951C90.1147 170.17 90.3133 170.373 90.5016 170.579C90.658 170.749 90.8068 170.932 90.9709 171.089C91.1695 171.292 91.3862 171.479 91.5924 171.669C91.7564 171.825 91.9205 171.982 92.0921 172.125C92.3087 172.312 92.5434 172.483 92.7676 172.657C92.9469 172.787 93.1185 172.931 93.2978 173.061C93.5296 173.222 93.7822 173.377 94.0217 173.524C94.2086 173.641 94.3878 173.771 94.5719 173.878C94.8218 174.022 95.0792 174.154 95.3367 174.285C95.5312 174.389 95.7153 174.495 95.907 174.589C96.1748 174.717 96.4475 174.822 96.7098 174.93C96.9091 175.01 97.1008 175.103 97.2974 175.173C97.57 175.278 97.8579 175.357 98.1382 175.448C98.3452 175.515 98.5417 175.585 98.7459 175.641C99.0338 175.72 99.3161 175.778 99.6116 175.843C99.8234 175.886 100.028 175.943 100.239 175.986C100.532 176.041 100.84 176.069 101.14 176.111C101.347 176.134 101.548 176.18 101.765 176.199C102.073 176.228 102.375 176.235 102.688 176.24C102.891 176.252 103.098 176.275 103.309 176.274C103.632 176.276 103.949 176.257 104.267 176.238C104.465 176.229 104.666 176.231 104.861 176.212C105.22 176.182 105.584 176.128 105.948 176.074C106.109 176.053 106.273 176.042 106.432 176.011C106.952 175.915 107.479 175.806 108.008 175.663C108.434 175.548 108.864 175.41 109.282 175.264C109.414 175.217 109.554 175.157 109.686 175.11C109.94 175.019 110.191 174.918 110.439 174.806L113.176 168.029C113.099 168.072 113.016 168.095 112.928 168.141C112.607 168.317 112.209 168.491 111.815 168.642Z" fill="#6DDFDF"/>
<path d="M106.027 185.741L109.932 176.204C109.901 176.213 109.87 176.221 109.839 176.23C109.341 176.409 108.841 176.577 108.332 176.714C107.782 176.863 107.237 176.988 106.693 177.079C106.511 177.106 106.327 177.122 106.145 177.149C105.781 177.202 105.417 177.256 105.057 177.286C104.839 177.3 104.617 177.304 104.399 177.319C104.071 177.34 103.753 177.359 103.43 177.357C103.253 177.36 103.083 177.35 102.913 177.34L99.0571 187.187C99.6225 187.18 100.185 187.162 100.75 187.11C102.527 186.931 104.328 186.467 106.027 185.741Z" fill="#FF6485"/>
<path d="M104.314 176.248C104.512 176.239 104.713 176.24 104.908 176.221C105.267 176.191 105.631 176.138 105.995 176.084C106.156 176.063 106.32 176.052 106.479 176.02C106.998 175.925 107.526 175.816 108.055 175.673C108.481 175.558 108.911 175.419 109.328 175.273C109.461 175.227 109.6 175.166 109.733 175.12C109.987 175.029 110.238 174.927 110.486 174.816L113.223 168.039C113.146 168.082 113.063 168.104 112.975 168.151C112.589 168.333 112.201 168.504 111.797 168.658C111.657 168.718 111.515 168.768 111.372 168.818C110.864 168.999 110.353 169.171 109.834 169.311C109.326 169.448 108.822 169.562 108.313 169.655C108.144 169.689 107.969 169.703 107.798 169.727C107.468 169.782 107.124 169.83 106.789 169.865C106.583 169.887 106.383 169.886 106.177 169.908C106.047 169.92 105.924 169.92 105.794 169.933L103.293 176.3C103.304 176.297 103.304 176.297 103.317 176.305C103.668 176.288 103.996 176.266 104.314 176.248Z" fill="#4ACCC9"/>
<path d="M145.827 68.7449C145.722 68.7285 145.618 68.7121 145.524 68.6928C145.302 68.6524 145.092 68.575 144.89 68.4845C140.885 66.6863 140.909 58.1193 141.106 54.5505C139.08 56.6377 137.337 57.8225 135.848 58.1239C135.168 58.2853 134.534 58.2444 133.963 58.0192C133.889 57.9944 133.826 57.9667 133.758 57.9183C132.017 57.1047 131.314 54.6716 131.03 52.8065L128.531 59.307L89.8162 160.094C89.9339 160.286 90.0516 160.477 90.1665 160.658C90.2869 160.86 90.4073 161.062 90.5485 161.258C90.6953 161.475 90.8469 161.669 91.0012 161.873C91.1424 162.069 91.2808 162.255 91.4297 162.438C91.5812 162.631 91.764 162.816 91.9259 163.007C92.0823 163.177 92.2312 163.36 92.3848 163.519C92.5675 163.704 92.7447 163.868 92.935 164.04C93.0991 164.197 93.2659 164.364 93.4299 164.521C93.6175 164.682 93.8127 164.83 94.0106 164.989C94.1926 165.129 94.367 165.283 94.5463 165.413C94.7415 165.562 94.9546 165.694 95.1602 165.839C95.3498 165.967 95.5291 166.097 95.7291 166.221C95.9291 166.346 96.1499 166.465 96.3603 166.587C96.5679 166.698 96.7548 166.815 96.9624 166.926C97.1804 167.035 97.406 167.13 97.6213 167.228C97.8365 167.327 98.0414 167.427 98.2435 167.518C98.4795 167.611 98.7127 167.693 98.9355 167.778C99.1556 167.852 99.3681 167.94 99.5778 168.017C99.8186 168.086 100.059 168.155 100.298 168.213C100.515 168.278 100.732 168.342 100.947 168.395C101.195 168.451 101.441 168.496 101.687 168.542C101.909 168.582 102.123 168.636 102.356 168.673C102.599 168.708 102.86 168.727 103.123 168.756C103.34 168.776 103.552 168.819 103.776 168.826C104.037 168.845 104.305 168.85 104.574 168.856C104.785 168.855 105.001 168.874 105.213 168.873C105.499 168.863 105.772 168.845 106.056 168.824C106.121 168.818 106.199 168.819 106.264 168.812L145.524 68.6928C145.618 68.7121 145.722 68.7285 145.827 68.7449Z" fill="#FFE882"/>
<path d="M148.705 68.3584C148.493 68.438 148.288 68.5045 148.083 68.5709C148.288 68.5045 148.493 68.438 148.705 68.3584Z" fill="#FFE882"/>
<path d="M106.918 168.759C106.897 168.765 106.887 168.768 106.863 168.763C106.874 168.76 106.895 168.754 106.918 168.759Z" fill="#FFE882"/>
<path d="M148.084 68.5711C148.032 68.5851 147.972 68.6124 147.91 68.6292C147.163 68.8309 146.47 68.8617 145.819 68.7583C146.462 68.8749 147.155 68.8442 147.913 68.6396C147.972 68.6124 148.032 68.5851 148.084 68.5711Z" fill="#F9DC62"/>
<path d="M106.265 168.812C106.398 168.81 106.541 168.805 106.671 168.792C106.736 168.786 106.798 168.769 106.863 168.762C106.798 168.769 106.733 168.775 106.671 168.792C106.53 168.808 106.395 168.8 106.265 168.812Z" fill="#F9DC62"/>
<path d="M126.01 136.383L155.335 63.3766L155.325 63.3794L155.333 63.3662C154.589 64.1251 153.867 64.7998 153.181 65.3981C151.527 66.8377 150.044 67.8296 148.703 68.3481C148.49 68.4277 148.285 68.4942 148.091 68.5579C148.039 68.5719 147.979 68.5991 147.928 68.6131C147.17 68.8177 146.477 68.8485 145.834 68.7318C145.73 68.7154 145.625 68.699 145.531 68.6797L106.272 168.799C106.405 168.797 106.548 168.792 106.678 168.779C106.743 168.773 106.808 168.766 106.87 168.749C106.891 168.744 106.901 168.741 106.925 168.746C106.935 168.743 106.946 168.74 106.946 168.74C107.172 168.713 107.398 168.685 107.622 168.647C107.794 168.623 107.958 168.612 108.126 168.578C108.615 168.49 109.098 168.382 109.586 168.251C109.97 168.147 110.351 168.033 110.727 167.898C110.859 167.851 110.989 167.794 111.131 167.744C111.364 167.659 111.608 167.571 111.838 167.475C111.999 167.409 112.157 167.333 112.315 167.257C112.514 167.17 112.713 167.083 112.899 166.988C112.91 166.985 112.91 166.985 112.92 166.982C112.941 166.977 112.948 166.963 112.969 166.958C113.117 166.885 113.261 166.801 113.406 166.717C113.571 166.628 113.726 166.541 113.892 166.452L115.891 161.504L119.895 151.584L121.658 147.212L122.075 146.185L126.01 136.383Z" fill="#F9DC62"/>
<path d="M162.109 9.86252C162.106 9.8521 162.106 9.85211 162.096 9.85491C162.096 9.85491 162.093 9.8445 162.083 9.8473C161.467 9.62296 160.797 9.82593 160.402 10.3457L151.352 22.5435L151.37 22.5719L131.014 49.9872C130.925 50.1118 130.856 50.2307 130.819 50.3412L98.7925 133.731L88.9525 159.357L86.9116 164.651L82.1898 176.975C82.1497 177.075 82.1275 177.159 82.1082 177.254L82.095 177.414L82.1546 177.554C85.5111 184.695 93.021 188.962 100.848 188.188C101.855 188.084 102.874 187.898 103.87 187.629C104.815 187.374 105.761 187.04 106.667 186.64L106.863 186.542L108.133 183.409C108.189 183.327 108.25 183.221 108.297 183.108L111.326 175.627L115.392 165.567L123.064 146.599L157.634 60.513C157.689 60.3865 157.728 60.2419 157.742 60.0821L158.263 55.9347L161.613 29.0814L162.032 25.765L163.067 11.3336C163.078 11.1634 163.06 11.012 163.018 10.8558C162.899 10.4081 162.565 10.0296 162.109 9.86252ZM106.027 185.741C104.329 186.467 102.527 186.931 100.75 187.11C93.4361 187.845 86.4107 183.894 83.2161 177.278L87.0019 167.417C87.042 167.484 87.0822 167.551 87.1223 167.619C87.2483 167.841 87.3743 168.064 87.5079 168.274C87.6553 168.535 87.8131 168.794 87.9758 169.029C88.1121 169.249 88.2665 169.453 88.4104 169.659C88.5835 169.892 88.7461 170.127 88.9296 170.356C89.0915 170.547 89.2563 170.748 89.4182 170.939C89.6092 171.155 89.7871 171.364 89.9885 171.577C90.1581 171.755 90.3381 171.929 90.518 172.104C90.7167 172.307 90.9229 172.497 91.1395 172.684C91.3167 172.848 91.5147 173.007 91.7022 173.168C91.9292 173.352 92.1403 173.519 92.3646 173.692C92.5701 173.838 92.7653 173.986 92.9681 174.121C93.2 174.282 93.4394 174.429 93.6789 174.576C93.8921 174.709 94.1052 174.841 94.3156 174.963C94.5627 175.097 94.807 175.221 95.0541 175.355C95.2721 175.463 95.4901 175.572 95.7185 175.678C95.9732 175.799 96.2355 175.906 96.495 176.004C96.7206 176.099 96.9462 176.194 97.1795 176.277C97.4494 176.371 97.7165 176.455 97.994 176.537C98.2245 176.608 98.455 176.68 98.693 176.738C98.9705 176.82 99.2529 176.877 99.5353 176.935C99.7706 176.983 99.9983 177.045 100.241 177.079C100.534 177.134 100.821 177.168 101.119 177.2C101.351 177.237 101.584 177.275 101.821 177.289C102.129 177.318 102.432 177.325 102.734 177.333C102.971 177.347 103.198 177.364 103.43 177.357C103.753 177.359 104.081 177.337 104.399 177.319C104.62 177.315 104.842 177.311 105.058 177.286C105.417 177.256 105.781 177.202 106.145 177.149C106.327 177.122 106.512 177.105 106.691 177.068C107.245 176.974 107.79 176.85 108.333 176.714C108.841 176.577 109.342 176.408 109.839 176.229L109.933 176.204L106.027 185.741ZM110.494 174.803C110.246 174.914 109.995 175.016 109.741 175.106C109.601 175.166 109.471 175.224 109.339 175.271C108.912 175.42 108.481 175.558 108.056 175.673C107.534 175.803 107.009 175.922 106.49 176.018C106.318 176.042 106.154 176.052 105.995 176.084C105.631 176.138 105.278 176.188 104.908 176.221C104.713 176.241 104.512 176.239 104.314 176.248C103.997 176.266 103.669 176.288 103.356 176.283C103.145 176.284 102.939 176.262 102.725 176.253C102.422 176.245 102.11 176.24 101.812 176.209C101.595 176.189 101.397 176.154 101.188 176.121C100.89 176.089 100.582 176.061 100.289 176.006C100.078 175.963 99.8736 175.906 99.6618 175.863C99.3767 175.795 99.0839 175.74 98.8064 175.659C98.6022 175.602 98.3953 175.535 98.1988 175.466C97.9185 175.374 97.6306 175.295 97.3607 175.201C97.1613 175.121 96.9592 175.03 96.7703 174.947C96.4976 174.842 96.225 174.737 95.9571 174.609C95.7654 174.515 95.5813 174.409 95.3868 174.305C95.1294 174.174 94.8719 174.042 94.6221 173.898C94.438 173.791 94.2483 173.664 94.0718 173.544C93.8324 173.397 93.5798 173.242 93.3479 173.081C93.1687 172.951 92.997 172.807 92.8178 172.677C92.5935 172.503 92.3589 172.332 92.1423 172.145C91.9706 172.002 91.817 171.842 91.6425 171.689C91.4363 171.499 91.2197 171.312 91.021 171.109C90.8646 170.939 90.7082 170.769 90.549 170.589C90.3607 170.383 90.1725 170.177 89.9918 169.958C89.8326 169.778 89.7018 169.579 89.553 169.396C89.3827 169.174 89.2124 168.952 89.0498 168.717C88.9058 168.51 88.7826 168.298 88.6622 168.096C88.5099 167.858 88.3576 167.62 88.2129 167.369C88.0897 167.157 87.9845 166.928 87.8689 166.703C87.7533 166.477 87.6405 166.262 87.5353 166.034L89.323 161.377C89.3735 161.442 89.424 161.506 89.4642 161.574C89.595 161.773 89.7362 161.969 89.8746 162.155C90.0345 162.379 90.1944 162.604 90.3647 162.826C90.5135 163.009 90.6623 163.192 90.8084 163.365C90.9862 163.573 91.1641 163.782 91.3496 163.978C91.5088 164.158 91.6728 164.314 91.8396 164.481C92.0251 164.677 92.2182 164.859 92.4245 165.049C92.5885 165.206 92.7629 165.359 92.945 165.5C93.1484 165.679 93.3491 165.848 93.5602 166.015C93.7423 166.155 93.9347 166.293 94.1167 166.434C94.3354 166.587 94.5541 166.74 94.7804 166.879C94.9701 167.007 95.1597 167.134 95.3569 167.248C95.5833 167.388 95.8172 167.515 96.0511 167.641C96.2484 167.756 96.456 167.867 96.6608 167.968C96.892 168.084 97.1335 168.197 97.3855 168.308C97.5875 168.398 97.8028 168.497 98.0125 168.574C98.2616 168.674 98.5108 168.774 98.7572 168.864C98.9772 168.938 99.1869 169.016 99.4042 169.08C99.661 169.167 99.9226 169.23 100.187 169.304C100.402 169.358 100.619 169.422 100.844 169.473C101.105 169.536 101.372 169.575 101.641 169.626C101.863 169.666 102.078 169.72 102.307 169.747C102.574 169.787 102.858 169.81 103.132 169.837C103.352 169.867 103.568 169.887 103.795 169.903C104.08 169.927 104.369 169.927 104.648 169.93C104.872 169.936 105.086 169.946 105.297 169.944C105.597 169.942 105.901 169.915 106.206 169.889C106.404 169.88 106.615 169.879 106.82 169.857C107.156 169.822 107.486 169.766 107.829 169.718C107.998 169.684 108.162 169.673 108.334 169.649C108.84 169.546 109.347 169.443 109.856 169.305C110.375 169.165 110.885 168.994 111.39 168.802C111.533 168.752 111.676 168.702 111.815 168.642C112.209 168.491 112.608 168.317 112.993 168.135C113.073 168.102 113.154 168.069 113.234 168.036L110.494 174.803ZM155.336 63.3767L155.325 63.3795L155.328 63.39L122.065 146.188L122.068 146.198L119.877 151.6L113.864 166.471C113.709 166.557 113.543 166.647 113.388 166.733C113.223 166.823 113.057 166.912 112.902 166.998C112.695 167.099 112.496 167.186 112.297 167.273C112.139 167.349 111.981 167.426 111.821 167.491C111.59 167.587 111.347 167.675 111.114 167.76C110.981 167.807 110.852 167.864 110.72 167.911C110.341 168.036 109.963 168.16 109.579 168.264C109.091 168.396 108.608 168.504 108.119 168.591C107.958 168.612 107.786 168.636 107.625 168.657C107.464 168.679 107.303 168.7 107.144 168.731C107.069 168.741 106.993 168.75 106.918 168.759C106.832 168.771 106.757 168.78 106.671 168.792C106.527 168.797 106.387 168.813 106.254 168.815C106.189 168.822 106.121 168.818 106.056 168.824C105.903 168.832 105.739 168.843 105.585 168.851C105.465 168.861 105.332 168.863 105.21 168.863C105.1 168.87 104.999 168.864 104.897 168.858C104.785 168.855 104.673 168.852 104.571 168.846C104.459 168.843 104.336 168.842 104.224 168.839C104.078 168.834 103.925 168.842 103.776 168.826C103.549 168.809 103.33 168.779 103.113 168.759C102.86 168.727 102.599 168.709 102.343 168.666C102.123 168.636 101.909 168.582 101.687 168.542C101.441 168.497 101.195 168.451 100.947 168.396C100.722 168.345 100.515 168.278 100.298 168.214C100.177 168.179 100.057 168.145 99.9363 168.11C99.8187 168.086 99.6982 168.052 99.5751 168.007C99.4678 167.98 99.3578 167.943 99.2553 167.892C99.1453 167.855 99.0352 167.818 98.9356 167.778C98.7024 167.696 98.4691 167.614 98.2435 167.518C98.031 167.43 97.8262 167.33 97.6213 167.229C97.4033 167.12 97.1777 167.025 96.9597 166.916C96.8573 166.866 96.7548 166.815 96.66 166.751C96.5548 166.691 96.4496 166.63 96.3603 166.587L96.3576 166.576C96.2524 166.516 96.1472 166.455 96.0447 166.404C95.9292 166.346 95.824 166.285 95.7291 166.222L95.7264 166.211C95.5291 166.097 95.3471 165.956 95.1575 165.829C94.9547 165.694 94.7415 165.562 94.5463 165.414C94.3643 165.273 94.1823 165.132 94.0079 164.979C93.8127 164.83 93.6148 164.672 93.4272 164.51C93.34 164.433 93.2632 164.354 93.176 164.277C93.0887 164.2 93.0119 164.12 92.9247 164.043C92.8347 163.956 92.7448 163.869 92.6548 163.781C92.5648 163.694 92.4748 163.607 92.3849 163.519C92.2284 163.35 92.0852 163.187 91.926 163.007L91.9232 162.997C91.7509 162.809 91.5813 162.631 91.4166 162.43C91.2781 162.245 91.1397 162.059 91.0013 161.873C90.8469 161.669 90.6926 161.465 90.5354 161.251C90.4074 161.062 90.287 160.86 90.1665 160.658C90.0488 160.467 89.9236 160.289 89.8163 160.095L131.017 52.7991L131.025 52.8303C131.118 53.4747 131.273 54.1808 131.497 54.8569C131.557 55.0415 131.631 55.2338 131.701 55.4156C131.772 55.5974 131.853 55.7765 131.942 55.9423C132.02 56.1109 132.111 56.2871 132.207 56.4397C132.384 56.7269 132.589 56.9953 132.816 57.224C132.819 57.2344 132.819 57.2344 132.832 57.242C132.851 57.2704 132.867 57.2884 132.883 57.3065C132.888 57.3273 132.912 57.3321 132.928 57.3501C133.015 57.427 133.089 57.4963 133.181 57.5496C133.184 57.56 133.184 57.56 133.197 57.5676C133.229 57.6037 133.268 57.6265 133.298 57.6521C133.311 57.6598 133.337 57.675 133.35 57.6826C133.461 57.7643 133.579 57.8328 133.705 57.8881C133.724 57.9165 133.747 57.9213 133.758 57.9185C133.823 57.9566 133.886 57.9842 133.949 58.0119C133.949 58.0119 133.96 58.009 133.963 58.0195C134.282 58.134 134.622 58.1986 134.982 58.213C135.149 58.2126 135.326 58.2094 135.508 58.1826C135.532 58.1874 135.552 58.1818 135.581 58.163L135.591 58.1602C135.745 58.1522 135.903 58.1206 136.069 58.0758L136.194 58.0421C136.339 58.0029 136.502 57.9476 136.653 57.8848C136.813 57.8191 136.984 57.7507 137.149 57.6614C137.279 57.6041 137.416 57.5336 137.55 57.4527C137.571 57.4471 137.599 57.4283 137.617 57.4123C137.744 57.3446 137.878 57.2637 138.012 57.1829C138.154 57.0888 138.296 56.9947 138.435 56.8901C138.595 56.78 138.755 56.6699 138.909 56.539C139.012 56.4665 139.123 56.3808 139.221 56.2875C139.414 56.1349 139.604 55.9719 139.802 55.7957C140 55.6195 140.198 55.4433 140.4 55.2435C140.629 55.0145 140.857 54.7854 141.093 54.5431C141.096 54.5535 141.096 54.5535 141.088 54.5668C141.046 55.3705 141.016 56.4278 141.039 57.6045C141.037 57.8059 141.046 58.0046 141.054 58.2032C141.071 58.8124 141.105 59.4396 141.164 60.082C141.175 60.291 141.2 60.5077 141.224 60.7244C141.27 61.1473 141.328 61.5778 141.395 61.9952C141.54 62.9604 141.756 63.8956 142.048 64.743C142.114 64.9485 142.19 65.1511 142.276 65.351C142.355 65.5641 142.442 65.7639 142.539 65.961L142.541 65.9714C142.593 66.0803 142.657 66.1969 142.719 66.303C142.77 66.412 142.831 66.5181 142.903 66.6214C142.93 66.6811 142.968 66.738 143.005 66.7949C143.112 66.9447 143.208 67.0973 143.319 67.2234C143.468 67.4065 143.625 67.5763 143.789 67.7329C143.85 67.7946 143.921 67.8535 143.989 67.9019C144.093 67.9969 144.203 68.0786 144.324 68.1575C144.364 68.1803 144.393 68.206 144.432 68.2288C144.543 68.3105 144.661 68.379 144.772 68.4163C144.811 68.4391 144.848 68.4515 144.887 68.4743C144.99 68.5248 145.1 68.5621 145.199 68.6021C145.309 68.6394 145.417 68.6662 145.524 68.6931C145.537 68.7007 145.56 68.7055 145.584 68.7103C145.725 68.7392 145.877 68.7652 146.028 68.7913C146.028 68.7913 146.028 68.7913 146.039 68.7884C146.039 68.7884 146.039 68.7884 146.049 68.7856C146.062 68.7933 146.073 68.7905 146.083 68.7877L146.086 68.7981C146.107 68.7925 146.13 68.7973 146.164 68.7993C146.174 68.7965 146.177 68.8069 146.187 68.8041C146.279 68.8129 146.391 68.8161 146.49 68.8117C146.503 68.8193 146.524 68.8137 146.534 68.8109C146.581 68.8205 146.626 68.8197 146.667 68.8085L146.67 68.819C146.8 68.8061 146.93 68.7933 147.06 68.7805C147.071 68.7777 147.084 68.7854 147.104 68.7798C147.149 68.779 147.201 68.7649 147.255 68.7613L147.307 68.7473C147.318 68.7445 147.318 68.7445 147.328 68.7417C147.383 68.7381 147.435 68.7241 147.489 68.7205C147.5 68.7177 147.5 68.7177 147.5 68.7177C147.637 68.6917 147.772 68.6553 147.907 68.6188C148.053 68.5796 148.208 68.5376 148.358 68.4747L148.473 68.4439C148.542 68.4139 148.623 68.381 148.703 68.3482C148.786 68.3258 148.877 68.2901 148.965 68.2441C148.996 68.2357 149.024 68.2169 149.055 68.2084C149.084 68.1896 149.125 68.1784 149.164 68.1568C149.283 68.1023 149.412 68.0451 149.539 67.9774C149.823 67.8337 150.113 67.6663 150.41 67.4857C150.477 67.4453 150.554 67.402 150.619 67.3512C150.696 67.3079 150.771 67.2543 150.856 67.1978C150.998 67.1037 151.147 66.9964 151.307 66.8863C151.616 66.6688 151.931 66.4278 152.252 66.1735C152.445 66.0209 152.646 65.8551 152.847 65.6893C153.155 65.4274 153.472 65.1523 153.795 64.864C153.921 64.7519 154.034 64.6322 154.16 64.52C154.204 64.4748 154.247 64.4295 154.294 64.3947C154.46 64.2269 154.62 64.0723 154.797 63.9017C154.938 63.7632 155.087 63.6114 155.235 63.4596C155.271 63.4276 155.287 63.4012 155.325 63.3795C155.323 63.3691 155.333 63.3663 155.333 63.3663L155.336 63.3767ZM160.037 33.1118L160.029 33.1251L156.69 59.8525L156.683 59.8657L156.674 59.9575C156.672 60.036 156.657 60.0624 156.645 60.0992L156.256 61.0636L156.214 61.0303L156.137 60.9506C155.491 61.6606 154.876 62.3178 154.268 62.9173C153.67 63.5139 153.082 64.0634 152.521 64.5495C150.642 66.1841 148.987 67.2 147.617 67.5699C147.41 67.626 147.22 67.666 147.025 67.6852C146.832 67.7148 146.645 67.7208 146.457 67.7268C146.358 67.7312 146.257 67.7252 146.152 67.7087C146.061 67.6999 145.969 67.6911 145.875 67.6719C145.687 67.6334 145.504 67.5713 145.328 67.496C141.777 65.8988 141.922 56.5737 142.28 53.1067L142.452 51.453L141.348 52.6997C138.316 56.1076 135.887 57.6004 134.338 57.003C132.405 56.2635 131.934 52.317 131.905 50.6173L152.133 23.3481C154.465 25.6316 157.646 26.7149 160.882 26.3323L160.037 33.1118Z" fill="#11304D"/>
<path d="M160.029 33.1249L156.69 59.8524L156.683 59.8656L156.213 61.0302L156.137 60.9505C155.491 61.6605 154.876 62.3176 154.268 62.9171C153.67 63.5138 153.082 64.0632 152.521 64.5493C150.642 66.1839 148.987 67.1998 147.617 67.5697C147.409 67.6258 147.22 67.6658 147.025 67.685C146.832 67.7146 146.645 67.7206 146.457 67.7266L160.029 33.1249Z" fill="#F9EDBD"/>
</g>
<defs>
<clipPath id="clip0">
<rect width="120.818" height="156.931" fill="white" transform="translate(100.722 14.938)"/>
</clipPath>
<clipPath id="clip1">
<rect width="121.014" height="156.735" fill="white" transform="matrix(0.965439 -0.260637 0.257018 0.966408 45.8047 40.9595)"/>
</clipPath>
</defs>
</svg>
