<svg width="16" height="13" viewBox="0 0 16 13" fill="none" xmlns="http://www.w3.org/2000/svg">
<path d="M5.78641 6.11315C5.78641 6.65032 5.9998 7.16549 6.37964 7.54533C6.75948 7.92517 7.27465 8.13856 7.81182 8.13856C8.34899 8.13856 8.86416 7.92517 9.244 7.54533C9.62384 7.16549 9.83723 6.65032 9.83723 6.11315C9.83723 5.57598 9.62384 5.06081 9.244 4.68097C8.86416 4.30114 8.34899 4.08775 7.81182 4.08775C7.27465 4.08775 6.75948 4.30114 6.37964 4.68097C5.9998 5.06081 5.78641 5.57598 5.78641 6.11315ZM15.6639 5.64659C13.9495 2.03521 11.3581 0.217773 7.88416 0.217773C4.40841 0.217773 1.81879 2.03521 0.104426 5.64839C0.0356628 5.794 0 5.95303 0 6.11406C0 6.27508 0.0356628 6.43411 0.104426 6.57972C1.81879 10.1911 4.41022 12.0085 7.88416 12.0085C11.3599 12.0085 13.9495 10.1911 15.6639 6.57791C15.8031 6.28495 15.8031 5.94497 15.6639 5.64659ZM7.81182 9.29593C6.05406 9.29593 4.62904 7.87092 4.62904 6.11315C4.62904 4.35539 6.05406 2.93037 7.81182 2.93037C9.56958 2.93037 10.9946 4.35539 10.9946 6.11315C10.9946 7.87092 9.56958 9.29593 7.81182 9.29593Z" fill="#11304D"/>
</svg>
