<svg width="40" height="37" viewBox="0 0 40 37" fill="none" xmlns="http://www.w3.org/2000/svg">
<path d="M19.9274 12.8413C16.395 12.8413 13.5123 15.5329 13.5123 18.8311C13.5123 22.1293 16.395 24.8209 19.9274 24.8209C23.4597 24.8209 26.3424 22.1293 26.3424 18.8311C26.3424 15.5329 23.4597 12.8413 19.9274 12.8413ZM39.1676 18.8311C39.1676 16.3507 39.1917 13.8928 39.0425 11.4169C38.8933 8.54106 38.1907 5.98877 35.9384 3.88583C33.6814 1.7784 30.9527 1.12685 27.8727 0.987551C25.2163 0.848254 22.5838 0.870721 19.9322 0.870721C17.2757 0.870721 14.6433 0.848254 11.9916 0.987551C8.91162 1.12685 6.17814 1.78289 3.92591 3.88583C1.66886 5.99327 0.971054 8.54106 0.821868 11.4169C0.672682 13.8973 0.696744 16.3552 0.696744 18.8311C0.696744 21.307 0.672682 23.7694 0.821868 26.2453C0.971054 29.1211 1.67367 31.6734 3.92591 33.7763C6.18295 35.8838 8.91162 36.5353 11.9916 36.6746C14.6481 36.8139 17.2805 36.7914 19.9322 36.7914C22.5886 36.7914 25.2211 36.8139 27.8727 36.6746C30.9527 36.5353 33.6862 35.8793 35.9384 33.7763C38.1955 31.6689 38.8933 29.1211 39.0425 26.2453C39.1965 23.7694 39.1676 21.3115 39.1676 18.8311ZM19.9274 28.0472C14.4652 28.0472 10.057 23.9312 10.057 18.8311C10.057 13.731 14.4652 9.61499 19.9274 9.61499C25.3895 9.61499 29.7977 13.731 29.7977 18.8311C29.7977 23.9312 25.3895 28.0472 19.9274 28.0472ZM30.202 11.3899C28.9267 11.3899 27.8968 10.4283 27.8968 9.23754C27.8968 8.04678 28.9267 7.08518 30.202 7.08518C31.4773 7.08518 32.5071 8.04678 32.5071 9.23754C32.5075 9.5203 32.4482 9.80034 32.3324 10.0616C32.2167 10.3229 32.0469 10.5604 31.8328 10.7603C31.6187 10.9602 31.3644 11.1188 31.0846 11.2268C30.8047 11.3348 30.5048 11.3903 30.202 11.3899Z" fill="white"/>
</svg>
