<svg width="15" height="18" viewBox="0 0 15 18" fill="none" xmlns="http://www.w3.org/2000/svg">
<path d="M7.19327 10.7533C8.75789 10.7533 10.0263 9.48493 10.0263 7.92031C10.0263 6.35568 8.75789 5.08731 7.19327 5.08731C5.62864 5.08731 4.36026 6.35568 4.36026 7.92031C4.36026 9.48493 5.62864 10.7533 7.19327 10.7533Z" stroke="#11304D" stroke-width="1.50605" stroke-linecap="round" stroke-linejoin="round"/>
<path d="M2.10084 11.5111C2.10687 11.5186 2.11306 11.526 2.11938 11.5333L6.62602 16.7333C6.76905 16.8983 6.97668 16.9932 7.19507 16.9932C7.41346 16.9932 7.6211 16.8983 7.76413 16.7333L12.2708 11.5333C12.2771 11.526 12.2833 11.5186 12.2893 11.5111C12.7134 10.9819 13.0233 10.4521 13.222 9.85282C13.4195 9.25688 13.4947 8.62924 13.4947 7.92018C13.4947 6.2494 12.831 4.64706 11.6496 3.46564C10.4682 2.28422 8.86585 1.62051 7.19507 1.62051C5.5243 1.62051 3.92196 2.28422 2.74054 3.46564C1.55912 4.64706 0.895411 6.2494 0.895411 7.92018C0.895411 8.62924 0.970635 9.25688 1.16818 9.85282C1.36683 10.4521 1.67671 10.9819 2.10084 11.5111Z" stroke="#11304D" stroke-width="1.50605" stroke-linecap="round" stroke-linejoin="round"/>
</svg>
