<svg width="622" height="500" viewBox="0 0 622 500" fill="none" xmlns="http://www.w3.org/2000/svg">
<path fill-rule="evenodd" clip-rule="evenodd" d="M360.912 8.98358C391.266 -9.61098 442.316 4.11167 463.689 32.5769C489.013 66.304 458.507 117.344 472.223 157.228C480.259 180.595 526.511 184.103 524.262 208.711C521.597 237.861 478.332 244.775 462 269.067C452.591 283.062 454.883 301.388 450.93 317.781C444.749 343.419 445.212 370.759 431.982 393.572C413.932 424.697 394.413 486.133 360.912 473.007C318.393 456.349 355.676 361.318 312.405 346.722C260.41 329.184 214.084 418.883 160.862 405.53C124.329 396.364 132.37 336.767 125.288 299.774C118.373 263.651 104.934 224.606 119.786 190.959C134.728 157.106 169.054 132.617 204.192 121.014C236.616 110.308 277.184 149.67 304.962 129.813C341.529 103.674 322.584 32.4635 360.912 8.98358Z" fill="#C9FFFF"/>
<path fill-rule="evenodd" clip-rule="evenodd" d="M381.188 137.786C388.742 133.544 393.153 125.94 397.519 118.414C398.175 117.282 398.831 116.152 399.496 115.035C399.941 114.288 400.427 113.517 400.924 112.731V112.731C402.234 110.655 403.61 108.475 404.469 106.339C404.845 105.406 405.169 104.036 405.497 102.651C405.884 101.018 406.275 99.3643 406.761 98.385C407.822 96.2457 415.878 95.2719 421.364 94.609C423.176 94.3899 424.708 94.2051 425.615 94.0223C435.257 92.0875 446.783 90.9268 454.663 98.476C456.536 100.27 458.634 101.925 460.739 103.586C463.263 105.576 465.797 107.574 467.966 109.831C471.449 113.454 476.138 119.549 477.792 124.39C469.304 126.026 455.199 131.037 451.819 139.945C439.376 128.524 434.123 147.548 431.367 157.53C431.199 158.139 431.04 158.715 430.89 159.248C424.113 156.316 424.465 147.392 424.723 140.858V140.857C424.76 139.942 424.794 139.074 424.807 138.275C424.825 137.091 425.004 135.856 425.18 134.652C425.768 130.616 426.306 126.921 420.541 126.596C414.947 126.281 409.514 128.559 404.469 130.692C398.174 133.354 391.57 137.336 386.485 141.91L381.188 137.786ZM368.961 119.992C368.96 120.209 368.957 120.426 368.955 120.642C368.936 122.566 368.917 124.484 369.501 126.339C369.839 127.412 369.845 128.98 369.85 130.486C369.853 131.577 369.857 132.636 369.987 133.45C364.523 131.787 354.37 129.319 348.791 131.563C343.457 133.707 342.786 143.625 342.598 148.449C342.55 149.667 342.721 151.131 342.899 152.65C343.2 155.228 343.519 157.968 342.823 159.948C342.286 161.475 342.304 161.926 342.339 162.036C342.247 161.982 341.828 161.966 340.295 163.073C339.612 163.565 338.868 163.957 338.121 164.351C337.23 164.82 336.335 165.291 335.531 165.94C333.391 167.665 332.661 169.574 331.785 171.865C331.559 172.456 331.323 173.072 331.05 173.718C329.76 176.774 326.324 179.49 322.488 179.38C322.976 178.495 323.494 177.62 324.01 176.747C326.757 172.105 329.464 167.532 327.396 162.007C325.578 157.147 328.668 151.461 331.199 146.804L331.347 146.531C331.502 146.246 331.944 145.611 332.537 144.759C335.179 140.966 340.812 132.876 337.418 132.189C335.005 131.7 329.799 141.775 327.874 145.501C327.646 145.943 327.463 146.297 327.338 146.531C324.031 144.296 322.546 141.541 325.091 138.174C325.991 136.983 326.985 135.872 327.982 134.759C329.15 133.454 330.321 132.145 331.347 130.701C332.252 129.428 333.151 128.082 334.061 126.719C336.257 123.43 338.521 120.039 341.114 117.311C347.557 110.535 358.803 105.922 368.08 105.88C367.872 108.52 368.174 111.056 368.479 113.627C368.726 115.702 368.975 117.8 368.961 119.992ZM342.362 162.066C342.364 162.062 342.36 162.048 342.339 162.036C342.348 162.064 342.359 162.07 342.362 162.066ZM395.127 228.262C396.955 224.42 398.553 221.063 399.496 219.367C405.197 209.107 410.844 198.934 416.189 188.484C411.95 190.101 408.359 192.579 404.721 195.09C404.172 195.468 403.623 195.847 403.069 196.224C401.153 197.531 399.062 198.711 396.961 199.897C393.806 201.678 390.625 203.473 387.973 205.731C387.372 206.242 386.887 206.808 386.423 207.349C385.365 208.581 384.425 209.676 382.516 209.657C381.21 209.644 379.361 208.296 377.708 207.09C376.746 206.388 375.849 205.734 375.165 205.42C373.818 204.804 372.707 203.997 371.608 203.199C370.37 202.299 369.146 201.411 367.617 200.819C366.667 200.45 365.89 200.327 365.174 200.213C363.963 200.021 362.928 199.857 361.524 198.58C360.62 203.926 348.053 201.408 339.9 199.774C337.193 199.232 334.973 198.787 333.828 198.76C333.392 198.75 332.941 198.737 332.476 198.723C328.403 198.605 323.34 198.458 319.791 199.982C317.072 201.149 313.859 203.785 311.071 206.072C309.994 206.956 308.981 207.787 308.084 208.462C303.661 211.788 300.507 216.028 297.251 220.632C293.072 226.539 299.312 225.969 303.815 225.558C304.125 225.529 304.428 225.502 304.717 225.477C314.98 224.606 324.952 226.334 334.845 228.679C343.68 230.772 351.717 233.986 360.175 237.382C361.742 238.011 364.59 239.489 367.802 241.157C374.35 244.555 382.411 248.741 384.228 248.121C385.957 247.531 391.101 236.721 395.127 228.262Z" fill="#FC8BA9"/>
<path fill-rule="evenodd" clip-rule="evenodd" d="M452.466 161.711C456.028 161.529 459.574 162.324 463.136 161.977C460.043 159.284 456.951 156.591 453.858 153.898C452.492 156.297 452.392 159.026 452.466 161.711ZM367.96 106.34C358.74 106.38 347.494 111.011 341.09 117.774C337.697 121.358 334.892 126.171 332.022 130.198C330.098 132.9 328.218 135.508 325.882 137.882C322.475 141.343 323.45 142.134 327.289 144.739C328.504 142.463 334.946 130.29 337.646 130.838C341.748 131.671 333.825 144.528 332.96 146.129C330.397 150.869 326.258 157.488 328.118 162.486C330.571 169.084 327.014 172.844 323.924 178.466C327.168 178.56 327.488 177.295 328.606 174.528C330.042 170.972 331.609 168.001 334.645 165.541C336.997 163.638 340.843 162.836 341.948 160.538C343.315 157.696 342.457 152.085 342.568 148.924C342.736 144.12 342.748 132.765 348.041 130.631C353.587 128.395 363.558 130.503 368.979 132.159C368.302 127.926 366.167 125.161 366.197 120.457C366.228 115.533 367.584 111.14 367.96 106.34ZM297.133 184.894C301.956 183.368 306.528 181.759 311.49 180.719C316.682 179.63 317.029 178.383 319.956 173.931C322.175 170.555 324.867 167.924 324.238 163.791C323.835 161.139 322.384 159.847 322.82 156.865C323.091 155.017 323.953 153 324.576 151.242C325.34 149.086 326.924 146.64 323.242 146.533C321.208 146.475 321.109 147.548 319.733 149.349C317.193 152.676 314.269 155.697 311.567 158.888C306.873 164.429 301.895 170.325 296.655 175.454C290.887 181.096 285.908 187.903 282.18 195.127C281.491 196.461 277.304 204.319 279.091 205.86C280.731 207.275 289.854 203.975 291.518 203.589C298.699 201.922 306.849 201.327 313.633 198.299C317.09 196.757 324.717 194.915 327.448 192.529C329.985 190.311 329.871 184.936 328.398 181.809C324.276 184.373 294.476 194.048 297.133 184.894ZM386.85 140.795C391.662 136.449 397.35 132.962 403.292 130.378C408.607 128.067 415.209 125.491 421.122 125.892C428.488 126.391 425.41 132.325 425.384 137.378C425.349 144.084 422.411 153.743 430.417 157.221C433.03 147.938 438.539 125.983 451.736 138.148C455.109 129.222 467.137 126.2 475.608 124.561C474.072 120.05 469.409 115.968 466.177 112.582C462.133 108.348 458.941 103.384 454.89 99.23C446.888 91.0249 432.39 93.6598 422.259 95.7053C418.878 96.3871 409.074 97.244 407.436 99.7277C406.408 101.285 406.982 105.091 406.22 106.995C405.171 109.619 403.378 112.052 401.94 114.475C396.692 123.319 391.353 132.22 382.372 137.284L386.85 140.795ZM416.218 188.438C411.466 190.261 407.971 193.31 403.757 195.877C398.647 198.99 392.655 201.905 388.069 205.75C386.391 207.156 385.448 209.585 383.132 209.743C381.118 209.88 378.048 207.54 376.262 206.722C373.265 205.346 370.404 203.262 367.393 202.036C364.918 201.029 363.823 201.235 361.682 199.275C360.481 206.423 338.633 199.742 334.05 199.633C329.81 199.532 323.993 200.035 320.047 201.739C316.287 203.362 313.347 206.936 310.128 209.371C305.716 212.71 301.507 216.087 298.258 220.709C293.802 227.046 300.525 225.253 305.009 224.87C315.243 223.995 325.199 226.432 335.065 228.785C343.884 230.887 352.593 233.41 361.036 236.819C365.784 238.737 370.78 240.5 375.246 242.992C377.6 244.306 381.418 247.524 384.119 246.596C386.596 245.746 389.065 238.645 390.567 235.809C393.484 230.303 396.552 224.89 399.564 219.438C405.252 209.14 410.886 198.928 416.218 188.438ZM357.749 324.736C360.677 323.055 365.451 323.507 368.689 322.802C372.348 322.006 376.026 320.709 379.515 319.356C383.048 317.987 386.387 316.586 389.615 314.873C391.092 314.089 393.06 313.318 394.424 312.231C395.524 311.354 395.924 309.726 396.939 308.931C399.583 306.857 400.36 308.159 400.715 304.157C401.1 299.811 398.661 297.349 395.626 294.096C392.908 291.185 389.377 288.67 385.963 286.621C384.452 285.716 382.838 284.697 381.297 283.832C378.964 282.523 375.839 280.347 374.615 283.157C377.164 283.807 377.726 287.062 375.425 288.232C374.162 288.875 372.25 287.931 370.825 288.614C368.626 289.668 366.511 292.61 364.628 294.194C358.45 299.396 352.541 301.346 344.454 301.764C327.555 302.635 309.86 300.708 293.287 298.203C289.021 297.559 284.763 298.257 280.458 298.103C276.269 297.953 271.901 297.038 267.784 296.33C259.852 294.968 251.493 293.846 243.684 291.842C234.242 289.417 224.766 286.281 215.9 282.219C207.396 278.322 197.784 271.884 188.232 271.388C192.308 275.379 198.416 276.916 203.319 279.545C207.326 281.692 213.593 283.071 216.125 286.61C217.773 288.913 218.599 293.143 219.845 295.844C221.221 298.833 222.492 301.869 223.766 304.903C225.047 307.955 226.38 311.008 227.42 314.151C228.064 316.102 228.341 320.145 229.861 321.479C232.287 323.607 240.405 324.551 243.674 325.259C249.777 326.581 256.738 326.406 262.963 326.497C265.535 326.535 268.128 326.886 270.586 326.933C274.038 326.999 273.709 326.402 273.66 323.405C273.631 321.605 273.668 318.333 276.074 319.815C277.714 320.825 276.586 325.298 276.282 326.888C290.022 328.256 304.358 328.945 318.034 328.487C331.482 328.036 344.465 326.302 357.749 324.736ZM419.801 293.195C422.226 275.785 425.18 258.085 428.487 240.901C431.829 223.536 435.847 206.328 440.366 189.028C437.382 188.313 434.396 187.601 431.41 186.887C431.3 190.533 430.067 193.699 429.541 197.327C428.816 202.335 427.429 207.198 426.6 212.19C425.022 221.678 422.101 230.963 419.527 240.216C416.903 249.649 416.026 259.368 413.615 268.848C411.629 276.658 410.614 285.262 409.504 293.291C406.812 312.771 402.978 332.289 400.059 351.778C397.322 370.051 397.048 388.694 397.205 407.137C397.302 418.397 399.02 429.625 398.93 440.9C398.908 443.687 399.142 446.466 399.287 449.248C399.389 451.211 398.334 456.654 399.229 458.298C399.795 459.339 402.228 460.3 403.089 461.745C404.451 464.033 404.738 466.767 406.925 468.498C408.698 461.346 407.86 451.907 407.473 444.608C407.098 437.575 407.826 430.307 407.97 423.166C408.25 409.159 408.992 395.356 409.71 381.341C410.497 365.972 412.736 350.229 414.923 334.975C416.912 321.106 418.238 306.99 419.801 293.195ZM354.908 74.8618C353.947 74.7722 352.986 74.6833 352.024 74.5937C352.167 76.6196 351.739 79.9006 353.168 80.957C354.25 81.7578 356.441 81.4953 357.753 81.7508C362.052 82.5916 367.035 83.2944 371.303 81.7634C372.962 81.1684 371.897 80.2367 374.18 80.6238C376.932 81.0914 375.927 81.5268 376.722 83.2426C377.333 84.5671 377.648 86.8212 378.343 88.4109C379.272 90.539 381.157 94.3472 380.351 96.8044C379.569 99.1929 376.647 99.9146 375.406 102.62C374.483 104.631 374.701 107.554 374.221 109.769C373.581 112.723 372.772 115.666 372.414 118.675C371.965 122.465 372.119 126.913 376.815 127.501C381.174 128.048 384.291 126.647 387.214 123.472C392.796 117.412 399.17 108.858 402.45 101.234C402.833 100.344 403.776 98.8576 403.644 97.9041C403.384 96.0182 403.271 97.9272 402.673 96.6174C402.103 95.3651 401.207 94.2289 400.681 92.8394C398.787 87.8474 397.445 82.6147 396.686 77.3301C396.341 74.936 396.226 72.5713 396.285 70.1541C396.304 69.3287 396.8 66.8499 396.504 66.285C396.203 65.7124 394.633 65.4484 394.143 64.88C393.235 63.8265 391.676 60.852 390.671 60.0631C389.434 59.0942 386.667 59.8615 386.164 57.9343C385.361 54.8499 404.382 49.8258 395.496 45.7099C388.861 42.6367 378.684 58.1716 376.365 45.9475C375.963 43.8301 376.729 40.9559 375.8 39.0154C374.773 36.8707 371.979 36.069 370.027 35.0253C367.536 33.6946 365.02 32.327 362.6 30.8697C360.939 29.8708 358.547 27.2184 356.78 26.9755C357.476 30.5758 356.143 34.1443 356.12 37.7375C359.948 36.7018 362.582 36.6797 366.36 38.5216C368.159 39.3982 374.939 44.3731 371.504 46.7659C368.722 45.1211 365.745 43.6945 362.643 42.7274C361.419 42.3454 359.892 41.8262 358.591 41.7998C355.57 41.7391 355.996 42.0551 354.862 44.3326C353.768 46.5265 354.003 52.2486 351.603 53.6496C349.121 55.0984 351.035 53.0705 348.916 53.5387C347.707 53.8062 346.391 54.705 345.284 55.2126C346.8 56.8583 349.86 58.3606 350.865 60.1884C352.332 62.8534 351.823 68.3648 352.053 71.2804C353.973 70.593 355.994 70.565 357.941 70.0547C359.77 69.5737 362.308 67.4946 362.499 70.5517C362.712 73.958 357.326 74.8618 354.908 74.8618ZM379.9 164.554C380.049 161.611 380.213 158.668 380.54 155.736C380.761 153.767 382.631 148.058 381.574 146.329C380.425 144.448 376.575 144.328 374.721 143.877C371.169 143.011 367.762 142.302 364.151 141.73C360.83 141.204 357.702 141.093 354.355 140.941C350.711 140.776 349.808 139.81 349.002 143.825C348.37 146.983 347.52 150.272 347.402 153.504C347.291 156.539 348.208 159.173 345.2 161.218C351.804 161.218 360.404 155.338 366.43 160.596C375.051 168.114 360.05 170.28 356.094 171.94C359.382 173.538 364.264 174.793 365.811 178.443C367.548 182.535 365.028 184.274 361.171 184.602C361.534 186.178 362.922 187.203 363.336 189.1C363.942 191.879 361.977 190.959 364.484 193.11C367.786 195.941 374.582 197.834 378.631 199.637C379.579 200.061 380.539 200.459 381.509 200.831C383.026 202.181 384.145 201.924 384.869 200.059C386.946 198.745 388.795 195.811 390.638 194.106C394.736 190.309 399.261 186.977 404.132 184.236C402.112 183.399 399.697 185.289 397.76 184.369C396.194 183.626 396.784 182.273 395.846 181.26C396.222 179.939 395.825 179.456 394.655 179.811C394.07 179.873 393.526 179.774 393.023 179.514C392.042 178.299 391.602 177.902 391.537 176.026C391.468 174.037 392.621 173.334 393.063 171.742C394.5 170.762 394.468 169.8 392.965 168.856C392.347 167.846 392.01 166.75 391.954 165.568C391.669 161.179 395.674 159.41 398.729 157.089C393.259 156.488 393.468 150.072 397.253 147.268C401.176 144.36 409.482 145.55 414.226 146.206C415.212 146.342 417.877 147.614 418.875 146.803C419.487 146.306 419.055 142.101 419.083 141.36C419.147 139.676 419.557 137.667 419.288 135.992C418.726 132.483 419.916 134.25 417.391 134.153C411.38 133.919 403.725 139.167 398.436 141.641C392.516 144.41 388.712 144.836 388.651 151.702C388.591 158.204 386.768 164.682 385.973 171.08C385.625 173.874 385.376 188.39 380.262 183.033C378.28 180.955 379.55 177.76 379.697 175.198C379.898 171.671 379.779 168.09 379.9 164.554ZM49.2087 382.191C52.1355 382.71 56.9014 381.03 60.0942 380.853C65.6763 380.547 71.425 380.015 76.8943 378.853C81.1729 377.944 86.0487 377.144 88.356 373.003C90.419 369.302 91.1477 364.666 92.2587 360.627C92.8488 358.482 94.3714 355.372 94.3707 353.153C94.37 350.269 93.9814 350.837 90.9734 349.258C87.1659 347.261 83.4613 344.477 79.3542 343.344C78.1117 343.101 76.8684 342.863 75.6245 342.63C74.0151 341.696 73.1071 342.156 72.8964 344.006C71.3256 345.661 70.405 348.714 69.0869 350.651C66.0823 355.068 62.5142 358.077 57.8527 360.624C49.4642 365.206 41.6483 368.742 32.6641 371.738C27.7128 373.388 23.1472 375.705 18.3075 377.525C14.4303 378.983 9.07934 379.426 6.10105 382.672C2.74061 386.334 7.9058 387.666 10.7767 390.141C13.1291 392.17 13.1749 392.635 16.3927 391.65C18.7899 390.916 20.9152 389.514 23.2172 388.562C31.103 385.305 40.6473 383.138 49.2087 382.191ZM229.427 440.273C226.489 439.637 223.549 439.002 220.611 438.367C223.5 443.763 229.579 451.658 225.217 457.902C223.586 460.235 220.874 460.901 218.451 462.084C215.519 463.517 212.811 465.352 210.039 467.059C198.607 474.098 186.989 481.236 174.944 487.275C178.715 488.493 184.513 489.335 188.396 488.274C192.919 487.039 197.106 484.203 201.749 482.963C210.079 480.741 218.846 478.847 227.308 477.707C234.226 476.775 251.54 478.881 250.699 468.477C249.901 458.601 244.001 449.178 242.246 439.414C237.938 440.371 233.829 440.204 229.427 440.273ZM404.603 282.191C407.953 265.75 409.954 249.03 413.905 232.707C415.877 224.565 417.265 216.31 419.191 208.165C420.087 204.375 420.764 200.549 421.636 196.766C422.521 192.937 424.422 189.403 424.857 185.445C421.656 186.236 420.915 193.569 419.945 196.327C418.165 201.387 416.224 206.249 413.937 211.093C410.301 218.794 406.443 226.223 402.341 233.689C398.017 241.564 393.449 249.136 388.046 256.327C386.271 258.69 383.862 260.542 382.717 263.133C380.918 267.21 380.162 272.07 378.444 276.313C379.654 276.927 382.78 277.08 384.264 277.373C387.025 277.918 388.96 278.402 391.611 279.715C396.283 282.028 400.207 284.769 403.328 288.93C404.112 286.794 404.317 284.452 404.603 282.191ZM274.399 407.632C274.344 391.798 274.119 375.829 274.379 360.112C274.45 355.748 274.806 351.04 275.439 346.709C275.836 343.987 278.174 338.2 276.637 336.896C275.323 335.78 268.389 336.515 266.687 336.475C263.388 336.399 260.097 336.252 256.79 336.003C256.79 341.871 259.083 348.535 260.148 354.34C261.141 359.754 261.957 365.199 262.777 370.639C264.551 382.419 265.056 394.361 266.981 406.172C268.727 416.881 271.029 427.545 272.298 438.253C272.995 444.13 274.404 449.676 275.499 455.55C276.071 458.613 278.158 471.23 280.784 472.47C281.34 467.945 279.071 462.48 278.664 457.903C278.246 453.178 277.92 448.421 277.154 443.672C276.255 438.096 275.801 432.382 275.455 426.737C275.245 423.283 275.181 419.84 274.882 416.388C274.666 413.883 273.719 410.088 274.399 407.632ZM356.916 195.899C357.025 194.175 352.562 194.244 351.731 192.262C350.045 188.238 353.888 188.962 356.25 188.546C355.408 186.308 339.632 187.123 343.308 181.081C345.858 176.89 355.526 183.305 358.11 179.322C359.808 176.706 355.186 176.346 353.353 176.084C350.595 175.688 344.097 176.965 344.311 173.387C344.58 168.89 357.213 165.786 360.757 164.465C360.364 161.385 345.16 165.763 342.96 167.011C337.98 169.836 334.164 174.905 333.433 180.54C332.582 187.095 335.906 192.257 342.454 193.866C345.184 194.537 347.201 194.611 349.727 195.62C351.389 196.283 356.769 197.936 357.907 196.263C357.576 196.142 357.247 196.02 356.916 195.899ZM446.17 155.126C446.422 152.326 448.779 147.056 446.063 145.217C442.264 142.643 440.69 146.885 439.829 149.432C438.776 152.543 434.35 160.159 438.22 162.097C439.12 162.548 443.386 162.023 444.139 161.726C446.236 162.272 446.911 161.487 446.17 159.369V155.126ZM353.445 381.192C353.206 373.54 356.632 364.342 358.573 356.849C360.774 348.358 361.933 339.699 364.265 331.301C361.672 331.614 359.054 331.869 356.491 332.389C352.995 333.099 352.932 332.987 353.184 336.417C353.558 341.567 353.067 346.616 352.801 351.765C352.269 362.073 353.567 372.55 352.703 382.793C353.473 382.989 353.72 382.454 353.445 381.192ZM450.243 180.673C458.642 181.959 466.693 184.622 474.336 188.2C478.55 190.172 483.19 192.292 487.899 193.079C493.129 193.955 498.677 193.544 504.019 193.882C505.902 194.001 510.853 194.915 512.689 193.808C514.508 192.71 514.366 190.851 514.451 188.634C514.672 182.932 512.091 177.35 509.77 172.234C507.779 167.844 506.274 164.493 503.185 160.718C499.218 155.869 495.763 150.636 492.048 145.575C489.246 141.761 486.416 138 483.561 134.19C481.519 131.461 481.615 130.522 478.537 130.827C475.505 131.128 472.453 132.92 469.598 133.87C465.36 135.28 460.228 136.053 456.363 138.307C453.865 139.765 453.753 140.033 453.782 142.576C453.809 144.945 454.574 147.835 455.99 149.688C458.934 153.535 463.814 155.571 468.002 157.491C470.425 158.601 472.518 160.175 474.675 161.707C476.999 163.357 481.687 164.33 483.465 166.211C488.642 171.691 479.218 170.608 476.585 170.443C470.903 170.085 465.251 170.14 459.527 170.136C453.279 170.131 447.081 169.841 440.922 170.044C437.314 170.163 433.174 168.333 430.837 165.283C429.705 163.805 429.264 162.409 427.784 160.876C425.845 158.869 424.158 156.754 421.799 155.2C417.938 152.659 410.923 151.221 406.327 152.169C407.973 152.399 415.713 155.034 412.306 158.346C411.891 158.749 406.912 159.013 405.83 159.51C403.877 160.407 401.416 161.71 400.271 163.604C403.606 163.045 415.974 162.398 409.664 168.797C408.116 170.368 403.669 171.935 407.453 173.606C408.322 173.989 410.061 173.446 411.18 173.792C412.843 174.307 414.203 175.684 415.761 176.418C420.18 178.503 426.272 179.788 430.884 179.332C437.262 178.699 443.908 179.838 450.243 180.673ZM281.114 373.48C281.332 382.672 281 391.918 281.196 401.153C281.406 411.014 282.671 420.679 283.274 430.442C283.816 439.191 284.997 447.774 285.957 456.482C286.509 461.497 287.145 466.293 287.994 471.271C288.789 475.929 288.925 480.034 283.356 481.286C272.71 483.681 271.055 468.365 268.998 461.912C265.927 452.281 263.957 442.17 262.435 432.186C259.602 413.591 255.834 395.255 254.364 376.503C253.459 364.956 252.146 353.528 251.402 341.991C251.255 339.73 251.832 336.247 249.847 335.24C248.652 334.636 245.364 334.63 243.857 334.192C239.657 332.97 235.784 331.172 231.686 329.305C234.594 344.511 235.555 359.64 237.736 374.979C238.893 383.117 241.108 391.551 243.028 399.562C245.017 407.862 245.458 416.8 247.752 424.92C248.763 428.499 249.619 429.957 248.152 433.63C246.353 438.14 247.546 439.219 249.803 443.647C253.953 451.795 257.121 461.41 256.418 470.595C255.844 478.097 250.176 482.023 243.155 484.048C234.373 486.578 225.176 486.279 216.34 489.154C208.643 491.657 200.821 493.507 193.346 496.813C190.331 498.145 187.467 499.726 184.121 499.971C179.53 500.304 176.434 497.641 172.099 497.085C169.389 496.739 165.421 498.032 163.86 495.191C162.623 492.939 164.023 488.025 165.577 486.212C169.941 481.118 178.681 476.679 184.566 473.672C191.349 470.208 197.913 465.871 204.198 461.399C208.007 458.688 211.892 456.087 215.698 453.371C218.216 451.573 219.173 451.562 218.916 448.706C218.711 446.428 217.685 444.219 217.505 441.887C217.368 440.101 217.994 437.665 217.15 436.5C216.529 435.64 214.198 435.033 213.281 434.382C209.929 432.006 209.168 429.067 207.646 425.453C204.188 417.243 200.216 409.265 196.878 400.99C189.71 383.223 185.336 364.541 179.393 346.41C173.323 327.888 167.894 308.444 164.55 289.227C160.077 290.588 155.854 296.614 152.291 299.594C147.477 303.623 142.545 307.519 137.825 311.658C130.087 318.443 122.252 325.041 115.858 333.167C112.777 337.08 110.255 341.292 107.466 345.404C105.855 347.779 104.353 350.468 102.609 352.728C102.329 353.09 102.32 353.835 102.019 354.144C101.354 354.822 100.085 353.918 99.6594 354.366C97.0301 357.115 97.0644 364.921 96.2454 368.548C95.1162 373.548 93.8484 379.296 89.9451 382.741C83.915 388.063 72.7949 388.888 65.1639 389.164C55.3704 389.519 45.8702 392.248 36.5787 395.179C32.2448 396.545 28.0243 398.145 23.6743 399.472C21.1723 400.237 18.3181 401.76 15.6461 401.467C12.4239 401.114 9.87962 398.403 7.51932 396.387C3.74334 393.164 0.24737 389.986 0.372396 384.697C0.505332 379.098 3.53823 374.872 8.31603 372.091C17.553 366.714 27.8843 363.268 37.8409 359.552C41.656 358.128 44.9224 356.551 48.5703 354.634C53.7253 351.923 59.6588 349.711 64.2328 346.133C65.5811 345.076 70.5373 341.841 70.9594 340.173C71.0147 339.955 69.7764 337.408 69.7708 337.004C69.7589 335.965 70.3742 334.839 70.7529 333.949C73.1351 328.349 77.1309 322.956 80.1859 317.675C85.7806 308.001 91.3969 298.277 97.8834 289.178C110.818 271.041 125.348 253.28 141.03 237.447C148.675 229.727 155.281 220.972 163.034 213.36C166.106 210.345 169.348 207.889 173.133 205.932C177.352 203.751 182.088 203.323 186.924 202.656C198.642 201.044 208.429 204.51 219.43 207.527C229.831 210.378 240.244 212.783 250.703 215.753C262.189 219.015 273.558 222.143 285.007 225.698C291.126 227.597 297.419 228.763 303.566 230.586C306.526 231.462 317.716 236.957 320.183 235.152C312.409 231.504 304.446 228.18 296.129 225.978C293.679 225.33 292.115 226.047 292.206 223.235C292.255 221.701 293.98 219.63 294.6 218.367C296.086 215.344 297.769 212.39 299.223 209.358C293.95 210.855 279.778 216.037 275.805 210.68C271.647 205.073 275.118 194.08 277.724 188.591C284.527 174.26 296.097 162.302 307.37 151.499C309.809 149.163 315.065 146.113 316.365 143.138C316.76 142.234 315.9 140.905 316.792 139.73C317.322 139.031 319.452 138.554 320.303 137.8C323.403 135.056 325.876 129.282 328.017 125.684C330.261 121.917 332.282 117.838 335.101 114.457C339.712 108.93 344.472 103.07 351.938 101.777C355.6 101.144 359.49 101.482 362.999 100.217C367.243 98.6874 371.276 96.2779 375.562 94.6937C374.498 92.5075 373.636 89.0319 371.573 88.7932C369.587 88.5629 366.675 90.2702 364.401 90.2576C361.081 90.2394 358.248 89.7081 355.044 89.076C351.497 88.3745 350.33 88.5019 349.037 84.6553C347.681 80.6259 348.023 75.9454 348.034 71.7599C348.039 69.7144 348.445 67.1761 348.271 65.1684C348.01 62.1436 347.422 62.0274 345.051 60.1037C342.088 57.7005 338.436 54.5202 342.065 50.3442C344.026 48.0877 348.055 49.8425 349.792 47.418C351.561 44.9487 351.476 38.7452 352.015 35.8446C346.561 38.5252 348.561 28.5042 348.56 26.0928C348.559 22.5841 346.207 16.2742 349.592 13.3551C351.165 11.9998 352.334 13.121 354.132 12.3422C356.185 11.4533 357.477 9.12212 359.66 8.21831C364 6.42125 368.431 8.58526 372.886 8.22797C377.997 7.81873 383.017 7.02846 388.156 7.84869C390.591 8.23588 391.615 9.16083 393.676 10.1975C395.657 11.1946 397.667 11.4674 399.818 12.109C401.733 12.6801 403.412 12.9687 404.705 14.6373C405.728 15.9574 405.312 18.1778 406.344 19.3157C407.363 20.4368 409.378 20.274 410.592 21.6055C411.758 22.8833 412.455 24.9955 413.061 26.5857C413.879 28.7277 413.975 29.532 415.417 31.2463C416.673 32.7424 418.482 33.9455 419.531 35.6519C422.001 39.6745 422.064 45.4916 421.276 50.0168C421.008 51.5577 418.775 55.5409 419.124 56.852C419.457 58.1002 421.551 57.7719 422.5 58.5608C423.319 59.2433 424.04 62.2822 424.686 62.4677C426.082 62.8681 427.804 60.1107 428.863 59.697C430.701 58.978 431.47 58.2409 432.489 60.9507C433.244 62.9612 432.192 65.6907 431.638 67.6094C430.934 70.0526 430.156 72.9948 428.289 74.8422C426.096 77.0137 424.339 75.8264 421.919 76.9962C418.29 78.7491 419.361 84.2303 414.896 85.7963C410.642 87.2895 405.955 82.593 402.738 80.4348C403.404 85.6752 405.913 90.7246 404.709 96.0959C414.493 92.2625 424.171 86.8219 434.833 85.6234C440.271 85.0116 445.764 84.287 450.896 86.5447C456.904 89.1866 460.585 95.0144 464.651 99.8565C472.294 108.957 480.135 117.802 487.47 127.196C494.198 135.812 499.871 145.796 507.276 153.864C514.785 162.046 520.452 175.321 519.63 186.65C519.556 187.673 518.764 189.996 518.888 191.099C518.984 191.944 519.752 193.015 519.74 193.696C519.698 195.989 518.941 197.309 516.756 198.58C512.967 200.787 507.323 201.903 503.041 202.451C497.353 203.179 490.387 203.257 484.695 202.48C478.826 201.677 473.667 198.392 468.269 196.407C463.535 194.664 458.78 193.576 453.805 192.465C451.061 191.851 448.023 190.154 446.327 191.797C444.77 193.307 444.446 201.055 444.084 203.115C440.147 225.445 435.47 247.019 431.327 269.235C426.632 294.417 423.421 319.589 420.156 344.984C417.188 368.069 416.218 391.414 415.554 414.478C415.237 425.479 415.191 436.363 415.258 447.373C415.296 453.539 418.378 474.12 409.238 474.908C403.867 475.373 399.57 467.672 398.131 463.472C395.968 457.162 394.842 450.368 394.497 443.739C393.8 430.32 392.885 416.891 392.343 403.467C391.758 388.923 392.503 374.111 393.699 359.616C394.902 345.023 397.934 330.643 398.864 316.028C396.074 320.009 395.181 320.758 390.535 322.491C385.672 324.307 380.995 326.454 376.088 328.147C374.419 328.722 371.814 329.082 370.446 330.025C367.921 331.764 369.58 329.791 368.773 333.176C367.912 336.792 367.75 341.133 367.521 344.849C366.446 362.286 361.615 379.6 359.387 396.946C358.85 401.134 359.617 418.913 352.409 413.31C346.859 408.995 346.969 395.441 346.179 389.093C345.128 380.63 345.714 371.929 345.879 363.416C346.069 353.72 346.232 343.549 348.546 334.082C344.406 333.374 338.648 335.304 334.482 335.629C330.874 335.909 327.278 336.088 323.69 336.285C315.135 336.755 306.323 337.129 297.623 336.961C296.038 336.931 285.692 335.482 284.37 336.65C283.94 337.029 283.808 342.246 283.728 342.884C283.424 345.281 283.011 347.675 282.703 350.059C281.72 357.68 280.833 365.862 281.114 373.48Z" fill="#11304D"/>
<path fill-rule="evenodd" clip-rule="evenodd" d="M434.772 445.899C441.302 448.451 448.232 449.377 454.816 451.702C460.703 453.78 466.17 456.574 471.966 458.686C472.305 455.997 472.486 451.444 471.492 448.91C470.087 445.321 466.387 445.233 462.744 443.955C453.878 440.844 444.551 440.188 435.749 436.554C437.256 439.455 436.583 443.296 434.772 445.899ZM547.485 436.515C533.383 436.929 519.907 440.211 506.009 442.24C499.246 443.227 492.477 444.108 485.707 445.03C483.103 445.384 478.355 444.967 476.461 447.221C474.892 449.09 476.612 455.466 475.915 458.204C478.765 458.414 483.826 455.751 486.919 455.31C491.737 454.626 496.491 453.666 501.358 453.361C509.067 452.875 516.64 452.462 524.336 451.604C532.162 450.731 539.735 449.11 547.623 448.518C551.457 448.229 552.999 448.948 553.225 444.9C553.314 443.317 553.531 440.668 553.087 439.107C553.796 437.189 553.167 436.257 551.199 436.312C549.949 436.171 548.712 436.239 547.485 436.515ZM520.211 423.596C524.024 423.238 527.854 422.725 531.676 422.51C532.452 422.466 536.384 422.703 537.026 421.982C537.936 420.963 536.923 417.233 536.756 416.08C536.189 412.156 535.562 409.874 531.282 409.866C527.67 409.856 523.93 410.621 520.332 410.973C503.998 412.574 487.747 413.249 471.593 416.29C472.576 420.477 473.692 424.797 472.516 429.079C480.265 429.479 488.773 427.988 496.346 426.458C504.087 424.895 512.3 424.119 520.211 423.596ZM494.358 384.171C488.522 384.197 482.354 386.768 476.596 386.195C476.51 387.266 478.353 386.377 478.862 387.38C479.949 387.383 480.328 387.737 479.996 388.446C480.016 388.929 479.769 389.212 479.254 389.294C479 389.317 478.746 389.338 478.493 389.36C477.379 389.397 477.196 390.147 477.946 391.615C477.624 393.434 478.107 395.744 478.177 397.569C488.526 396.161 498.58 394.696 509.002 394.067C513.922 393.771 518.838 393.772 523.752 393.367C529.158 392.921 535.06 393.877 540.346 392.864C543.172 392.323 542.876 392.36 542.67 388.686C542.544 386.454 542.591 383.803 540.773 382.175C537.737 379.455 530.825 381.027 527.196 381.123C516.262 381.412 505.145 382.428 494.358 384.171ZM500.332 436.647C515.966 435.227 531.482 432.117 547.204 432.117C546.092 431.007 543.671 430.72 542.288 430.114C540.71 429.424 539.221 427.953 537.679 427.349C534.586 426.138 531.438 427.821 528.26 428.548C520.596 430.303 512.731 430.363 505.054 432.085C497.118 433.863 489.078 435.504 480.995 436.409C477.146 436.839 473.016 437.712 469.213 436.696C468.905 436.475 468.594 436.254 468.286 436.034C467.954 434.619 467.031 434.241 465.518 434.9C463.595 434.534 461.148 435.007 459.213 435.055C459.134 435.828 466.284 438.252 467.647 438.852C470.931 440.299 473.158 441.357 476.666 440.738C484.564 439.343 492.333 437.677 500.332 436.647ZM445.336 390.939C445.948 393.321 448.513 392.237 450.722 392.5C453.686 392.851 456.636 393.874 459.507 394.645C464.722 396.046 469.938 397.428 475.13 398.909C474.925 396.812 475.39 392.038 474.281 390.178C473.118 388.227 467.605 387.373 465.038 386.778C458.566 385.28 451.654 386.132 445.08 386.447C445.196 387.943 445.283 389.439 445.336 390.939ZM507.497 405.84C513.637 405.319 519.784 404.915 525.942 404.699C532.982 404.452 527.865 403.327 527.716 399.034C518.463 400.51 509.129 400.801 499.905 402.062C492.263 403.109 483.159 405.84 475.365 404.373C471.689 403.681 467.935 403.415 464.024 403.023C460.334 402.654 456.853 400.936 453.208 400.509C449.117 400.029 444.937 402.329 440.867 402.937C439.142 403.194 438.741 404.364 437.926 402.288C437.082 400.134 439.501 398.374 440.454 397.086C441.566 395.581 441.104 398.024 441.722 395.674C441.895 395.016 441.426 393.362 441.34 392.653C441.122 390.86 440.558 388.915 440.47 387.126C440.389 385.482 440.375 382.973 442.16 382.014C443.248 381.429 444.02 382.282 444.97 382.117C452.379 380.828 461.095 380.722 468.61 381.966C476.756 383.314 483.768 379.746 491.797 378.299C501.217 376.601 510.734 376.347 520.235 375.63C528.359 375.017 543.202 371.838 546.296 382.213C547.172 385.154 548.449 393.247 546.092 395.749C542.997 399.034 535.834 397.985 531.833 398.839C532.432 400.541 534.213 401.699 533.597 403.726C539.203 403.991 540.194 409.287 541.073 414.23C541.982 419.345 540.209 421.378 545.098 424.042C551.91 427.754 559.128 431.503 558.994 440.344C558.927 444.789 558.43 451.492 553.866 453.798C549.401 456.054 542.131 455.673 537.21 456.492C527.681 458.079 518.119 459.94 508.532 460.893C498.324 461.907 487.946 462.74 477.721 463.193C472.15 463.442 467.337 464.283 461.957 462.409C456.667 460.565 451.492 459.219 446.034 457.851C440.646 456.501 424.151 454.683 428.957 445.468C429.726 443.994 432.355 442.821 432.779 441.427C433.464 439.178 431.151 437.423 431.248 435.391C431.424 431.672 435.619 431.206 438.516 431.206C433.551 428.101 440.2 424.424 440.16 421.788C440.09 417.143 434.314 414.128 433.987 410.234C433.192 400.759 463.251 410.625 467.878 412.675C464.316 417.955 447.796 413.386 442.875 412.585C443.546 414.349 444.188 415.933 444.382 417.739C444.54 419.21 443.978 420.891 444.492 422.372C445.304 424.713 445.276 424.264 448.151 424.903C450.278 425.375 452.381 425.92 454.501 426.421C457.757 427.189 462.879 429.25 466.106 429.137C468.936 429.039 468.377 429.917 468.895 426.773C469.175 425.084 468.699 423.289 468.414 421.634C467.819 418.166 466.95 414.883 469.979 412.395C472.867 410.022 478.954 408.892 482.496 408.056C490.358 406.199 499.432 405.744 507.497 405.84Z" fill="#11304D"/>
<path fill-rule="evenodd" clip-rule="evenodd" d="M544.908 346.647C536.37 345.216 527.695 344.864 519.057 345.297C519.524 347.435 519.993 349.572 520.462 351.709C528.555 349.625 536.765 348.403 544.908 346.647ZM475.481 363.229C472.057 362.979 474.44 364.51 475.285 366.751C476.324 369.504 476.101 372.986 476.34 375.884C486.358 372.064 498.015 369.828 508.666 368.542C513.718 367.933 518.843 367.758 523.922 367.497C525.424 367.42 530.846 368.049 531.944 367.039C532.76 366.288 532.188 362.143 531.404 361.228C527.141 356.259 510.661 360.55 504.698 360.995C494.922 361.725 485.325 363.472 475.481 363.229ZM489.71 349.912C498.581 350.764 507.146 350.682 516.018 352.012C515.345 346.373 516.149 344.934 509.752 344.634C504.052 344.368 498.369 344.153 492.696 344.155C479.936 344.162 467.207 343.919 454.433 343.919V349.649C466.247 348.44 477.873 350.624 489.71 349.912ZM447.053 370.985C452.652 370.961 457.943 373.073 463.542 373.62C466.893 373.948 465.84 374.364 468.165 376.047C471.786 378.668 472.829 377.271 472.375 373.71C470.836 361.662 455.583 364.364 446.794 363.695C447.371 366.568 446.043 369.004 444.087 370.985H447.053ZM507.566 355.518C499.513 355.648 491.452 356.106 483.455 355.938C479.876 355.863 475.239 355.154 471.731 355.765C469.161 356.211 467.012 357.52 464.194 358.007C468.334 360.237 470.433 358.73 474.785 358.223C479.134 357.716 483.547 357.726 487.914 357.462C495.084 357.028 502.728 355.31 509.793 355.777C509.921 354.782 509.18 354.695 507.566 355.518ZM443.698 381.609C440.003 381.601 445.086 377.399 445.754 376.983C441.663 376.983 440.673 374.529 441.858 370.588C442.974 366.876 443.8 368.012 440.991 364.92C438.876 362.593 438.556 360.878 441.049 358.275C443.586 355.627 448.724 356.377 450.972 354.191C454.799 350.471 449.861 343.063 455.163 340.213C458.748 338.288 464.526 338.526 468.484 338.119C472.309 337.726 476.268 337.65 480.119 337.597C488.512 337.483 497.231 338.89 505.588 339.665C508.635 339.947 512.059 341.178 515.061 341.18C518.122 341.184 521.328 340.501 524.489 340.58C528.164 340.673 531.703 340.402 535.492 341.005C538.395 341.467 545.174 341.71 547.393 343.868C554.787 351.06 537.253 354.363 534.236 355.171C537.306 358.535 537.179 362.981 536.716 367.216C538.178 367.216 540.697 366.58 541.453 368.219C542.393 370.254 538.915 370.783 538.093 371.021C533.362 372.387 527.825 372.012 522.95 372.509C513.204 373.501 503.575 374.073 493.93 375.919C489.229 376.819 484.556 377.933 479.859 378.808C479.049 378.96 478.233 379.081 477.414 379.173C476.157 379.066 475.751 379.854 476.194 381.543C474.89 382.18 470.029 380.593 468.526 380.351C459.921 378.955 452.223 379.534 443.698 381.609Z" fill="#11304D"/>
<path fill-rule="evenodd" clip-rule="evenodd" d="M617.459 465.169C611.909 469.537 606.75 473.658 600.739 477.453C604.988 477.321 619.118 470.545 617.459 465.169ZM615.292 458.05C612.263 455.448 609.253 455.714 605.504 454.925C602.051 454.198 598.696 452.947 595.25 452.114C592.546 451.461 589.87 450.578 587.175 449.96C583.371 449.088 582.996 450.048 579.496 452.041C567.087 459.114 553.201 463.978 540.13 469.719C543.968 473.097 552.601 473.243 557.397 474.32C560.899 475.105 564.231 476.181 567.585 477.425C570.709 478.585 575.74 481.251 579.034 481.34C581.814 481.415 584.074 478.679 586.468 477.205C589.616 475.266 592.751 473.361 595.924 471.47C602.64 467.469 608.919 462.566 615.292 458.05ZM559.212 486.696C557.779 485.318 553.467 485.378 551.671 484.958C548.133 484.131 544.647 483.272 541.061 482.651C535.243 481.644 526.053 481.194 525.421 473.646C524.894 467.373 532.473 465.884 536.907 463.759C543.573 460.562 550.375 457.612 557.21 454.792C563.619 452.151 570.122 449.915 576.648 447.632C577.92 447.187 578.954 447.248 579.992 446.229C580.812 445.425 580.559 443.865 581.458 443.025C583.514 441.101 586.183 442.113 588.655 442.607C594.269 443.726 600.097 445.196 605.449 447.273C611.011 449.432 615.985 449.882 617.321 456.188C620.165 454.853 622.304 454.659 621.964 458.58C621.864 459.732 621.028 460.985 620.827 462.173C620.531 463.924 621.049 465.77 620.756 467.527C619.692 473.912 611.083 478.641 605.748 481.149C599.17 484.239 590.682 488.807 583.337 489.411C575.511 490.054 566.982 486.98 559.212 486.696Z" fill="#11304D"/>
<path fill-rule="evenodd" clip-rule="evenodd" d="M459.592 380.767C457.259 380.782 454.924 380.797 452.592 380.811C454.92 380.374 457.255 380.369 459.592 380.767Z" fill="#11304D"/>
<path fill-rule="evenodd" clip-rule="evenodd" d="M323.084 133.881C322.384 135.048 321.685 136.214 320.984 137.382C321.223 135.878 321.757 134.589 323.084 133.881Z" fill="#11304D"/>
<path fill-rule="evenodd" clip-rule="evenodd" d="M459.592 414.227C460.995 414.24 462.397 414.25 463.792 414.263C462.386 414.253 460.99 414.24 459.592 414.227Z" fill="#11304D"/>
<path fill-rule="evenodd" clip-rule="evenodd" d="M491.793 338.074C490.158 337.986 488.526 337.897 486.893 337.809C488.526 337.897 490.158 337.986 491.793 338.074Z" fill="#11304D"/>
<path fill-rule="evenodd" clip-rule="evenodd" d="M463.792 380.802C462.391 380.788 460.99 380.776 459.592 380.762C460.997 380.38 462.398 380.393 463.792 380.802Z" fill="#11304D"/>
<path fill-rule="evenodd" clip-rule="evenodd" d="M519.504 182.184C519.465 180.783 519.425 179.383 519.385 177.984C519.425 179.385 519.465 180.784 519.504 182.184Z" fill="#11304D"/>
<path fill-rule="evenodd" clip-rule="evenodd" d="M281.475 393.594C281.447 392.427 281.417 391.259 281.389 390.094C281.418 391.262 281.447 392.428 281.475 393.594Z" fill="#11304D"/>
<path fill-rule="evenodd" clip-rule="evenodd" d="M319.584 336.54C320.521 336.54 321.455 336.541 322.384 336.543C321.447 336.543 320.515 336.541 319.584 336.54Z" fill="#11304D"/>
<path fill-rule="evenodd" clip-rule="evenodd" d="M444.891 85.1025C443.724 85.1872 442.557 85.2712 441.391 85.356C442.558 85.2712 443.725 85.1872 444.891 85.1025Z" fill="#11304D"/>
<path fill-rule="evenodd" clip-rule="evenodd" d="M533.095 340.755C531.695 340.746 530.294 340.737 528.895 340.728C530.294 340.737 531.695 340.746 533.095 340.755Z" fill="#11304D"/>
<path fill-rule="evenodd" clip-rule="evenodd" d="M415.192 427.196C415.157 426.261 415.121 425.325 415.088 424.396C415.122 425.331 415.157 426.264 415.192 427.196Z" fill="#11304D"/>
<path fill-rule="evenodd" clip-rule="evenodd" d="M416.578 391.494C416.552 390.56 416.527 389.626 416.502 388.694C416.528 389.628 416.553 390.561 416.578 391.494Z" fill="#11304D"/>
<path fill-rule="evenodd" clip-rule="evenodd" d="M392.688 407.595C392.721 408.529 392.755 409.465 392.788 410.395C392.755 409.459 392.721 408.528 392.688 407.595Z" fill="#11304D"/>
<path fill-rule="evenodd" clip-rule="evenodd" d="M325.186 335.856C325.888 335.846 326.59 335.836 327.286 335.827C326.581 335.836 325.883 335.846 325.186 335.856Z" fill="#11304D"/>
<path fill-rule="evenodd" clip-rule="evenodd" d="M528.195 372.289C528.897 372.259 529.599 372.228 530.295 372.198C529.591 372.229 528.893 372.259 528.195 372.289Z" fill="#11304D"/>
<path fill-rule="evenodd" clip-rule="evenodd" d="M394.078 429.996C394.119 430.93 394.159 431.865 394.199 432.796C394.159 431.858 394.119 430.927 394.078 429.996Z" fill="#11304D"/>
<path fill-rule="evenodd" clip-rule="evenodd" d="M469.112 425.096C469.065 426.031 469.018 426.965 468.971 427.896C469.018 426.961 469.065 426.028 469.112 425.096Z" fill="#11304D"/>
<path fill-rule="evenodd" clip-rule="evenodd" d="M388.429 7.97814C387.441 7.85213 386.451 7.72717 385.461 7.60117C386.442 7.82798 387.517 6.98689 388.429 7.97814Z" fill="#11304D"/>
<path fill-rule="evenodd" clip-rule="evenodd" d="M345.878 366.993C345.851 367.927 345.824 368.862 345.797 369.793C345.823 368.856 345.851 367.924 345.878 366.993Z" fill="#11304D"/>
<path fill-rule="evenodd" clip-rule="evenodd" d="M285.707 452.397C285.659 451.463 285.61 450.529 285.562 449.597C285.611 450.531 285.659 451.464 285.707 452.397Z" fill="#11304D"/>
<path fill-rule="evenodd" clip-rule="evenodd" d="M512.094 373.665C512.797 373.65 513.499 373.634 514.194 373.621C513.49 373.636 512.792 373.651 512.094 373.665Z" fill="#11304D"/>
<path fill-rule="evenodd" clip-rule="evenodd" d="M274.426 203.885C274.431 204.82 274.437 205.755 274.441 206.685C274.435 205.749 274.431 204.817 274.426 203.885Z" fill="#11304D"/>
<path fill-rule="evenodd" clip-rule="evenodd" d="M259.738 413.895C259.735 414.83 259.731 415.766 259.727 416.695C259.729 415.759 259.734 414.827 259.738 413.895Z" fill="#11304D"/>
<path fill-rule="evenodd" clip-rule="evenodd" d="M434.211 408.295C434.186 409.229 434.161 410.165 434.135 411.095C433.751 410.135 433.794 409.205 434.211 408.295Z" fill="#11304D"/>
<path fill-rule="evenodd" clip-rule="evenodd" d="M415.851 404.095C415.843 403.16 415.836 402.226 415.828 401.294C415.836 402.231 415.843 403.162 415.851 404.095Z" fill="#11304D"/>
<path fill-rule="evenodd" clip-rule="evenodd" d="M558.996 487.019C559.699 487.039 560.402 487.058 561.096 487.077C560.391 487.058 559.693 487.039 558.996 487.019Z" fill="#11304D"/>
<path fill-rule="evenodd" clip-rule="evenodd" d="M533.795 398.156C534.263 398.148 534.732 398.14 535.195 398.132C534.724 398.14 534.26 398.148 533.795 398.156Z" fill="#11304D"/>
<path fill-rule="evenodd" clip-rule="evenodd" d="M516.293 400.246C516.763 400.245 517.23 400.244 517.693 400.243C517.223 400.245 516.758 400.245 516.293 400.246Z" fill="#11304D"/>
<path fill-rule="evenodd" clip-rule="evenodd" d="M243.674 404.794C243.646 404.094 243.617 403.393 243.59 402.694C243.619 403.396 243.647 404.096 243.674 404.794Z" fill="#11304D"/>
<path fill-rule="evenodd" clip-rule="evenodd" d="M530.295 404.263C529.687 404.879 528.905 404.515 528.195 404.554C528.895 404.457 529.596 404.36 530.295 404.263Z" fill="#11304D"/>
<path fill-rule="evenodd" clip-rule="evenodd" d="M446.992 381.866C446.067 382.303 445.133 382.363 444.191 381.896C445.125 381.886 446.058 381.877 446.992 381.866Z" fill="#11304D"/>
<path fill-rule="evenodd" clip-rule="evenodd" d="M507.894 405.856C506.96 405.849 506.026 405.841 505.094 405.833C506.028 405.841 506.961 405.849 507.894 405.856Z" fill="#11304D"/>
<path fill-rule="evenodd" clip-rule="evenodd" d="M468.691 381.471C467.758 381.386 466.823 381.302 465.891 381.217C466.823 381.302 467.758 381.386 468.691 381.471Z" fill="#11304D"/>
<path fill-rule="evenodd" clip-rule="evenodd" d="M254.859 378.193C254.842 378.895 254.824 379.596 254.805 380.293C254.822 379.591 254.84 378.891 254.859 378.193Z" fill="#11304D"/>
<path fill-rule="evenodd" clip-rule="evenodd" d="M415.785 415.995C415.822 415.294 415.857 414.592 415.893 413.895C415.857 414.598 415.822 415.296 415.785 415.995Z" fill="#11304D"/>
<path fill-rule="evenodd" clip-rule="evenodd" d="M512.093 375.625C511.16 375.704 510.226 375.782 509.293 375.861C510.227 375.782 511.16 375.704 512.093 375.625Z" fill="#11304D"/>
<path fill-rule="evenodd" clip-rule="evenodd" d="M281.462 373.293C281.443 372.592 281.424 371.89 281.404 371.193C281.424 371.896 281.443 372.594 281.462 373.293Z" fill="#11304D"/>
<path fill-rule="evenodd" clip-rule="evenodd" d="M398.421 319.391C398.366 320.092 398.31 320.793 398.256 321.491C398.311 320.789 398.366 320.091 398.421 319.391Z" fill="#11304D"/>
<path fill-rule="evenodd" clip-rule="evenodd" d="M526.095 340.573C525.16 341.058 524.227 340.997 523.295 340.568C524.228 340.57 525.162 340.572 526.095 340.573Z" fill="#11304D"/>
<path fill-rule="evenodd" clip-rule="evenodd" d="M415.202 437.696C415.16 436.995 415.119 436.295 415.078 435.596C415.119 436.298 415.16 436.997 415.202 437.696Z" fill="#11304D"/>
<path fill-rule="evenodd" clip-rule="evenodd" d="M415.184 443.296C415.154 442.596 415.124 441.895 415.096 441.196C415.126 441.898 415.155 442.596 415.184 443.296Z" fill="#11304D"/>
<path fill-rule="evenodd" clip-rule="evenodd" d="M282.818 350.892C282.829 350.191 282.838 349.489 282.848 348.792C282.837 349.495 282.828 350.193 282.818 350.892Z" fill="#11304D"/>
<path fill-rule="evenodd" clip-rule="evenodd" d="M481.992 462.566C482.461 462.553 482.93 462.539 483.392 462.527C482.921 462.542 482.457 462.553 481.992 462.566Z" fill="#11304D"/>
<path fill-rule="evenodd" clip-rule="evenodd" d="M256.289 468.498C256.251 467.797 256.214 467.096 256.176 466.397C256.214 467.098 256.251 467.798 256.289 468.498Z" fill="#11304D"/>
<path fill-rule="evenodd" clip-rule="evenodd" d="M407.789 474.433C408.258 474.443 408.727 474.452 409.189 474.463C408.719 474.453 408.254 474.443 407.789 474.433Z" fill="#11304D"/>
<path fill-rule="evenodd" clip-rule="evenodd" d="M509.294 340.147C508.361 340.077 507.427 340.007 506.494 339.936C507.427 340.007 508.361 340.077 509.294 340.147Z" fill="#11304D"/>
<path fill-rule="evenodd" clip-rule="evenodd" d="M514.194 340.886L512.094 340.596L514.194 340.886Z" fill="#11304D"/>
<path fill-rule="evenodd" clip-rule="evenodd" d="M408.08 414.595C408.12 412.494 408.158 410.394 408.198 408.295C408.158 410.396 408.119 412.495 408.08 414.595Z" fill="#11304D"/>
<path fill-rule="evenodd" clip-rule="evenodd" d="M353.5 337.591C353.524 339.226 353.548 340.86 353.573 342.492C353.549 340.856 353.525 339.223 353.5 337.591Z" fill="#11304D"/>
<path fill-rule="evenodd" clip-rule="evenodd" d="M232.779 440.125C231.611 440.139 230.441 440.153 229.279 440.168C230.451 440.154 231.615 440.139 232.779 440.125Z" fill="#11304D"/>
<path fill-rule="evenodd" clip-rule="evenodd" d="M328.686 300.867C327.516 300.848 326.347 300.829 325.186 300.812C326.358 300.831 327.522 300.85 328.686 300.867Z" fill="#11304D"/>
<path fill-rule="evenodd" clip-rule="evenodd" d="M298.584 328.142C299.752 328.142 300.919 328.141 302.084 328.14C300.917 328.14 299.751 328.142 298.584 328.142Z" fill="#11304D"/>
<path fill-rule="evenodd" clip-rule="evenodd" d="M313.984 300.116C313.047 300.132 312.111 300.148 311.184 300.162C312.123 300.147 313.053 300.132 313.984 300.116Z" fill="#11304D"/>
<path fill-rule="evenodd" clip-rule="evenodd" d="M238.38 440.154C237.444 440.148 236.508 440.144 235.58 440.139C236.52 440.144 237.45 440.148 238.38 440.154Z" fill="#11304D"/>
<path fill-rule="evenodd" clip-rule="evenodd" d="M364.387 82.5507C365.553 82.4695 366.721 82.3883 367.887 82.3071C366.72 82.3883 365.553 82.4695 364.387 82.5507Z" fill="#11304D"/>
<path fill-rule="evenodd" clip-rule="evenodd" d="M380.072 164.683C380.116 163.516 380.159 162.349 380.202 161.183C380.158 162.351 380.116 163.517 380.072 164.683Z" fill="#11304D"/>
<path fill-rule="evenodd" clip-rule="evenodd" d="M351.786 175.533C351.084 175.533 350.381 175.533 349.686 175.534C350.39 175.534 351.088 175.533 351.786 175.533Z" fill="#11304D"/>
<path fill-rule="evenodd" clip-rule="evenodd" d="M292.284 298.028C291.582 298.036 290.879 298.044 290.184 298.051C290.889 298.044 291.586 298.036 292.284 298.028Z" fill="#11304D"/>
<path fill-rule="evenodd" clip-rule="evenodd" d="M276.182 326.627C277.115 326.703 278.049 326.779 278.982 326.855C278.048 326.779 277.115 326.703 276.182 326.627Z" fill="#11304D"/>
<path fill-rule="evenodd" clip-rule="evenodd" d="M274.41 362.093C274.425 361.158 274.441 360.225 274.454 359.292C274.44 360.228 274.425 361.16 274.41 362.093Z" fill="#11304D"/>
<path fill-rule="evenodd" clip-rule="evenodd" d="M354.586 324.778C355.519 324.686 356.453 324.595 357.386 324.503C356.452 324.595 355.519 324.686 354.586 324.778Z" fill="#11304D"/>
<path fill-rule="evenodd" clip-rule="evenodd" d="M418.557 308.19C418.613 307.256 418.668 306.321 418.723 305.39C418.668 306.325 418.612 307.257 418.557 308.19Z" fill="#11304D"/>
<path fill-rule="evenodd" clip-rule="evenodd" d="M430.891 179.142C431.824 179.069 432.757 178.996 433.691 178.925C432.757 178.996 431.824 179.069 430.891 179.142Z" fill="#11304D"/>
<path fill-rule="evenodd" clip-rule="evenodd" d="M335.686 301.55C334.984 301.543 334.281 301.536 333.586 301.53C334.291 301.536 334.989 301.543 335.686 301.55Z" fill="#11304D"/>
<path fill-rule="evenodd" clip-rule="evenodd" d="M274.484 414.595C274.449 413.894 274.415 413.193 274.381 412.495C274.415 413.197 274.449 413.896 274.484 414.595Z" fill="#11304D"/>
<path fill-rule="evenodd" clip-rule="evenodd" d="M352.971 378.894C354.501 382.688 353.642 380.001 353.681 380.877C352.378 381.052 352.14 380.39 352.971 378.894Z" fill="#11304D"/>
<path fill-rule="evenodd" clip-rule="evenodd" d="M288.784 298.077C288.082 298.052 287.379 298.027 286.684 298.001C287.39 298.026 288.086 298.051 288.784 298.077Z" fill="#11304D"/>
<path fill-rule="evenodd" clip-rule="evenodd" d="M431.875 226.986C431.919 226.052 431.965 225.118 432.008 224.186C431.963 225.121 431.919 226.054 431.875 226.986Z" fill="#11304D"/>
<path fill-rule="evenodd" clip-rule="evenodd" d="M274.437 407.595C274.435 406.661 274.432 405.728 274.43 404.794C274.432 405.73 274.434 406.663 274.437 407.595Z" fill="#11304D"/>
<path fill-rule="evenodd" clip-rule="evenodd" d="M274.359 386.594C274.408 385.893 274.457 385.192 274.505 384.494C274.457 385.195 274.408 385.895 274.359 386.594Z" fill="#11304D"/>
<path fill-rule="evenodd" clip-rule="evenodd" d="M419.941 294.889C420.007 294.188 420.072 293.488 420.137 292.789C420.072 293.49 420.007 294.191 419.941 294.889Z" fill="#11304D"/>
<path fill-rule="evenodd" clip-rule="evenodd" d="M265.238 388.694C265.301 389.395 265.364 390.097 265.426 390.794C265.363 390.093 265.301 389.394 265.238 388.694Z" fill="#11304D"/>
<path fill-rule="evenodd" clip-rule="evenodd" d="M263.828 383.094C263.897 383.794 263.966 384.496 264.035 385.194C263.966 384.492 263.897 383.792 263.828 383.094Z" fill="#11304D"/>
<path fill-rule="evenodd" clip-rule="evenodd" d="M403.861 287.189C403.914 286.489 403.966 285.788 404.018 285.089C403.965 285.79 403.913 286.49 403.861 287.189Z" fill="#11304D"/>
<path fill-rule="evenodd" clip-rule="evenodd" d="M46.5723 382.154C47.5047 382.081 48.4386 382.006 49.3724 381.934C48.4365 382.006 47.504 382.081 46.5723 382.154Z" fill="#11304D"/>
<path fill-rule="evenodd" clip-rule="evenodd" d="M397.679 399.194C397.652 399.896 397.624 400.599 397.598 401.294C397.625 400.591 397.652 399.893 397.679 399.194Z" fill="#11304D"/>
<path fill-rule="evenodd" clip-rule="evenodd" d="M408.762 401.294C408.814 400.594 408.865 399.893 408.918 399.194C408.865 399.896 408.814 400.595 408.762 401.294Z" fill="#11304D"/>
<path fill-rule="evenodd" clip-rule="evenodd" d="M404.527 284.389C404.601 283.688 404.676 282.988 404.749 282.289C404.675 282.99 404.601 283.689 404.527 284.389Z" fill="#11304D"/>
<path fill-rule="evenodd" clip-rule="evenodd" d="M52.1719 381.481C53.1057 381.39 54.0396 381.297 54.972 381.206C54.0396 381.297 53.1043 381.39 52.1719 381.481Z" fill="#11304D"/>
<path fill-rule="evenodd" clip-rule="evenodd" d="M348.986 300.832C348.518 300.836 348.048 300.842 347.586 300.847C348.057 300.842 348.521 300.836 348.986 300.832Z" fill="#11304D"/>
<path fill-rule="evenodd" clip-rule="evenodd" d="M274.437 380.293C274.435 379.592 274.432 378.891 274.43 378.193C274.432 378.895 274.435 379.593 274.437 380.293Z" fill="#11304D"/>
<path fill-rule="evenodd" clip-rule="evenodd" d="M410.293 378.894C410.044 378.17 409.922 377.456 410.402 376.793C410.365 377.495 410.329 378.194 410.293 378.894Z" fill="#11304D"/>
<path fill-rule="evenodd" clip-rule="evenodd" d="M398.368 365.593C398.349 366.294 398.327 366.995 398.309 367.693C398.329 366.991 398.349 366.291 398.368 365.593Z" fill="#11304D"/>
<path fill-rule="evenodd" clip-rule="evenodd" d="M398.975 434.896C399.018 435.596 399.062 436.298 399.106 436.996C399.062 436.295 399.018 435.595 398.975 434.896Z" fill="#11304D"/>
<path fill-rule="evenodd" clip-rule="evenodd" d="M450.49 180.285C451.191 180.385 451.891 180.484 452.59 180.584C451.89 180.483 451.19 180.383 450.49 180.285Z" fill="#11304D"/>
<path fill-rule="evenodd" clip-rule="evenodd" d="M447.691 180.35C448.631 180.406 449.663 179.955 450.492 180.616L447.691 180.35Z" fill="#11304D"/>
<path fill-rule="evenodd" clip-rule="evenodd" d="M327.984 328.148C328.918 328.144 329.852 328.139 330.785 328.134C329.851 328.139 328.918 328.144 327.984 328.148Z" fill="#11304D"/>
<path fill-rule="evenodd" clip-rule="evenodd" d="M348.986 179.612L351.786 179.855C350.852 179.774 349.92 179.693 348.986 179.612Z" fill="#11304D"/>
<path fill-rule="evenodd" clip-rule="evenodd" d="M302.783 327.958C303.718 327.962 304.65 327.966 305.583 327.971C304.646 328.421 303.713 328.466 302.783 327.958Z" fill="#11304D"/>
<path fill-rule="evenodd" clip-rule="evenodd" d="M277.312 445.396C277.259 444.694 277.206 443.994 277.152 443.296C277.206 443.999 277.259 444.697 277.312 445.396Z" fill="#11304D"/>
<path fill-rule="evenodd" clip-rule="evenodd" d="M379.422 180.784C379.432 180.082 379.442 179.382 379.453 178.684C379.442 179.386 379.432 180.085 379.422 180.784Z" fill="#11304D"/>
<path fill-rule="evenodd" clip-rule="evenodd" d="M320.285 328.253C321.219 328.179 322.152 328.104 323.085 328.027C322.151 328.104 321.219 328.179 320.285 328.253Z" fill="#11304D"/>
<path fill-rule="evenodd" clip-rule="evenodd" d="M399.715 451.697C399.73 452.398 399.746 453.098 399.762 453.797C399.746 453.094 399.73 452.396 399.715 451.697Z" fill="#11304D"/>
<path fill-rule="evenodd" clip-rule="evenodd" d="M402.188 163.067C403.121 162.978 404.054 162.889 404.988 162.8C404.054 162.889 403.121 162.978 402.188 163.067Z" fill="#11304D"/>
<path fill-rule="evenodd" clip-rule="evenodd" d="M414.344 341.792C414.408 341.091 414.473 340.39 414.536 339.691C414.472 340.393 414.407 341.091 414.344 341.792Z" fill="#11304D"/>
<path fill-rule="evenodd" clip-rule="evenodd" d="M446.561 154.882C446.614 154.181 446.668 153.481 446.72 152.782C446.668 153.484 446.614 154.183 446.561 154.882Z" fill="#11304D"/>
<path fill-rule="evenodd" clip-rule="evenodd" d="M380.117 94.6797C380.13 95.3804 380.143 96.0819 380.158 96.7798C380.144 96.0777 380.131 95.3783 380.117 94.6797Z" fill="#11304D"/>
<path fill-rule="evenodd" clip-rule="evenodd" d="M355.287 81.6123C356.22 81.69 357.155 81.7684 358.087 81.8454C357.154 81.7677 356.22 81.69 355.287 81.6123Z" fill="#11304D"/>
<path fill-rule="evenodd" clip-rule="evenodd" d="M215.279 479.485C216.213 479.394 217.146 479.303 218.079 479.211C217.146 479.303 216.213 479.394 215.279 479.485Z" fill="#11304D"/>
<path fill-rule="evenodd" clip-rule="evenodd" d="M356.687 74.7294C356.219 74.7287 355.749 74.728 355.287 74.728C355.758 74.7294 356.222 74.7294 356.687 74.7294Z" fill="#11304D"/>
<path fill-rule="evenodd" clip-rule="evenodd" d="M184.479 488.603C185.413 488.121 186.346 488.258 187.279 488.606C186.346 488.605 185.411 488.604 184.479 488.603Z" fill="#11304D"/>
<path fill-rule="evenodd" clip-rule="evenodd" d="M547.795 447.972C549.429 447.888 551.062 447.804 552.695 447.721C551.062 447.804 549.429 447.889 547.795 447.972Z" fill="#11304D"/>
<path fill-rule="evenodd" clip-rule="evenodd" d="M547.796 435.914C546.86 435.935 545.924 435.956 544.996 435.978C545.934 435.957 546.865 435.935 547.796 435.914Z" fill="#11304D"/>
<path fill-rule="evenodd" clip-rule="evenodd" d="M533.795 422.03C534.962 421.941 536.128 421.852 537.295 421.763C536.207 422.447 534.962 421.941 533.795 422.03Z" fill="#11304D"/>
<path fill-rule="evenodd" clip-rule="evenodd" d="M520.494 423.472C521.661 423.388 522.827 423.303 523.994 423.219C522.828 423.303 521.661 423.388 520.494 423.472Z" fill="#11304D"/>
<path fill-rule="evenodd" clip-rule="evenodd" d="M500.893 436.055C501.826 435.983 502.76 435.91 503.693 435.837C502.76 435.91 501.826 435.983 500.893 436.055Z" fill="#11304D"/>
<path fill-rule="evenodd" clip-rule="evenodd" d="M505.793 436.057C506.726 435.983 507.66 435.909 508.593 435.835C507.66 435.909 506.726 435.983 505.793 436.057Z" fill="#11304D"/>
<path fill-rule="evenodd" clip-rule="evenodd" d="M509.293 435.37C510.226 435.287 511.159 435.205 512.093 435.122C511.16 435.205 510.227 435.287 509.293 435.37Z" fill="#11304D"/>
<path fill-rule="evenodd" clip-rule="evenodd" d="M514.194 411.438C513.492 411.443 512.79 411.448 512.094 411.451C512.799 411.445 513.497 411.442 514.194 411.438Z" fill="#11304D"/>
<path fill-rule="evenodd" clip-rule="evenodd" d="M531.695 450.004C532.628 449.925 533.562 449.845 534.495 449.767C533.625 450.379 532.64 450.027 531.695 450.004Z" fill="#11304D"/>
<path fill-rule="evenodd" clip-rule="evenodd" d="M505.094 394.078C506.027 393.989 506.96 393.899 507.894 393.811C506.96 393.899 506.027 393.989 505.094 394.078Z" fill="#11304D"/>
<path fill-rule="evenodd" clip-rule="evenodd" d="M501.592 382.745C500.889 382.744 500.187 382.743 499.492 382.742C500.198 382.743 500.895 382.744 501.592 382.745Z" fill="#11304D"/>
<path fill-rule="evenodd" clip-rule="evenodd" d="M494.593 384.14C494.125 384.143 493.656 384.145 493.193 384.146C493.664 384.144 494.129 384.142 494.593 384.14Z" fill="#11304D"/>
<path fill-rule="evenodd" clip-rule="evenodd" d="M477.792 386.09C477.557 386.666 476.32 386.592 476.396 386.001C476.861 386.031 477.326 386.061 477.792 386.09Z" fill="#11304D"/>
<path fill-rule="evenodd" clip-rule="evenodd" d="M445.197 388.694C445.226 389.394 445.255 390.095 445.283 390.794C445.254 390.093 445.226 389.392 445.197 388.694Z" fill="#11304D"/>
<path fill-rule="evenodd" clip-rule="evenodd" d="M540.795 392.405C541.495 392.393 542.195 392.382 542.895 392.37C542.203 392.864 541.503 392.795 540.795 392.405Z" fill="#11304D"/>
<path fill-rule="evenodd" clip-rule="evenodd" d="M514.193 382.034C513.725 382.041 513.256 382.048 512.793 382.053C513.264 382.047 513.728 382.041 514.193 382.034Z" fill="#11304D"/>
<path fill-rule="evenodd" clip-rule="evenodd" d="M495.992 426.276C496.926 426.189 497.86 426.102 498.792 426.015C497.858 426.102 496.926 426.189 495.992 426.276Z" fill="#11304D"/>
<path fill-rule="evenodd" clip-rule="evenodd" d="M484.793 427.667L487.593 427.424L484.793 427.667Z" fill="#11304D"/>
<path fill-rule="evenodd" clip-rule="evenodd" d="M539.395 448.678C540.328 448.59 541.262 448.503 542.195 448.415C541.262 448.503 540.328 448.59 539.395 448.678Z" fill="#11304D"/>
<path fill-rule="evenodd" clip-rule="evenodd" d="M505.793 452.893C506.728 452.552 507.663 452.435 508.593 452.902C507.659 452.899 506.726 452.896 505.793 452.893Z" fill="#11304D"/>
<path fill-rule="evenodd" clip-rule="evenodd" d="M504.31 356.4L502.994 355.945C504.627 355.925 506.261 355.904 507.894 355.885C507.898 355.885 504.499 356.415 504.31 356.4Z" fill="#11304D"/>
<path fill-rule="evenodd" clip-rule="evenodd" d="M491.793 344.243C490.623 344.242 489.454 344.241 488.293 344.24C489.464 344.242 490.629 344.243 491.793 344.243Z" fill="#11304D"/>
<path fill-rule="evenodd" clip-rule="evenodd" d="M447.691 371.002C448.856 370.536 450.023 370.627 451.192 370.989C450.025 370.993 448.858 370.998 447.691 371.002Z" fill="#11304D"/>
<path fill-rule="evenodd" clip-rule="evenodd" d="M518.393 359.63C517.691 359.638 516.988 359.647 516.293 359.655C516.998 359.646 517.695 359.638 518.393 359.63Z" fill="#11304D"/>
<path fill-rule="evenodd" clip-rule="evenodd" d="M503.693 350.427C504.861 350.504 506.028 350.58 507.194 350.657C506.027 350.579 504.86 350.504 503.693 350.427Z" fill="#11304D"/>
<path fill-rule="evenodd" clip-rule="evenodd" d="M488.992 357.666C490.159 357.584 491.326 357.502 492.492 357.418C491.326 357.502 490.159 357.584 488.992 357.666Z" fill="#11304D"/>
<path fill-rule="evenodd" clip-rule="evenodd" d="M498.094 356.261C499.027 356.182 499.96 356.103 500.894 356.024C499.96 356.103 499.027 356.182 498.094 356.261Z" fill="#11304D"/>
<path fill-rule="evenodd" clip-rule="evenodd" d="M490.393 349.727C491.326 349.803 492.26 349.88 493.193 349.957C492.259 349.88 491.326 349.803 490.393 349.727Z" fill="#11304D"/>
<path fill-rule="evenodd" clip-rule="evenodd" d="M477.091 363.157C476.622 363.148 476.155 363.138 475.691 363.128C476.162 363.138 476.627 363.148 477.091 363.157Z" fill="#11304D"/>
<path fill-rule="evenodd" clip-rule="evenodd" d="M491.793 356.185C491.324 356.157 490.855 356.127 490.393 356.099C490.863 356.127 491.328 356.157 491.793 356.185Z" fill="#11304D"/>
<path fill-rule="evenodd" clip-rule="evenodd" d="M482.693 356.161C482.224 356.148 481.755 356.134 481.293 356.123C481.763 356.136 482.228 356.148 482.693 356.161Z" fill="#11304D"/>
<path fill-rule="evenodd" clip-rule="evenodd" d="M507.895 355.51C507.895 355.692 510.003 354.772 509.995 355.627L507.895 355.51Z" fill="#11304D"/>
<path fill-rule="evenodd" clip-rule="evenodd" d="M500.193 344.24C499.724 344.241 499.256 344.242 498.793 344.243C499.264 344.242 499.728 344.241 500.193 344.24Z" fill="#11304D"/>
<path fill-rule="evenodd" clip-rule="evenodd" d="M251.682 311.043C252.44 307.95 252.233 305.529 254.933 307.506C256.415 308.592 258.858 314.095 258.672 315.959C258.444 318.259 257.395 319.175 255.231 318.444C252.743 317.601 251.756 313.357 251.682 311.043Z" fill="#11304D"/>
<path fill-rule="evenodd" clip-rule="evenodd" d="M388.069 292.262C394.338 292.262 391.603 298.934 386.377 299.083C383.976 299.153 380.521 298.679 381.299 295.464C381.715 293.749 387.807 291.436 388.069 292.262Z" fill="#11304D"/>
<path fill-rule="evenodd" clip-rule="evenodd" d="M320.827 305.39C325.353 307.579 318.985 317.194 314.873 314.814C309.608 311.768 318.966 306.762 320.827 305.39Z" fill="#11304D"/>
<path fill-rule="evenodd" clip-rule="evenodd" d="M309.816 314.49C311.297 316.106 317.972 321.584 314.293 323.787C309.768 326.495 306.324 317.554 309.816 314.49Z" fill="#11304D"/>
<path fill-rule="evenodd" clip-rule="evenodd" d="M233.955 310.29C232.483 307.443 234.509 299.992 239.005 301.354C243.528 302.725 236.445 309.534 233.955 310.29Z" fill="#11304D"/>
<path fill-rule="evenodd" clip-rule="evenodd" d="M333.823 311.931C336.758 310.749 336.199 314.245 336.643 315.373C337.145 316.654 339.73 319.774 339.082 321.138C338.12 323.162 335.82 321.872 334.571 320.558C332.382 318.255 332.538 314.56 333.823 311.931Z" fill="#11304D"/>
<path fill-rule="evenodd" clip-rule="evenodd" d="M289.092 315.171C286.646 315.171 280.806 308.118 284.237 306.934C288.496 305.465 292.057 315.689 289.092 315.171Z" fill="#11304D"/>
<path fill-rule="evenodd" clip-rule="evenodd" d="M373.634 303.99C375.874 304.542 378.84 310.886 375.463 311.622C371.725 312.437 371.057 305.744 373.634 303.99Z" fill="#11304D"/>
<path fill-rule="evenodd" clip-rule="evenodd" d="M360.049 315.89C358.292 312.506 357.859 305.263 362.15 311.077C363.079 312.336 364.038 311.827 363.561 313.904C363.144 315.718 361.478 315.89 360.049 315.89Z" fill="#11304D"/>
<path fill-rule="evenodd" clip-rule="evenodd" d="M267.491 298.39C269.282 301.085 268.753 309.538 265.011 304.539C263.419 302.413 264.515 298.49 267.491 298.39Z" fill="#11304D"/>
<path fill-rule="evenodd" clip-rule="evenodd" d="M357.519 44.3459C360.993 43.4488 361.827 51.6412 359.8 52.5442C356.963 53.808 357.318 45.7162 357.519 44.3459Z" fill="#11304D"/>
<path fill-rule="evenodd" clip-rule="evenodd" d="M577.306 460.552C574.081 460.363 569.563 459.483 574.449 457.195C577.548 455.744 582.156 455.644 585.429 456.239C587.685 456.649 591.07 458.519 587.628 460.943C585.612 462.36 579.757 460.621 577.306 460.552Z" fill="#11304D"/>
<path fill-rule="evenodd" clip-rule="evenodd" d="M573.692 466.397C572.759 466.292 571.827 466.187 570.896 466.083C571.644 464.726 573.816 464.441 573.692 466.397Z" fill="#11304D"/>
<path fill-rule="evenodd" clip-rule="evenodd" d="M577.896 460.417C578.832 460.437 579.768 460.459 580.697 460.478C579.758 460.458 578.827 460.437 577.896 460.417Z" fill="#11304D"/>
</svg>
