<svg width="19" height="39" viewBox="0 0 19 39" fill="none" xmlns="http://www.w3.org/2000/svg">
<path d="M9.39453 16.2329V23.778" stroke="#11304D" stroke-width="1.50901" stroke-linecap="round"/>
<path d="M5.62109 20.0054H13.1662" stroke="#11304D" stroke-width="1.50901" stroke-linecap="round"/>
<path d="M2.60352 20.0054C2.60352 19.1137 2.77916 18.2306 3.12042 17.4068C3.46167 16.5829 3.96186 15.8343 4.59243 15.2038C5.22299 14.5732 5.97157 14.073 6.79544 13.7317C7.61931 13.3905 8.50233 13.2148 9.39408 13.2148C10.2858 13.2148 11.1688 13.3905 11.9927 13.7317C12.8166 14.073 13.5652 14.5732 14.1957 15.2038C14.8263 15.8343 15.3265 16.5829 15.6677 17.4068C16.009 18.2306 16.1846 19.1137 16.1846 20.0054C16.1846 21.8064 15.4692 23.5336 14.1957 24.8071C12.9223 26.0805 11.1951 26.796 9.39408 26.796C7.59311 26.796 5.8659 26.0805 4.59243 24.8071C3.31895 23.5336 2.60352 21.8064 2.60352 20.0054V20.0054Z" stroke="#11304D" stroke-width="1.50901" stroke-linecap="round"/>
</svg>
