<svg width="20" height="39" viewBox="0 0 20 39" fill="none" xmlns="http://www.w3.org/2000/svg">
<path d="M6.36719 20.0054H13.9123" stroke="#11304D" stroke-width="1.50901" stroke-linecap="round"/>
<path d="M3.34961 20.0054C3.34961 19.1137 3.52525 18.2306 3.86651 17.4068C4.20777 16.5829 4.70796 15.8343 5.33852 15.2038C5.96908 14.5732 6.71767 14.073 7.54154 13.7317C8.36541 13.3905 9.24842 13.2148 10.1402 13.2148C11.0319 13.2148 11.9149 13.3905 12.7388 13.7317C13.5627 14.073 14.3113 14.5732 14.9418 15.2038C15.5724 15.8343 16.0726 16.5829 16.4138 17.4068C16.7551 18.2306 16.9307 19.1137 16.9307 20.0054C16.9307 21.8064 16.2153 23.5336 14.9418 24.8071C13.6684 26.0805 11.9411 26.796 10.1402 26.796C8.3392 26.796 6.612 26.0805 5.33852 24.8071C4.06504 23.5336 3.34961 21.8064 3.34961 20.0054V20.0054Z" stroke="#11304D" stroke-width="1.50901" stroke-linecap="round"/>
</svg>
