<svg width="310" height="217" viewBox="0 0 310 217" fill="none" xmlns="http://www.w3.org/2000/svg">
<path fill-rule="evenodd" clip-rule="evenodd" d="M123.141 30.2289C141.21 21.5171 153.784 -0.553996 174.041 0.0106341C191.457 0.496074 201.231 20.0813 212.471 32.7189C223.925 45.5968 234.366 59.117 240.635 74.8854C247.39 91.8759 255.264 110.353 250.308 127.894C245.358 145.414 225.468 154.612 214.008 169.128C202.175 184.114 199.883 208.627 181.397 215.171C162.4 221.896 142.461 207.131 123.141 201.294C108.272 196.801 92.4067 194.075 80.3717 184.647C69.161 175.864 69.0618 158.444 57.6048 149.953C41.4306 137.966 10.9022 144.144 2.02552 126.583C-5.92246 110.858 11.4078 92.9401 21.3849 78.2949C29.7825 65.9684 41.6374 56.1215 55.029 48.7803C66.2822 42.6112 79.7577 42.8497 92.2487 39.4476C102.756 36.5857 113.395 34.9282 123.141 30.2289Z" fill="#C9FFFF"/>
<path fill-rule="evenodd" clip-rule="evenodd" d="M235.964 147.668C234.636 149.203 232.676 150.343 231.172 151.746C229.593 153.221 227.878 154.509 226.305 155.966C219.365 147.484 209.858 142.283 201.623 135.245C197.718 131.907 194.842 127.381 192.737 122.736C191.657 120.355 190.86 117.904 190.236 115.367C189.955 114.224 189.68 113.085 189.497 111.927C189.274 110.524 189.217 110.405 188.27 109.31C187.863 108.839 187.074 107.462 186.276 107.614C185.605 107.742 184.376 109.786 183.952 110.291C181.911 112.719 179.933 115.221 177.784 117.556C174.497 121.127 171.504 124.642 168.452 128.428C162.209 136.174 155.474 143.465 148.678 150.753C148.174 151.294 146.999 152.879 146.275 153.092C145.394 153.351 143.963 152.271 143.076 151.667C140.936 150.21 139.249 148.406 137.419 146.6C133.849 143.076 131.431 138.129 129.805 133.422C128.831 130.604 128.198 127.684 127.193 124.876C126.774 123.705 125.825 122.267 126.307 121.248C126.45 120.944 127.364 120.137 127.686 120.075C128.067 120.002 128.702 120.524 128.834 120.488C130.098 120.142 129.397 118.819 130.149 118.107C130.575 117.704 132.742 117.763 133.389 117.541C135.755 116.729 137.878 115.181 140.115 114.257C149.479 110.388 158.957 106.625 167.041 100.307C169.138 98.6686 170.531 97.4375 173.033 96.3786C175.561 95.3086 178.102 94.354 180.682 93.4203C182.957 92.5966 185.246 91.8242 187.597 91.2338C190.139 90.5952 193.745 89.7855 196.285 90.6081C201.274 92.223 202.884 96.3331 204.871 100.669C207.558 106.535 210.808 112.086 214.331 117.485C221.108 127.874 229.35 137.196 235.964 147.668Z" fill="#FC8BA9"/>
<path fill-rule="evenodd" clip-rule="evenodd" d="M85.7377 55.8277C85.4632 55.6884 83.3202 56.5607 82.9605 56.6941C81.5236 57.2272 80.1703 58.113 78.8166 58.8336C79.854 60.0962 80.8918 61.359 81.9289 62.6219C82.9458 60.1276 84.2527 58.0695 85.7377 55.8277ZM86.4451 71.3466C86.0922 71.3863 89.0722 78.5475 89.4202 79.3516C90.6866 82.2761 92.0161 85.1721 93.2993 88.0893C94.5424 90.9162 96.1194 93.5169 97.7082 96.1578C99.0671 98.4163 100.465 101.921 102.515 103.594C101.22 97.8521 101.391 91.2498 97.6785 86.4285C93.8303 81.4303 90.0256 76.5497 86.4451 71.3466ZM235.963 147.923C230.213 138.817 223.014 130.761 217.018 121.817C213.66 116.809 210.392 111.737 207.565 106.407C205.51 102.529 204.232 96.9965 201.057 94.0321C199.657 92.726 198.162 91.4476 196.285 90.8624C193.715 90.0619 190.177 90.8554 187.596 91.4884C182.786 92.6678 178.087 94.4993 173.531 96.4229C168.909 98.3737 164.967 101.878 160.791 104.694C156.312 107.714 151.463 109.915 146.445 111.841C142.075 113.518 138.188 115.926 133.841 117.614C132.975 117.95 131.208 117.901 130.481 118.34C129.699 118.812 130.007 120.207 129.056 120.721C128.628 120.954 128.485 120.112 128.156 120.126C127.753 120.142 127.386 120.615 126.998 120.914C125.418 122.133 126.386 122.946 127.011 124.623C129.05 130.087 130.146 135.646 133.008 140.804C135.362 145.044 138.73 148.844 142.696 151.651C143.299 152.078 145.266 153.733 145.974 153.623C146.611 153.524 147.908 151.83 148.348 151.369C150.345 149.281 152.171 147.034 154.166 144.943C157.25 141.71 160.219 138.391 163.212 135.114C166.687 131.311 169.762 127.001 172.891 122.937C174.331 121.067 176.184 119.544 177.783 117.81C179.935 115.479 181.911 112.973 183.952 110.545C184.569 109.81 185.603 107.931 186.563 107.953C187.235 107.969 188.421 109.552 188.773 110.048C190.08 111.892 190.074 115.222 190.724 117.525C192.31 123.138 195.171 128.62 199.094 132.952C202.995 137.26 207.992 140.323 212.607 143.785C217.605 147.536 222.341 151.375 226.305 156.221C227.878 154.764 229.592 153.475 231.171 152.001C232.676 150.597 234.636 149.458 235.963 147.923ZM161.941 173.685C163.059 173.697 164.952 174.384 165.953 173.97C162.986 170.688 160.262 167.872 156.508 165.466C152.613 162.97 148.731 160.496 144.949 157.833C137.325 152.467 131.717 146.104 128.533 137.168C127.713 134.866 127.163 132.453 126.562 130.087C126.239 128.813 125.596 122.853 124.503 122.339C123.855 122.034 118.982 125.458 118.21 125.885C116.405 126.883 114.593 127.658 112.727 128.439C108.716 130.118 104.581 131.399 100.327 132.469C95.2269 133.751 91.7531 131.63 88.5938 127.621C85.0095 123.073 82.0309 117.942 78.7537 113.167C77.2634 110.995 76.0288 108.826 74.9281 106.43C74.2078 104.863 71.3509 100.633 72.3381 98.963C75.1544 101.107 76.1678 105.371 78.0863 108.242C80.4774 111.82 83.1721 115.193 85.5755 118.768C87.5966 121.774 89.6585 125.417 92.6445 127.578C95.271 129.479 97.7661 128.894 100.593 128.04C104.019 127.005 107.57 126.495 110.927 125.211C114.56 123.821 117.998 121.851 121.543 120.244C123.196 119.494 125.174 119.068 126.732 118.134C128.074 117.329 127.874 116.904 127.972 115.191C128.087 113.191 128.22 111.191 128.308 109.189C128.368 107.845 127.641 106.022 128.134 105.018C124.11 105.716 120.176 106.651 116.18 107.477C113.992 107.93 111.882 108.489 109.672 108.845C108.829 108.981 107.677 108.977 106.923 109.344C106.321 109.171 106.014 109.281 106.002 109.673C105.974 109.886 105.928 110.096 105.865 110.303C104.631 110.864 103.914 109.66 102.843 108.505C101.523 107.08 100.534 105.475 99.5647 103.8C97.3981 100.055 94.901 96.5331 92.896 92.6828C90.8526 88.7579 89.193 84.5556 87.4605 80.4834C85.8712 76.7475 84.8534 72.7071 83.0971 69.0596C82.3133 67.4314 81.32 66.0851 80.16 64.7097C79.2028 63.5747 77.7301 61.1263 76.3006 60.6049C75.9227 60.4671 74.9328 60.6987 74.5035 60.6681C73.6477 60.607 72.885 60.2928 72.0092 60.3616C70.113 60.51 68.0458 61.7091 66.5305 62.7633C67.5097 63.6361 69.9593 64.6971 68.1998 66.2694C66.4923 67.7958 65.5492 65.0577 64.8976 63.858C61.8294 66.3775 62.2729 69.8516 61.9185 73.4115C61.7333 75.2701 61.2463 77.1004 60.9322 78.9311C60.7059 80.2486 60.8646 81.6114 60.7999 82.9565C60.6351 86.3747 60.2915 89.6466 60.3082 93.017C60.3259 96.6195 60.5713 100.099 60.8596 103.675C61.3448 109.696 62.4566 115.719 63.41 121.693C63.9463 125.05 64.6805 128.313 65.3931 131.616C66.2019 135.365 67.6981 138.916 68.5372 142.656C69.3921 141.569 70.0351 141.564 71.4179 141.708C72.4815 141.818 73.1959 141.565 73.1336 143.042C73.0934 143.999 72.2487 144.73 71.3142 144.898C70.0954 145.115 69.6813 144.507 69.0533 143.584C68.9063 145.332 70.0819 147.16 70.5468 148.867C70.9868 150.485 71.2783 152.071 72.0177 153.619C72.7392 155.13 73.357 156.62 74.087 158.116C74.4232 158.804 74.7377 159.504 75.0777 160.19C75.2497 160.538 75.4521 161.017 75.7087 161.31C76.3106 161.997 76.2148 161.664 76.9192 162.055C78.4539 162.908 77.8776 162.695 77.9135 164.456C77.9485 166.192 78.8389 167.468 80.267 168.444C83.2967 170.515 86.285 171.091 89.7294 172.138C92.9386 173.113 96.319 173.95 99.7172 173.931C103.879 173.907 107.986 173.362 112.148 173.306C116.74 173.246 121.376 173.271 125.958 173.429C127.846 173.495 129.599 173.579 131.421 174.061C133.538 174.621 135.585 174.399 137.766 174.314C142.42 174.133 147.234 173.773 151.826 173.74C155.133 173.717 158.622 173.486 161.941 173.685ZM282.609 175.489C283.437 175.926 285.291 175.747 286.123 175.626C287.588 175.412 287.745 174.831 288.674 173.525C290.274 171.275 291.573 169.121 292.515 166.515C294.316 161.527 295.052 156.424 295.843 151.207C296.722 145.41 295.116 139.401 294.542 133.643C294.41 132.322 294.23 131.013 294.021 129.702C293.896 128.918 293.864 126.251 293.348 125.573C292.357 124.269 287.749 125.321 285.937 125.439C280.879 125.769 275.789 125.846 270.734 125.904C268.039 125.934 265.329 126.047 262.66 126.068C261.434 126.078 260.236 126.017 259.006 125.897C258.595 125.858 258.193 125.763 257.779 125.74C256.36 125.662 256.467 125.456 256.1 126.712C255.457 128.914 255.952 131.714 255.783 133.999C255.557 137.052 255.435 140.148 255.491 143.207C255.543 146.035 255.446 148.855 255.552 151.689C255.596 152.862 255.724 153.819 256.034 154.939C256.384 156.206 256.769 159.166 257.64 160.043C257.739 160.143 258.48 159.91 258.677 160.159C258.98 160.542 258.924 161.352 259.132 161.6C259.806 162.401 261.197 162.464 262.207 162.824C264.977 163.812 267.518 164.884 270.128 166.216C272.461 167.406 276.222 168.419 277.624 170.767C278.267 171.843 278.354 173.262 278.945 174.372C279.619 175.637 278.271 174.976 279.921 175.489C280.664 175.72 281.848 175.489 282.609 175.489ZM36.6947 161.183C36.4849 164.104 34.8394 166.886 34.2666 169.758C33.9986 171.103 33.5439 172.425 33.2289 173.762C32.9267 175.045 31.8352 176.563 31.9457 177.832C35.9744 176.397 40.0551 176.036 44.2656 175.649C48.2564 175.282 52.4722 175.136 56.4295 175.134C60.462 175.132 64.7736 174.738 68.9257 174.677C73.2679 174.613 77.6757 174.501 81.9551 174.051C79.7174 172.393 76.9175 170.837 75.2652 168.531C73.469 166.024 72.5362 162.884 70.9556 160.239C67.7839 154.931 65.7676 148.345 64.105 142.381C60.7485 130.343 56.9976 118.527 56.0936 106.04C54.3731 106.921 53.0074 110.339 52.146 112.041C51.0466 114.215 50.4708 116.571 49.7561 118.881C48.2843 123.638 47.2657 128.572 45.4635 133.284C42.0191 142.292 39.8052 151.999 36.6947 161.183ZM255.382 91.0206C256.127 96.4046 257.69 101.858 257.75 107.307C257.763 108.506 257.56 109.838 257.81 111.02C258.076 112.282 258.944 113.397 259.445 114.596C260.241 116.5 262.255 120.403 260.312 122.016C260.273 120.485 258.872 118.541 258.166 117.202C257.103 115.185 255.705 113.341 254.552 111.374C252.139 107.257 249.435 103.228 246.324 99.5984C243.295 96.0628 239.804 92.9267 236.591 89.5602C235.626 88.5486 227.883 78.8129 227.575 78.949C229.977 88.2107 234.06 96.2692 239.647 104.024C242.386 107.825 245.674 110.327 249.009 113.547C251.786 116.229 257.02 119.097 256.059 123.492C260.401 123.074 264.713 122.408 269.094 122.408C268.373 116.863 267.822 111.407 266.536 105.954C265.075 99.7617 264.087 93.3846 262.851 87.1377C261.59 80.7602 259.452 74.5862 258.121 68.2208C256.847 62.1255 255.753 56.0411 254.819 49.8779C254.047 53.2929 254.332 57.0438 254.058 60.5282C253.778 64.0881 253.805 67.5825 253.898 71.1632C254.071 77.8143 254.78 84.3851 255.382 91.0206ZM274.193 59.3103C274.218 56.4634 274.769 53.655 274.939 50.8148C274.992 49.9434 275.859 43.9983 275.05 43.688C274.384 45.1392 274.229 46.9963 273.625 48.519C273.021 50.0401 272.213 51.4893 271.633 53.0211C270.378 56.3394 269.945 60.0941 269.809 63.622C269.504 71.6017 269.345 79.5635 269.882 87.5432C270.112 90.9635 270.288 94.3897 270.225 97.8168C270.156 101.588 269.578 104.861 270.28 108.601C270.974 112.304 271.41 115.993 271.641 119.75C271.804 122.388 271.869 122.201 274.385 122.016C276.202 121.882 278.036 122.025 279.855 121.942C279.005 111.663 278.866 101.362 277.507 91.1225C276.814 85.8986 276.795 80.5992 275.934 75.3947C275.506 72.8093 274.788 70.276 274.376 67.6877C273.933 64.9087 274.151 62.1108 274.193 59.3103ZM90.1858 52.8415C95.03 53.2612 100.183 54.7095 105.148 53.7531C104.33 53.4216 102.188 52.9643 103.152 51.6559C104.132 50.3255 105.783 52.013 106.761 51.8387C107.364 51.7312 108.696 49.2117 109.067 48.69C109.91 47.5044 110.012 47.2978 111.528 46.994C112.997 46.7001 113.33 47.0183 113.516 45.558C113.73 43.8787 113.149 41.9908 113.206 40.2736C113.33 36.5767 114.523 33.3348 115.633 29.8566C110.917 30.8826 106.305 32.0993 101.483 32.7605C99.4216 33.0433 96.2147 33.6954 94.342 32.2941C93.855 31.9297 93.9329 31.4377 93.5344 31.0154C92.8661 30.3068 91.6264 29.5739 90.6786 29.372C84.8458 28.1303 84.2768 36.4453 87.1998 39.5568C87.9319 40.3364 88.9506 40.7214 89.7003 41.4359C90.701 42.3887 90.783 43.3923 90.929 44.8468C91.2029 47.5741 90.8309 50.312 89.6674 52.8068L90.1858 52.8415ZM160.968 92.0965C162.69 92.4233 164.487 92.3486 166.213 92.6276C166.827 92.7266 168.665 93.0722 169.205 92.7137C170.028 92.1661 170.321 90.158 170.71 89.2228C171.395 87.5779 172.364 86.1431 173.017 84.4683C175.686 77.6271 178.174 70.7586 181.402 64.151C180.165 63.8295 179.215 63.8168 177.968 63.6508C176.669 63.4777 175.492 62.7098 174.253 62.3797C173.075 62.0661 171.842 62.1461 170.675 61.7814C170.032 61.5806 169.48 61.1342 168.847 60.9782C167.837 60.7298 166.658 60.5846 166.057 61.2477C165.442 61.9277 165.225 63.7925 164.89 64.6709C163.998 67.0112 162.962 69.2697 162.214 71.6637C161.54 73.823 160.899 75.9592 160.305 78.1382C159.678 80.4384 158.442 82.3343 157.689 84.5317C157.116 86.2043 156.576 87.9141 156.49 89.6975C156.407 91.4376 156.154 91.5484 157.894 91.8264C158.773 91.9666 160.141 92.4885 160.968 92.0965ZM274.26 173.538C274.708 173.747 275.131 173.72 275.528 173.455C271.64 171.813 267.858 169.535 263.801 168.408C259.996 167.352 256.298 166.089 252.632 164.788C249.654 163.73 246.976 162.907 244.283 161.046C242.648 159.917 241.196 158.646 240.073 156.996C238.823 155.158 238.544 152.542 237.19 150.887C235.362 152.894 233.214 154.415 231.052 156.01C230.303 156.562 228.509 157.765 228.253 158.619C227.93 159.697 228.795 160.728 229.223 161.818C230.319 164.611 230.854 167.403 231.449 170.307C231.687 171.471 232.202 173.22 233.158 173.708C234.028 174.151 236.549 173.829 237.633 173.747C243.284 173.319 248.835 172.88 254.521 173.27C260.955 173.711 267.843 174.016 274.26 173.538ZM285.548 121.781C286.575 121.784 287.578 121.656 288.602 121.656C288.011 118.898 289.392 115.329 289.882 112.575C290.429 109.496 290.846 106.311 291.212 103.207C291.982 96.668 292.331 90.2085 292.341 83.6219C292.35 77.2482 293.51 71.4239 295.135 65.2969C296.881 58.7167 299.738 52.7992 302.101 46.4532C299.509 47.8233 298.075 51.0294 296.713 53.4804C294.991 56.5795 293.844 60.011 293.141 63.49C291.785 70.2016 290.297 76.9335 288.733 83.6339C287.103 90.6106 286.145 97.6513 284.278 104.571C283.368 107.945 282.13 112.097 282.061 115.577C282.032 117.016 281.599 120.031 282.251 121.281C282.861 122.451 284.21 121.9 285.548 121.781ZM130.506 113.124C130.451 113.841 130.4 114.522 130.273 115.23C131.696 115.217 133.498 113.74 134.718 113.078C136.204 112.27 137.693 111.38 139.147 110.568C141.953 109.001 145.14 107.969 148.136 106.682C151.579 105.203 154.743 103.416 158.035 101.636C159.185 101.014 167.45 97.4312 167.312 96.4525C165.497 96.392 163.683 96.3317 161.868 96.2715C160.312 96.2198 157.903 96.5713 156.413 96.0905C155.597 95.8268 154.681 94.8567 154.373 94.097C154.069 93.3452 154.754 89.8876 154.355 89.6672C152.325 91.7406 151.048 94.4964 149.232 96.7332C147.226 99.2054 144.633 100.649 141.775 101.963C138.62 103.414 135.354 104.537 132.129 105.781C130.769 106.305 130.796 106.605 130.677 108.096C130.545 109.763 130.559 111.453 130.506 113.124ZM294.481 175.829C297.902 176.196 301.407 175.987 304.854 176.273C306.109 176.377 307.848 176.532 306.586 178.216C305.791 179.276 303.245 178.936 302.091 179.009C298.99 179.207 295.708 179.101 292.601 179.055C291.947 179.045 291.224 178.851 290.562 178.895C289.799 178.945 288.885 179.494 288.189 179.49C287.761 179.487 287.607 179.035 287.237 178.993C286.432 178.903 285.626 178.837 284.814 178.837C272.532 178.84 260.419 178.593 248.168 178.579C242.31 178.573 236.358 178.472 230.502 178.197C229.273 178.139 222.27 178.391 222.464 176.177C222.563 175.036 224.849 174.876 225.683 174.754C226.301 174.665 226.942 174.679 227.561 174.646C229.207 174.558 229.927 174.953 229.58 173.153C228.264 166.326 225.905 160.683 220.865 155.774C216.745 151.76 211.783 148.118 207.115 144.766C201.448 140.696 196.85 136.415 193.485 130.187C191.52 126.549 189.875 122.831 188.866 118.809C188.503 117.362 188.494 115.717 188.049 114.322C187.706 113.248 186.926 112.497 186.466 111.384C180.828 120.802 173.354 128.682 166.502 137.173C163.228 141.23 159.493 145.084 155.581 148.613C154.42 149.66 153.336 150.754 152.253 151.881C151.347 152.824 149.908 153.663 149.142 154.709C148.408 155.713 148.589 155.665 149.706 156.463C151.183 157.516 152.811 158.392 154.312 159.419C156.71 161.062 159.327 162.45 161.472 164.426C163.791 166.564 165.817 169.04 167.844 171.451C169.195 173.058 170.968 175.119 171.307 177.151C171.42 177.823 171.847 179.485 171.283 179.977C170.801 180.398 170.85 180.238 170.251 179.982C169.467 179.645 169.237 178.874 168.279 178.506C165.828 177.566 162.862 177.889 160.312 177.877C157.761 177.866 155.189 178.152 152.639 178.142C146.817 178.118 141.118 178.589 135.297 178.842C129.115 179.111 122.857 178.466 116.695 178.558C112.13 178.625 107.443 178.284 102.752 178.538C100.339 178.668 97.9686 178.366 95.6157 178.332C92.5351 178.288 89.3714 178.707 86.2644 178.767C81.1648 178.865 76.1275 178.865 70.9968 178.987C59.9606 179.251 48.984 179.524 37.9414 179.699C36.4684 179.722 34.8558 179.672 33.4002 179.838C31.8552 180.014 32.6528 180.342 31.5928 180.899C28.6251 182.456 29.3104 176.685 29.3815 175.55C29.763 169.467 31.3071 163.502 33.1627 157.728C34.9231 152.251 36.3523 146.519 37.8432 140.924C39.4752 134.8 41.6015 128.927 43.5324 122.863C45.5108 116.65 47.1217 110.194 50.7151 104.686C51.5335 103.432 52.3794 102.082 53.696 101.291C55.1719 100.405 55.2354 100.923 55.2342 99.3001C55.2333 97.7718 55.3274 95.7302 54.9668 94.2719C54.6409 92.9544 54.6911 93.7355 53.9573 92.7892C53.3601 92.0195 52.7353 91.4934 52.3068 90.5589C49.6747 93.2277 43.6496 91.8194 41.1066 89.8976C37.994 87.5453 35.6232 83.5769 34.7544 79.7975C34.0567 76.7625 34.9128 70.9772 38.272 69.5177C39.9096 68.8062 45.9243 68.2684 46.165 65.9496C46.2891 64.7526 44.1722 63.0695 43.6837 62.0403C42.7785 60.1335 41.9092 57.5972 41.6576 55.5071C41.1663 51.4273 43.0184 46.8652 45.9687 44.1094C51.381 39.0539 60.904 36.4594 67.8659 39.667C66.3947 34.0469 65.5066 29.1986 66.2475 23.3525C66.8858 18.3161 69.8573 15.4983 73.9462 12.9896C80.9238 8.70812 90.4124 7.01825 98.3906 8.26317C100.204 8.54619 101.943 9.15307 103.622 9.63594C106.061 10.3375 108.98 10.1038 111.283 11.2436C112.953 12.0697 114.22 13.7155 115.687 14.8144C117.399 16.0972 118.821 18.0119 120.01 19.7826C122.554 23.5691 121.56 30.5966 119.431 34.3975C118.975 35.2128 118.411 35.899 117.655 36.4553C116.869 37.0343 115.67 37.2144 115.265 37.9653C114.227 39.8889 115.228 44.053 115.367 46.132C115.528 48.546 114.307 50.3593 111.57 50.5518C109.987 50.6635 109.936 49.7448 109.178 51.6351C108.686 52.8603 108.24 54.1952 107.531 55.3184C106.069 57.6334 103.391 57.4074 100.952 57.3448C98.1279 57.2719 95.3465 56.8258 92.5213 56.5442C93.2675 58.935 95.3101 60.7907 96.5855 62.9205C98.3101 65.8012 99.3481 68.1891 99.6285 71.5453C99.8436 74.1239 99.3793 76.1603 97.6147 78.0794C96.8844 78.8738 96.237 78.9128 96.4183 79.8292C96.5288 80.3882 97.4954 81.3104 97.8375 81.7565C98.7424 82.9368 99.7931 84.0201 100.59 85.2806C103.654 90.1304 104.559 97.5235 104.567 103.169C104.567 103.428 104.705 103.978 104.591 104.246C104.506 104.444 103.863 105.07 103.854 105.124C103.728 105.85 104.436 107.094 105.547 107.217C106.713 107.346 108.849 106.373 109.934 106.053C111.671 105.541 113.44 105.163 115.173 104.638C117.971 103.789 120.756 103.112 123.601 102.446C124.886 102.146 126.179 101.895 127.468 101.614C128.937 101.295 129.62 100.677 130.378 102.171C131.028 103.454 130.624 103.686 132.2 103.04C133.764 102.398 135.292 101.602 136.82 100.877C139.514 99.5992 142.722 98.4601 145.045 96.5736C148.922 93.4263 150.357 88.4143 154.067 85.0749C155.1 84.145 155.716 84.1285 156.369 82.8404C157.068 81.4618 157.429 79.6937 157.796 78.2107C158.44 75.6139 158.898 73.008 159.482 70.4135C160.21 67.1813 161.782 64.2542 162.929 61.1712C163.376 59.9701 163.607 58.4434 164.328 57.3639C164.519 57.0776 164.884 56.9163 165.033 56.6794C165.546 55.8662 165.541 55.6429 165.674 54.6645C166.295 50.093 169.024 52.4979 172.006 53.5462C173.262 53.988 179.228 56.8525 176.95 58.7575C179.666 59.5454 184.015 59.1172 183.978 63.0089C183.96 65.003 182.767 67.1361 182.127 69.0026C181.558 70.6598 181.009 72.3235 180.431 73.9781C179.166 77.6027 177.631 81.1188 176.396 84.7545C175.833 86.4115 175.369 88.1072 174.586 89.671C173.895 91.0505 172.222 92.5711 171.946 94.0797C179.182 90.9923 185.877 86.5287 193.977 86.8132C197.523 86.9375 200.742 88.4284 202.701 91.5469C205.157 95.4557 206.773 99.832 209.173 103.777C217.905 118.127 228.319 131.164 237.904 144.921C238.641 145.978 239.587 146.977 239.843 148.284C240.01 149.136 239.686 149.989 239.886 150.807C240.301 152.509 242.396 154.634 243.817 155.611C246.54 157.486 250.967 160.13 254.365 159.896C252.232 154.77 252.261 149.154 252.36 143.687C252.454 138.494 253.015 133.342 253.682 128.202C253.832 127.039 253.964 125.961 254.298 124.834C254.681 123.541 255.208 123.664 254.059 122.501C252.291 120.711 250.188 119.239 248.406 117.427C244.551 113.508 240.6 110.436 237.566 105.757C234.68 101.306 231.636 96.7262 229.5 91.852C227.301 86.8344 226.422 81.4759 225.331 76.162C224.888 74.0058 223.272 71.5985 223.597 69.3467C224.007 66.501 225.327 68.5732 225.864 70.1046C227.503 74.7796 231.342 78.9637 234.521 82.7234C237.956 86.785 242.157 90.1833 245.743 94.1267C249.647 98.4216 252.322 103.357 255.794 107.942C255.794 102.252 253.851 96.4587 253.056 90.8301C252.357 85.876 252.138 80.9063 251.696 75.9307C250.692 64.6283 251.559 52.9929 252.968 41.7712C253.637 36.4418 253.258 31.2379 253.278 25.8902C253.284 24.1883 252.58 20.2658 253.478 18.7555C255.197 15.8627 256.2 22.1881 256.287 23.1312C256.807 28.7492 255.875 34.3046 256.351 39.8985C256.849 45.7402 257.929 51.4179 258.849 57.192C259.845 63.4439 261.466 69.5548 263.018 75.6868C264.648 82.1251 266.019 88.6976 267.831 95.0845C268.32 93.0769 267.634 90.6106 267.499 88.566C267.305 85.64 266.928 82.7134 266.895 79.7798C266.843 75.1043 266.806 70.3421 267.071 65.6884C267.331 61.1013 267.253 56.2947 268.659 51.8755C269.327 49.778 270.306 47.7316 271.265 45.7558C272.447 43.3194 272.864 40.9571 273.519 38.3659C274.08 36.1467 274.9 33.9861 275.274 31.7225C275.506 30.3148 276.154 26.1592 277.766 29.3076C278.701 31.135 278.297 33.8441 278.323 35.8073C278.357 38.3242 277.971 40.7714 277.912 43.2777C277.797 48.1951 277.715 53.1066 277.348 58.0157C276.963 63.1662 277.299 67.782 278.279 72.8569C279.352 78.4121 279.665 83.9792 280.221 89.6022C280.508 92.5056 280.991 95.3928 281.224 98.3002C281.348 99.8399 280.715 104.255 281.818 105.352C281.925 102.685 282.689 100.016 283.268 97.4171C283.954 94.3386 284.231 91.1023 284.737 87.9797C285.556 82.9206 287.146 78.0894 288.197 73.0871C290.364 62.7753 292.165 49.5223 301.249 42.7728C302.438 41.8897 303.744 41.2378 305.028 40.511C305.756 40.0996 306.836 39.0351 307.669 38.8494C308.577 38.6466 308.956 38.8041 309.324 39.858C309.838 41.3271 308.899 42.0134 308.022 43.0805C304.988 46.7729 303.692 51.5064 301.819 55.8368C297.529 65.753 295.631 76.212 295.61 86.9308C295.598 92.542 295.211 97.954 294.613 103.531C293.969 109.533 293.121 115.881 291.297 121.655C293.126 122.065 295.111 121.454 295.607 123.58C295.729 124.102 295.508 124.72 295.643 125.4C295.774 126.06 296.09 126.717 296.276 127.367C296.662 128.711 296.866 130.037 297.053 131.417C297.778 136.751 299.023 141.824 299.156 147.232C299.278 152.23 298.299 157.295 297.398 162.198C296.489 167.136 293.884 171.345 291.833 175.811C292.716 175.811 293.598 175.82 294.481 175.829Z" fill="#11304D"/>
<path fill-rule="evenodd" clip-rule="evenodd" d="M178.394 164.478C177.422 164.753 172.725 165.272 172.726 166.746C172.727 167.629 177.417 167.612 178.247 167.708C178.296 166.632 178.345 165.555 178.394 164.478ZM188.76 174.646C191.466 175.161 195.14 174.437 196.87 172.052C197.678 170.937 198.062 169.241 198.325 167.911C198.576 166.643 199.352 163.479 198.824 162.291C198.176 160.831 191.958 162.357 190.148 162.524C186.989 162.816 183.722 162.85 180.561 162.644C180.561 165.908 180.394 169.089 182.314 171.898C183.699 173.925 186.3 174.404 188.76 174.646ZM188.216 178.678C185.276 177.602 182.189 178.301 180.274 175.144C179.788 174.344 179.379 173.483 179.085 172.593C178.942 172.203 178.83 171.804 178.751 171.395C178.9 170.515 178.578 170.267 177.784 170.651C176.225 170.348 174.516 171.418 172.874 171.102C168.893 170.338 169.616 164.634 172.288 162.66C172.816 162.269 173.343 162.161 173.947 161.968C175.279 161.544 176 162.018 177.218 161.897C178.203 161.8 178.474 160.768 179.532 160.313C180.224 160.016 181.186 160.039 181.914 160.009C185.725 159.852 189.549 159.853 193.384 159.605C195.173 159.489 197.105 159.773 198.857 159.467C199.678 159.323 199.56 158.777 200.337 159.256C201.141 159.753 200.794 161.587 200.753 162.319C200.518 166.548 200.267 171.085 198.001 174.783C195.928 178.167 191.848 178.513 188.216 178.678Z" fill="#11304D"/>
<path fill-rule="evenodd" clip-rule="evenodd" d="M32.9297 179.843C33.8757 179.833 34.8215 179.823 35.7643 179.813C34.8171 179.823 33.8734 179.833 32.9297 179.843Z" fill="#11304D"/>
<path fill-rule="evenodd" clip-rule="evenodd" d="M295.617 89.655C295.615 88.7463 295.613 87.8376 295.611 86.9307C295.613 87.84 295.615 88.7475 295.617 89.655Z" fill="#11304D"/>
<path fill-rule="evenodd" clip-rule="evenodd" d="M54.9678 93.3872C54.9649 94.2724 54.9619 95.1576 54.959 96.0407C54.9616 95.155 54.9646 94.2709 54.9678 93.3872Z" fill="#11304D"/>
<path fill-rule="evenodd" clip-rule="evenodd" d="M133.605 178.84C134.358 178.841 135.111 178.842 135.86 178.844C135.106 178.843 134.356 178.842 133.605 178.84Z" fill="#11304D"/>
<path fill-rule="evenodd" clip-rule="evenodd" d="M87.9062 178.659C88.6589 178.662 89.4113 178.664 90.1604 178.667C89.4066 178.665 88.6566 178.662 87.9062 178.659Z" fill="#11304D"/>
<path fill-rule="evenodd" clip-rule="evenodd" d="M252.459 141.896C252.426 142.493 252.392 143.091 252.359 143.687C252.393 143.089 252.426 142.493 252.459 141.896Z" fill="#11304D"/>
<path fill-rule="evenodd" clip-rule="evenodd" d="M294.481 175.829C293.9 175.822 293.318 175.816 292.736 175.81C293.321 175.567 293.902 175.578 294.481 175.829Z" fill="#11304D"/>
<path fill-rule="evenodd" clip-rule="evenodd" d="M242.844 178.474C243.261 178.468 243.679 178.461 244.092 178.454C243.674 178.46 243.259 178.467 242.844 178.474Z" fill="#11304D"/>
<path fill-rule="evenodd" clip-rule="evenodd" d="M295.389 97.0279C295.399 96.5762 295.409 96.1248 295.42 95.6748C295.409 96.1268 295.399 96.5773 295.389 97.0279Z" fill="#11304D"/>
<path fill-rule="evenodd" clip-rule="evenodd" d="M256.35 39.8989C256.315 39.4331 256.281 38.9676 256.246 38.5029C256.281 38.969 256.315 39.434 256.35 39.8989Z" fill="#11304D"/>
<path fill-rule="evenodd" clip-rule="evenodd" d="M295.596 91.4341C295.601 90.9671 295.607 90.5004 295.612 90.0352C295.607 90.5024 295.601 90.9683 295.596 91.4341Z" fill="#11304D"/>
<path fill-rule="evenodd" clip-rule="evenodd" d="M164.32 177.896C164.691 177.901 165.063 177.906 165.431 177.911C165.059 177.905 164.689 177.901 164.32 177.896Z" fill="#11304D"/>
<path fill-rule="evenodd" clip-rule="evenodd" d="M259.924 178.657C260.286 178.664 260.649 178.672 261.009 178.679C260.645 178.672 260.284 178.665 259.924 178.657Z" fill="#11304D"/>
<path fill-rule="evenodd" clip-rule="evenodd" d="M299.113 145.827C299.087 145.417 299.061 145.007 299.035 144.599C299.061 145.008 299.087 145.417 299.113 145.827Z" fill="#11304D"/>
<path fill-rule="evenodd" clip-rule="evenodd" d="M292.6 179.055C292.895 179.053 293.19 179.051 293.482 179.051C293.186 179.053 292.893 179.054 292.6 179.055Z" fill="#11304D"/>
<path fill-rule="evenodd" clip-rule="evenodd" d="M252.361 178.675C252.654 178.668 252.946 178.661 253.236 178.654C252.942 178.662 252.651 178.669 252.361 178.675Z" fill="#11304D"/>
<path fill-rule="evenodd" clip-rule="evenodd" d="M186.621 178.452C186.943 178.45 187.265 178.448 187.584 178.446C187.261 178.448 186.941 178.45 186.621 178.452Z" fill="#11304D"/>
<path fill-rule="evenodd" clip-rule="evenodd" d="M112.383 178.451C112.689 178.453 112.995 178.455 113.298 178.458C112.991 178.456 112.687 178.453 112.383 178.451Z" fill="#11304D"/>
<path fill-rule="evenodd" clip-rule="evenodd" d="M94.3242 178.5C94.6363 178.483 94.9479 178.465 95.257 178.448C94.944 178.466 94.6343 178.483 94.3242 178.5Z" fill="#11304D"/>
<path fill-rule="evenodd" clip-rule="evenodd" d="M180.786 59.5861C180.321 59.5461 179.857 59.5062 179.393 59.4659C179.858 59.4985 180.349 59.2234 180.786 59.5861Z" fill="#11304D"/>
<path fill-rule="evenodd" clip-rule="evenodd" d="M299.159 176.006C298.701 175.96 298.243 175.913 297.785 175.867C298.243 175.913 298.701 175.96 299.159 176.006Z" fill="#11304D"/>
<path fill-rule="evenodd" clip-rule="evenodd" d="M267.219 62.4062C267.189 62.8074 267.158 63.2089 267.127 63.6089C267.158 63.2071 267.189 62.8065 267.219 62.4062Z" fill="#11304D"/>
<path fill-rule="evenodd" clip-rule="evenodd" d="M295.711 79.1326C295.742 78.7523 295.773 78.372 295.804 77.9932C295.773 78.374 295.742 78.7532 295.711 79.1326Z" fill="#11304D"/>
<path fill-rule="evenodd" clip-rule="evenodd" d="M267.04 68.6289C267.007 69.0295 266.974 69.4298 266.941 69.8289C266.974 69.428 267.007 69.0283 267.04 68.6289Z" fill="#11304D"/>
<path fill-rule="evenodd" clip-rule="evenodd" d="M295.516 94.4842C295.513 94.0971 295.51 93.7101 295.508 93.3242C295.758 93.7101 295.748 94.0963 295.516 94.4842Z" fill="#11304D"/>
<path fill-rule="evenodd" clip-rule="evenodd" d="M252.465 150.068C252.461 150.456 252.458 150.845 252.454 151.231C252.197 150.84 252.249 150.453 252.465 150.068Z" fill="#11304D"/>
<path fill-rule="evenodd" clip-rule="evenodd" d="M281.65 105.185C281.605 104.792 281.56 104.399 281.516 104.008C281.561 104.401 281.605 104.793 281.65 105.185Z" fill="#11304D"/>
<path fill-rule="evenodd" clip-rule="evenodd" d="M39.9921 69.145C39.6885 69.5462 39.275 69.2714 38.9141 69.3202C39.2738 69.2617 39.6329 69.2035 39.9921 69.145Z" fill="#11304D"/>
<path fill-rule="evenodd" clip-rule="evenodd" d="M190.11 159.883C189.726 159.883 189.343 159.884 188.959 159.884C189.343 159.884 189.726 159.883 190.11 159.883Z" fill="#11304D"/>
<path fill-rule="evenodd" clip-rule="evenodd" d="M251.385 70.793C251.421 71.1192 251.456 71.4454 251.492 71.7705C251.456 71.4436 251.421 71.1183 251.385 70.793Z" fill="#11304D"/>
<path fill-rule="evenodd" clip-rule="evenodd" d="M61.8423 38.3944C61.4567 38.402 61.0711 38.4097 60.6855 38.4173C61.067 38.1928 61.4514 38.1278 61.8423 38.3944Z" fill="#11304D"/>
<path fill-rule="evenodd" clip-rule="evenodd" d="M267.028 74.2715C267.003 74.6136 266.978 74.9554 266.953 75.296C266.978 74.9539 267.003 74.6127 267.028 74.2715Z" fill="#11304D"/>
<path fill-rule="evenodd" clip-rule="evenodd" d="M256.455 32.2799C256.485 31.9681 256.515 31.6562 256.544 31.3462C256.514 31.6586 256.485 31.9692 256.455 32.2799Z" fill="#11304D"/>
<path fill-rule="evenodd" clip-rule="evenodd" d="M253.425 31.3032C253.394 31.6415 253.364 31.9801 253.334 32.3171C253.364 31.9783 253.394 31.6406 253.425 31.3032Z" fill="#11304D"/>
<path fill-rule="evenodd" clip-rule="evenodd" d="M85.9365 8.70557C85.5442 8.75318 85.1518 8.80079 84.7598 8.8481C85.1521 8.80049 85.5442 8.75318 85.9365 8.70557Z" fill="#11304D"/>
<path fill-rule="evenodd" clip-rule="evenodd" d="M57.6002 38.6631C57.1975 38.7042 56.7949 38.7454 56.3926 38.7865C56.7952 38.7454 57.1978 38.7042 57.6002 38.6631Z" fill="#11304D"/>
<path fill-rule="evenodd" clip-rule="evenodd" d="M278.232 39.6552C278.257 39.3404 278.282 39.0254 278.306 38.7124C278.282 39.0275 278.257 39.3413 278.232 39.6552Z" fill="#11304D"/>
<path fill-rule="evenodd" clip-rule="evenodd" d="M44.3867 91.6025C44.6186 91.6061 44.8502 91.6093 45.0785 91.6128C44.8458 91.6093 44.6162 91.6061 44.3867 91.6025Z" fill="#11304D"/>
<path fill-rule="evenodd" clip-rule="evenodd" d="M253.437 130.45C253.414 130.799 253.39 131.147 253.367 131.495C253.391 131.146 253.414 130.798 253.437 130.45Z" fill="#11304D"/>
<path fill-rule="evenodd" clip-rule="evenodd" d="M277.091 62.6199C277.081 62.2839 277.072 61.9483 277.062 61.6133C277.072 61.9495 277.082 62.2845 277.091 62.6199Z" fill="#11304D"/>
<path fill-rule="evenodd" clip-rule="evenodd" d="M95.8166 7.91071C95.4589 7.91071 95.1012 7.911 94.7441 7.911C95.1018 7.66531 95.4592 7.67148 95.8166 7.91071Z" fill="#11304D"/>
<path fill-rule="evenodd" clip-rule="evenodd" d="M191.304 86.9741C190.912 86.9841 190.52 86.9941 190.129 87.0041C190.514 86.7319 190.906 86.7252 191.304 86.9741Z" fill="#11304D"/>
<path fill-rule="evenodd" clip-rule="evenodd" d="M225.539 177.882C225.771 177.887 226.004 177.892 226.233 177.897C226 177.893 225.769 177.887 225.539 177.882Z" fill="#11304D"/>
<path fill-rule="evenodd" clip-rule="evenodd" d="M234.283 178.29C234.515 178.282 234.747 178.274 234.976 178.266C234.743 178.274 234.513 178.282 234.283 178.29Z" fill="#11304D"/>
<path fill-rule="evenodd" clip-rule="evenodd" d="M97.4219 178.451C97.6637 178.457 97.9056 178.463 98.1443 178.469C97.9015 178.463 97.6617 178.457 97.4219 178.451Z" fill="#11304D"/>
<path fill-rule="evenodd" clip-rule="evenodd" d="M298.914 141.94C298.88 141.608 298.845 141.275 298.811 140.945C298.845 141.278 298.88 141.609 298.914 141.94Z" fill="#11304D"/>
<path fill-rule="evenodd" clip-rule="evenodd" d="M267.326 85.9536C267.354 86.2701 267.381 86.5867 267.408 86.9011C267.381 86.5843 267.354 86.269 267.326 85.9536Z" fill="#11304D"/>
<path fill-rule="evenodd" clip-rule="evenodd" d="M279.482 80.5199C279.444 80.1842 279.406 79.8486 279.369 79.5142C279.407 79.8501 279.444 80.1848 279.482 80.5199Z" fill="#11304D"/>
<path fill-rule="evenodd" clip-rule="evenodd" d="M99.3828 178.652C99.6267 178.648 99.871 178.644 100.112 178.641C99.8671 178.645 99.625 178.648 99.3828 178.652Z" fill="#11304D"/>
<path fill-rule="evenodd" clip-rule="evenodd" d="M188.215 178.678C188.452 178.667 188.689 178.656 188.924 178.646C188.686 178.656 188.45 178.667 188.215 178.678Z" fill="#11304D"/>
<path fill-rule="evenodd" clip-rule="evenodd" d="M277.499 56.0122C277.488 55.6722 277.477 55.3321 277.467 54.9927C277.478 55.333 277.488 55.6724 277.499 56.0122Z" fill="#11304D"/>
<path fill-rule="evenodd" clip-rule="evenodd" d="M76.2539 178.873C76.492 178.872 76.7297 178.87 76.9645 178.868C76.7253 178.87 76.4899 178.872 76.2539 178.873Z" fill="#11304D"/>
<path fill-rule="evenodd" clip-rule="evenodd" d="M277.396 178.87C277.641 178.872 277.886 178.875 278.127 178.877C277.881 178.875 277.639 178.872 277.396 178.87Z" fill="#11304D"/>
<path fill-rule="evenodd" clip-rule="evenodd" d="M282.68 178.841C282.916 178.858 283.152 178.875 283.385 178.891C283.148 178.874 282.914 178.858 282.68 178.841Z" fill="#11304D"/>
<path fill-rule="evenodd" clip-rule="evenodd" d="M284.814 178.837C285.055 178.844 285.296 178.851 285.533 178.857C285.292 178.849 285.053 178.843 284.814 178.837Z" fill="#11304D"/>
<path fill-rule="evenodd" clip-rule="evenodd" d="M295.768 81.8675C295.752 81.5331 295.736 81.1983 295.721 80.8647C295.737 81.1998 295.752 81.5336 295.768 81.8675Z" fill="#11304D"/>
<path fill-rule="evenodd" clip-rule="evenodd" d="M134.326 174.453C135.058 174.415 135.789 174.377 136.521 174.339C135.789 174.377 135.058 174.415 134.326 174.453Z" fill="#11304D"/>
<path fill-rule="evenodd" clip-rule="evenodd" d="M90.1855 52.8413C90.8206 52.8966 91.4557 52.9518 92.0903 53.0065C91.4552 52.9515 90.8204 52.8963 90.1855 52.8413Z" fill="#11304D"/>
<path fill-rule="evenodd" clip-rule="evenodd" d="M269.504 80.4536C269.524 81.0596 269.544 81.6656 269.564 82.2699C269.544 81.6636 269.524 81.0587 269.504 80.4536Z" fill="#11304D"/>
<path fill-rule="evenodd" clip-rule="evenodd" d="M282.609 175.489C283.272 175.53 283.935 175.569 284.598 175.61C283.931 175.64 283.254 175.83 282.609 175.489Z" fill="#11304D"/>
<path fill-rule="evenodd" clip-rule="evenodd" d="M278.684 103.807C278.689 103.229 278.694 102.651 278.698 102.075C278.693 102.653 278.689 103.23 278.684 103.807Z" fill="#11304D"/>
<path fill-rule="evenodd" clip-rule="evenodd" d="M276.99 121.97C277.572 121.977 278.154 121.985 278.735 121.993C278.153 121.985 277.572 121.977 276.99 121.97Z" fill="#11304D"/>
<path fill-rule="evenodd" clip-rule="evenodd" d="M130.549 111.807C130.534 112.247 130.52 112.688 130.506 113.126C130.521 112.685 130.535 112.246 130.549 111.807Z" fill="#11304D"/>
<path fill-rule="evenodd" clip-rule="evenodd" d="M286.67 93.1523C286.647 93.5908 286.623 94.029 286.6 94.4651C286.624 94.0264 286.647 93.5894 286.67 93.1523Z" fill="#11304D"/>
<path fill-rule="evenodd" clip-rule="evenodd" d="M274.26 173.538C274.683 173.509 275.106 173.481 275.528 173.454C275.21 173.708 274.89 173.73 274.26 173.538Z" fill="#11304D"/>
<path fill-rule="evenodd" clip-rule="evenodd" d="M271.426 116.23C271.455 116.703 271.484 117.175 271.513 117.646C271.484 117.173 271.455 116.702 271.426 116.23Z" fill="#11304D"/>
<path fill-rule="evenodd" clip-rule="evenodd" d="M113.193 41.6394C113.198 41.183 113.202 40.7266 113.207 40.272C113.202 40.729 113.198 41.1842 113.193 41.6394Z" fill="#11304D"/>
<path fill-rule="evenodd" clip-rule="evenodd" d="M271.939 122.065L273.517 122.031C272.996 122.282 272.471 122.291 271.939 122.065Z" fill="#11304D"/>
<path fill-rule="evenodd" clip-rule="evenodd" d="M286.49 125.434C286.118 125.437 285.746 125.44 285.377 125.444C285.75 125.441 286.12 125.437 286.49 125.434Z" fill="#11304D"/>
<path fill-rule="evenodd" clip-rule="evenodd" d="M150.281 173.72C150.796 173.726 151.311 173.733 151.826 173.74C151.307 174 150.792 174.037 150.281 173.72Z" fill="#11304D"/>
<path fill-rule="evenodd" clip-rule="evenodd" d="M53.2891 175.237C53.8116 175.191 54.3344 175.144 54.857 175.097C54.3344 175.144 53.8116 175.191 53.2891 175.237Z" fill="#11304D"/>
<path fill-rule="evenodd" clip-rule="evenodd" d="M269.684 84.3457C269.709 84.82 269.735 85.2944 269.76 85.7673C269.735 85.2923 269.709 84.8192 269.684 84.3457Z" fill="#11304D"/>
<path fill-rule="evenodd" clip-rule="evenodd" d="M102.887 53.9556C103.327 53.7384 103.771 53.702 104.22 53.9321C103.775 53.9401 103.331 53.948 102.887 53.9556Z" fill="#11304D"/>
<path fill-rule="evenodd" clip-rule="evenodd" d="M255.271 89.8228C255.308 90.2227 255.344 90.623 255.381 91.0218C255.344 90.6213 255.308 90.2219 255.271 89.8228Z" fill="#11304D"/>
<path fill-rule="evenodd" clip-rule="evenodd" d="M292.488 80.4866C292.261 80.0951 292.269 79.7057 292.499 79.3198C292.495 79.7092 292.492 80.098 292.488 80.4866Z" fill="#11304D"/>
<path fill-rule="evenodd" clip-rule="evenodd" d="M285.547 121.781C286 121.642 286.454 121.445 286.905 121.785C286.452 121.784 286 121.782 285.547 121.781Z" fill="#11304D"/>
<path fill-rule="evenodd" clip-rule="evenodd" d="M139.012 174.274C139.468 174.231 139.924 174.189 140.38 174.146C139.924 174.189 139.468 174.231 139.012 174.274Z" fill="#11304D"/>
<path fill-rule="evenodd" clip-rule="evenodd" d="M76.4609 174.275C76.8789 174.091 77.2959 173.995 77.7076 174.289C77.2918 174.284 76.8765 174.28 76.4609 174.275Z" fill="#11304D"/>
<path fill-rule="evenodd" clip-rule="evenodd" d="M161.941 173.685C162.388 173.49 162.834 173.383 163.275 173.699C162.83 173.695 162.386 173.69 161.941 173.685Z" fill="#11304D"/>
<path fill-rule="evenodd" clip-rule="evenodd" d="M62.4629 115.87C62.4964 116.273 62.5302 116.677 62.5634 117.079C62.5296 116.675 62.4961 116.273 62.4629 115.87Z" fill="#11304D"/>
<path fill-rule="evenodd" clip-rule="evenodd" d="M166.213 92.6275C166.653 92.4676 167.091 92.3842 167.522 92.6513C167.086 92.6431 166.649 92.6355 166.213 92.6275Z" fill="#11304D"/>
<path fill-rule="evenodd" clip-rule="evenodd" d="M269.676 104.639C269.7 105.033 269.725 105.427 269.749 105.821C269.724 105.426 269.7 105.032 269.676 104.639Z" fill="#11304D"/>
<path fill-rule="evenodd" clip-rule="evenodd" d="M62.1793 69.0508C62.1429 69.3685 62.1065 69.6865 62.0703 70.0024C62.1068 69.6841 62.1429 69.3676 62.1793 69.0508Z" fill="#11304D"/>
<path fill-rule="evenodd" clip-rule="evenodd" d="M36.6943 161.183C36.6716 161.493 36.6493 161.802 36.627 162.109C36.6502 161.799 36.6722 161.491 36.6943 161.183Z" fill="#11304D"/>
<path fill-rule="evenodd" clip-rule="evenodd" d="M278.881 106.726C278.856 106.406 278.831 106.086 278.807 105.768C278.831 106.088 278.856 106.407 278.881 106.726Z" fill="#11304D"/>
<path fill-rule="evenodd" clip-rule="evenodd" d="M246.863 173.088C247.255 173.091 247.647 173.094 248.038 173.097C247.646 173.094 247.255 173.091 246.863 173.088Z" fill="#11304D"/>
<path fill-rule="evenodd" clip-rule="evenodd" d="M130.401 114.528C130.474 114.761 130.547 114.994 130.621 115.227C130.132 115.345 130.059 115.112 130.401 114.528Z" fill="#11304D"/>
<path fill-rule="evenodd" clip-rule="evenodd" d="M159.775 92.1012C160.173 92.0994 160.571 92.098 160.969 92.0962C160.572 92.2849 160.174 92.4145 159.775 92.1012Z" fill="#11304D"/>
<path fill-rule="evenodd" clip-rule="evenodd" d="M62.6875 117.779C62.701 118.132 62.7145 118.485 62.7275 118.836C62.7137 118.483 62.7004 118.131 62.6875 117.779Z" fill="#11304D"/>
<path fill-rule="evenodd" clip-rule="evenodd" d="M66.8945 174.661C67.2786 174.661 67.6625 174.66 68.0466 174.66C67.6622 174.66 67.2786 174.661 66.8945 174.661Z" fill="#11304D"/>
<path fill-rule="evenodd" clip-rule="evenodd" d="M256.24 121.499C256.254 121.823 256.269 122.148 256.283 122.471C256.269 122.145 256.255 121.822 256.24 121.499Z" fill="#11304D"/>
<path fill-rule="evenodd" clip-rule="evenodd" d="M58.7402 175.056C59.1179 174.806 59.4964 174.827 59.8755 175.052C59.497 175.054 59.1185 175.055 58.7402 175.056Z" fill="#11304D"/>
<path fill-rule="evenodd" clip-rule="evenodd" d="M68.6855 64.5137C68.7058 64.8452 68.7264 65.177 68.7476 65.5064C68.7273 65.1743 68.7064 64.844 68.6855 64.5137Z" fill="#11304D"/>
<path fill-rule="evenodd" clip-rule="evenodd" d="M56.7773 175.091C57.17 175.092 57.5626 175.094 57.955 175.096C57.5611 175.364 57.1688 175.376 56.7773 175.091Z" fill="#11304D"/>
<path fill-rule="evenodd" clip-rule="evenodd" d="M274.193 59.31C274.197 58.9732 274.2 58.6367 274.202 58.3008C274.199 58.6379 274.196 58.9738 274.193 59.31Z" fill="#11304D"/>
<path fill-rule="evenodd" clip-rule="evenodd" d="M93.9336 53.4209C94.3092 53.47 94.6848 53.5191 95.0601 53.5678C94.6845 53.5188 94.3089 53.47 93.9336 53.4209Z" fill="#11304D"/>
<path fill-rule="evenodd" clip-rule="evenodd" d="M60.793 82.4863C60.798 82.8008 60.803 83.1155 60.8088 83.4285C60.8038 83.1135 60.7986 82.7999 60.793 82.4863Z" fill="#11304D"/>
<path fill-rule="evenodd" clip-rule="evenodd" d="M276.722 82.441C276.701 82.1207 276.681 81.8003 276.66 81.4814C276.681 81.8024 276.702 82.1218 276.722 82.441Z" fill="#11304D"/>
<path fill-rule="evenodd" clip-rule="evenodd" d="M189.123 174.715C189.587 174.757 190.05 174.799 190.513 174.841C190.05 174.799 189.587 174.757 189.123 174.715Z" fill="#11304D"/>
<path fill-rule="evenodd" clip-rule="evenodd" d="M187.573 162.717C187.323 162.721 187.073 162.725 186.824 162.731C187.075 162.727 187.324 162.722 187.573 162.717Z" fill="#11304D"/>
<path fill-rule="evenodd" clip-rule="evenodd" d="M187.594 174.532C187.982 174.57 188.371 174.608 188.76 174.647C188.371 174.608 187.982 174.57 187.594 174.532Z" fill="#11304D"/>
<path fill-rule="evenodd" clip-rule="evenodd" d="M117.641 148.355C118.146 151.213 113.705 154.008 113.353 149.945C113.224 148.46 114.218 147.415 115.33 146.507C116.909 145.218 117.791 146.452 117.641 148.355Z" fill="#11304D"/>
<path fill-rule="evenodd" clip-rule="evenodd" d="M68.6856 113.489C69.7319 113.917 77.7254 116.522 73.5733 117.832C72.4741 118.179 70.8128 118.23 69.86 117.619C68.7138 116.884 67.5577 114.714 68.6856 113.489Z" fill="#11304D"/>
<path fill-rule="evenodd" clip-rule="evenodd" d="M70.6548 74.7884C73.368 74.4734 75.8678 78.9296 72.5228 78.785C70.0879 78.6795 66.8133 74.7884 70.6548 74.7884Z" fill="#11304D"/>
<path fill-rule="evenodd" clip-rule="evenodd" d="M80.3609 85.7139C82.6265 87.6906 78.4271 92.1145 76.7598 90.4023C75.9084 89.5277 76.6937 87.6436 77.3964 86.9118C78.1176 86.1609 79.4007 86.0198 80.3609 85.7139Z" fill="#11304D"/>
<path fill-rule="evenodd" clip-rule="evenodd" d="M87.1052 136.96C85.7677 137.172 79.8858 139.094 81.1125 135.603C81.5804 134.272 82.8852 134.667 84.0781 134.728C86.0008 134.826 87.1052 134.734 87.1052 136.96Z" fill="#11304D"/>
<path fill-rule="evenodd" clip-rule="evenodd" d="M83.2302 145.952C85.2324 147.023 82.3056 153.018 80.646 151.743C78.3433 149.973 81.4927 146.491 83.2302 145.952Z" fill="#11304D"/>
<path fill-rule="evenodd" clip-rule="evenodd" d="M91.9639 141.133C92.9375 140.736 97.5272 145.15 95.78 146.378C94.8846 147.008 93.1879 145.929 92.648 145.278C91.6359 144.058 91.5442 142.553 91.9639 141.133Z" fill="#11304D"/>
<path fill-rule="evenodd" clip-rule="evenodd" d="M65.4855 105.047C66.4806 105.211 68.1987 105.262 68.2631 106.661C68.3195 107.89 66.7786 108.288 65.6939 108.384C64.5683 108.484 63.0783 108.167 63.0568 106.752C63.0342 105.225 65.4502 105.317 65.4855 105.047Z" fill="#11304D"/>
<path fill-rule="evenodd" clip-rule="evenodd" d="M90.0212 165.898C91.0809 166.541 96.0242 168.858 93.9052 170.531C93.1123 171.157 90.7086 169.864 90.1675 169.207C89.5218 168.422 88.8909 166.584 90.0212 165.898Z" fill="#11304D"/>
<path fill-rule="evenodd" clip-rule="evenodd" d="M103.763 149.09C103.61 146.533 107.924 145.515 107.03 149.144C106.777 150.168 106.534 151.721 105.268 151.78C103.773 151.85 103.719 150.081 103.763 149.09Z" fill="#11304D"/>
<path fill-rule="evenodd" clip-rule="evenodd" d="M90.4381 104.626C90.4681 106.566 86.7516 108.276 86.7228 105.202C86.6972 102.455 90.5769 101.651 90.4381 104.626Z" fill="#11304D"/>
<path fill-rule="evenodd" clip-rule="evenodd" d="M87.984 94.5244C88.8998 94.8195 90.1168 94.9714 90.1973 96.1349C90.2829 97.3663 89.139 97.9144 88.1098 97.8454C87.2658 97.7887 86.0167 97.1638 85.8633 96.2481C85.6385 94.9038 86.9504 94.816 87.984 94.5244Z" fill="#11304D"/>
<path fill-rule="evenodd" clip-rule="evenodd" d="M70.9571 130.036C70.9415 128.435 74.149 126.512 74.7398 128.369C74.9287 128.963 73.417 131.628 72.9141 131.827C71.5837 132.356 71.3979 131.125 70.9571 130.036Z" fill="#11304D"/>
<path fill-rule="evenodd" clip-rule="evenodd" d="M97.2398 156.675C96.156 157.645 92.9046 160.371 93.1477 156.712C93.3029 154.375 97.5258 154.497 97.2398 156.675Z" fill="#11304D"/>
<path fill-rule="evenodd" clip-rule="evenodd" d="M150.212 167.131C150.567 165.593 155.654 168.261 153.956 170.204C153.386 170.856 151.897 170.266 151.324 169.88C150.19 169.115 150.166 168.409 150.212 167.131Z" fill="#11304D"/>
<path fill-rule="evenodd" clip-rule="evenodd" d="M121.871 134.204C122.069 133.518 122.29 132.306 122.944 131.868C124.128 131.076 125.159 132.271 125.159 133.529C125.159 135.878 122.486 136.618 121.871 134.204Z" fill="#11304D"/>
<path fill-rule="evenodd" clip-rule="evenodd" d="M109.262 161.659C110.583 161.962 113.524 165.172 111.818 166.482C110.177 167.742 107.994 162.618 109.262 161.659Z" fill="#11304D"/>
<path fill-rule="evenodd" clip-rule="evenodd" d="M110.519 137.357C112.217 137.493 114.551 140.243 111.912 140.68C109.847 141.022 107.446 138.031 110.519 137.357Z" fill="#11304D"/>
<path fill-rule="evenodd" clip-rule="evenodd" d="M125.892 150.012C126.318 148.578 130.53 150.115 130.293 151.694C130.167 152.534 128.445 152.731 127.54 152.509C126.208 152.182 125.862 151.308 125.892 150.012Z" fill="#11304D"/>
<path fill-rule="evenodd" clip-rule="evenodd" d="M76.2504 69.8957C76.2809 68.0413 79.8444 67.2854 80.1053 69.1542C80.3413 70.8426 76.2057 72.6392 76.2504 69.8957Z" fill="#11304D"/>
<path fill-rule="evenodd" clip-rule="evenodd" d="M124.715 169.12C124.972 168.188 125.082 167.066 126.247 166.943C127.581 166.802 127.541 167.825 127.385 168.884C126.958 171.768 125.329 171.912 124.715 169.12Z" fill="#11304D"/>
<path fill-rule="evenodd" clip-rule="evenodd" d="M68.4412 91.9597C66.5835 92.3788 63.1812 88.801 65.2607 88.0333C66.7261 87.4917 68.4412 90.8802 68.4412 91.9597Z" fill="#11304D"/>
<path fill-rule="evenodd" clip-rule="evenodd" d="M92.1384 119.751C91.193 120.197 90.9752 120.467 90.249 119.736C89.6166 119.1 89.6445 117.327 90.1873 116.665C92.2663 114.131 92.2175 118.726 92.1384 119.751Z" fill="#11304D"/>
<path fill-rule="evenodd" clip-rule="evenodd" d="M99.8505 114.61C100.837 114.736 103.766 117.515 102.241 118.619C100.371 119.972 99.3136 115.734 99.8505 114.61Z" fill="#11304D"/>
<path fill-rule="evenodd" clip-rule="evenodd" d="M121.184 115.342C120.467 118.102 118.678 116.245 118.78 114.157C118.942 110.812 120.796 113.725 121.184 115.342Z" fill="#11304D"/>
<path fill-rule="evenodd" clip-rule="evenodd" d="M132.061 159.669C133.274 160.171 134.92 164.806 133.188 165.054C131.243 165.333 131.89 160.634 132.061 159.669Z" fill="#11304D"/>
<path fill-rule="evenodd" clip-rule="evenodd" d="M116.918 157.065C118.305 156.596 118.814 159.523 118.007 160.067C116.233 161.263 116.607 157.755 116.918 157.065Z" fill="#11304D"/>
<path fill-rule="evenodd" clip-rule="evenodd" d="M103.764 149.089C103.746 149.478 103.729 149.866 103.711 150.253C103.728 149.863 103.746 149.476 103.764 149.089Z" fill="#11304D"/>
<path fill-rule="evenodd" clip-rule="evenodd" d="M150.21 167.131C150.195 167.529 150.181 167.928 150.166 168.324C150.18 167.925 150.195 167.528 150.21 167.131Z" fill="#11304D"/>
<path fill-rule="evenodd" clip-rule="evenodd" d="M125.894 150.012C125.886 150.35 125.878 150.688 125.869 151.024C125.877 150.685 125.886 150.349 125.894 150.012Z" fill="#11304D"/>
<path fill-rule="evenodd" clip-rule="evenodd" d="M279.364 144.196C282.241 144.104 285.45 143.021 288.276 143.365C289.055 143.46 290.846 143.656 289.599 144.81C289.003 145.362 286.148 145.077 285.284 145.26C280.003 146.378 274.007 147.099 268.592 147.006C266.057 146.963 263.503 146.76 260.969 146.626C258.437 146.492 258.188 145.463 261.037 145.135C263.996 144.796 267.033 144.922 270.007 144.918C273.133 144.914 276.244 144.404 279.364 144.196Z" fill="#11304D"/>
<path fill-rule="evenodd" clip-rule="evenodd" d="M285.677 137.265C285.4 138.053 285.157 139.862 284.096 139.981C282.61 140.147 282.364 137.596 282.419 136.663C282.485 135.537 282.891 133.666 284.29 134.056C285.473 134.385 285.591 136.364 285.677 137.265Z" fill="#11304D"/>
<path fill-rule="evenodd" clip-rule="evenodd" d="M276.682 136.688C276.899 135.844 277.006 133.941 278.199 133.876C279.534 133.804 279.915 135.787 279.906 136.737C279.897 137.639 279.564 139.343 278.501 139.551C277.061 139.833 276.932 137.652 276.682 136.688Z" fill="#11304D"/>
<path fill-rule="evenodd" clip-rule="evenodd" d="M261.702 138.202C261.27 139.217 260.984 140.614 259.646 139.922C258.611 139.387 258.467 137.23 258.662 136.242C258.864 135.219 259.293 134.045 260.468 134.505C261.824 135.036 261.687 137.085 261.702 138.202Z" fill="#11304D"/>
<path fill-rule="evenodd" clip-rule="evenodd" d="M273.046 137.265C271.771 141.13 269.445 138.515 270.328 135.629C271.251 132.612 272.929 135.542 273.046 137.265Z" fill="#11304D"/>
<path fill-rule="evenodd" clip-rule="evenodd" d="M266.833 137.456C266.479 138.137 266.102 139.605 265.148 139.451C263.977 139.261 263.94 137.009 264.068 136.17C264.18 135.436 264.51 134.212 265.489 134.228C266.905 134.251 266.81 136.575 266.833 137.456Z" fill="#11304D"/>
<path fill-rule="evenodd" clip-rule="evenodd" d="M292.271 138.199C291.322 140.329 290.016 138.494 290.434 136.981C291.054 134.738 292.217 136.725 292.271 138.199Z" fill="#11304D"/>
<path fill-rule="evenodd" clip-rule="evenodd" d="M269.022 144.921C267.986 144.916 266.949 144.913 265.912 144.909C266.95 144.713 267.987 144.637 269.022 144.921Z" fill="#11304D"/>
<path fill-rule="evenodd" clip-rule="evenodd" d="M289.627 143.357C288.727 143.362 287.828 143.368 286.93 143.374C287.827 143.105 288.726 143.099 289.627 143.357Z" fill="#11304D"/>
<path fill-rule="evenodd" clip-rule="evenodd" d="M279.362 144.195C278.642 144.244 277.923 144.292 277.203 144.34C277.923 144.292 278.642 144.244 279.362 144.195Z" fill="#11304D"/>
<path fill-rule="evenodd" clip-rule="evenodd" d="M261.701 138.202C261.695 137.685 261.688 137.169 261.682 136.653C261.948 137.167 261.929 137.683 261.701 138.202Z" fill="#11304D"/>
<path fill-rule="evenodd" clip-rule="evenodd" d="M267.34 146.995C267.757 146.999 268.174 147.002 268.588 147.006C268.17 147.002 267.755 146.999 267.34 146.995Z" fill="#11304D"/>
<path fill-rule="evenodd" clip-rule="evenodd" d="M263.798 144.965C263.21 145.014 262.623 145.062 262.035 145.11C262.623 145.062 263.21 145.014 263.798 144.965Z" fill="#11304D"/>
<path fill-rule="evenodd" clip-rule="evenodd" d="M271.747 144.914C271.166 144.916 270.586 144.917 270.006 144.918C270.586 144.673 271.166 144.666 271.747 144.914Z" fill="#11304D"/>
<path fill-rule="evenodd" clip-rule="evenodd" d="M266.831 137.456C266.817 136.918 266.803 136.38 266.789 135.842C266.803 136.38 266.817 136.919 266.831 137.456Z" fill="#11304D"/>
<path fill-rule="evenodd" clip-rule="evenodd" d="M258.663 136.242C258.66 136.767 258.656 137.293 258.652 137.816C258.656 137.29 258.659 136.766 258.663 136.242Z" fill="#11304D"/>
<path fill-rule="evenodd" clip-rule="evenodd" d="M282.66 144C282.146 144.047 281.634 144.093 281.121 144.14C281.634 144.093 282.147 144.047 282.66 144Z" fill="#11304D"/>
<path fill-rule="evenodd" clip-rule="evenodd" d="M292.27 138.198C292.254 137.74 292.237 137.281 292.221 136.823C292.237 137.282 292.254 137.74 292.27 138.198Z" fill="#11304D"/>
<path fill-rule="evenodd" clip-rule="evenodd" d="M270.443 147.01C270.8 147.004 271.158 146.997 271.511 146.991C271.153 146.998 270.798 147.004 270.443 147.01Z" fill="#11304D"/>
<path fill-rule="evenodd" clip-rule="evenodd" d="M285.676 137.265C285.645 136.935 285.613 136.605 285.582 136.277C285.613 136.607 285.645 136.936 285.676 137.265Z" fill="#11304D"/>
<path fill-rule="evenodd" clip-rule="evenodd" d="M273.048 137.265C273.025 136.927 273.001 136.588 272.979 136.25C273.002 136.589 273.025 136.927 273.048 137.265Z" fill="#11304D"/>
<path fill-rule="evenodd" clip-rule="evenodd" d="M88.8828 37.7745C87.4783 37.406 87.215 35.4322 87.4407 34.2199C87.6967 33.6356 87.9526 33.0517 88.2086 32.4674C88.1084 32.2514 88.0085 32.0354 87.9086 31.8194C88.037 30.6162 87.7087 30.0934 89.0915 30.5806C91.6601 31.4864 92.0706 37.6816 88.8828 37.7745Z" fill="#11304D"/>
<path fill-rule="evenodd" clip-rule="evenodd" d="M109.675 33.958C110.832 33.8669 112.933 35.2144 111.782 36.5181C111.068 37.3257 108.717 36.9436 107.757 37.1123C106.485 37.336 105.158 37.6419 105.846 35.7363C106.387 34.2398 108.317 33.9189 109.675 33.958Z" fill="#11304D"/>
<path fill-rule="evenodd" clip-rule="evenodd" d="M108.457 42.9217C107.282 41.9792 107.806 37.6863 109.595 38.4587C111.435 39.2536 109.438 42.3022 108.457 42.9217Z" fill="#11304D"/>
<path fill-rule="evenodd" clip-rule="evenodd" d="M87.4398 34.2192C87.4398 34.6709 87.4395 35.123 87.4386 35.5726C87.1935 35.12 87.2012 34.6695 87.4398 34.2192Z" fill="#11304D"/>
<path fill-rule="evenodd" clip-rule="evenodd" d="M88.8828 37.7739C89.1223 37.7671 89.3621 37.7601 89.5987 37.7539C89.358 37.7615 89.1206 37.7677 88.8828 37.7739Z" fill="#11304D"/>
<path fill-rule="evenodd" clip-rule="evenodd" d="M234.001 161.405C233.891 163.357 231.794 161.914 231.943 160.607C232.213 158.237 233.554 160.579 234.001 161.405Z" fill="#11304D"/>
</svg>
