<svg width="91" height="91" viewBox="0 0 91 91" fill="none" xmlns="http://www.w3.org/2000/svg">
<g clip-path="url(#clip0)">
<path d="M45.4078 0.867188C44.4184 0.867188 43.4403 0.900916 42.4678 0.962751L42.8275 6.57288C44.5459 6.46182 46.2696 6.46182 47.988 6.57288L48.3477 0.962751C47.369 0.899292 46.3885 0.867421 45.4078 0.867188V0.867188ZM36.6384 1.72164C34.6934 2.10951 32.7934 2.62105 30.9496 3.23941L32.7541 8.56846C34.3674 8.01757 36.0257 7.57348 37.7233 7.2362L36.6384 1.72726V1.72164ZM59.8659 3.24503C58.0069 2.61478 56.1084 2.10776 54.1827 1.72726L53.0922 7.2362C54.7898 7.57348 56.4481 8.02319 58.0615 8.56846L59.8659 3.24503ZM70.3947 8.44479C68.7632 7.35281 67.0619 6.36884 65.3018 5.4992L62.8115 10.5359C64.3574 11.3005 65.8471 12.1661 67.2693 13.1162L70.3947 8.44479ZM25.5081 5.4992C23.743 6.37051 22.0453 7.35425 20.4208 8.44479L23.5462 13.1105C24.975 12.1569 26.464 11.2969 28.004 10.5359L25.5081 5.4992ZM15.755 12.0256C14.2822 13.3185 12.8881 14.7126 11.5952 16.1854L15.8225 19.8955C16.958 18.6026 18.1722 17.3884 19.4651 16.2529L15.755 12.0256ZM79.2203 16.1854C77.9253 14.7101 76.5358 13.3206 75.0605 12.0256L71.3504 16.2529C72.6433 17.3884 73.8631 18.6026 74.993 19.8955L79.2203 16.1854ZM85.7467 25.9385C84.8771 24.1801 83.8932 22.4807 82.8011 20.8512L78.1354 23.9766C79.0854 25.3988 79.9454 26.8885 80.71 28.4344L85.7467 25.9441V25.9385ZM8.0144 20.8512C6.92386 22.4757 5.9345 24.1734 5.06881 25.9441L10.1056 28.4344C10.8701 26.8885 11.7358 25.3988 12.6858 23.9766L8.0144 20.8512ZM2.81464 31.38C2.18437 33.239 1.67735 35.1375 1.29687 37.0632L6.80581 38.1537C7.14309 36.4561 7.5928 34.7978 8.13807 33.1844L2.81464 31.38ZM89.5243 37.0688C89.1441 35.1412 88.637 33.2408 88.0065 31.38L82.6774 33.1844C83.2283 34.7978 83.6724 36.4561 84.0097 38.1537L89.5186 37.0632L89.5243 37.0688ZM0.532361 42.8982C0.40588 44.8561 0.40588 46.8202 0.532361 48.7781L6.14249 48.4184C6.03143 46.7 6.03143 44.9763 6.14249 43.2579L0.532361 42.8982ZM90.3787 45.8381C90.3785 44.8574 90.3467 43.8769 90.2831 42.8982L84.673 43.2579C84.7842 44.9763 84.7842 46.7 84.673 48.4184L90.2831 48.7781C90.3467 47.7994 90.3785 46.8189 90.3787 45.8381ZM1.29125 54.6075C1.67912 56.5525 2.19066 58.4525 2.80902 60.2963L8.13807 58.4919C7.58519 56.8665 7.14014 55.2065 6.80581 53.5226L1.29687 54.6131L1.29125 54.6075ZM88.0009 60.2963C88.6305 58.4525 89.1364 56.5525 89.5186 54.6131L84.0097 53.5226C83.6724 55.2202 83.2227 56.8785 82.6774 58.4919L88.0009 60.2963ZM5.06881 65.7378C5.93867 67.496 6.92263 69.1954 8.0144 70.8251L12.6801 67.6997C11.7256 66.2715 10.8655 64.7824 10.1056 63.2419L5.06881 65.7322V65.7378ZM82.8011 70.8251C83.8917 69.2006 84.881 67.5029 85.7467 65.7322L80.71 63.2419C79.9454 64.7878 79.0798 66.2774 78.1298 67.6997L82.8011 70.8251ZM11.5952 75.4909C12.8881 76.9637 14.2822 78.3578 15.755 79.6507L19.4651 75.4234C18.1732 74.2895 16.9564 73.0727 15.8225 71.7808L11.5952 75.4909ZM75.0605 79.6507C76.5333 78.3578 77.9274 76.9637 79.2203 75.4909L74.993 71.7808C73.8631 73.0737 72.6433 74.2935 71.3504 75.4234L75.0605 79.6507ZM65.3074 86.1771C67.0725 85.3058 68.7702 84.322 70.3947 83.2315L67.2693 78.5658C65.8405 79.5194 64.3515 80.3794 62.8115 81.1404L65.3018 86.1771H65.3074ZM20.4208 83.2315C22.0453 84.322 23.743 85.3114 25.5137 86.1771L28.004 81.1404C26.4633 80.3786 24.9742 79.5167 23.5462 78.5601L20.4208 83.2315ZM30.9496 88.4313C32.7934 89.0609 34.6934 89.5668 36.6328 89.949L37.7233 84.4401C36.0395 84.1056 34.3794 83.6606 32.7541 83.1078L30.9496 88.4313ZM54.1771 89.9547C56.1047 89.5744 58.0051 89.0674 59.8659 88.4369L58.0615 83.1078C56.4361 83.6606 54.7761 84.1056 53.0922 84.4401L54.1827 89.949L54.1771 89.9547ZM42.4678 90.7135C44.4257 90.8402 46.3898 90.8402 48.3477 90.7135L47.988 85.1034C46.2696 85.2146 44.5459 85.2146 42.8275 85.1034L42.4678 90.7135ZM48.2184 26.1634C48.2184 25.4179 47.9223 24.703 47.3952 24.1759C46.8681 23.6488 46.1532 23.3527 45.4078 23.3527C44.6623 23.3527 43.9474 23.6488 43.4203 24.1759C42.8932 24.703 42.5971 25.4179 42.5971 26.1634V43.0275H25.733C24.9875 43.0275 24.2726 43.3236 23.7455 43.8507C23.2184 44.3778 22.9223 45.0927 22.9223 45.8381C22.9223 46.5836 23.2184 47.2985 23.7455 47.8256C24.2726 48.3527 24.9875 48.6488 25.733 48.6488H42.5971V65.5129C42.5971 66.2584 42.8932 66.9733 43.4203 67.5004C43.9474 68.0275 44.6623 68.3236 45.4078 68.3236C46.1532 68.3236 46.8681 68.0275 47.3952 67.5004C47.9223 66.9733 48.2184 66.2584 48.2184 65.5129V48.6488H65.0826C65.828 48.6488 66.5429 48.3527 67.07 47.8256C67.5971 47.2985 67.8932 46.5836 67.8932 45.8381C67.8932 45.0927 67.5971 44.3778 67.07 43.8507C66.5429 43.3236 65.828 43.0275 65.0826 43.0275H48.2184V26.1634Z" fill="#5C768E"/>
</g>
<defs>
<clipPath id="clip0">
<rect x="0.4375" y="0.867188" width="89.9419" height="89.9419" rx="10" fill="white"/>
</clipPath>
</defs>
</svg>
