<svg width="591" height="625" viewBox="0 0 591 625" fill="none" xmlns="http://www.w3.org/2000/svg">
<path fill-rule="evenodd" clip-rule="evenodd" d="M274.422 85.6623C326.108 100.887 357.884 160.659 405.09 186.65C462.894 218.476 551.542 195.133 580.76 254.327C609.497 312.547 564.92 380.796 536.332 439.089C511.279 490.174 475.122 533.595 428.104 565.601C382.29 596.788 328.984 607.726 274.422 617.379C207.373 629.241 117.739 632.556 68.4563 585.543C17.243 536.688 80.0417 490.747 68.4563 420.899C59.5205 367.024 15.4373 324.531 16.0473 269.923C16.8196 200.785 16.0461 115.691 72.3141 75.5631C128.623 35.4063 208.09 66.1239 274.422 85.6623Z" fill="#C9FFFF"/>
<path fill-rule="evenodd" clip-rule="evenodd" d="M141.092 129.031C140.458 138.584 139.824 148.136 139.191 157.689C143.266 156.606 169.186 149.569 167.585 156.704C166.436 161.822 159.149 167.358 155.436 170.921C152.019 174.202 148.5 177.397 144.892 180.498C151.524 178.156 158.211 175.937 164.946 173.862C170.043 172.291 175.177 170.759 180.399 169.582C182.337 169.144 187.571 167.361 189.402 168.577C194.214 171.773 168.105 195.31 164.529 198.628C169.586 196.458 174.765 194.486 180.031 192.794C183.834 191.573 195.582 186.905 198.946 190.892C202.548 195.156 193.625 204.949 191.15 208.054C187.605 212.503 183.763 216.771 179.731 220.853C196.487 234.74 216.179 247.102 237.135 254.784C252.5 260.418 267.594 261.852 283.807 258.761C300.464 255.585 316.438 249.493 331.624 242.529C340.542 238.438 349.343 234.012 357.727 229.04C354.27 225.16 350.915 221.2 347.654 217.179C343.001 211.438 337.281 205.165 334.628 198.331C332.031 191.642 341.774 192.948 346.446 193.311C353.214 193.837 359.963 194.953 366.595 196.289C361.906 193.279 357.301 190.149 352.79 186.918C346.91 182.706 339.066 177.944 335.217 171.885C331.833 166.558 339.261 167.903 342.696 168.601C350.885 170.266 358.853 173.102 366.664 175.869C372.383 177.896 378.069 180.018 383.698 182.253C380.204 179.45 376.826 176.512 373.581 173.467C369.217 169.374 363.334 164.374 361.378 158.738C357.394 147.258 384.19 155.917 388.765 157.689C387.92 145.797 387.076 133.905 386.231 122.014C350.75 130.725 315.269 139.438 279.788 148.151C275.953 149.093 271.155 151.143 267.156 151.252C263.534 151.353 259.159 149.847 255.628 149.225L191.421 137.905C174.644 134.947 157.868 131.989 141.092 129.031Z" fill="#FC8BA9"/>
<path fill-rule="evenodd" clip-rule="evenodd" d="M522.437 538.052C518.606 540.075 514.119 541.637 509.864 542.684C507.364 543.3 503.235 545.201 501.039 543.459C499.985 542.623 499.744 540.722 499.121 539.621C498.137 537.878 496.738 536.372 495.427 534.832C492.25 531.098 488.944 527.495 485.485 523.982C483.846 522.318 480.852 518.432 477.964 518.687C474.364 519.006 474.45 523.603 475.353 525.953C478.225 533.431 486.92 539.951 492.6 545.586C491.156 547.636 483.225 547.392 481.023 546.912C477.66 546.18 477.32 543.97 475.785 541.443C472.196 535.537 464.915 532.233 458.929 528.761C456.747 527.493 452.109 523.985 449.265 524.868C446.57 525.705 446.687 528.882 447.545 530.956C448.841 534.092 452.53 536.266 455.258 538.248C458.896 540.89 462.222 543.764 465.253 546.997C460.884 547.326 456.53 547.895 452.173 548.226C446.902 548.627 442.509 545.959 437.657 544.446C433.149 543.04 428.656 541.851 424.223 540.232C419.246 538.413 414.032 537.78 409.011 536.183C389.306 529.922 369.999 522.045 351.011 514.106C341.963 510.322 333.102 506.537 323.674 503.576C316.803 501.418 306.007 497.117 304.364 489.566C303.497 485.575 306.656 481.284 307.122 477.298C307.668 472.607 307.238 467.447 305.69 462.947C304.324 458.983 302.063 455.312 300.281 451.506C298.204 447.07 300.064 447.142 304.097 446.638C308.925 446.034 314.56 443.526 319.098 441.892C324.325 440.009 329.508 437.38 334.296 434.675C338.626 432.23 342.394 429.077 345.842 425.653C349.349 422.171 351.62 418.043 355.01 414.475C367.524 428.676 379.418 443.094 392.716 456.681C398.991 463.095 405.816 468.397 413.55 473.274C416.779 475.311 419.983 477.637 423.501 479.247C427.901 481.262 432.82 482.512 437.342 484.351C454.681 491.401 471.229 499.107 487.405 508.204C495.231 512.604 501.798 517.649 508.689 523.168C510.834 524.887 528.403 534.902 522.437 538.052ZM319.037 421.711C316.235 422.882 313.564 424.403 310.575 425.155C311.422 420.397 316.234 413.22 322.403 414.009C324.761 414.311 326.538 416 325.503 418.328C324.561 420.444 321.033 420.877 319.037 421.711ZM123.998 292.651C120.822 294.269 117.862 295.211 115.999 291.738C117.379 291.482 123.646 290.711 123.998 292.651ZM118.71 282.83C116.254 282.143 118.218 281.421 119.062 280.592C119.72 279.947 121.899 277.684 122.662 277.31C126.029 275.664 128.632 281.788 130.242 283.777C126.43 283.463 122.42 283.869 118.71 282.83ZM144.957 304.035C140.304 304.764 140.82 299.391 140.959 296.67C141.941 297.775 148.585 303.469 144.957 304.035ZM160.377 294.757C154.704 295.64 150.956 286.597 151.973 282.641C152.867 279.156 157.263 277.21 160.764 276.696C164.155 276.198 168.878 276.878 169.886 280.488C170.776 283.678 164.157 294.168 160.377 294.757ZM294.656 431.281C290.579 432.437 286.585 432.583 282.488 433.718C277.839 435.005 273.536 434.891 268.878 435.767C266.983 436.123 261.871 438.671 260.022 438.102C258.191 437.538 255.541 432.294 254.489 430.931C262.73 427.77 269.761 423.688 275.193 417.027C279.512 411.73 284.145 403.795 281.427 396.958C278.362 389.25 267.798 387.577 260.754 390.797C257.422 392.319 254.119 394.212 251.371 396.532C248.23 399.185 246.994 402.081 244.959 405.352C242.901 408.661 241.457 406.82 239.4 404.01C237.643 401.609 237.872 399.184 235.676 396.814C234.556 395.605 232.821 394.438 232.236 392.876C231.865 391.886 232.646 390.131 231.943 389.351C230.955 388.256 229.752 389.543 228.923 388.565C228.322 387.855 228.519 386.236 227.897 385.347C227.358 384.842 226.759 384.411 226.096 384.052C225.291 383.686 225.145 383.227 225.655 382.676C225.016 381.583 225.631 381.215 224.262 379.886C222.128 377.814 220.181 375.829 218.661 373.384C217.967 372.265 218.036 370.605 217.173 369.637C215.989 368.307 214.016 368.506 212.998 366.86C212.092 365.393 212.698 362.828 211.203 361.496C210.415 361.288 209.625 361.084 208.836 360.883C208.242 360.351 207.896 359.705 207.798 358.946C206.967 357.765 206.802 356.379 205.753 355.132C203.746 352.748 201.047 350.545 199.274 348.032C197.41 345.389 198.398 344.945 201.635 343.999C204.555 343.145 207.221 342.353 209.928 340.9C222.44 334.181 234.302 316.358 214.442 310.913C207.072 308.892 201.018 303.458 192.846 305.594C189.303 306.521 185.943 308.491 183.3 310.831C181.474 312.449 179.783 316.774 177.541 317.602C173.51 319.092 175.214 315.37 174.07 313.661C173.523 312.845 171.325 311.904 170.51 311.161C169.554 310.291 168.629 309.191 167.965 308.114C166.732 306.115 165.978 305.001 164.2 303.373C163.531 302.759 160.185 299.584 163.202 299.999C161.98 296.562 163.763 296.045 166.228 293.534C169.123 290.586 172.111 286.489 172.128 282.358C172.162 274.426 161.976 270.872 155.578 275.58C154.277 276.538 146.577 285.786 148.153 279.888C149.002 276.708 156.867 268.403 160.512 270.552C156.427 265.057 147.041 278.399 144.85 281.129C142.985 277.96 142.853 275.481 139.766 273.027C137.254 276.746 138.58 272.682 138.026 271.856C136.83 270.071 137.487 272.112 136.838 271.478C136.03 270.689 134.758 270.066 133.898 269.021C132.425 270.865 133.013 268.881 132.562 268.193C131.507 266.581 131.915 265.649 130.107 264.248C128.79 263.23 126.198 261.648 124.426 261.503C122.384 261.336 121.819 262.058 119.738 261.524C117.09 260.845 113.759 259.801 115.04 263.887C115.971 266.856 119.754 268.544 120.582 271.577C121.416 274.631 118.144 277.709 116.557 280.212C114.518 283.424 112.851 283.162 109.158 283.886C106.797 284.349 103.647 285.339 105.672 287.981C107.117 289.869 110.505 289.471 112.413 290.589C115.088 292.157 115.051 296.022 118.467 296.695C122.229 297.435 124.383 293.571 127.555 292.637C129.81 291.974 136.797 292.047 138.571 293.611C140.99 295.739 138.9 299.807 139.509 302.451C140.414 306.374 143.29 306.613 146.927 306.739C151.404 306.893 152.978 310.86 155.385 314.007C161.025 321.376 165.927 329.233 171.704 336.505C174.261 339.725 178.002 342.589 180.096 346.084C182.681 350.399 179.092 352.888 175.994 355.986C171.946 360.033 168.924 364.639 165.413 369.064C162.294 372.995 158.416 372.016 153.431 372.016C154.541 369.903 155.878 368.585 158.612 368.841C155.753 365.621 153.468 369.305 151.614 371.344C148.931 374.296 145.435 375.008 141.989 376.948C140.77 377.634 134.131 382.085 136.148 383.604C136.377 383.776 147.368 377.105 148.619 376.493C148.619 378.956 148.035 381.515 148.41 383.964C148.684 385.759 150.052 387.632 149.76 389.501C149.208 393.025 144.271 395.801 142.153 398.548C140.557 400.614 140.942 402.245 140.131 404.463C139.39 406.487 139.779 405.875 137.934 406.5C134.178 407.774 127.855 407.087 124.453 405.276C122.342 404.153 120.723 402.376 119.008 400.812C117.716 399.631 114.466 397.616 114.107 395.965C113.491 393.121 119.607 387.84 120.818 384.907C124.236 376.631 118.374 370.199 109.251 369.729C112.063 367.728 115.548 369.235 118.511 369.999C113.445 363.521 104.792 368.852 100.494 373.254C97.5578 366.405 96.142 359.179 94.3483 352.036C93.1265 347.172 88.4753 338.491 90.5499 333.484C91.5527 331.063 94.3842 329.713 96.3422 328.034C98.5677 326.127 100.474 323.846 102.1 321.484C105.933 315.922 108.147 308.901 102.869 303.419C104.472 303.175 106.076 302.933 107.68 302.689C105.072 300.428 100.957 301.529 97.5722 300.859C95.4247 300.433 89.2446 300.709 87.8109 299.588C86.0863 298.239 87.1915 292.034 87.2534 290.198C87.3953 285.906 87.784 281.78 88.2975 277.514C88.7841 273.484 88.6862 269.13 89.5885 265.171C90.321 261.959 92.6623 260.98 95.3637 259.087C101.82 254.56 107.082 249.053 104.877 241.251C105.658 241.137 106.439 241.022 107.22 240.908C104.694 239.222 101.425 239.835 98.6153 238.944C101.195 232.242 106.902 220.461 116.169 219.826C116.488 222.822 116.27 226.385 118.46 228.866C120.954 231.689 125.331 231.974 128.71 230.48C131.775 229.123 134.653 226.249 136.066 223.409C137.022 221.486 136.85 218.235 138.527 216.712C140.777 214.668 156.291 215.901 155.816 219.351C155.536 221.378 151.388 224.787 150.229 226.585C148.106 229.875 146.408 233.433 145.629 237.211C144.446 242.949 145.131 250.523 151.445 253.539C158.626 256.97 167.377 252.608 173.267 248.839C176.5 246.769 179.633 244.485 182.586 242.086C184.16 240.81 185.741 239.495 187.128 238.044C188.152 236.972 188.97 235.244 190.231 234.442C193.208 232.546 196.127 235.762 198.647 237.387C202.751 240.033 206.835 242.546 211.241 244.749C220.181 249.217 228.355 255.137 236.26 261.014C244.21 266.927 252.409 273.009 258.849 280.375C254.948 282.589 255.644 283.164 253.909 287.114C252.677 289.917 250.98 292.303 250.785 295.417C250.446 300.792 254.185 305.372 259.861 306.563C263.035 307.228 266.059 306.695 268.999 305.497C271.285 304.567 273.562 302.276 275.95 301.707C280.389 300.65 283.94 308.388 286.428 311.113C297.477 323.217 309.157 334.843 319.562 347.441C320.714 348.836 324.137 351.562 324.415 353.409C324.815 356.063 320.292 358.591 318.416 360.112C317.431 360.91 306.984 369.977 310.492 371.419C311.492 371.83 314.419 366.266 315.15 365.79C317.89 364.009 315.818 367.501 315.655 369.266C315.246 373.653 318.512 376.044 323.103 375.487C328.002 374.894 332.362 371.326 335.394 367.955C339.192 372.015 345.131 378.153 346.229 383.577C346.931 387.041 343.682 395.521 349.747 396.228C350.672 396.336 354.023 394.042 354.648 395.344C355.168 396.431 351.547 398.289 351.024 398.649C348.793 400.186 347.444 401.833 345.642 403.695C343.527 405.882 340.637 407.723 338.257 409.817C335.749 412.023 330.789 418.016 327.481 415.122C325.818 413.666 326.256 411.764 323.592 410.91C321.166 410.132 318.093 411.118 315.84 411.981C313.302 412.951 304.945 416.493 304.017 419.41C302.738 423.432 309.646 418.597 310.874 417.89C309.473 421.171 308.699 425.921 305.132 427.834C302.169 429.424 297.906 430.359 294.656 431.281ZM247.282 406.467C249.654 399.433 263.641 386.891 272.481 390.814C262.179 392.806 254.003 399.312 247.282 406.467ZM252.513 426.612C249.065 424.839 249.251 419.689 248.048 416.676C247.357 414.948 245.975 413.685 246.382 411.767C246.857 409.518 249.966 407.018 251.62 405.397C256.827 400.291 265.991 393.315 274.373 394.486C285.041 395.975 277.809 409.193 274.176 413.743C271.08 417.623 259.15 430.025 252.513 426.612ZM227.625 418.009C216.088 417.298 204.591 416.346 193.211 414.392C189.177 413.699 185.797 413.801 188.105 409.521C188.867 408.108 193.462 399.254 194.5 399.508C195.115 399.658 194.975 405.744 195.156 406.441C195.971 409.575 198.258 412.494 202.115 412.295C208.425 411.97 212.492 404.442 215.815 400.401C218.476 403.703 220.403 407.372 223.078 410.618C224.358 412.171 228.809 415.782 227.625 418.009ZM159.987 376.219C158.052 380.318 154.159 384.216 151.451 387.929C149.921 384.939 148.844 378.075 152.475 375.864C153.849 375.028 161.211 373.627 159.987 376.219ZM200.001 388.424C200.533 386.846 201.123 385.281 201.781 383.744C202.909 387.023 203.487 387.12 200.001 388.424ZM209.876 391.781C211.276 393.971 213.611 396.125 213.244 398.876C212.967 400.961 210.925 403.096 209.467 404.549C207.054 406.951 201.709 411.564 198.213 408.373C195.293 405.708 196.31 398.379 197.668 395.381C199.607 391.096 206.538 386.564 209.876 391.781ZM203.024 387.293C203.827 386.999 202.141 382.218 203.706 381.742C205.07 384.614 206.357 385.391 203.024 387.293ZM180.979 322.956C180.459 321.193 179.267 321.266 179.696 319.086C179.978 317.656 181.208 316.129 182.141 314.997C184 312.739 186.453 310.877 189.105 309.468C194.704 306.494 202.392 305.259 207.405 309.915C202.719 310.597 188.352 314.866 188.261 320.781C193.472 319.855 197.571 315.024 202.797 313.502C207.088 312.252 211.74 312.34 216.008 313.66C227.69 317.27 222.832 326.588 216.238 332.639C212.324 336.233 207.631 338.915 202.5 340.767C200.126 341.624 198.668 341.718 196.334 341.287C195.897 341.207 195.386 340.459 194.862 340.298C193.559 339.9 193.937 341.249 192.865 340.643C191.928 340.115 189.932 336.706 189.295 335.729C188.282 334.176 187.809 332.666 186.565 331.248C185.32 329.829 184.714 327.927 183.562 326.643C183.009 326.025 181.493 326.05 181.086 325.448C180.475 324.543 181.253 323.882 180.979 322.956ZM163.038 392.445C165.693 388.188 170.236 384.573 173.751 380.853C173.966 386.968 169.214 391.156 163.038 392.445ZM166.626 394.411C172.109 392.63 175.13 388.371 175.69 383.206C176.4 376.664 180.851 373.231 183.531 367.354C184.559 365.101 185.756 357.69 189.739 359.811C191.106 360.539 191.917 363.276 192.628 364.512C194.351 367.502 196.31 370.402 198.137 373.338C199.625 375.73 201.855 378.134 201.198 381.013C200.626 383.522 198.784 386.196 197.705 388.563C195.158 394.152 191.812 399.301 189.017 404.767C187.889 406.973 186.554 412.194 183.11 412.167C180.385 412.146 180.689 409.396 178.895 408.454C176.63 407.264 174.054 409.528 172.193 410.467C174.336 407.127 178.082 405.237 182.293 405.866C177.251 401.232 173.844 407.484 169.517 408.876C165.417 410.196 158.143 403.974 154.691 402.21C156.012 400.146 157.205 397.623 159.476 396.265C161.63 394.976 164.274 395.174 166.626 394.411ZM122.046 436.753C122.646 434.085 124.343 432.508 125.418 430.085C126.665 433.023 123.745 434.756 122.046 436.753ZM209.165 453.124C208.87 462.108 208.075 471.068 207.788 480.055C207.656 484.199 206.86 488.152 206.333 492.249C205.886 495.713 206.113 499.116 203.751 502.075C200.025 506.741 192.781 508.082 187.158 509.811C183.028 511.08 178.851 512.232 174.772 513.642C171.102 514.911 168.145 516.833 164.655 518.342C161.534 519.692 158.165 520.491 155.058 521.929C151.844 523.417 149.304 525.229 146.003 526.553C142.051 528.138 138.795 530.958 135.28 533.196C132.187 535.167 128.913 536.689 126.252 539.167C123.756 541.492 120.597 542.512 117.769 544.577C114.778 546.761 111.648 548.18 108.344 549.893C101.576 553.403 92.4451 559.396 84.2998 555.987C86.6295 553.241 91.3974 550.603 91.7601 546.82C92.2314 541.892 87.5838 543.706 84.8923 545.28C80.8157 547.663 78.5605 550.54 75.457 553.717C71.8292 557.43 67.2462 554.931 62.8069 553.887C65.8421 551.366 68.8532 548.821 71.8831 546.295C74.4408 544.164 78.3549 541.858 79.9125 538.91C81.0257 536.801 80.971 533.913 78.2849 532.818C75.2793 531.595 71.8804 534.175 69.654 535.712C63.745 539.792 59.8533 544.965 55.9732 550.643C53.9093 553.662 52.9585 553.431 49.1611 552.827C45.1374 552.188 41.1137 551.506 37.0567 551.057C42.4307 545.964 48.4366 540.446 52.6811 534.488C54.0565 532.557 55.8502 527.468 51.6604 527C49.934 526.807 46.4966 530.065 45.1652 530.943C39.3451 534.781 33.7494 539.623 29.8927 545.227C28.6188 547.077 28.2193 549.135 25.7532 549.288C22.5294 549.489 16.5396 546.65 13.4298 545.773C19.3729 538.859 25.2747 531.896 32.2188 525.798C38.5991 520.196 44.9632 516.126 52.4253 511.829C60.4224 507.222 67.8719 501.921 75.2137 496.479C82.2422 491.269 89.584 486.355 96.0531 480.54C108.976 468.922 120.486 455.561 130.018 441.433C132.248 438.127 134.348 434.735 136.162 431.217C137.867 427.914 138.652 423.963 140.953 420.959C141.748 419.921 142.868 419.149 143.576 418.067C144.244 417.046 144.018 415.813 145.037 414.91C147.394 412.823 151.685 414.081 153.887 415.545C157.429 417.898 160.295 420.754 164.189 422.724C168.105 424.705 172.34 426.145 176.676 427.119C186.81 429.393 196.857 431.258 207.181 432.64C206.119 436.275 208.728 436.847 209.592 440.119C210.642 444.089 209.297 449.081 209.165 453.124ZM111.585 392.499C109.288 389.349 107.237 386.055 104.979 382.884C103.603 380.953 101.898 378.88 103.074 376.518C105.054 372.536 112.039 371.827 115.83 373.564C124.447 377.509 116.442 388.792 111.585 392.499ZM88.776 320.454C87.9824 314.297 90.5338 309.929 96.5702 306.7C100.872 304.399 104.337 307.544 103.749 311.738C102.855 318.128 95.4552 325.236 89.8075 328.57C89.4385 325.868 89.1252 323.159 88.776 320.454ZM87.8558 302.837C89.636 301.533 94.4049 303.197 96.4679 303.311C93.631 305.599 90.7933 307.886 87.9555 310.173C87.7696 308.603 86.2129 304.041 87.8558 302.837ZM97.4294 243.376C111.786 241.654 95.2595 255.871 91.0985 258.099C91.7754 255.074 93.4389 243.856 97.4294 243.376ZM135.65 218.485C133.723 225.772 118.736 233.721 118.579 221.785C118.521 217.337 121.228 217.698 125.18 217.27C127.434 217.028 136.753 214.32 135.65 218.485ZM83.8833 229.769C82.2009 233.844 80.8516 238.024 79.2024 242.104C78.4717 243.911 77.6125 245.152 76.2515 246.584C75.1123 247.781 73.7567 248.083 73.8016 249.974C75.229 249.72 76.3458 248.935 77.4985 248.178C77.2193 251.928 75.7829 255.964 75.0871 259.702C74.254 264.185 73.5601 268.669 73.3024 273.214C72.744 283.099 72.7395 292.947 72.9747 302.837C73.095 307.877 73.1489 312.919 73.4434 317.953C73.5906 320.457 73.7567 322.972 74.0924 325.46C74.2289 326.465 75.0189 328.605 74.5305 329.546C72.6129 333.243 64.1185 323.089 60.4296 324.579C60.9602 321.766 59.7365 322.381 57.6924 320.998C56.7021 320.328 56.0576 319.187 55.0252 318.589C54.7128 318.278 54.3689 318.002 53.9936 317.76C53.5672 317.222 53.1165 317.28 52.6434 317.93C48.4869 315.638 47.4132 310.752 45.1822 307.466C44.0349 305.776 42.9262 305.512 42.7305 303.175C42.5608 301.139 42.893 299.065 42.8032 297.02C42.7018 294.714 42.5554 292.171 41.8543 289.938C41.0409 287.345 39.9214 287.557 37.7408 286.175C38.4123 285.903 38.8558 285.448 39.0704 284.809C38.3737 284.923 36.2577 285.719 35.7317 285.147C34.6975 284.023 37.1375 283.873 37.7785 283.424C35.0431 282.303 35.632 281.382 36.6195 279.328C36.8987 278.747 37.1654 277.878 37.4033 277.389C37.9222 276.318 38.2211 276.996 38.3926 275.666C38.5551 274.397 37.3368 271.904 36.9777 270.553C36.3763 268.286 36.0432 266.328 36.5836 263.966C37.0217 262.054 38.2005 260.323 38.2822 258.357C38.3055 257.804 37.3943 257.621 37.3817 257.089C37.3638 256.309 38.152 255.967 38.3567 255.247C38.8801 253.405 38.644 251.456 39.539 249.708C40.3443 248.138 41.971 246.106 43.1219 244.735C43.92 243.786 45.878 242.716 46.0926 241.462C46.2344 240.632 44.833 240.728 44.895 240.101C44.9803 239.254 45.7505 238.98 45.9615 238.35C46.5441 236.623 46.6905 234.962 48.196 233.638C50.0929 231.971 50.9162 232.67 50.9952 229.92C51.0329 228.579 49.8703 228.373 50.4933 226.826C50.8318 225.987 51.8301 225.492 52.4684 224.896C54.3644 223.131 55.6428 221.564 56.993 219.383C58.187 217.457 60.0911 216.335 61.3148 214.672C62.9074 212.503 60.5257 211.428 63.7585 210.815C63.2988 209.469 62.8104 208.381 64.0197 207.241C64.7828 206.522 66.7174 206.962 67.3925 206.131C68.1664 205.176 67.0227 202.913 68.1888 202.294C69.1369 201.791 70.5562 203.342 72.0465 202.574C73.1812 201.989 74.8959 198.756 74.5305 197.568C77.4662 199.092 76.7345 198.042 78.1395 196.087C78.4546 195.649 79.4089 195.552 79.68 195.11C80.2223 194.225 80.0984 193.324 80.8803 192.605C82.182 191.408 84.3124 191.716 85.7452 190.861C86.9293 190.155 86.8665 189.394 87.8109 188.728C88.618 188.158 89.944 188.049 90.7286 187.459C92.2655 186.304 92.2808 185.084 94.2038 184.089C96.4814 182.911 98.4986 181.909 100.571 180.347C101.921 179.33 103.203 177.526 104.783 176.854C106.968 175.925 108.67 175.86 110.808 174.534C112.353 173.577 113.813 171.996 115.33 171.189C116.474 170.58 117.277 170.711 118.719 170.334C121.314 169.655 121.946 167.399 124.063 166.48C125.516 165.849 127.632 166.427 129.229 166.095C134.195 165.067 139.101 162.847 144.085 161.618C150.169 160.119 156.296 158.805 162.425 157.478C156.792 164.524 149.617 170.881 142.34 176.477C139.951 178.314 126.862 186.688 133.917 190.264C136.75 191.699 142.902 187.063 145.189 185.93C149.793 183.648 154.562 181.821 159.385 179.975C167.183 176.991 177.338 171.682 186.004 172.11C180.729 178.082 174.144 182.876 168.11 188.152C162.566 193 154.211 197.548 156.825 205.483C149.037 203.655 142.042 201.493 133.944 201.972C130.318 202.187 126.688 201.784 123.077 202.253C119.151 202.765 115.454 203.978 111.681 205.041C108.696 205.882 105.398 205.949 102.652 207.348C101.325 208.025 99.6836 208.99 98.4914 209.83C96.9015 210.949 96.5406 211.69 95.2919 213.165C90.839 218.427 86.5298 223.359 83.8833 229.769ZM59.5247 329.36C59.2814 328.449 59.0605 327.618 58.7813 326.578C61.26 327.986 61.26 327.986 59.5247 329.36ZM40.7914 300.355C40.4861 300.744 39.2024 300.869 38.8298 300.533C38.3657 300.115 39.5857 298.486 39.7814 298.14C40.2653 298.482 41.3785 299.604 40.7914 300.355ZM35.4848 289.798C35.8125 288.686 36.1419 287.575 36.4696 286.462C36.8727 287.493 38.6898 288.633 38.7301 289.615C38.7553 290.266 35.8439 289.942 35.4848 289.798ZM36.5378 291.323C39.3819 293.051 39.6799 295.09 39.7643 298.072C36.361 297.032 36.8494 293.992 36.5378 291.323ZM85.9993 173.641C85.7129 174.357 84.4938 176.591 83.6014 175.029C83.3159 174.529 85.4059 173.846 85.9993 173.641ZM85.1832 171.205C85.8861 170.62 87.3028 171.348 88.0982 170.875C88.6557 170.544 88.4708 170.208 88.7329 170.011C88.785 169.972 89.5427 168.557 89.8533 168.235C90.4018 167.671 91.5976 167.319 92.2637 166.809C94.1266 165.385 95.1778 163.511 96.3503 161.606C97.7481 159.331 98.1943 159.067 100.449 158.025C102.004 157.308 103.209 156.429 104.474 155.208C105.932 153.802 105.825 152.795 107.022 151.259C107.613 150.501 108.465 150.406 109.153 149.795C109.979 149.063 110.398 148.04 111.162 147.301C111.492 146.982 112.551 146.982 112.75 146.709C113.005 146.363 113.204 144.979 113.443 144.723C113.898 145.292 114.355 145.86 114.81 146.428C116.607 143.511 117.919 141.102 120.924 139.161C124.081 137.122 126.806 134.14 130.068 132.315C130.801 131.905 132.295 131.732 132.855 131.128C133.803 130.104 132.982 129.195 133.673 128.326C134.457 127.342 135.976 128.139 136.973 127.715C138.234 127.177 138.595 125.608 140.218 125.78C134.879 131.61 134.945 140.679 134.663 147.96C134.54 151.097 136.681 152.679 133.52 154.981C130.831 156.939 127.04 156.358 123.861 157.647C119.869 159.265 115.599 160.126 111.527 161.537C107.314 162.996 103.926 165.55 99.8722 167.24C96.2964 168.729 93.8555 170.846 90.585 172.685C89.3694 173.369 87.4868 174.361 86.037 173.545C85.1293 173.033 83.9982 172.192 85.1832 171.205ZM145.489 122.329C145.721 121.501 150.279 119.324 151.4 118.614C153.083 117.547 155.574 114.94 157.452 115.976C158.103 113.57 160.643 110.894 162.886 110.384C165.375 109.818 169.645 107.848 172.094 106.129C172.81 105.627 173.045 104.893 173.887 104.422C175.353 103.601 176.806 104.049 178.219 102.931C178.434 102.76 180.388 99.7839 180.465 99.8129C180.564 100.132 180.656 100.455 180.735 100.78C182.217 100.021 183.538 99.4178 184.462 98.4502C184.671 98.2307 183.312 97.6599 183.742 97.225C184.267 96.6923 185.438 97.2879 185.969 96.7826C184.319 104.341 185.547 114.07 193.857 117.902C183.975 118.887 174.322 116.146 164.318 117.829C159.529 118.636 154.661 119.959 150.305 121.992C147.636 123.238 144.223 127.699 141.566 125.532C142.62 124.235 144.229 123.429 145.489 122.329ZM193.44 100.584C197.136 96.4131 202.742 94.7629 208.387 96.2566C214.996 98.0053 212.208 102.267 211.21 106.999C209.303 104.418 205.172 101.859 201.653 101.781C196.666 101.672 198.551 105.507 201.546 106.881C204.269 108.128 208.939 108.476 210.888 110.747C212.785 112.956 212.057 116.568 212.364 119.174C210.889 118.971 209.414 118.769 207.939 118.566C209.177 112.487 203.728 112.193 198.649 110.478C193.515 108.747 189.235 105.331 193.44 100.584ZM209.994 85.6132V91.2555C207.939 90.1744 205.884 89.0933 203.828 88.0122C205.884 87.2128 207.939 86.4126 209.994 85.6132ZM226.513 130.697C233.374 132.413 240.189 134.228 246.786 136.596C249.181 137.456 251.805 137.76 254.153 138.731C256.388 139.654 256.724 139.558 255.929 141.366C253.701 146.431 248.425 145.556 243.803 144.781C236.567 143.569 229.481 141.887 222.336 140.305C215.351 138.76 208.22 137.747 201.341 135.809C194.282 133.822 187.404 131.94 180.143 130.628C178.024 130.245 161.261 128.826 161.389 127.21C171.945 125.944 182.814 127.191 193.418 127.323C204.438 127.459 215.824 128.024 226.513 130.697ZM217.198 111.106C217.329 107.623 217.382 104.13 217.851 100.669C220.991 104.246 223.826 105.316 227.785 101.963C231.575 98.7534 232.421 97.08 237.227 100.098C241.392 102.715 245.334 102.594 249.758 100.303C252.457 98.9058 256.794 93.1964 259.631 94.3719C260.982 94.9319 261.973 97.1902 263.338 98.0211C265.051 99.0615 267.684 99.7839 269.679 100.188C274.394 101.141 277.203 98.3433 280.162 95.3503C284.453 91.0111 284.327 93.5311 288.306 96.5407C292.743 99.8966 296.453 98.2572 300.471 95.3925C302.919 102.011 303.834 109.238 304.526 116.176C304.759 118.518 305.631 121.844 303.35 123.501C301.743 124.669 298.333 124.715 296.396 125.36C289.479 127.668 282.832 130.943 277.047 135.135C274.793 136.767 272.828 138.767 269.748 138.395C266.812 138.041 263.96 135.773 261.599 134.276C259.037 132.653 256.444 130.809 253.45 129.903C251.697 129.373 248.888 129.565 247.353 128.593C244.5 126.786 247.858 122.046 247.147 118.864C246.609 116.448 245.103 111.411 241.497 112.827C236.131 114.934 239.254 123.158 242.205 125.726C236.168 124.736 229.485 123.292 223.664 121.457C219.167 120.038 217.036 115.354 217.198 111.106ZM318.433 128.067C330.825 124.857 342.419 122.692 355.315 122.107C361.023 121.848 366.549 122.012 372.194 122.059C375.443 122.086 377.919 119.668 375.324 116.886C371.731 113.035 360.771 114.501 355.915 114.328C342.9 113.864 330.966 115.23 318.639 119.189C319.943 116.973 323.074 116.685 325.22 115.539C327.853 114.133 329.643 111.816 330.768 109.244C333.694 102.557 330.749 96.2557 327.687 90.1462C333.701 91.639 339.921 94.9079 345.966 95.738C347.235 95.9119 348.047 95.8001 349.169 96.2259C349.857 96.4869 350.075 97.3898 350.927 97.587C351.339 97.6831 352.329 96.8232 352.796 96.945C354.637 97.4254 353.181 97.553 354.345 98.248C355.269 98.7998 355.194 99.5105 356.888 99.2496C357.64 99.1353 358.455 98.0625 358.851 98.0335C359.355 97.9954 359.239 97.4287 360.011 97.5944C361.415 97.8951 361.291 99.5644 361.759 100.386C362.258 101.261 361.549 102.424 363.064 102.902C364.196 103.261 364.481 102.156 365.444 102.236C366.028 102.284 367.242 103.062 367.758 103.535C369.422 105.061 371.7 106.745 373.938 107.738C373.718 107.534 374.992 107.042 374.687 106.927C374.483 106.85 375.821 107.148 375.8 107.144C377.092 107.415 377.775 109.245 378.427 109.913C379.628 111.136 381.494 112.427 383.176 112.967C386.086 113.901 385.997 112.784 387.059 115.975C389.127 112.974 389.921 118 392.486 118.553C393.815 118.84 393.66 118.315 394.867 118.957C395.696 119.396 396.248 120.743 396.873 121.394C397.142 120.456 397.409 119.517 397.677 118.581C399.524 121.811 403.513 126.933 407.887 126.007C407.887 126.889 407.493 127.942 408.232 128.695C408.749 129.221 409.585 128.623 409.989 128.929C410.342 129.196 411.186 130.258 411.456 130.433C411.989 130.777 412.955 131.029 413.417 131.372C413.825 131.674 414.027 133.118 414.478 133.639C415.327 134.62 416.796 134.815 417.49 135.991C417.649 134.831 417.807 133.671 417.965 132.511C419.343 133.493 419.461 134.256 419.799 135.693C420.281 137.739 419.642 137.259 421.172 138.123C422.675 138.973 423.458 138.877 424.836 140.351C426.187 141.796 426.199 142.686 428.148 141.181C428.511 142.295 428.628 143.734 429.595 144.588C430.326 145.233 433.353 145.26 433.641 146.783C427.955 142.356 431.697 149.08 433.645 146.794C434.056 149.241 435.996 150.031 438.213 151.774C440.279 153.397 440.618 153.279 441.323 156.007C441.307 155.947 442.362 156.551 442.438 156.672C440.425 156.937 443.546 159.013 444.074 159.393C444.459 159.67 444.961 159.008 445.6 159.456C446.332 159.969 446.928 161.136 447.523 161.839C449.137 163.746 450.331 165.385 452.03 166.935C453.862 168.608 454.754 170.724 456.513 172.68C458.466 174.852 459.522 177.349 461.155 179.707C462.706 181.95 464.767 183.75 466.565 185.803C469.429 189.071 470.404 196.268 475.744 196.457C475.432 196.757 475.867 198.987 475.918 199.398C476.17 201.424 476.003 203.373 477.302 205.208C477.599 203.115 478.786 203.921 479.816 205.021C481.531 206.85 480.025 206.389 480.116 208.243C480.226 210.49 480.502 208.752 481.43 210.714C482.157 212.25 482.554 213.248 482.944 214.952C479.928 215.174 478.546 212.899 477.431 210.695C476.965 209.773 476.803 208.258 475.978 207.537C475.1 206.77 473.894 206.71 472.991 205.854C471.26 204.21 470.509 201.646 468.468 200.045C466.161 198.238 465.651 197.384 463.744 195.222C461.635 192.832 458.723 191.152 456.511 188.84C454.295 186.523 454.475 187.788 451.692 186.95C448.732 186.057 443.946 177.47 440.217 180.777C440.364 178.614 436.853 176.578 435.078 175.794C434.31 175.456 433.417 175.762 432.649 175.254C431.816 174.703 431.757 173.641 430.917 172.98C430.917 172.98 429.629 173.269 429.368 173.147C428.837 172.898 428.832 172.019 428.363 171.73C427.064 170.928 425.514 170.088 424.135 169.405C420.783 167.746 417.82 165.703 414.586 163.706C411.814 161.994 408.46 158.903 405.257 158.001C402.46 157.213 400.701 157.615 398.41 156.037C397.162 155.178 397.53 154.889 395.525 154.354C393.615 153.846 392.543 154.108 391.532 152.24C389.762 148.971 390.879 142.59 390.537 138.925C390.173 135.034 389.742 131.047 388.643 127.265C387.343 122.794 385.625 120.457 380.428 121.51C370.131 123.598 359.959 125.586 349.615 127.419C329.003 131.073 308.744 137.035 288.585 142.328C287.05 142.733 278.484 144.542 280.233 140.455C281.04 138.569 286.462 137.867 288.276 137.274C298.24 134.02 308.249 130.705 318.433 128.067ZM314.971 119.748C313.465 120.277 311.961 120.806 310.455 121.337V117.474C311.961 118.232 313.465 118.989 314.971 119.748ZM308.714 99.3225C310.022 100.309 312.682 97.9349 313.794 97.4536C315.694 96.6327 318.113 95.9277 320.236 96.0958C324.15 96.409 327.013 99.9653 326.296 103.571C325.082 109.671 315.663 112.555 310.47 114.94C310.303 112.778 309.545 110.18 311.188 108.31C312.614 106.686 315.38 106.804 316.696 105.077C320.008 100.737 311.032 100.343 309.026 103.794C308.234 101.588 307.443 99.383 306.651 97.1777C308.562 96.8853 307.722 98.5753 308.714 99.3225ZM317.979 87.3818C316.11 88.4969 314.241 89.6119 312.373 90.7269C311.446 86.8674 314.604 86.3596 317.979 87.3818ZM488.271 221.709C485.824 222.787 485.212 220.213 483.452 220.102C485.531 218.922 485.531 218.922 488.271 221.709ZM498.225 277.911C498.53 281.611 498.291 285.353 498.825 289.038C499.232 291.841 500.463 294.45 500.594 297.285C500.881 303.494 498.609 309.816 494.02 314.367C489.68 318.672 483.47 322.378 477.61 324.188C474.971 325.003 472.215 326.81 469.651 327.478C466.814 328.217 464.119 326.609 461.779 329.494C460.218 317.116 461.359 304.182 461.236 291.726C461.113 279.243 461.258 266.755 458.97 254.407C456.932 243.409 452.913 231.039 445.508 222.041C442.5 218.388 438.796 215.396 434.89 212.594C432.863 211.141 430.836 209.587 428.579 208.44C425.105 206.673 422.146 206.917 418.367 206.414C412.96 205.693 407.934 205.085 402.506 206.489C397.453 207.798 391.889 209.288 387.363 211.561C382.855 213.826 377.619 214.759 372.939 216.787C369.756 218.168 363.143 222.778 359.61 221.948C356.192 221.143 351.13 215.789 348.947 213.39C346.157 210.325 343.849 206.772 341.374 203.474C340.505 202.316 338.732 200.526 338.507 199.04C338.115 196.458 339.235 197.302 341.907 197.591C348.777 198.334 355.238 199.51 361.822 201.506C365.099 202.498 371.506 206.515 374.783 204.108C379.786 200.433 372.184 194.116 369.4 191.995C364.656 188.379 359.14 185.694 354.083 182.481C348.71 179.067 341.606 175.432 338.148 170.175C348.245 172.925 358.332 176.075 368.134 179.621C372.619 181.243 377.052 182.957 381.263 185.114C383.63 186.325 388.41 189.602 391.259 188.033C397.452 184.621 383.227 174.713 381.175 172.688C377.986 169.542 374.86 166.425 371.356 163.57C368.991 161.644 365.276 160.29 364.176 157.449C368.101 158.761 371.275 161.329 374.95 163.073C376.874 163.988 378.63 164.514 380.755 164.794C383.021 165.093 383.291 165.426 385.076 166.257C386.466 166.906 387.894 167.771 389.455 168.212C390.567 168.527 392.509 168.581 393.482 169.163C393.979 169.817 394.492 170.46 395.022 171.092C395.615 171.253 396.198 171.438 396.774 171.649C397.635 172.358 398.147 173.337 398.986 174.068C405.073 179.38 413.215 183.181 420.04 187.632C426.496 191.842 433.348 195.65 439.549 200.244C446.686 205.533 454.092 211.216 460.162 217.558C463.592 221.142 466.412 225.205 469.294 229.168C471.38 232.038 474.414 234.418 476.217 237.377C480.149 243.827 483.413 250.8 487.645 257.147C491.958 263.614 497.577 270.04 498.225 277.911ZM440.217 315.34C441.393 310.863 448.027 305.636 452.267 303.662C450.13 308.54 444.437 311.866 440.217 315.34ZM451.156 330.957C447.54 337.88 431.639 338.672 433.797 328.426C434.853 323.407 439.34 320.327 443.192 317.041C444.972 315.524 449.332 310.093 452.088 310.967C451.959 314.872 451.71 318.793 451.719 322.699C451.725 325.305 452.437 328.507 451.156 330.957ZM446.561 251.161C448.028 254.201 449.489 256.733 446.767 259.454C445.539 260.681 441.537 263.367 439.726 262.771C433.914 260.858 444.995 252.528 446.561 251.161ZM411.406 224.106C412.806 224.035 414.165 224.227 415.548 224.149C416.926 224.07 417.072 223.845 418.349 224.005C418.484 224.186 418.619 224.367 418.753 224.548C418.927 225.761 419.619 225.892 420.824 224.944C422.501 225.288 423.592 225.518 425.195 226.354C420.867 229.233 415.599 232.582 410.294 233.549C401.907 235.075 404.224 224.471 411.406 224.106ZM282.839 288.864C281.97 290.478 279.469 286.445 278.849 285.694C280.004 285.69 283.718 287.235 282.839 288.864ZM350.224 246.372C356.739 242.863 364.478 239.782 371.476 237.17C372.707 242.641 366.705 249.703 363.008 253.447C360.02 256.475 356.416 259.614 352.364 261.357C347.982 263.24 343.193 262.413 343.406 257.128C343.484 255.196 343.961 252.088 344.813 250.322C345.912 248.046 347.989 247.573 350.224 246.372ZM262.145 146.855C263.114 146.803 273.649 145.546 273.594 146.755C273.428 150.391 263.202 147.537 262.145 146.855ZM187.648 217.053C193.212 210.718 202.195 203.879 202.326 195.025C202.52 181.996 186.85 188.496 178.973 189.038C183.138 185.262 204.071 169.417 191.689 163.789C188.131 162.171 183.072 163.752 179.501 164.599C173.164 166.103 167.273 168.707 161.048 170.519C165.497 166.15 173.181 161.185 172.93 154.568C172.622 146.514 165.457 148.461 159.262 149.643C156.881 150.097 146.245 154.002 144.247 151.351C143.515 150.38 144.699 149.146 144.95 148.281C145.393 146.752 145.256 146.218 145.271 144.655C145.302 141.503 147.571 137.455 145.72 134.523C145.297 135.189 144.935 135.883 144.633 136.603C144.023 134.897 144.433 133.087 143.822 131.381C159.29 135.031 175.024 137.029 190.589 140.145C198.468 141.722 205.884 144.438 213.871 145.66C221.926 146.892 229.842 148.778 237.912 149.954C245.275 151.025 252.33 152.81 259.621 154.179C266.729 155.513 274.019 152.589 280.957 151.108C296.496 147.792 312.03 144.395 327.59 141.177C345.545 137.462 364.222 134.286 381.409 128.091C381.742 136.348 382.457 144.589 383.551 152.79C375.961 149.478 364.697 145.161 357.024 151.086C353.953 153.456 353.007 157.549 354.22 161.029C355.542 164.818 359.588 166.578 362.258 169.43C354.132 167.507 333.169 153.954 329.438 167.654C326.802 177.33 339.658 183.579 345.943 189.025C339.701 187.898 331.342 183.292 327.677 190.693C324.509 197.092 328.325 204.054 332.233 209.331C334.35 212.191 336.732 214.881 338.984 217.651C340.174 219.117 341.337 220.603 342.587 222.025C343.842 223.452 346.209 224.946 347.089 226.481C348.859 229.576 345.286 229.765 342.508 230.884C339.039 232.28 336.061 234.626 332.889 236.494C325.625 240.774 319.276 244.749 310.693 246.116C301.856 247.524 293.346 248.994 284.625 250.958C275.931 252.916 268.835 254.796 259.948 252.266C255.896 251.113 252.596 250.088 248.299 250.305C243.785 250.533 241.145 250.316 237.434 247.737C221.465 236.638 204.13 227.53 187.648 217.053ZM158.857 205.91C165.029 203.052 171.242 200.181 177.618 197.726C182.895 195.692 190.908 193.324 196.685 194.215C195.057 198.075 192.085 201.242 188.897 204.085C186.078 206.599 182.557 210.393 179.146 212.148C176.048 213.74 172.444 211.217 169.389 210.16C166.033 209 161.413 208.459 158.857 205.91ZM160.408 220.326C163.484 219.148 170.094 223.105 172.891 224.134C178.389 226.157 183.917 228.269 188.762 231.46C182.846 237.769 176.146 243.538 168.185 247.589C162.947 250.256 154.119 253.314 149.177 248.472C142.97 242.389 150.432 229.995 154.827 224.782C154.972 225.674 155.119 226.564 155.265 227.456C156.667 225.385 157.737 221.351 160.408 220.326ZM273.323 274.322C269.486 275.068 268.182 274.394 265.649 271.679C263.937 269.844 262.254 267.937 260.323 266.287C258.353 264.603 253.487 260.542 259.687 262.881C265.338 265.012 270.179 266.077 276.396 265.242C283.506 264.288 290.134 261.514 297.143 260.111C293.3 263.213 289.486 266.347 285.636 269.441C281.568 272.709 278.491 273.317 273.323 274.322ZM274.2 299.276C265.791 305.116 248.862 304.484 254.56 291.636C255.426 289.684 256.637 287.847 258.038 286.185C258.505 285.63 259.336 284.48 260.003 284.107C261.863 283.066 261.347 282.94 263.135 284.675C264.677 286.173 276.734 298.406 274.2 299.276ZM271.707 276.951C272.478 276.72 275.723 274.984 276.463 275.945C277.212 276.917 270.848 280.282 271.707 276.951ZM332.924 366.008C331.033 370.183 315.902 376.226 318.721 367.811C319.969 364.083 321.146 361.261 325.857 360.978C328.575 360.815 334.589 362.332 332.924 366.008ZM360.067 309.436C362.559 306.089 370.785 301.563 374.297 306.555C375.989 308.959 371.883 310.191 369.399 309.573C368.066 309.239 366.976 308.505 365.526 308.449C363.662 308.379 361.84 309.728 360.067 309.436ZM366.671 312.758C364.977 314.341 354.762 322.273 353.107 321.049C356.443 316.649 360.274 311.734 366.671 312.758ZM349.987 393.029C346.44 393.214 348.211 388.281 348.554 386.309C349.412 387.683 353.928 392.823 349.987 393.029ZM359 384.187C357.853 382.303 354.761 379.498 355.459 377.074C355.994 375.22 360.821 372.729 362.841 373.791C365.526 375.205 361.635 384.5 359 384.187ZM443.175 364.428C441.657 369.253 440.085 368.007 435.327 368.943C430.552 369.881 427.252 373.621 423.05 375.627C424.51 372.779 425.415 369.309 427.859 366.998C428.425 366.464 431.888 365.41 429.915 364.174C428.189 363.094 425.709 366.6 424.968 367.556C421.328 372.259 418.782 378.002 416.68 383.413C415.646 386.071 414.818 388.779 414.329 391.57C413.893 394.057 414.363 396.66 413.919 399.082C413.203 402.984 407.46 403.004 404.007 404.009C400.88 404.92 397.767 405.907 394.522 406.398C391.709 406.823 388.789 406.048 386.063 406.56C383.11 407.113 381.784 408.73 378.427 408.364C375.692 408.067 373.131 406.905 370.358 406.789C367.763 406.682 365.175 407.51 362.595 406.836C359.991 406.155 360.117 405.891 360.709 403.531C361.079 404.168 361.45 404.805 361.821 405.442C362.859 404.69 363.577 402.401 364.212 401.326C365.199 399.661 366.002 399.085 365.637 397.012C365.097 393.948 362.105 391.77 361.427 388.856C360.718 385.817 363.154 383.331 364.594 380.793C366.562 377.32 366.536 374.743 364.887 371.151C366.13 371.454 367.373 371.757 368.618 372.061C366.913 368.646 361.131 370.03 358.232 371.042C356.775 371.55 354.465 373.548 352.898 373.497C350.743 373.427 349.62 370.813 348.695 369.374C346.015 365.21 342.956 361.098 339.787 357.232C338.916 356.168 337.774 355.484 338.074 354.273C338.331 353.244 340.83 351.786 341.64 351.153C344.68 348.781 348.549 347.466 351.404 344.969C355.72 341.197 360.696 338.494 365.107 334.796C369.704 330.943 374.439 327.405 379.229 323.764C384.08 320.077 388.283 315.732 393.099 312.007C394.347 314.094 396.765 321.565 399.529 322.144C402.753 322.817 402.657 319.298 402.497 317.18C402.268 314.162 400.452 311.229 400.25 308.349C400.032 305.268 403.245 303.89 405.669 302.108C409.415 299.355 417.703 293.085 413.247 287.923C409.409 283.478 396.929 292.001 393.49 294.564C390.566 296.742 388.307 298.712 385.016 300.43C382.701 301.637 378.818 306.281 376.074 305.852C372.811 305.343 371.536 302.054 367.544 302.162C363.642 302.268 360.329 304.86 357.909 307.464C352.44 313.348 350.561 321.221 345.577 327.356C343.12 330.38 339.933 332.876 337.267 335.739C334.341 338.879 333.718 342.497 330.832 345.57C322.573 335.417 313.574 325.803 304.865 315.983C300.514 311.079 296.255 306.117 291.999 301.145C290.404 299.281 288.605 297.532 287.144 295.575C285.143 292.894 285.503 290.741 284.718 287.751C284.37 286.426 282.739 284.839 283.175 283.572C283.763 281.87 287.886 280.534 289.373 279.838C295.445 276.994 300.952 273.44 306.614 269.965C317.098 263.531 327.704 257.499 338.854 252.003C338.662 254.371 336.993 256.824 338.114 259.199C338.636 257.833 339.463 251.745 341.44 251.484C341.061 251.534 341.373 259.291 341.679 260.398C342.591 263.703 345.238 265.963 349.027 265.94C356.242 265.897 362.709 258.655 366.713 253.858C369.425 250.61 372.029 246.832 372.983 242.766C373.842 239.116 372.898 236.578 377.01 234.724C385.447 230.922 393.952 227.823 402.975 225.807C402.571 229.395 401.444 233.813 404.978 236.393C408.88 239.242 413.984 236.703 417.657 234.819C421.296 232.952 426.906 227.825 431.179 229.315C435.382 230.779 438.308 235.644 440.661 238.874C442.734 241.721 444.991 243.774 442.589 246.947C439.898 250.504 438.146 253.975 435.99 257.838C435.161 259.323 434.37 260.291 434.957 261.812C435.146 262.307 437.307 265.246 437.894 265.668C441.638 268.356 446.693 263.242 449.366 261.301C450.308 269.661 450.519 277.983 450.899 286.368C451.178 292.509 453.755 298.555 448.293 303.045C442.833 307.533 438.275 312.141 434.947 318.217C433.169 321.463 431.575 324.795 429.652 327.975C428.367 330.099 425.658 333.214 427.316 335.713C429.066 334.181 429.586 331.851 431.044 330.124C431.918 333.709 432.798 337.687 436.907 339.207C441.637 340.955 446.336 337.93 450.525 336.246C449.023 345.832 446.094 355.147 443.175 364.428ZM438.34 375.447C435.095 381.848 432.164 389.565 426.17 394.279C424.854 395.313 419.262 399.354 417.134 398.678C415.328 398.102 416.322 394.734 416.637 393.291C418.234 385.967 420.997 381.357 427.434 376.684C430.097 374.75 433.518 372.277 436.953 371.8C440.651 371.286 439.586 372.987 438.34 375.447ZM529.887 527.382C521.473 516.823 509.579 508.617 498.339 500.685C493.248 497.092 487.638 494.397 482.494 490.802C476.679 486.739 470.773 482.819 464.259 479.757C451.91 473.95 438.437 469.902 426.783 463.036C421.099 459.687 414.881 456.451 409.538 452.691C407.19 451.04 405.117 448.928 402.996 447.036C401.025 445.278 396.794 442.727 396.011 440.154C399.29 439.659 401.155 436.723 404.082 436.423C405.046 436.324 411.088 437.799 410.262 435.095C412.454 435.044 412.709 435.014 414.545 434.572C415.306 434.388 416.207 434.674 416.977 434.423C418.154 434.04 418.953 432.933 420.142 432.509C420.987 432.207 424.123 432.544 424.599 432.169C425.897 431.145 424.518 431.236 423.744 429.957C426.267 429.898 428 431.074 430.53 429.823C431.3 429.442 431.952 428.564 432.699 428.109C434.022 427.302 434.501 428.554 435.407 426.878C436.256 429.19 436.232 428.55 438.277 427.87C440.314 427.192 441.786 426.704 444.106 426.534C449.648 426.129 455.211 426.75 460.727 426.387C462.746 426.254 464.47 425.83 466.476 426.075C468.241 426.289 467.709 427.422 469.177 425.895C469.518 425.54 468.416 424.57 468.944 424.06C469.177 423.835 469.936 423.993 470.225 423.877C472.804 422.838 472.816 424.29 473.273 426.181C474.786 425.854 476.329 425.558 477.644 424.739C476.979 424.193 475.869 423.589 476.51 422.59C478.691 423.353 480.118 423.001 479.027 425.211C481.222 425.88 481.632 425.008 483.604 424.816C484.77 424.704 486.398 425.372 487.369 424.512C488.43 423.575 486.757 422.555 488.705 421.748C489.105 421.936 489.401 422.219 489.594 422.597C490.647 422.891 490.457 423.273 489.027 423.744C492.859 425.577 491.958 423.528 493.568 421.36C493.94 420.861 495.604 419.308 496.363 420.059C497.513 421.195 495.164 421.557 495.668 422.687C496.54 424.646 499.585 422.135 500.519 421.142C501.227 420.393 501.515 418.955 502.277 418.395C503.335 417.616 504.859 418.819 506.184 418.603C512.239 417.624 517.957 410.111 513.396 405.083C512.17 403.732 511.132 404 509.672 403.147C508.227 402.304 507.417 400.846 506.258 399.641C503.613 396.892 500.374 394.833 496.675 393.517C488.094 390.462 478.849 388.235 469.84 386.595C465.667 385.836 461.225 384.675 456.953 384.683C454.436 384.688 450.646 386.494 448.293 385.629C443.718 383.947 450.434 375.336 451.543 372.555C454.798 364.383 457.254 355.672 458.865 347.094C459.18 345.414 459.058 343.24 459.714 341.64C460.466 339.802 460.628 340.061 462.237 339.912C465.146 339.64 468.327 341.048 471.356 340.561C474.713 340.023 478.34 340.273 481.729 339.315C483.287 338.875 484.731 338.397 485.757 337.183C486.08 336.803 485.72 336.472 485.924 336.206C485.987 336.121 487.146 334.968 487.184 334.902C487.172 334.305 487.228 333.713 487.353 333.127C488.527 334.027 487.948 335.914 489.928 335.958C490.28 333.946 490.284 333.54 491.715 332.408C491.606 332.495 492.793 331.564 492.641 331.664C492.712 331.306 492.855 330.97 493.068 330.66C493.737 330.363 494.444 330.204 495.187 330.187C496.734 328.719 496.092 327.936 496.092 325.96C497.34 326.558 498.588 327.157 499.837 327.755C500.139 321.902 504.001 318.697 506.567 313.953C507.661 311.932 508.775 310.352 509.036 307.914C509.187 306.507 508.794 305.266 509.425 303.941C509.997 302.738 511.278 302.09 511.813 300.78C512.866 298.202 512.08 294.91 512.138 292.233C512.219 288.52 512.62 284.819 512.752 281.108C513.01 273.822 512.216 266.335 511.035 259.133C510.47 255.689 509.524 252.347 508.782 248.939C508.172 246.137 506.711 243.509 506.188 240.904C505.971 239.82 506.307 238.849 505.953 237.651C505.486 236.077 504.707 234.529 504.127 232.983C502.774 229.371 501.436 225.765 499.913 222.209C496.962 215.319 493.509 208.635 490.227 201.877C487.071 195.378 484.457 188.678 480.368 182.609C476.341 176.632 472.005 170.755 467.567 165.034C462.944 159.076 457.1 153.956 452.616 147.943C444.198 136.652 432.457 127.348 420.173 119.666C394.825 103.812 367.433 87.9824 337.038 82.5464C332.457 81.7279 327.818 81.1596 323.149 81.0536C320.252 80.9873 315.453 82.2797 312.71 81.375C309.638 80.3619 309.919 77.1783 309.151 74.6807C308.161 71.4706 305.931 69.3673 303.398 67.0974C300.732 64.7091 298.312 61.9182 294.987 60.2937C291.617 58.6485 287.642 58.033 283.908 57.5359C280.574 57.0911 275.594 57.5061 272.549 56.1658C269.775 54.9447 271.145 53.6731 273.742 54.7185C273.932 53.6615 274.086 52.9789 274.82 52.1621C275.188 51.7512 276.93 51.1754 276.972 50.7927C277.021 50.3439 275.561 49.0663 275.351 48.4877C274.903 47.2421 275.158 45.5168 275.691 44.3477C278.309 46.4957 279.068 47.4469 281.992 45.3937C283.226 44.5268 283.605 44.1446 285.035 43.7072C285.423 43.5884 286.293 43.9552 286.632 43.7494C287.923 42.9642 286.735 43.1493 287.349 42.2213C287.194 42.4554 288.28 39.989 288.228 40.5047C288.36 39.1909 288.781 39.5947 287.922 37.9805C286.237 34.8228 281.951 34.6937 284.136 31.0899C284.995 29.672 285.752 29.8133 285.994 27.7574C286.124 26.6521 285.963 25.3848 285.957 24.2605C285.947 21.961 286.416 20.3511 284.081 19.1803C281.837 18.0543 279.767 19.2897 278.855 16.4969C277.901 13.5665 278.862 9.80946 275.422 7.80272C272.908 6.3366 269.278 7.59007 266.5 6.873C263.717 6.15501 261.156 3.52664 258.331 5.54465C256.324 6.97887 255.259 10.5051 251.477 8.59824C249.769 7.73819 248.83 4.85077 247.753 3.2314C246.038 0.650412 244.663 -0.281879 242.023 2.23192C240.397 3.78237 236.966 7.55652 236.756 9.70275C236.526 12.0719 238.766 13.0619 235.954 14.4635C233.156 15.8582 231.587 14.8354 229.316 17.666C227.063 20.4742 228.807 22.0256 226.198 24.7124C222.935 28.0708 221.2 29.5205 221.246 34.0454C221.277 37.1489 218.306 39.8297 220.039 42.774C221.982 46.0738 227.652 47.4461 231.09 48.789C229.942 50.7459 228.368 52.0005 229.707 54.0144C230.921 55.8385 234.351 56.2179 236.478 55.8866C237.908 55.6646 237.959 55.8642 239.085 54.9356C239.823 54.3283 238.811 53.5695 240.33 53.2332C241.946 52.8728 244.528 55.7971 245.578 56.5278C243.232 59.3369 236.79 59.8621 233.381 61.2861C231.304 62.1543 229.395 63.4392 227.28 64.2154C225.361 64.9195 223.026 64.7563 221.286 65.8457C218.282 67.7278 217.032 72.3901 215.191 75.1313C213.106 78.2345 211.085 79.6751 207.086 80.3196C202.097 81.1224 198.08 81.4454 193.426 83.4502C187.745 85.899 182.144 88.4844 176.563 91.1237C167.562 95.3809 159.201 99.7508 150.843 104.899C142.099 110.287 133.593 115.911 125.156 121.54C116.811 127.107 109.805 133.957 102.556 140.69C96.6959 146.133 91.5536 152.007 85.7165 157.448C78.8254 163.873 73.7567 171.981 67.3674 178.797C63.8716 182.525 60.5266 186.192 58.3334 190.584C56.5558 194.145 53.464 197.639 51.4001 201.374C48.7634 206.15 46.2676 210.85 43.3069 215.468C42.0922 217.362 40.6486 218.988 39.3666 220.798C37.7238 223.114 37.8207 225.352 37.379 228.022C36.9176 227.37 36.457 226.718 35.9956 226.068C35.1589 227.754 34.148 229.412 33.4235 231.138C32.9612 232.239 33.0339 233.802 32.5698 234.766C31.9871 235.975 31.2779 235.814 30.5516 236.822C29.7751 237.899 29.5246 239.346 28.7068 240.501C25.1688 245.494 23.8078 251.83 21.9898 257.528C19.5516 265.171 19.9358 273.957 20.0687 281.838C20.2096 290.163 20.7025 298.488 22.059 306.725C23.288 314.185 25.9148 321.34 30.0274 327.881C33.6112 333.58 38.5524 336.901 44.8824 339.82C47.7893 341.161 50.487 340.747 53.5376 340.961C56.8799 341.195 59.1593 342.033 62.6955 341.296C64.3914 340.943 65.1948 339.803 66.5424 339.422C67.3764 339.188 67.8262 339.572 68.627 339.482C69.7725 339.354 72.1551 338.836 73.3976 338.96C77.2642 339.35 76.6151 344.743 76.9958 347.496C77.5811 351.738 78.0093 356.026 78.7993 360.241C80.4593 369.107 84.044 377.388 86.1618 386.101C76.344 387.206 67.9222 388.897 58.7203 392.325C49.4888 395.765 40.1549 396.932 30.4394 398.642C21.3506 400.242 12.6084 403.231 5.33302 408.646C1.92337 411.182 -1.61914 414.151 0.884676 418.33C2.48626 421.002 5.37252 421.681 7.86377 423.234C8.36741 422.646 6.91126 421.401 6.64463 421.055C8.73907 421.452 8.67534 422.354 10.2051 423.14C11.5418 423.826 12.6362 423.802 14.0995 424.286C17.6726 425.471 19.4286 428.427 22.9603 429.256C24.0717 429.517 25.5252 430.141 26.6608 430.319C28.0263 430.532 29.0479 429.981 30.4314 430.214C31.1774 430.667 31.9854 430.992 32.8526 431.186C33.4217 430.943 33.9837 430.686 34.5377 430.414C36.5253 430.605 37.7525 431.758 39.3675 432.706C39.4753 431.512 39.32 430.272 40.5445 429.492C41.023 430.653 40.25 431.389 41.5554 432.188C43.209 433.201 45.3807 431.937 46.8611 431.295C47.2803 435.155 56.9643 434.928 60.0337 434.872C64.2845 434.797 68.5309 433.241 72.8194 434.109C75.0072 434.552 77.3423 435.014 79.5202 435.589C82.1425 436.28 85.3125 436.899 87.8935 437.77C88.9205 438.117 90.1774 439.229 91.2699 439.154C92.1399 439.094 92.3733 437.91 93.3859 437.943C94.5315 437.982 94.9166 439.16 95.9077 439.515C97.3926 440.044 98.7572 439.037 100.168 439.546C100.675 439.729 101.362 440.512 102.011 440.768C102.995 441.156 104.945 441.161 106.041 441.347C107.595 441.613 108.987 441.434 110.318 441.522C111.392 441.593 111.369 442.26 111.882 442.303C112.472 442.352 113.498 440.482 114.29 440.208C115.443 439.809 117.535 440.761 118.711 440.927C110.193 451.582 99.9216 461 88.7877 469.246C76.7785 478.141 64.4802 487.025 51.602 494.827C39.9089 501.911 28.5901 508.038 19.5246 518.039C11.8803 526.471 -0.287778 535.493 1.58762 547.716C3.46212 559.927 17.8324 564.897 29.3469 567.228C43.8293 570.161 58.7374 568.98 73.2584 570.629C79.4511 571.332 86.3314 570.957 92.5654 570.358C99.9278 569.65 106.238 565.217 112.568 562.011C123.953 556.243 133.687 548.528 144.901 542.58C158.943 535.133 172.837 527.243 188.23 522.256C195.392 519.936 202.764 517.288 208.541 512.516C209.401 511.806 210.041 510.734 211.012 510.148C212.663 509.154 213.106 510.162 214.065 509.861C214.802 509.63 215.516 508.894 216.154 508.674C217.769 508.115 218.49 508.346 220.299 508.346C218.747 507.521 217.325 505.392 218.937 503.657C221.695 500.685 222.171 505.434 223.207 506.534C224.086 505.492 223.749 504.565 223.524 503.381C224.266 503.833 225.009 504.285 225.752 504.738C225.24 502.447 225.727 500.337 227.042 498.34C228.255 496.501 228.554 496.76 228.888 494.21C232.656 497.383 233.392 489.681 233.732 486.872C234.059 484.15 233.735 482.194 235.676 479.813C237.76 477.256 240.928 475.64 243.573 473.654C247.751 470.516 252.348 466.552 258.126 469.561C262.687 471.939 265.169 477.764 269.449 480.757C272.044 482.574 274.784 482.758 276.439 485.574C277.776 487.85 278.211 490.575 279.474 492.912C282.533 498.577 286.938 505.061 291.962 509.406C296.64 513.452 302.644 513.431 308.117 515.94C313.535 518.424 319.165 521.116 324.901 522.916C331.164 524.881 337.919 525.718 344.017 528.1C347.154 529.326 349.96 531.171 353.124 532.344C356.537 533.609 360.133 534.501 363.591 535.659C377.294 540.253 390.704 545.884 405.099 548.43C411.484 549.559 417.395 552.626 423.826 553.272C426.585 553.549 428.835 553.899 431.535 554.536C435.77 555.535 434.873 556.066 436.433 559.324C439 564.689 445.268 561.512 450.1 561.646C457.834 561.862 465.45 560.708 473.172 560.653C486.676 560.558 499.678 559.154 512.741 555.062C525.855 550.955 540.787 541.057 529.887 527.382Z" fill="#11304D"/>
<path fill-rule="evenodd" clip-rule="evenodd" d="M373.793 108.261C373.978 108.432 374.412 108.536 373.793 108.261V108.261Z" fill="black"/>
<path fill-rule="evenodd" clip-rule="evenodd" d="M135.925 336.734C138.858 333.991 151.337 334.545 152.28 339.452C153.331 344.928 142.181 353.199 138.1 355.518C132.849 358.503 126.439 359.062 127.37 351.569C128.074 345.909 131.749 340.639 135.925 336.734ZM146.23 331.088C146.611 332.605 143.806 332.089 143.034 331.729C142.67 331.04 145.85 329.565 146.23 331.088ZM124.711 341.13C127.2 341.337 130.052 337.652 131.93 336.397C132.76 337.581 127.287 344.088 126.685 345.572C125.181 349.282 124.344 353.969 126.395 357.67C132.386 368.483 147.72 353.041 151.555 347.647C154.238 343.876 156.096 339.198 152.305 335.501C150.956 334.184 148.727 333.819 147.474 332.567C145.824 330.922 147.122 328.797 143.805 329.156C141.515 329.404 138.767 331.31 136.542 332C133.859 332.83 131.448 333.691 129.107 335.23C128.579 335.578 121.636 340.875 124.711 341.13Z" fill="black"/>
<path fill-rule="evenodd" clip-rule="evenodd" d="M300.624 344.76C299.059 352.189 291.082 359.811 282.687 360.106C274.327 360.4 271.621 352.319 273.096 345.877C274.355 340.383 279.501 330.838 286.843 331.89C292.614 332.716 301.964 338.392 300.624 344.76ZM295.3 332.343C290 328.559 282.677 326.808 276.534 329.811C274.519 330.795 266.479 335.137 268.925 338.077C272.225 335.718 275.072 332.444 279.359 331.66C278.638 334.726 274.521 337.485 273.07 340.471C271.375 343.96 270.447 347.953 270.725 351.787C271.219 358.609 276.172 363.911 283.84 362.974C290.86 362.114 296.997 357.15 300.346 351.568C304.817 344.115 302.298 337.339 295.3 332.343Z" fill="black"/>
<path fill-rule="evenodd" clip-rule="evenodd" d="M246.08 361.646C242.306 366.802 236.551 371.652 229.898 373.246C221.284 375.307 223.705 368.738 226.278 364.025C228.554 359.857 232.459 352.688 238.404 352.727C240.422 352.738 244.18 353.639 245.949 354.635C249.435 356.598 248.067 358.933 246.08 361.646ZM238.041 350.314C239.395 348.922 245.392 342.954 246.196 347.606C247.918 345.763 246.56 344.235 244.355 344.04C241.696 343.806 238.788 346.539 236.868 347.896C232.918 350.69 229.878 353.55 227.26 357.467C224.373 361.785 217.015 371.542 223.455 375.827C230.416 380.458 240.548 371.905 244.908 367.495C247.695 364.673 251.388 360.53 250.327 356.393C249.026 351.312 242.62 350.778 238.041 350.314Z" fill="black"/>
<path fill-rule="evenodd" clip-rule="evenodd" d="M208.337 267.217C204.442 271.318 196.529 277.293 190.009 276.589C184.062 275.947 186.383 269.788 188.488 266.807C191.65 262.327 195.885 258.122 202.005 257.876C204.647 257.771 208.071 257.821 210.117 259.667C212.912 262.188 210.396 265.05 208.337 267.217ZM207.923 255.822C203.36 254.367 201.567 253.813 197.132 256.126C193.571 257.983 190.413 260.608 187.969 263.589C184.311 268.051 180.623 278.087 190.014 279.342C200.316 280.72 224.82 261.213 207.923 255.822Z" fill="black"/>
<path fill-rule="evenodd" clip-rule="evenodd" d="M221.966 281.428C219.003 284.221 215.303 286.5 211.08 287.278C212.866 283.601 216.855 275.564 221.584 274.445C223.763 273.928 226.247 274.605 226.069 276.896C225.938 278.552 223.135 280.325 221.966 281.428ZM225.781 271.706C223.327 270.571 224.101 269.795 221.246 270.686C218.996 271.387 216.158 272.604 214.285 274.005C213.263 274.771 210.081 277.483 210.47 278.863C211.176 281.371 213.55 277.528 214.173 276.789C215.243 277.593 209.775 284.813 209.45 286.001C208.237 290.426 212.001 290.894 215.69 289.446C220.664 287.495 235.395 276.151 225.781 271.706Z" fill="black"/>
<path fill-rule="evenodd" clip-rule="evenodd" d="M298.717 390.773C299.084 387.839 299.606 384.738 302.523 383.091C305.152 381.606 307.875 381.821 308.264 384.866C308.626 387.694 305.623 392.717 303.194 394.26C299.812 396.408 299.16 393.73 298.717 390.773ZM303.062 397.448C310.006 393.699 314.383 376.503 301.583 381.322C294.309 384.061 296.984 400.729 303.062 397.448Z" fill="black"/>
<path fill-rule="evenodd" clip-rule="evenodd" d="M243.754 326.143C244.85 324.072 246.102 323.385 248.323 322.478C246.843 323.768 245.33 324.96 243.754 326.143ZM245.357 321.039C243.784 322.496 240.179 324.716 240.685 327.217C241.145 329.5 243.035 329.369 244.749 328.657C248.343 327.166 250.343 320.639 254.103 320.028C249.933 317.589 248.959 317.703 245.357 321.039Z" fill="black"/>
<path fill-rule="evenodd" clip-rule="evenodd" d="M245.91 191.409C246.11 198.36 246.286 205.311 246.452 212.262C246.51 214.705 245.878 218.187 246.673 220.528C247.024 221.558 250.196 226.027 251.322 226.316C255.261 227.327 253.854 218.216 253.881 215.972C253.977 208.403 253.857 200.826 253.823 193.256C253.805 189.355 254.999 156.648 249.513 156.808C248.569 156.836 246.241 160.575 245.891 161.325C244.788 163.679 245.194 167.169 245.219 169.679C245.294 176.919 245.701 184.17 245.91 191.409Z" fill="#11304D"/>
<path fill-rule="evenodd" clip-rule="evenodd" d="M279.121 211.672C279.43 213.593 279.267 216.798 281.612 217.794C283.652 218.661 284.434 217.63 285.197 216.02C286.951 212.315 286.318 206.651 286.286 202.821C286.221 195.229 285.295 187.67 284.654 180.107C284.373 176.789 284.957 173.456 284.508 169.984C284.311 168.46 284.114 162.33 281.053 162.616C278.285 162.873 278.534 169.298 278.384 170.953C277.129 184.732 276.91 197.917 279.121 211.672Z" fill="#11304D"/>
<path fill-rule="evenodd" clip-rule="evenodd" d="M409.761 369.905C408.588 375.439 389.449 394.711 384.63 383.933C381.771 377.538 387.969 370.576 392.801 366.875C395.793 364.584 399.529 362.335 403.606 363.03C407.066 363.619 410.506 366.391 409.761 369.905ZM399.878 359.979C398.526 360.274 387.227 367.595 387.124 367.499C386.143 366.59 393.269 356.788 394.002 355.93C400.044 348.866 404.054 354.215 407.833 359.767C407.029 356.451 404.815 351.637 401.115 350.234C396.444 348.464 392.801 352.834 390.554 355.976C387.378 360.417 385.627 365.239 383.862 370.251C383.02 372.641 382.061 374.808 380.637 376.963C379.23 379.089 376.768 381.434 377.132 384.123C379.132 383.098 380.194 381.09 381.454 379.435C382.86 379.961 382.377 384.096 382.662 385.149C383.379 387.794 385.338 389.864 388.367 390.319C394.013 391.167 400.108 386.347 403.883 383.073C407.861 379.624 412.142 374.895 412.108 369.586C412.071 364.039 406.16 358.607 399.878 359.979Z" fill="black"/>
<path fill-rule="evenodd" clip-rule="evenodd" d="M415.185 271.056C411.982 275.58 406.361 281.003 400.413 282.054C396.048 282.825 393.168 279.84 394.922 275.81C396.403 272.403 401.45 270.252 404.758 268.753C407.383 267.564 419.618 264.796 415.185 271.056ZM412.828 263.657C406.267 263.428 400.974 267.806 396.081 271.3C397.186 267.286 399.685 262.92 403.205 260.308C407.995 256.752 412.536 258.96 417.578 260.737C416.334 257.115 410.75 255.812 407.192 256.324C402.695 256.972 399.46 260.515 397.186 263.943C394.473 268.032 393.545 272.851 390.351 276.686C388.889 278.441 379.835 285.012 381.886 287.696C385.267 284.384 388.649 281.072 392.031 277.759C392.908 281.674 393.874 286.132 399.291 285.751C403.617 285.447 408.551 282.053 411.715 279.46C415.8 276.109 423.84 264.041 412.828 263.657Z" fill="black"/>
<path fill-rule="evenodd" clip-rule="evenodd" d="M320.907 302.284C318.128 303.463 312.009 305.065 310.455 301.522C308.296 296.601 315.242 287.969 318.549 284.689C320.583 282.672 321.963 281.628 324.799 282.934C327.063 283.977 330.39 286.939 331.258 289.217C333.123 294.107 325.255 300.438 320.907 302.284ZM327.285 278.647C329.548 279.118 329.825 281.771 326.995 280.752C324.874 279.989 324.382 278.043 327.285 278.647ZM330.126 282.383C329.281 280.004 331.001 276.272 326.838 276.1C324.479 276.003 320.159 278.216 318.099 279.116C315.244 280.362 312.558 282.264 311.068 284.944C309.687 287.427 310.673 288.082 312.777 286.021C313.035 286.183 308.017 298.123 307.973 299.32C307.778 304.787 311.972 308.388 317.863 307.419C323.277 306.528 328.157 302.442 331.136 298.319C332.643 296.231 333.882 293.842 333.994 291.286C334.168 287.365 331.335 285.788 330.126 282.383Z" fill="black"/>
<path fill-rule="evenodd" clip-rule="evenodd" d="M363.845 271.485C359.106 269.487 353.813 276.319 356.097 280.378C359.094 285.701 373.713 275.646 363.845 271.485ZM358.194 279.122C357.208 277.504 363.903 275.118 364.962 275.079C364.432 275.972 359.546 281.341 358.194 279.122Z" fill="black"/>
<path fill-rule="evenodd" clip-rule="evenodd" d="M41.29 267.576C41.0252 265.847 36.8255 268.358 36.8497 269.471C37.5446 268.189 41.8412 271.179 41.29 267.576Z" fill="black"/>
<path fill-rule="evenodd" clip-rule="evenodd" d="M270.988 136.92C276.335 136.557 269.522 111.665 265.626 113.866C261.401 116.252 266.081 137.252 270.988 136.92Z" fill="#11304D"/>
<path fill-rule="evenodd" clip-rule="evenodd" d="M280.973 125.299C285.982 125.96 285.186 115.346 282.492 113.447C277.518 109.94 274.89 124.495 280.973 125.299Z" fill="#11304D"/>
</svg>
