<svg width="18" height="16" viewBox="0 0 18 16" fill="none" xmlns="http://www.w3.org/2000/svg">
<path d="M6.85205 0.262695C8.16285 0.262671 9.44616 0.589932 10.5497 1.20565C11.6532 1.82137 12.5307 2.6997 13.078 3.73644C13.6253 4.77318 13.8194 5.9248 13.6373 7.05468C13.4552 8.18456 12.9046 9.24526 12.0508 10.1109L18 15.2892L17.2548 15.9379L11.3045 10.7587C10.4653 11.3833 9.46511 11.8222 8.38908 12.0378C7.31306 12.2535 6.19309 12.2397 5.12455 11.9974C4.05601 11.7552 3.07058 11.2917 2.25216 10.6465C1.43374 10.0014 0.806596 9.19357 0.424135 8.29197C0.041673 7.39037 -0.0847734 6.42167 0.0555646 5.46837C0.195903 4.51507 0.598867 3.60541 1.23014 2.81688C1.86141 2.02834 2.70229 1.38428 3.68115 0.939558C4.66001 0.494835 5.74786 0.262621 6.85205 0.262695ZM6.85205 1.18018C5.31447 1.18018 3.83987 1.71182 2.75264 2.65816C1.66541 3.6045 1.05461 4.888 1.05461 6.22633C1.05461 7.56465 1.66541 8.84816 2.75264 9.79449C3.83987 10.7408 5.31447 11.2725 6.85205 11.2725C8.38962 11.2725 9.86423 10.7408 10.9515 9.79449C12.0387 8.84816 12.6495 7.56465 12.6495 6.22633C12.6495 4.888 12.0387 3.6045 10.9515 2.65816C9.86423 1.71182 8.38962 1.18018 6.85205 1.18018Z" fill="#11304D"/>
</svg>
