<svg width="17" height="16" viewBox="0 0 17 16" fill="none" xmlns="http://www.w3.org/2000/svg">
<path d="M8.03538 10.3095C8.58792 10.3095 9.11783 10.09 9.50854 9.69927C9.89925 9.30856 10.1187 8.77865 10.1187 8.22611C10.1187 8.16509 10.116 8.10464 10.1107 8.04493L7.8542 10.3015C7.91391 10.3067 7.97418 10.3095 8.03538 10.3095ZM14.9313 1.7818L14.1367 0.987887C14.1088 0.960001 14.0709 0.944336 14.0315 0.944336C13.992 0.944336 13.9542 0.960001 13.9263 0.987887L11.8928 3.02196C10.771 2.44866 9.50998 2.16201 8.10978 2.16201C4.53457 2.16201 1.86712 4.02403 0.107415 7.74805C0.0366834 7.89782 0 8.0614 0 8.22704C0 8.39267 0.0366834 8.55625 0.107415 8.70602C0.810552 10.1871 1.65723 11.3742 2.64745 12.2673L0.679597 14.2344C0.651711 14.2623 0.636046 14.3001 0.636046 14.3396C0.636046 14.379 0.651711 14.4169 0.679597 14.4448L1.4737 15.2389C1.5016 15.2668 1.53944 15.2824 1.57889 15.2824C1.61834 15.2824 1.65617 15.2668 1.68408 15.2389L14.9313 1.99237C14.9452 1.97855 14.9561 1.96214 14.9636 1.94407C14.9711 1.926 14.975 1.90664 14.975 1.88708C14.975 1.86753 14.9711 1.84816 14.9636 1.8301C14.9561 1.81203 14.9452 1.79562 14.9313 1.7818ZM4.76151 8.22611C4.76146 7.66063 4.90788 7.10478 5.1865 6.61271C5.46512 6.12064 5.86644 5.70913 6.35137 5.41826C6.8363 5.12739 7.3883 4.96709 7.9536 4.95296C8.5189 4.93884 9.07822 5.07138 9.57707 5.33766L8.67266 6.24207C8.30793 6.12528 7.91807 6.11122 7.54586 6.20142C7.17365 6.29162 6.83348 6.4826 6.56268 6.75341C6.29187 7.02421 6.10089 7.36438 6.01069 7.73659C5.92049 8.10879 5.93455 8.49865 6.05134 8.86339L5.14693 9.7678C4.89314 9.29361 4.76072 8.76394 4.76151 8.22611Z" fill="#11304D"/>
<path d="M16.1127 7.74643C15.458 6.36744 14.6786 5.24298 13.7747 4.37305L11.0935 7.05445C11.3195 7.64526 11.3696 8.28888 11.2377 8.90755C11.1059 9.52622 10.7977 10.0935 10.3504 10.5408C9.90307 10.988 9.33583 11.2962 8.71716 11.4281C8.09849 11.56 7.45487 11.5099 6.86406 11.2839L4.58984 13.5581C5.64492 14.0463 6.81843 14.2904 8.11036 14.2904C11.6856 14.2904 14.353 12.4284 16.1127 8.70441C16.1835 8.55464 16.2202 8.39106 16.2202 8.22542C16.2202 8.05978 16.1835 7.8962 16.1127 7.74643Z" fill="#11304D"/>
</svg>
