<svg width="704" height="661" viewBox="0 0 704 661" fill="none" xmlns="http://www.w3.org/2000/svg">
<path fill-rule="evenodd" clip-rule="evenodd" d="M365.07 40.918C361.975 49.1087 358.882 57.3007 355.787 65.4917C353.803 70.7407 351.821 75.9887 349.838 81.2377C349.134 83.0987 348.743 85.0077 347.383 86.2997C344.177 89.3417 338.423 91.2777 334.57 93.4177C331.989 94.8517 329.407 96.2857 326.826 97.7197C325.495 98.4597 322.544 99.3887 321.611 100.617C320.585 101.97 321.07 104.455 321.07 106.326V122.48V152.918C334.403 151.251 347.737 149.585 361.07 147.918C343.306 168.415 325.543 188.911 307.779 209.408C303.401 214.459 298.086 219.321 294.824 225.198C287.882 237.708 281.096 250.308 274.234 262.862C267.846 274.547 261.458 286.233 255.07 297.918L312.539 295.472C327.418 294.839 342.703 295.791 357.039 291.574C368.857 288.098 380.674 284.623 392.492 281.147C394.064 280.684 398.96 280.161 400.074 278.896C401.117 277.711 401.095 273.234 401.39 271.718C406.968 243.048 414.069 211.454 430.349 186.775C442.021 169.084 457.771 153.595 472.195 138.168C477.825 132.147 483.553 126.198 488.983 119.994C490.374 118.405 492.383 116.602 493.303 114.672C493.897 113.425 494.727 111.049 494.358 109.942C494.198 109.462 490.487 107.74 489.955 107.398C486.194 104.981 482.466 102.513 478.73 100.057C468.232 93.1547 457.744 86.2357 447.186 79.4257C438.955 74.1157 430.747 68.4857 422.065 63.9227C413.066 59.1927 403.155 55.8637 393.72 52.1267C384.186 48.3497 374.634 44.616 365.07 40.918Z" fill="#FC8BA9"/>
<path fill-rule="evenodd" clip-rule="evenodd" d="M688.662 478.502C684.084 482.816 675.747 488.606 669.157 485.973C665.847 484.651 663.02 481.748 660.005 479.876C656.463 477.676 653.133 475.475 650.13 472.543C644.139 466.691 639.603 458.142 632.527 453.561C630.149 452.021 625.507 451.691 623.857 449.232C623.118 448.129 623.049 446.456 623.185 445.181C623.481 442.435 624.964 442.597 622.486 440.581H626.335C626.409 439.094 624.925 438.971 623.819 439.163C624.333 436.806 624.857 427.583 620.561 431.763C616.837 435.386 618.7 441.397 616.063 445.321C614.044 448.326 608.686 445.893 607.963 442.587C607.638 441.102 609.274 438.783 609.469 437.327C609.897 434.098 608.455 431.306 606.361 428.861C601.767 431.922 604.371 438.257 601.753 442.279C599.384 445.918 594.108 444.22 590.501 443.58C586.177 442.812 581.288 443.589 577.151 442.568C570.904 441.026 573.237 433.692 572.619 428.958C571.956 423.887 566.831 416.849 568.371 411.733C570.025 406.24 579.694 405.053 584.316 403.72C594.879 400.673 609.946 400.087 617.799 391.557C624.045 398.523 629.069 406.499 635.62 413.205C642.696 420.448 650.254 427.135 657.047 434.67C664.117 442.512 671.415 450.203 678.228 458.272C681.201 461.792 683.811 465.585 686.886 469.021C689.62 472.075 692.502 474.885 688.662 478.502ZM374.699 343.029C377.945 341.303 378.358 342.385 378.357 345.94C377.423 344.233 376.496 343.776 374.699 343.029ZM347.179 412.135V405.869C350.308 405.787 348.384 411.147 347.179 412.135ZM346.414 421.467C346.414 418.692 346.339 416.05 347.139 413.351C347.559 416.292 348.361 418.838 346.414 421.467ZM359.868 612.089C362.742 612.358 367.171 610.378 369.588 612.633C372.071 614.95 371.872 621.694 372.46 624.824C373.432 629.997 374.293 635.187 375.112 640.385C375.649 643.793 376.313 647.254 372.46 648.558C366.766 650.484 358.63 647.735 352.695 647.485C340.971 646.992 329.252 646.306 317.518 646.068C306.145 645.838 294.746 646.02 283.425 647.203C278.311 647.737 273.31 648.681 268.248 649.535C265.58 649.986 258.431 651.871 256.021 649.622C251.487 645.388 259.025 635.503 262.267 632.711C268.284 627.53 276.841 623.794 284.386 621.544C288.418 620.341 295.14 616.964 298.316 620.741C300.753 623.638 300.656 627.505 304.148 629.7C312.239 634.786 307.505 620.197 302.449 618.401C305.844 610.455 312.315 621.674 314.999 624.369C315.954 625.328 319.06 628.49 320.409 626.9C321.419 625.71 319.402 621.446 319.028 620.286C318.46 618.524 317.023 615.844 317.436 613.933C318.184 610.475 323.034 609.533 325.939 609.245C330.444 608.799 334.863 610.227 339.317 610.704C346.147 611.436 353.03 611.447 359.868 612.089ZM314.636 286.378C305.743 287.086 296.794 285.726 287.922 286.839C279.528 287.893 271.618 290.975 263.705 293.806C275.469 266.215 290.689 241.098 309.24 217.569C318.478 205.85 328.414 194.212 338.396 183.121C343.041 177.961 347.845 172.972 352.641 167.957C356.919 163.483 359.984 155.885 365.118 152.544C369.5 149.692 377.158 151.726 382.014 151.903C387.503 152.103 394.183 152.602 399.536 150.775C403.415 149.451 404.482 145.918 399.626 145.801C393.899 145.662 388.266 146.259 382.464 145.722C367.431 144.333 352.94 142.05 337.785 143.345C334.313 143.641 329.743 145.12 326.336 144.676C323.886 144.355 325.497 145.587 323.794 143.621C323.142 142.869 322.356 141.101 322.163 140.102C321.078 134.491 324.159 126.473 324.896 120.824C325.578 115.596 324.974 109.85 326.25 104.759C327.412 100.126 330.954 99.5077 335.316 99.0127C347.249 97.6577 359.427 96.9367 371.414 95.9157C398.77 93.5857 426.995 90.0707 454.165 95.8287C463.976 97.9077 475.939 101.123 484.703 106.271C487.444 107.88 490.209 109.775 489.212 113.109C488.178 116.57 483.108 120.226 480.597 122.506C462.038 139.354 444.113 156.539 431.076 178.157C414.45 205.724 404.909 235.497 399.311 267.086C398.107 273.882 396.989 277.439 389.997 279.395C382.491 281.496 375.246 282.861 367.463 283.5C349.869 284.945 332.221 284.975 314.636 286.378ZM320.595 103.818C319.247 113.853 317.422 123.866 317.242 133.98C317.174 137.8 316.812 139.714 312.75 140.566C307.961 141.57 303.092 142.318 298.281 143.36C275.062 148.392 252.282 154.572 229.566 161.528C207.489 168.29 185.775 175.897 163.202 180.906C153.492 183.061 142.13 184.513 133.286 189.284C123.772 194.418 125.024 202.835 124.17 212.08C123.029 224.432 119.366 236.392 118.078 248.739C117.462 254.639 116.901 260.574 116.994 266.511C117.073 271.572 117.798 277.168 114.396 281.427C107.571 272.303 104.336 260.827 102.991 249.644C102.337 244.208 102.596 238.728 102.409 233.267C102.258 228.87 102.356 221.876 99.492 218.204C93.266 210.224 85.169 242.204 84.399 245.619C83.104 251.367 82.036 257.163 80.746 262.912C80.174 265.46 79.44 274.723 76.026 275.646C68.951 277.56 70.504 257.679 70.392 254.652C70.168 248.542 70.016 242.425 70.159 236.31C70.263 231.896 71.117 227.106 70.61 222.69C69.365 211.847 63.268 223.271 61.554 227.307C57.223 237.496 55.264 248.402 51.38 258.754C50.734 260.476 49.216 266.273 46.811 266.381C44.135 266.5 44.156 260.513 44.003 258.764C43.115 248.625 40.116 238.557 41.021 228.313C41.935 217.969 45.561 207.335 50.692 198.338C61.54 179.316 81.13 168.394 99.894 158.445C121.368 147.061 144.039 138.067 167.194 130.74C195.042 121.928 223.636 114.798 252.402 109.724C267.037 107.143 281.898 105.297 296.683 103.817C301.879 103.297 307.077 102.993 312.206 102.004C314.142 101.63 321.127 99.8527 320.595 103.818ZM335.554 71.3427C328.217 71.4007 320.722 67.8437 313.574 66.3737C305.064 64.6217 296.753 62.0867 288.258 60.2577C271.623 56.6767 254.979 53.1847 238.359 49.5247C231.144 47.9357 223.894 46.5527 216.707 44.846C209.018 43.02 200.711 40.984 192.841 42.951C180.912 45.933 175.873 58.9837 171.493 69.1687C168.399 76.3627 165.975 84.3817 161.15 90.6417C159.432 92.8737 156.99 95.5357 153.875 94.8127C148.088 93.4707 149.007 85.8127 149.744 81.5797C150.812 75.4367 152.325 69.3657 153.536 63.2507C154.024 60.7827 157.806 44.63 151.054 47.1307C146.045 48.9857 143.395 61.2037 141.499 65.5677C140.09 68.8107 138.597 72.0327 137.016 75.1957C134.906 79.4147 128.886 93.5117 122.221 91.6937C112.683 89.0917 121.832 64.0167 123.457 58.7317C124.349 55.8307 134.044 33.83 125.861 35.628C122.376 36.395 118.981 42.868 117.204 45.551C114.053 50.3097 110.912 55.1027 107.946 59.9787C104.895 64.9937 103.337 70.7017 100.311 75.6437C98.719 78.2447 95.47 81.7107 92.298 79.3027C87.353 75.5517 90.284 62.5037 91.15 57.5697C92.761 48.3967 96.763 38.993 102.254 31.494C110.505 20.226 126.074 16.585 139.166 14.396C156.065 11.57 173.199 12.343 190.169 14.015C209.254 15.896 228.048 17.91 246.86 21.756C265.819 25.632 284.788 29.477 303.455 34.603C312.249 37.018 321.169 39.159 329.838 41.994C339.054 45.007 348.048 48.7567 357.521 50.9277C354.189 59.2427 350.856 67.5577 347.524 75.8737C344.335 72.7187 339.982 71.3067 335.554 71.3427ZM498.877 94.2557C501.799 92.6577 505.027 91.9037 506.093 88.3717C507.036 85.2507 505.425 81.7147 504.655 78.7187C502.501 70.3307 501.934 61.6417 503.84 53.1547C505.662 55.9357 512.482 66.6327 516.63 60.1567C519.132 56.2507 512.428 50.6317 510.471 47.8857C514.765 45.236 520.898 38.124 525.846 42.413C529.044 45.186 530.398 47.8557 534.707 49.2037C539.938 50.8407 544.863 50.4657 550.205 50.0137C553.945 49.6977 554.846 49.1987 556.307 52.0787C557.454 54.3427 558.046 57.1447 558.717 59.5757C560.037 64.3687 563.093 73.8127 559.473 78.3027C556.303 82.2357 543.997 78.8637 542.288 83.9407C541.356 86.7097 545.804 86.8087 547.504 88.1787C549.609 89.8747 551.35 92.5737 552.494 94.9847C553.341 96.7677 554.629 99.7137 553.187 101.537C551.195 104.059 547.502 102.146 545.897 100.313C543.765 97.8777 543.073 94.5487 541.294 91.8967C538.029 87.0307 537.834 90.9017 536.945 94.3957C536.022 98.0257 533.838 97.7757 530.493 98.2417C524.624 99.0607 518.693 100.216 512.98 101.789C510.051 102.595 507.214 103.622 504.425 104.822C502.628 105.594 499.513 107.933 497.563 107.955C493.95 107.996 491.445 101.953 489.58 99.4317C492.676 97.7027 495.765 95.9577 498.877 94.2557ZM692.906 464.279C683.882 453.447 676.067 441.679 667.163 430.752C658.382 419.975 648.223 410.552 638.369 400.791C633.718 396.184 629.262 391.13 624.128 387.048C620.298 384.002 617.351 383.955 612.744 385.304C599.653 389.138 586.325 393.753 573.937 399.474C562.402 404.802 551.895 411.643 539.385 414.614C526.616 417.647 513.339 418.621 500.252 417.869C486.828 417.098 474.167 414.305 461.401 410.2C449.311 406.312 436.705 402.917 426.365 395.211C415.525 387.133 407.15 375.514 399.39 364.586C395.461 359.054 391.561 353.244 388.914 346.974C386.617 341.533 385.116 335.111 380.994 330.676C379.983 332.109 378.725 333.338 378.211 335.021C377.977 335.786 379.355 335.762 379.214 336.37C378.947 337.515 377.423 338.683 376.537 339.306C373.354 341.546 373.335 339.763 374.17 343.952C374.656 346.394 373.736 351.903 369.754 350.103C371.22 351.858 368.891 354.073 368.13 355.519C367.607 354.918 366.956 354.709 366.178 354.89C367.634 357.79 366.774 357.867 365.363 360.17C365.105 360.591 364.192 362.794 364.323 362.608C362.881 364.662 361.215 365.179 360.374 367.737C359.683 369.838 359.86 372.148 359.09 374.246C358.159 372.959 357.228 371.672 356.297 370.386C356.487 371.398 356.867 372.896 357.309 373.814C357.587 374.388 358.779 375.728 358.763 376.041C358.698 377.211 357.238 376.93 356.822 377.939C356.041 379.832 357.17 380.111 356.744 381.958C356.256 384.078 354.946 383.23 354.323 385.037C354.205 385.38 355.125 386.73 354.979 387.47C354.774 388.516 353.826 389.101 353.491 390.031C352.639 392.397 352.949 394.129 351.766 396.398C351.308 397.278 350.641 397.864 350.318 398.864C350.035 399.744 350.644 401.617 350.098 402.405C347.46 406.204 347.831 399.66 348.031 398.037C349.71 384.41 355.097 370.346 360.027 357.609C362.477 351.281 364.861 344.755 367.933 338.694C369.169 336.253 370.596 333.734 372.639 331.867C375.223 329.505 378.889 328.56 381.229 325.922C380.86 326.338 383.766 323.588 383.301 324.492C383.717 323.684 382.991 322.59 383.249 321.808C383.57 320.837 384.177 320.633 384.853 319.783C386.068 318.257 387.511 317.497 385.603 315.553C388.435 314.927 389.789 314.008 390.355 310.975C390.768 308.756 389.934 308.901 391.39 307.422C392.851 305.936 393.591 307.096 394.512 304.523C395.613 301.444 396.344 297.257 397.004 294.035C397.58 291.222 396.182 287.085 398.553 285.099C401.556 282.584 404.243 283.649 403.705 278.591C403.18 273.66 404.712 270.673 406.252 266.007C409.325 256.692 410.513 246.857 413.207 237.431C418.958 217.315 429.117 199.178 440.041 181.471C450.135 165.109 464.247 151.169 477.874 137.744C481.605 134.067 485.295 130.337 488.645 126.306C491.531 122.835 492.849 118.109 495.623 114.814C497.308 112.813 500.445 111.957 502.798 110.896C506.722 109.126 511.398 106.817 515.827 107.175C514.067 113.108 513.493 120.041 518.687 124.49C524.988 129.887 530.699 124.28 536.475 121.203C547.003 115.594 562.06 120.743 571.24 112.336C573.427 110.334 574.037 107.135 576.309 105.265C577.977 103.894 580.35 103.546 582.228 102.524C587.933 99.4187 590.702 93.7347 588.481 87.4557C586.45 81.7157 583.296 79.7247 590.318 76.8157C596.018 74.4557 598.185 70.8997 595.605 64.5687C593.145 58.5327 588.638 57.8377 584.374 53.8877C580.244 50.0617 584.989 45.609 588.083 42.737C592.072 39.032 592.835 35.693 588.21 31.84C583.366 27.806 576.45 27.947 570.804 29.942C564.418 32.197 560.211 35.946 557.509 42.021C554.757 48.2057 547.936 46.4797 542.412 44.756C537.129 43.108 535.754 39.552 532.285 35.723C528.427 31.464 520.564 35.106 516.014 37.052C504.806 41.842 493.668 49.4017 493.223 62.7927C492.958 70.7777 496.335 77.5647 498.091 85.0597C499.697 91.9137 488.686 91.3737 486.779 98.0037C466.438 87.2357 443.785 83.9407 421.047 83.2077C396.88 82.4277 372.365 81.8027 348.404 85.6147C353.966 75.9247 356.903 65.2987 361.742 55.3437C363.135 52.4777 363.735 52.7227 366.809 53.5887C372.714 55.2517 378.575 57.1127 384.468 58.8257C405.996 65.0837 427.101 72.6237 447.917 80.8817C449.94 81.6847 454.457 83.9137 456.23 81.4897C458.276 78.6947 453.542 75.2487 451.627 73.8427C443.245 67.6937 432.858 63.9617 423.471 59.6477C402.948 50.2187 380.222 45.743 358.808 38.74C312.579 23.619 264.753 12.135 216.711 4.55001C204.987 2.69901 193.138 2.42801 181.363 1.05401C170.933 -0.162989 160.484 -0.134988 150.055 1.12201C130.793 3.44501 108.462 8.45701 97.583 26.089C87.762 42.009 81.206 59.9077 83.712 78.7917C84.465 84.4637 86.867 91.1807 93.866 89.7187C98.721 88.7047 101.299 84.5797 103.553 80.5537C106.959 74.4717 110.323 68.3897 114.014 62.4707C115.383 71.3457 110.408 80.0727 111.19 89.1137C111.722 95.2487 115.112 104.942 123.077 103.205C133.994 100.825 138.487 83.7697 143.736 75.5877C144.002 81.8897 141.793 88.1007 142.469 94.4167C143.136 100.656 148.011 106.546 154.858 105.691C161.316 104.885 165.513 97.9657 168.256 92.7567C172.073 85.5077 174.815 77.7357 178.543 70.4387C182.037 63.5987 186.176 55.4557 194.518 54.1707C201.963 53.0227 210.495 55.6797 217.849 56.7757C238.248 59.8157 258.236 64.9917 278.412 69.1737C300.045 73.6567 322.189 76.3797 343.155 83.6137C335.783 93.6477 316.491 91.4797 305.509 92.5567C288.913 94.1847 272.104 95.4097 255.602 97.8117C239.304 100.184 223.347 104.395 207.176 107.452C191.09 110.493 175.032 113.539 159.467 118.725C130.568 128.354 101.187 140.54 75.725 157.341C63.878 165.159 53.354 174.094 46.036 186.434C38.671 198.851 35.132 212.892 33.782 227.175C32.942 236.069 34.369 243.766 36.092 252.422C37.34 258.689 37.744 269.182 42.769 273.771C52.36 282.53 60.323 247.002 62.094 242.711C63.369 249.743 61.284 289.359 76.673 286.137C83.541 284.7 85.099 275.273 86.238 269.595C88.316 259.244 90.177 248.685 93.731 238.716C96.012 252.148 96.963 266.142 101.877 278.971C105.141 287.491 114.454 302.609 120.947 288.023C125.817 277.084 124.146 264.529 124.73 252.915C125.377 240.045 129.072 227.631 130.38 214.887C130.887 209.95 130.428 204.386 135.389 201.692C139.648 199.38 145.876 198.627 150.526 197.336C164.299 193.512 178.162 189.997 191.87 185.94C205.584 181.88 219.108 177.137 232.639 172.508C245.58 168.081 258.793 165.564 271.891 161.773C279.338 159.617 286.695 157.362 294.246 155.562C297.76 154.725 301.317 154.073 304.823 153.206C307.422 152.564 310.846 150.141 313.518 150.184C316.268 150.229 317.301 152.557 320.455 152.74C323.85 152.936 327.302 152.187 330.678 151.928C338.903 151.297 347.646 150.277 355.852 151.417C350.92 157.267 344.259 161.311 338.421 166.157C331.688 171.746 325.172 177.781 319.421 184.381C307.849 197.661 296.912 211.698 286.751 226.085C276.728 240.278 268.658 255.809 261.642 271.677C258.146 279.584 254.752 287.664 252.337 295.975C251.345 299.389 250.535 302.816 248.744 305.921C247.101 308.769 244.786 311.224 246.728 314.663C248.065 313.826 249.266 312.786 250.475 311.781C249.078 321.622 246.063 331.142 244.513 340.953C242.985 350.619 243.047 360.56 243.146 370.322C243.354 390.766 244.874 410.747 249.021 430.8C253.215 451.077 258.603 471.2 265.397 490.761C271.937 509.595 278.5 529.346 287.629 547.097C297.379 566.057 308.978 585.991 323.091 602.04C313.872 605.816 302.14 605.11 292.378 606.631C282.174 608.221 273.347 611.222 264.651 616.868C255.853 622.582 251.077 629.938 249.861 640.356C248.997 647.771 246.43 658.037 256.158 659.985C263.155 661.386 270.977 659.085 277.988 658.516C290.252 657.522 302.533 656.901 314.825 656.365C327.084 655.83 339.346 655.359 351.609 654.979C357.377 654.8 363.148 654.71 368.914 654.503C371.498 654.411 373.065 654.371 375.382 655.118C377.214 655.709 377.08 656.936 379.12 655.419C382.41 652.972 381.733 645.257 381.641 641.865C381.501 636.63 381.005 631.335 379.984 626.199C379.378 623.147 372.022 603.474 377.742 602.646C371.097 595.344 368.443 584.917 365.458 575.765C361.718 564.299 358.435 552.865 355.858 541.072C350.353 515.881 347.92 490.415 347.92 464.64C373.438 480.369 400.437 488.889 430.493 489.839C460.375 490.784 493.204 488.33 521.579 478.389C534.719 473.785 546.489 467.739 557.755 459.594C561.793 456.675 566.119 450.063 571.419 450.176C577.744 450.312 584.827 452.706 591.108 453.73C603.12 455.688 618.798 456.793 628.968 464.223C634.492 468.259 638.451 473.908 643.381 478.558C647.131 482.096 652.09 484.017 655.812 487.555C659.828 491.372 658.233 496.359 664.892 496.668C670.584 496.931 676.825 494.641 681.734 491.953C691.528 486.59 701.958 475.143 692.906 464.279Z" fill="#11304D"/>
<path fill-rule="evenodd" clip-rule="evenodd" d="M598.769 209.191C613.102 219.372 629.542 226.327 644.52 235.496C648.269 237.791 659.949 242.556 659.836 246.813C659.77 249.302 656.26 252.423 654.723 254.148C652.09 257.103 649.613 260.089 647.183 263.215C636.061 277.53 625.587 291.98 613.533 305.576C611.718 307.621 606.251 317.386 604.486 312.536C603.686 310.337 604.345 307.866 602.26 305.816C601.187 304.76 597.04 304.178 598.248 301.913C599.053 302.275 599.859 302.638 600.665 302.999C600.039 301.189 600.085 299.206 599.147 297.495C598.564 296.432 597.425 295.929 597.03 294.732C596.484 293.078 597.41 291.156 597.255 289.451C597.102 287.751 596.221 286.144 595.695 284.54C592.576 275.032 591.457 265.447 589.86 255.637C588.28 245.93 585.819 236.527 584.853 226.712C583.832 216.345 582.581 205.999 580.912 195.715C583.891 196.133 586.181 199.37 588.288 201.2C591.6 204.076 595.196 206.653 598.769 209.191ZM587.533 309.558C586.849 309.021 586.314 308.361 585.928 307.579C592.953 304.099 588.714 310.036 587.533 309.558ZM583.261 302.136C580.199 302.98 577.999 303.151 575.638 301.891C575.414 301.772 575.672 300.851 575.268 300.662C574.915 300.498 574.376 300.701 574.074 300.547C573.046 300.024 571.246 301.17 571.071 299.168C574.979 297.972 578.822 295.765 582.948 295.393C588.682 294.877 588.417 300.714 583.261 302.136ZM569.845 290.596C565.667 291.573 562.225 293.855 557.786 293.259C553.619 292.701 549.998 290.54 546.711 288.05C554.934 285.722 563.557 285.302 571.773 283.05C574.448 282.317 577.963 280.384 580.846 281.163C584.049 282.029 584.251 285.029 585.211 287.759C580.085 288.681 574.92 289.41 569.845 290.596ZM543.714 279.012C539.7 279.971 535.597 282.068 532.241 278.449C531.699 277.865 531.225 278.448 531.289 276.649C531.356 274.752 533.078 273.53 534.559 272.862C538.041 271.292 542.922 272.307 546.62 272.076C552.519 271.709 558.523 270.483 564.358 269.539C568.398 268.886 572.571 267.436 576.7 267.722C579.888 267.943 583.734 270.66 579.088 272.642C574.857 274.448 568.513 274.171 563.929 274.953C557.153 276.109 550.401 277.414 543.714 279.012ZM539.793 260.128C540.053 260.393 540.313 260.658 540.573 260.923C540.53 260.913 542.112 259.632 542.531 259.595C544.566 259.418 546.613 259.558 548.651 259.443C553.347 259.178 558.08 258.36 562.692 257.459C566.449 256.725 570.276 255.46 574.143 255.777C577.491 256.051 577.843 256.737 578.062 259.968C569.516 259.968 560.713 259.788 552.314 261.597C546.846 262.774 540.82 266.28 538.081 259.96C538.652 260.016 539.222 260.072 539.793 260.128ZM545.136 246.449C547.255 248.063 553.032 245.379 555.572 245.111C558.33 244.819 560.925 244.516 563.598 243.829C565.968 243.219 573.809 240.173 575.627 243.086C578.414 247.549 567.129 248.368 565.34 248.589C557.837 249.516 550.052 250.338 542.751 252.306C543.546 250.354 544.341 248.402 545.136 246.449ZM555.428 231.29C555.976 233.353 572.944 225.751 573.253 231.276C573.491 235.515 556.465 237.627 553.404 237.255C554.121 235.303 556.028 233.555 555.428 231.29ZM561.125 218.323C561.486 214.162 562.044 214.186 565.381 213.794C567.926 213.495 571.424 212.003 570.762 216.539C570.195 220.423 560.762 222.522 561.125 218.323ZM567.19 204.006C567.993 201.772 569.8 204.779 569.838 205.915C569.939 208.938 567.647 208.284 565.441 208.284C566.055 206.872 566.639 205.444 567.19 204.006ZM595.117 187.237C594.667 186.695 592.141 186.488 591.422 186.225C589.654 185.577 589.905 184.196 587.643 185.558C587.53 185.444 587.745 184.42 587.622 184.373C587.56 184.349 585.975 183.751 585.46 183.421C584.217 182.625 583.097 181.846 581.955 180.847C580.741 179.786 579.525 178.246 578.138 177.401C577.553 177.045 577.075 176.54 576.37 176.431C574.541 176.149 575.065 177.423 573.466 177.676C572.481 177.832 571.764 176.682 570.476 177.178C569.363 177.606 568.717 179.167 568.221 180.096C566.418 183.477 565.027 187.116 563.262 190.533C554.236 208.006 543.977 224.816 535.234 242.452C531.023 250.948 526.629 259.503 523.665 268.532C521.528 275.044 516.702 284.557 520.854 291.064C523.873 295.795 529.918 297.838 534.741 300.124C541.998 303.564 548.688 308.06 556.025 311.395C564.774 315.372 573.27 319.532 581.798 323.973C585.435 325.867 588.717 328.595 592.342 330.389C594.559 331.486 597.983 329.614 598.705 332.129C601.484 328.763 605.982 331.007 609.197 328.637C611.088 327.243 612.47 324.497 614.047 322.78C616.413 320.206 618.981 317.818 621.395 315.289C630.976 305.244 639.823 294.782 648.54 283.993C656.866 273.69 666.593 263.956 673.626 252.678C676.419 248.201 676.925 243.506 675.082 238.56C673.736 234.952 670.494 229.504 665.863 231.893C667.619 228.977 660.845 225.863 658.79 225.293C658.759 225.285 658.354 227.525 657.781 227.469C657.985 227.489 656.059 222.506 655.213 221.867C652.701 219.966 649.645 217.748 646.904 216.183C644.39 214.748 641.737 214.037 639.302 212.431C636.35 210.485 633.64 208.177 630.677 206.244C627.816 204.378 624.627 202.172 621.465 200.889C618.723 199.776 616.261 199.558 613.794 197.734C610.742 195.477 608.08 193.946 604.56 192.391C601.515 191.046 597.295 189.871 595.117 187.237Z" fill="#11304D"/>
<path fill-rule="evenodd" clip-rule="evenodd" d="M179.461 457.48C180.021 456.165 180.579 454.85 181.139 453.536C181.831 455.828 182.025 456.968 179.461 457.48ZM180.206 463.554C178.993 463.771 179.471 459.966 179.471 459.303C181.566 460.489 179.831 461.911 180.206 463.554ZM178.315 452.577C179.349 451.966 180.383 451.356 181.417 450.745C179.977 453.413 180.542 451.746 181.136 453.528C180.05 453.84 178.994 453.476 178.315 452.577ZM172.187 473.429C168.311 487.492 156 498.583 142.997 504.328C135.525 507.628 128.179 508.454 120.11 508.086C116.998 507.944 113.336 506.933 110.341 507.121C108.035 507.266 108.139 507.366 106.229 509.318C105.384 507.762 105.996 506.67 104.301 505.764C102.186 504.634 101.308 505.95 100.259 507.515C98.8862 506.092 98.3242 505.349 96.5452 504.504C96.6012 504.531 94.8422 504.464 94.9142 504.486C94.5962 504.388 92.6832 503.158 92.0842 502.934C89.6262 502.012 86.7842 501.633 84.5162 500.31C82.5322 499.155 80.8982 495.912 78.6282 498.404C78.6262 494.24 73.0172 492.513 70.3882 490.332C66.2802 486.924 63.0142 481.878 60.9662 476.997C58.7822 471.792 58.0532 466.802 57.0312 461.438C56.3172 457.69 51.6412 452.272 54.4492 448.49C55.1182 450.076 54.8042 451.7 55.9152 453.138C56.9152 451.211 57.4652 449.055 57.9172 446.946C58.1392 445.913 59.4252 442.881 59.2792 441.981C58.9822 440.139 56.7022 440.039 57.9662 437.781C60.5882 440.634 62.7042 435.624 60.7232 433.627C59.7452 434.73 59.3862 435.983 58.9352 437.349C56.3572 432.145 63.4922 433.821 61.9312 429.123C64.5352 428.622 66.0322 427.966 67.0222 425.393C68.1232 422.53 67.3132 421.906 69.8132 420.014C70.6732 419.364 73.1052 418.429 73.5502 417.359C74.4112 415.292 72.2202 414.679 74.1392 412.742C74.7872 413.879 77.3132 416.13 78.6962 413.988C78.9732 413.561 77.8102 413.258 78.6562 412.274C79.9092 410.818 81.3112 409.39 83.4302 409.696C81.7522 405.501 92.4742 405.169 95.2202 404.179C97.9722 403.188 100.307 402.537 103.225 402.307C106.14 402.077 106.285 401.223 108.753 399.468C108.962 401.979 109.566 401.427 111.351 401.87C111.78 401.134 112.22 401.051 112.67 401.622C113.118 402.048 113.666 402.248 114.312 402.224C115.292 402.275 116.404 402.147 117.431 402.168C119.842 402.215 122.329 402.014 124.694 402.065C125.304 401.963 125.874 401.751 126.408 401.428C126.631 401.848 126.855 402.269 127.077 402.69C128.33 402.847 128.427 404.417 129.968 402.7C130.424 404.883 131.734 403.747 133.118 404.339C134.38 404.88 134.581 405.744 135.746 406.347C136.512 406.968 137.333 407.05 138.211 406.595C139.046 407.214 139.894 407.815 140.754 408.398C142.339 409.293 144.207 409.841 145.877 410.548C146.988 411.006 148.092 411.483 149.187 411.977C149.22 413.299 149.813 413.766 150.965 413.377C152.006 414.248 152.299 414.214 153.309 415.697C155.597 419.058 157.627 421.669 160.517 424.673C173.078 437.733 176.937 456.197 172.187 473.429ZM176.042 417.895C170.371 410.301 162.344 401.605 155.131 396.809C151.475 394.377 146.343 390.012 141.872 388.726C140.812 388.421 139.715 388.401 138.673 388.081C137.868 387.834 137.43 387.008 136.512 386.859C135.87 386.755 135.799 388.192 135.117 388.06C133.691 387.782 132.787 386.367 131.78 385.482C129.617 389.209 128.443 382.941 125.267 387.155C121.487 381.228 112.607 382.524 106.571 382.823C104.781 382.911 103.94 383.548 102.353 384.02C100.876 384.459 100.73 384.346 99.1172 384.334C95.1002 384.303 91.5342 384.808 87.8212 386.572C81.5832 389.535 75.8572 394.152 69.9322 397.723C63.3102 401.714 57.3412 406.794 52.2752 412.631C33.9612 433.737 29.0642 464.544 43.6672 489.012C66.8622 527.873 126.693 532.026 160.596 505.658C186.789 485.285 196.757 445.629 176.042 417.895Z" fill="#11304D"/>
<path fill-rule="evenodd" clip-rule="evenodd" d="M463.131 308.538C462.48 310.091 456.401 309.568 456.268 307.737C456.07 305.001 464.262 305.839 463.131 308.538ZM469.588 307.522C473.033 307.802 478.693 310.142 482.013 308.728C487.08 306.57 481.759 303.258 479.041 302.268C476.275 301.261 472.155 301.796 470.733 298.904C469.663 296.729 472.307 290.657 469.027 291.633C465.585 292.657 466.586 301.355 461.185 298.423C458.609 297.024 459.66 288.502 455.345 292.856C454.164 294.047 454.061 296.234 452.497 297.122C450.901 298.029 448.899 297.084 447.214 297.163C442.753 297.372 441.332 301.545 445.852 303.2C447.525 303.813 453.831 304.561 450.011 307.295C447.604 309.017 442.257 305.403 440.19 308.401C437.349 312.519 444.959 312.612 447.003 313.844C450.467 315.93 447.606 320.803 447.882 324.273C448.305 329.575 451.385 328.467 452.504 323.98C453.453 320.173 452.277 314.693 458.016 316.206C467.362 318.67 452.819 330.535 459.665 333.571C464.03 335.507 464.648 325.042 464.987 323.24C466.242 316.589 469.978 318.141 475.638 318.345C482.25 318.583 483.846 313.692 476.844 312.291C474.61 311.844 471.537 312.409 469.597 310.986C468.449 310.145 466.871 307.302 469.588 307.522Z" fill="#11304D"/>
<path fill-rule="evenodd" clip-rule="evenodd" d="M225.462 524.816C220.111 522.9 211.159 523.314 209.835 530.225C209.281 533.118 210.36 536.178 212.358 538.28C214.675 540.717 218.365 540.943 218.168 536.699C218.031 533.762 215.236 531.211 220.15 530.619C223.208 530.251 227.731 532.538 227.883 535.916C228.227 543.53 215.047 544.127 210.19 542.81C200.55 540.198 203.169 530.101 209.789 525.493C211.499 524.302 216.406 522.468 216.63 519.995C216.928 516.715 212.872 517.385 210.884 517.817C196.271 520.998 193.086 545.478 208.355 550.093C215.289 552.188 225.054 550.025 229.233 543.745C233.151 537.857 233.204 527.588 225.462 524.816Z" fill="#11304D"/>
<path fill-rule="evenodd" clip-rule="evenodd" d="M31.7091 351.52C27.1411 353.719 22.5731 355.918 18.0061 358.117C16.4961 354.886 13.9451 346.059 10.1151 344.932C3.91507 343.107 7.86306 352.729 8.93306 354.929C9.81206 356.736 11.8511 359.536 11.3561 361.69C10.6921 364.592 6.59806 365.62 4.45506 367.117C-0.847937 370.823 -0.805946 378.606 6.87405 375.308C11.2201 373.441 16.6011 368.264 19.9321 374.142C21.4701 376.854 25.1141 392.006 28.9201 382.097C31.2751 375.962 19.9401 369.588 25.5281 364.398C27.3271 362.728 29.4331 362.587 31.2301 361.627C35.5701 359.308 33.1231 355.023 31.7091 351.52Z" fill="#11304D"/>
<path fill-rule="evenodd" clip-rule="evenodd" d="M701.395 131.98C698.672 130.984 695.303 129.039 692.276 129.702C689.059 130.406 687.764 133.628 685.425 135.565C679.066 140.832 675.362 132.982 671.868 128.68C668.568 124.618 664.542 123.632 659.886 126.128C658.031 127.123 650.216 131.682 651.579 134.603C652.559 136.705 656.42 134.818 657.737 134.359C660.596 133.364 663.251 132.493 666.175 133.944C671.66 136.664 673.083 144.123 679.719 145.286C686.581 146.489 686.806 139.959 691.703 137.501C694.986 135.854 697.273 138.77 700.44 138.189C703.458 137.636 704.854 133.244 701.395 131.98Z" fill="#11304D"/>
<path fill-rule="evenodd" clip-rule="evenodd" d="M645.995 158.297C648.422 158.824 650.006 154.117 651.525 152.923C654.045 150.944 658.414 150.545 660.98 152.537C665.991 156.425 664.264 164.819 671.399 167.007C677.776 168.963 680.78 160.564 686.148 158.473C689.269 157.257 692.695 156.461 691.477 152.098C690.636 149.081 688.158 148.306 685.464 149.465C680.834 151.455 679.262 159.562 673.773 159.707C668.094 159.857 667.478 151.67 665.04 148.104C661.323 142.669 653.682 141.356 649.34 146.553C648.029 148.121 641.373 157.296 645.995 158.297Z" fill="#11304D"/>
<path fill-rule="evenodd" clip-rule="evenodd" d="M533.739 65.4866C537.115 67.7966 543.843 67.7166 546.953 64.8516C550.118 61.9366 545.893 61.4886 543.315 61.5776C541.332 61.6466 537.62 62.6296 538.75 59.2046C539.753 56.1656 545.266 57.7126 545.726 54.3766C541.577 53.6326 537.007 53.9006 533.938 57.1616C531.719 59.5186 530.579 63.3236 533.739 65.4866Z" fill="#11304D"/>
</svg>
