<svg width="1267" height="3357" viewBox="0 0 1267 3357" fill="none" xmlns="http://www.w3.org/2000/svg">
<path d="M30 8H1237V-8H30V8ZM1259 30V3327H1275V30H1259ZM1237 3349H30V3365H1237V3349ZM8 3327V29.9999H-8V3327H8ZM30 3349C17.8498 3349 8 3339.15 8 3327H-8C-8 3347.99 9.01322 3365 30 3365V3349ZM1259 3327C1259 3339.15 1249.15 3349 1237 3349V3365C1257.99 3365 1275 3347.99 1275 3327H1259ZM1237 8C1249.15 8 1259 17.8497 1259 30H1275C1275 9.01317 1257.99 -8 1237 -8V8ZM30 -8C9.01321 -8 -8 9.01306 -8 29.9999H8C8 17.8497 17.8497 8 30 8V-8Z" fill="#11304D"/>
</svg>
